<?xml version="1.0" standalone="no"?>
<!DOCTYPE svg PUBLIC "-//W3C//DTD SVG 1.1//EN" "http://www.w3.org/Graphics/SVG/1.1/DTD/svg11.dtd" >
<svg xmlns="http://www.w3.org/2000/svg" xmlns:xlink="http://www.w3.org/1999/xlink" version="1.1">
<metadata>
Created by FontForge 20190801 at Tue May 19 16:32:33 2020
 By root
https://plan.diia.gov.ua
</metadata>
<defs>
<font id="e-Ukraine-Light" horiz-adv-x="360" >
  <font-face 
    font-family="e-Ukraine Light"
    font-weight="300"
    font-stretch="normal"
    units-per-em="512"
    panose-1="0 0 4 0 0 0 0 0 0 0"
    ascent="409"
    descent="-103"
    x-height="300"
    cap-height="380"
    bbox="-342 -154 740 500"
    underline-thickness="32"
    underline-position="-64"
    stemh="48"
    stemv="52"
    unicode-range="U+000D-2646"
  />
<missing-glyph horiz-adv-x="558" 
d="M279 -146l173 76c31 14 49 45 49 76v472h-444v-472c0 -31 18 -62 49 -76zM279 -112c-4 8 -10 14 -17 19c-29 22 -50 55 -57 93h-93v402c50 -25 86 -80 90 -137l14 -113l-7 1c-15 0 -28 -14 -28 -28c0 -13 10 -24 23 -27l17 -4c28 53 44 105 44 156c0 46 -6 92 -7 139
c0 21 8 40 21 55c13 -15 21 -34 21 -55c0 -47 -7 -93 -7 -139c0 -51 16 -103 44 -156l17 4c13 3 23 14 23 27c0 14 -13 28 -28 28l-7 -1l14 113c7 57 40 112 90 137v-402h-93c-7 -38 -27 -72 -57 -93c-7 -5 -13 -11 -17 -19zM140 139h16c4 15 15 28 29 36l-11 93
c-4 29 -16 55 -34 76v-205zM402 139h16v205c-18 -21 -31 -47 -34 -76l-11 -93c14 -8 25 -21 29 -36zM279 67c8 9 18 17 30 20c-12 22 -23 45 -30 69c-7 -24 -18 -47 -30 -69c12 -3 22 -11 30 -20zM140 28h63c0 14 2 27 5 40l-13 3c-19 6 -34 21 -39 40h-16v-83zM355 28h63
v83h-16c-5 -19 -20 -34 -39 -40l-13 -3c3 -13 5 -26 5 -40zM230 28h35c0 17 -13 32 -30 34c-3 -11 -5 -22 -5 -34zM293 28h35c0 12 -2 23 -5 34c-17 -2 -30 -17 -30 -34zM265 -59v59h-31c5 -22 16 -42 31 -59zM293 -59c15 17 26 37 31 59h-31v-59z" />
    <glyph glyph-name="I_I.liga" unicode="II" horiz-adv-x="344" 
d="M60 0v380h52v-380h-52zM232 0v380h52v-380h-52z" />
    <glyph glyph-name="dotlessi_dotlessi.liga" unicode="&#x131;&#x131;" horiz-adv-x="320" 
d="M55 0v300h50v-300h-50zM215 0v300h50v-300h-50z" />
    <glyph glyph-name="uni04070407.liga" unicode="&#x407;&#x407;" horiz-adv-x="344" 
d="M10 424v56h56v-56h-56zM99 424v56h56v-56h-56zM189 424v56h56v-56h-56zM278 424v56h56v-56h-56zM60 0v380h52v-380h-52zM232 0v380h52v-380h-52z" />
    <glyph glyph-name="uni04570457.liga" unicode="&#x457;&#x457;" horiz-adv-x="320" 
d="M-2 344v56h56v-56h-56zM87 344v56h56v-56h-56zM177 344v56h56v-56h-56zM266 344v56h56v-56h-56zM55 0v300h50v-300h-50zM215 0v300h50v-300h-50z" />
    <glyph glyph-name="uni2019_uni0457.liga" unicode="&#x2019;&#x457;" horiz-adv-x="298" 
d="M20 274v34h10c18 0 25 10 25 30v6h-35v56h70v-56c0 -48 -24 -70 -60 -70h-10zM142 344v56h56v-56h-56zM238 344v56h56v-56h-56zM193 0v300h50v-300h-50z" />
    <glyph glyph-name="uni20B4" unicode="&#x3c;&#x433;&#x440;&#x43d;&#x3e;" 
d="M330 212h-96l-53 -44h149v-36h-187c-15 -12 -23 -27 -23 -44c0 -31 23 -48 67 -48c35 0 63 16 88 50l38 -26c-33 -46 -80 -69 -128 -69c-69 0 -115 34 -115 85c0 19 7 37 20 52h-60v36h90l53 44h-143v36h183c17 17 24 30 24 46c0 28 -25 47 -61 47c-32 0 -60 -19 -79 -51
l-40 27c26 43 68 68 118 68c68 0 112 -35 112 -86c0 -18 -6 -37 -17 -51h60v-36z" />
    <glyph glyph-name="arrowup" unicode="&#x2d;^" horiz-adv-x="400" 
d="M356 244l-32 -32l-101 101v-313h-46v313l-101 -101l-32 32l156 156z" />
    <glyph glyph-name="uni2197" unicode="&#x2f;&#x3e;" horiz-adv-x="400" 
d="M114 320h220v-220h-45v143l-221 -222l-33 33l222 221h-143v45z" />
    <glyph glyph-name="arrowright" unicode="&#x2d;&#x3e;" horiz-adv-x="400" 
d="M244 346l156 -156l-156 -156l-32 32l101 101h-313v46h313l-101 101z" />
    <glyph glyph-name="uni2198" unicode="\&#x3e;" horiz-adv-x="400" 
d="M289 263h45v-220h-220v45h143l-222 221l33 33l221 -222v143z" />
    <glyph glyph-name="arrowdown" unicode="^&#x2d;" horiz-adv-x="400" 
d="M324 168l32 -32l-156 -156l-156 156l32 32l101 -101v313h46v-313z" />
    <glyph glyph-name="uni2199" unicode="&#x3c;&#x2f;" horiz-adv-x="400" 
d="M365 309l-222 -221h143v-45h-220v220h45v-143l221 222z" />
    <glyph glyph-name="arrowleft" unicode="&#x3c;&#x2d;" horiz-adv-x="400" 
d="M400 213v-46h-313l101 -101l-32 -32l-156 156l156 156l32 -32l-101 -101h313z" />
    <glyph glyph-name="uni2196" unicode="&#x3c;\" horiz-adv-x="400" 
d="M365 54l-33 -33l-221 222v-143h-45v220h220v-45h-143z" />
    <glyph glyph-name="uni2646" unicode="[&#x7c;_&#x7c;_&#x7c;]" horiz-adv-x="558" 
d="M279 -154l-176 78c-32 14 -53 47 -53 82v479h458v-479c0 -35 -21 -68 -53 -82zM279 -146l173 76c31 14 49 45 49 76v472h-444v-472c0 -31 18 -62 49 -76zM279 -112c-4 8 -10 14 -17 19c-29 22 -50 55 -57 93h-93v402c50 -25 86 -80 90 -137l14 -113l-7 1
c-15 0 -28 -14 -28 -28c0 -13 10 -24 23 -27l17 -4c28 53 44 105 44 156c0 46 -6 92 -7 139c0 21 8 40 21 55c13 -15 21 -34 21 -55c0 -47 -7 -93 -7 -139c0 -51 16 -103 44 -156l17 4c13 3 23 14 23 27c0 14 -13 28 -28 28l-7 -1l14 113c7 57 40 112 90 137v-402h-93
c-7 -38 -27 -72 -57 -93c-7 -5 -13 -11 -17 -19zM140 139h16c4 15 15 28 29 36l-11 93c-4 29 -16 55 -34 76v-205zM402 139h16v205c-18 -21 -31 -47 -34 -76l-11 -93c14 -8 25 -21 29 -36zM279 67c8 9 18 17 30 20c-12 22 -23 45 -30 69c-7 -24 -18 -47 -30 -69
c12 -3 22 -11 30 -20zM140 28h63c0 14 2 27 5 40l-13 3c-19 6 -34 21 -39 40h-16v-83zM355 28h63v83h-16c-5 -19 -20 -34 -39 -40l-13 -3c3 -13 5 -26 5 -40zM230 28h35c0 17 -13 32 -30 34c-3 -11 -5 -22 -5 -34zM293 28h35c0 12 -2 23 -5 34c-17 -2 -30 -17 -30 -34z
M265 -59v59h-31c5 -22 16 -42 31 -59zM293 -59c15 17 26 37 31 59h-31v-59z" />
    <glyph glyph-name="ampersand.ss08" unicode="&#x3c;&#x442;&#x430;&#x3e;" horiz-adv-x="345" 
d="M314 44h11v-44c-2 -1 -12 -2 -17 -2c-37 0 -52 12 -55 48c-25 -32 -69 -51 -125 -51c-60 0 -103 30 -103 78c0 62 60 79 119 87v75c-33 -3 -64 -19 -86 -41l-29 31c29 29 69 47 115 52v60h-114v43h269v-43h-113v-59c68 -4 108 -38 108 -90v-124c0 -14 6 -20 20 -20z
M248 196c0 23 -23 38 -62 40v-70c35 5 62 9 62 30zM186 45c36 12 65 37 65 75v28c-16 -12 -40 -18 -65 -22v-81zM72 75c0 -27 25 -40 57 -40c5 0 10 0 15 1v85c-39 -6 -72 -14 -72 -46z" />
    <glyph glyph-name="trident.ss01" unicode="&#x3c;&#x442;&#x440;&#x438;&#x437;&#x443;&#x431;&#x3e;" horiz-adv-x="558" 
d="M279 -112c-4 8 -10 14 -17 19c-29 22 -50 55 -57 93h-93v402c50 -25 86 -80 90 -137l14 -113l-7 1c-15 0 -28 -14 -28 -28c0 -13 10 -24 23 -27l17 -4c28 53 44 105 44 156c0 46 -6 92 -7 139c0 21 8 40 21 55c13 -15 21 -34 21 -55c0 -47 -7 -93 -7 -139
c0 -51 16 -103 44 -156l17 4c13 3 23 14 23 27c0 14 -13 28 -28 28l-7 -1l14 113c7 57 40 112 90 137v-402h-93c-7 -38 -27 -72 -57 -93c-7 -5 -13 -11 -17 -19zM140 139h16c4 15 15 28 29 36l-11 93c-4 29 -16 55 -34 76v-205zM402 139h16v205c-18 -21 -31 -47 -34 -76
l-11 -93c14 -8 25 -21 29 -36zM279 67c8 9 18 17 30 20c-12 22 -23 45 -30 69c-7 -24 -18 -47 -30 -69c12 -3 22 -11 30 -20zM140 28h63c0 14 2 27 5 40l-13 3c-19 6 -34 21 -39 40h-16v-83zM355 28h63v83h-16c-5 -19 -20 -34 -39 -40l-13 -3c3 -13 5 -26 5 -40zM230 28h35
c0 17 -13 32 -30 34c-3 -11 -5 -22 -5 -34zM293 28h35c0 12 -2 23 -5 34c-17 -2 -30 -17 -30 -34zM265 -59v59h-31c5 -22 16 -42 31 -59zM293 -59c15 17 26 37 31 59h-31v-59z" />
    <glyph glyph-name=".notdef" horiz-adv-x="558" 
d="M279 -146l173 76c31 14 49 45 49 76v472h-444v-472c0 -31 18 -62 49 -76zM279 -112c-4 8 -10 14 -17 19c-29 22 -50 55 -57 93h-93v402c50 -25 86 -80 90 -137l14 -113l-7 1c-15 0 -28 -14 -28 -28c0 -13 10 -24 23 -27l17 -4c28 53 44 105 44 156c0 46 -6 92 -7 139
c0 21 8 40 21 55c13 -15 21 -34 21 -55c0 -47 -7 -93 -7 -139c0 -51 16 -103 44 -156l17 4c13 3 23 14 23 27c0 14 -13 28 -28 28l-7 -1l14 113c7 57 40 112 90 137v-402h-93c-7 -38 -27 -72 -57 -93c-7 -5 -13 -11 -17 -19zM140 139h16c4 15 15 28 29 36l-11 93
c-4 29 -16 55 -34 76v-205zM402 139h16v205c-18 -21 -31 -47 -34 -76l-11 -93c14 -8 25 -21 29 -36zM279 67c8 9 18 17 30 20c-12 22 -23 45 -30 69c-7 -24 -18 -47 -30 -69c12 -3 22 -11 30 -20zM140 28h63c0 14 2 27 5 40l-13 3c-19 6 -34 21 -39 40h-16v-83zM355 28h63
v83h-16c-5 -19 -20 -34 -39 -40l-13 -3c3 -13 5 -26 5 -40zM230 28h35c0 17 -13 32 -30 34c-3 -11 -5 -22 -5 -34zM293 28h35c0 12 -2 23 -5 34c-17 -2 -30 -17 -30 -34zM265 -59v59h-31c5 -22 16 -42 31 -59zM293 -59c15 17 26 37 31 59h-31v-59z" />
    <glyph glyph-name="CR" unicode="&#xd;" horiz-adv-x="160" 
 />
    <glyph glyph-name="space" unicode=" " horiz-adv-x="160" 
 />
    <glyph glyph-name="A" unicode="A" horiz-adv-x="390" 
d="M327 0l-38 95h-189l-38 -95h-54l156 380h62l156 -380h-55zM118 141h152l-76 190z" />
    <glyph glyph-name="Aacute" unicode="&#xc1;" horiz-adv-x="390" 
d="M274 480l-57 -70h-37l29 70h65zM327 0l-38 95h-189l-38 -95h-54l156 380h62l156 -380h-55zM118 141h152l-76 190z" />
    <glyph glyph-name="Abreve" unicode="&#x102;" horiz-adv-x="390" 
d="M195 410c-46 0 -78 27 -83 70l41 3c3 -23 17 -35 42 -35s39 12 42 35l41 -3c-5 -43 -37 -70 -83 -70zM327 0l-38 95h-189l-38 -95h-54l156 380h62l156 -380h-55zM118 141h152l-76 190z" />
    <glyph glyph-name="Acircumflex" unicode="&#xc2;" horiz-adv-x="390" 
d="M196 448l-37 -38h-47l57 70h54l57 -70h-47zM327 0l-38 95h-189l-38 -95h-54l156 380h62l156 -380h-55zM118 141h152l-76 190z" />
    <glyph glyph-name="Adieresis" unicode="&#xc4;" horiz-adv-x="390" 
d="M175 480v-56h-56v56h56zM271 480v-56h-56v56h56zM327 0l-38 95h-189l-38 -95h-54l156 380h62l156 -380h-55zM118 141h152l-76 190z" />
    <glyph glyph-name="Agrave" unicode="&#xc0;" horiz-adv-x="390" 
d="M210 410h-37l-57 70h65zM327 0l-38 95h-189l-38 -95h-54l156 380h62l156 -380h-55zM118 141h152l-76 190z" />
    <glyph glyph-name="Amacron" unicode="&#x100;" horiz-adv-x="390" 
d="M275 480v-40h-160v40h160zM327 0l-38 95h-189l-38 -95h-54l156 380h62l156 -380h-55zM118 141h152l-76 190z" />
    <glyph glyph-name="Aogonek" unicode="&#x104;" horiz-adv-x="390" 
d="M370 -55l17 -31c-14 -9 -30 -14 -47 -14c-34 0 -56 21 -56 50c0 21 16 43 42 53l-37 92h-189l-38 -95h-54l156 380h62l156 -380c-44 -13 -59 -29 -59 -45c0 -12 8 -19 21 -19c9 0 18 3 26 9zM118 141h152l-76 190z" />
    <glyph glyph-name="Aring" unicode="&#xc5;" horiz-adv-x="390" 
d="M327 0l-38 95h-189l-38 -95h-54l154 375c-18 10 -30 29 -30 53c0 36 27 62 63 62s63 -26 63 -62c0 -24 -12 -43 -30 -53l154 -375h-55zM195 457c-17 0 -29 -12 -29 -29s12 -29 29 -29s29 12 29 29s-12 29 -29 29zM118 141h152l-76 190z" />
    <glyph glyph-name="Atilde" unicode="&#xc3;" horiz-adv-x="390" 
d="M165 445c-10 0 -19 -7 -26 -24l-32 18c12 30 32 45 56 45c29 0 46 -25 64 -25c10 0 19 7 26 24l32 -18c-12 -30 -32 -45 -56 -45c-29 0 -46 25 -64 25zM327 0l-38 95h-189l-38 -95h-54l156 380h62l156 -380h-55zM118 141h152l-76 190z" />
    <glyph glyph-name="AE" unicode="&#xc6;" horiz-adv-x="486" 
d="M333 47h133v-47h-169l-35 95h-167l-35 -95h-52l143 380h310v-47h-235l43 -115h153v-46h-136zM112 141h133l-67 180z" />
    <glyph glyph-name="B" unicode="B" horiz-adv-x="380" 
d="M295 195c35 -17 55 -49 55 -91c0 -63 -46 -104 -118 -104h-172v380h167c70 0 115 -40 115 -101c0 -38 -17 -67 -47 -84zM219 334h-109v-116h109c48 0 72 19 72 58s-24 58 -72 58zM220 46c52 0 78 21 78 63s-26 63 -78 63h-110v-126h110z" />
    <glyph glyph-name="C" unicode="C" horiz-adv-x="385" 
d="M208 -5c-108 0 -178 77 -178 195c0 115 73 195 178 195c77 0 134 -40 157 -112l-48 -17c-16 54 -54 83 -109 83c-74 0 -125 -59 -125 -149c0 -92 49 -149 125 -149c55 0 93 29 109 83l48 -17c-22 -69 -80 -112 -157 -112z" />
    <glyph glyph-name="Cacute" unicode="&#x106;" horiz-adv-x="385" 
d="M188 410l29 70h65l-57 -70h-37zM208 -5c-108 0 -178 77 -178 195c0 115 73 195 178 195c77 0 134 -40 157 -112l-48 -17c-16 54 -54 83 -109 83c-74 0 -125 -59 -125 -149c0 -92 49 -149 125 -149c55 0 93 29 109 83l48 -17c-22 -69 -80 -112 -157 -112z" />
    <glyph glyph-name="Ccaron" unicode="&#x10c;" horiz-adv-x="385" 
d="M231 410h-54l-57 70h47l37 -38l37 38h47zM208 41c55 0 93 29 109 83l48 -17c-22 -69 -80 -112 -157 -112c-108 0 -178 77 -178 195c0 115 73 195 178 195c77 0 134 -40 157 -112l-48 -17c-16 54 -54 83 -109 83c-74 0 -125 -59 -125 -149c0 -92 49 -149 125 -149z" />
    <glyph glyph-name="Ccedilla" unicode="&#xc7;" horiz-adv-x="385" 
d="M208 41c55 0 93 29 109 83l48 -17c-20 -64 -71 -105 -140 -111l-12 -20c5 1 9 1 13 1c28 0 49 -15 49 -42c0 -26 -28 -45 -68 -45c-23 0 -47 8 -64 21l18 27c15 -10 31 -17 47 -17c17 0 27 6 27 16c0 9 -9 14 -20 14c-7 0 -15 -2 -21 -5l-27 15l21 35
c-96 9 -158 83 -158 194c0 115 73 195 178 195c77 0 134 -40 157 -112l-48 -17c-16 54 -54 83 -109 83c-74 0 -125 -59 -125 -149c0 -92 49 -149 125 -149z" />
    <glyph glyph-name="Cdotaccent" unicode="&#x10a;" horiz-adv-x="385" 
d="M175 424v56h56v-56h-56zM208 -5c-108 0 -178 77 -178 195c0 115 73 195 178 195c77 0 134 -40 157 -112l-48 -17c-16 54 -54 83 -109 83c-74 0 -125 -59 -125 -149c0 -92 49 -149 125 -149c55 0 93 29 109 83l48 -17c-22 -69 -80 -112 -157 -112z" />
    <glyph glyph-name="D" unicode="D" horiz-adv-x="410" 
d="M195 380c119 0 185 -75 185 -190c0 -112 -69 -190 -185 -190h-135v380h135zM195 46c82 0 132 57 132 144s-50 144 -132 144h-83v-288h83z" />
    <glyph glyph-name="Eth" unicode="&#xd0;" horiz-adv-x="410" 
d="M195 380c119 0 185 -75 185 -190c0 -112 -69 -190 -185 -190h-135v173h-38v44h38v163h135zM195 46c82 0 132 57 132 144s-50 144 -132 144h-83v-117h70v-44h-70v-127h83z" />
    <glyph glyph-name="Dcaron" unicode="&#x10e;" horiz-adv-x="410" 
d="M214 410h-54l-57 70h47l37 -38l37 38h47zM195 380c119 0 185 -75 185 -190c0 -112 -69 -190 -185 -190h-135v380h135zM195 46c82 0 132 57 132 144s-50 144 -132 144h-83v-288h83z" />
    <glyph glyph-name="Dcroat" unicode="&#x110;" horiz-adv-x="410" 
d="M195 380c119 0 185 -75 185 -190c0 -112 -69 -190 -185 -190h-135v173h-38v44h38v163h135zM195 46c82 0 132 57 132 144s-50 144 -132 144h-83v-117h70v-44h-70v-127h83z" />
    <glyph glyph-name="E" unicode="E" horiz-adv-x="340" 
d="M112 47h208v-47h-260v380h255v-47h-203v-115h158v-46h-158v-125z" />
    <glyph glyph-name="Eacute" unicode="&#xc9;" horiz-adv-x="340" 
d="M264 480l-57 -70h-37l29 70h65zM112 47h208v-47h-260v380h255v-47h-203v-115h158v-46h-158v-125z" />
    <glyph glyph-name="Ecaron" unicode="&#x11a;" horiz-adv-x="340" 
d="M213 410h-54l-57 70h47l37 -38l37 38h47zM112 47h208v-47h-260v380h255v-47h-203v-115h158v-46h-158v-125z" />
    <glyph glyph-name="Ecircumflex" unicode="&#xca;" horiz-adv-x="340" 
d="M186 448l-37 -38h-47l57 70h54l57 -70h-47zM112 47h208v-47h-260v380h255v-47h-203v-115h158v-46h-158v-125z" />
    <glyph glyph-name="Edieresis" unicode="&#xcb;" horiz-adv-x="340" 
d="M165 480v-56h-56v56h56zM261 480v-56h-56v56h56zM112 47h208v-47h-260v380h255v-47h-203v-115h158v-46h-158v-125z" />
    <glyph glyph-name="Edotaccent" unicode="&#x116;" horiz-adv-x="340" 
d="M213 480v-56h-56v56h56zM112 47h208v-47h-260v380h255v-47h-203v-115h158v-46h-158v-125z" />
    <glyph glyph-name="Egrave" unicode="&#xc8;" horiz-adv-x="340" 
d="M200 410h-37l-57 70h65zM112 47h208v-47h-260v380h255v-47h-203v-115h158v-46h-158v-125z" />
    <glyph glyph-name="Emacron" unicode="&#x112;" horiz-adv-x="340" 
d="M265 480v-40h-160v40h160zM112 47h208v-47h-260v380h255v-47h-203v-115h158v-46h-158v-125z" />
    <glyph glyph-name="Eogonek" unicode="&#x118;" horiz-adv-x="340" 
d="M308 -55l17 -31c-14 -9 -30 -14 -47 -14c-34 0 -56 21 -56 50c0 19 13 39 35 50h-197v380h255v-47h-203v-115h158v-46h-158v-125h208v-47c-44 -13 -59 -29 -59 -45c0 -12 8 -19 21 -19c9 0 18 3 26 9z" />
    <glyph glyph-name="F" unicode="F" horiz-adv-x="328" 
d="M318 333h-206v-115h161v-46h-161v-172h-52v380h258v-47z" />
    <glyph glyph-name="G" unicode="G" horiz-adv-x="416" 
d="M225 190h151v-190h-39l-5 57c-29 -39 -72 -62 -125 -62c-107 0 -177 77 -177 195c0 115 75 195 184 195c76 0 133 -36 158 -103l-48 -18c-17 49 -56 75 -110 75c-78 0 -131 -59 -131 -149c0 -92 49 -149 125 -149c55 0 112 33 123 106h-106v43z" />
    <glyph glyph-name="Gbreve" unicode="&#x11e;" horiz-adv-x="416" 
d="M212 410c-46 0 -78 27 -83 70l41 3c3 -23 17 -35 42 -35s39 12 42 35l41 -3c-5 -43 -37 -70 -83 -70zM225 190h151v-190h-39l-5 57c-29 -39 -72 -62 -125 -62c-107 0 -177 77 -177 195c0 115 75 195 184 195c76 0 133 -36 158 -103l-48 -18c-17 49 -56 75 -110 75
c-78 0 -131 -59 -131 -149c0 -92 49 -149 125 -149c55 0 112 33 123 106h-106v43z" />
    <glyph glyph-name="uni0122" unicode="&#x122;" horiz-adv-x="416" 
d="M225 190h151v-190h-39l-5 57c-29 -39 -72 -62 -125 -62c-107 0 -177 77 -177 195c0 115 75 195 184 195c76 0 133 -36 158 -103l-48 -18c-17 49 -56 75 -110 75c-78 0 -131 -59 -131 -149c0 -92 49 -149 125 -149c55 0 112 33 123 106h-106v43zM188 -74v44h56v-37
c0 -38 -20 -56 -48 -56h-8v27h8c13 0 19 7 20 22h-28z" />
    <glyph glyph-name="Gdotaccent" unicode="&#x120;" horiz-adv-x="416" 
d="M240 480v-56h-56v56h56zM225 190h151v-190h-39l-5 57c-29 -39 -72 -62 -125 -62c-107 0 -177 77 -177 195c0 115 75 195 184 195c76 0 133 -36 158 -103l-48 -18c-17 49 -56 75 -110 75c-78 0 -131 -59 -131 -149c0 -92 49 -149 125 -149c55 0 112 33 123 106h-106v43z
" />
    <glyph glyph-name="H" unicode="H" horiz-adv-x="430" 
d="M318 380h52v-380h-52v171h-206v-171h-52v380h52v-161h206v161z" />
    <glyph glyph-name="Hbar" unicode="&#x126;" horiz-adv-x="430" 
d="M407 320v-44h-37v-276h-52v171h-206v-171h-52v276h-37v44h37v60h52v-60h206v60h52v-60h37zM318 219v57h-206v-57h206z" />
    <glyph glyph-name="I" unicode="I" horiz-adv-x="172" 
d="M60 0v380h52v-380h-52z" />
    <glyph glyph-name="Iacute" unicode="&#xcd;" horiz-adv-x="172" 
d="M71 410l29 70h65l-57 -70h-37zM60 0v380h52v-380h-52z" />
    <glyph glyph-name="Icircumflex" unicode="&#xce;" horiz-adv-x="172" 
d="M114 480l57 -70h-47l-37 38l-37 -38h-47l57 70h54zM60 0v380h52v-380h-52z" />
    <glyph glyph-name="Idieresis" unicode="&#xcf;" horiz-adv-x="172" 
d="M10 424v56h56v-56h-56zM106 424v56h56v-56h-56zM60 0v380h52v-380h-52z" />
    <glyph glyph-name="Idotaccent" unicode="&#x130;" horiz-adv-x="172" 
d="M58 424v56h56v-56h-56zM60 0v380h52v-380h-52z" />
    <glyph glyph-name="Igrave" unicode="&#xcc;" horiz-adv-x="172" 
d="M101 410h-37l-57 70h65zM60 0v380h52v-380h-52z" />
    <glyph glyph-name="Imacron" unicode="&#x12a;" horiz-adv-x="172" 
d="M6 440v40h160v-40h-160zM60 0v380h52v-380h-52z" />
    <glyph glyph-name="Iogonek" unicode="&#x12e;" horiz-adv-x="172" 
d="M100 -55l17 -31c-14 -9 -30 -14 -47 -14c-34 0 -56 21 -56 50c0 22 17 45 46 54v376h52v-380c-44 -13 -59 -29 -59 -45c0 -12 8 -19 21 -19c9 0 18 3 26 9z" />
    <glyph glyph-name="J" unicode="J" horiz-adv-x="264" 
d="M98 -5c-46 0 -84 25 -98 74l45 19c5 -29 23 -48 56 -48c36 0 56 24 56 67v273h52v-272c0 -71 -44 -113 -111 -113z" />
    <glyph glyph-name="K" unicode="K" horiz-adv-x="388" 
d="M314 0l-143 188l-59 -58v-130h-52v380h52v-190l190 190h65l-159 -156l170 -224h-64z" />
    <glyph glyph-name="uni0136" unicode="&#x136;" horiz-adv-x="388" 
d="M208 224l170 -224h-64l-143 188l-59 -58v-130h-52v380h52v-190l190 190h65zM179 -74v44h56v-37c0 -38 -20 -56 -48 -56h-8v27h8c13 0 19 7 20 22h-28z" />
    <glyph glyph-name="L" unicode="L" horiz-adv-x="335" 
d="M112 48h208v-48h-260v380h52v-332z" />
    <glyph glyph-name="Lacute" unicode="&#x139;" horiz-adv-x="335" 
d="M165 500l-57 -70h-37l29 70h65zM112 48h208v-48h-260v380h52v-332z" />
    <glyph glyph-name="Lcaron" unicode="&#x13d;" horiz-adv-x="335" 
d="M112 48h208v-48h-260v380h52v-332zM206 380l-20 -80h-34v80h54z" />
    <glyph glyph-name="uni013B" unicode="&#x13b;" horiz-adv-x="335" 
d="M112 48h208v-48h-260v380h52v-332zM161 -74v44h56v-37c0 -38 -20 -56 -48 -56h-8v27h8c13 0 19 7 20 22h-28z" />
    <glyph glyph-name="Lslash" unicode="&#x141;" horiz-adv-x="335" 
d="M112 48h208v-48h-260v142l-39 -12v43l39 12v195h52v-179l106 33v-43l-106 -33v-110z" />
    <glyph glyph-name="M" unicode="M" horiz-adv-x="530" 
d="M470 380v-380h-50v325l-125 -325h-60l-125 325v-325h-50v380h83l123 -322l122 322h82z" />
    <glyph glyph-name="N" unicode="N" horiz-adv-x="430" 
d="M321 380h49v-380h-51l-210 299v-299h-49v380h52l209 -297v297z" />
    <glyph glyph-name="Nacute" unicode="&#x143;" horiz-adv-x="430" 
d="M294 480l-57 -70h-37l29 70h65zM321 380h49v-380h-51l-210 299v-299h-49v380h52l209 -297v297z" />
    <glyph glyph-name="Ncaron" unicode="&#x147;" horiz-adv-x="430" 
d="M243 410h-54l-57 70h47l37 -38l37 38h47zM321 380h49v-380h-51l-210 299v-299h-49v380h52l209 -297v297z" />
    <glyph glyph-name="uni0145" unicode="&#x145;" horiz-adv-x="430" 
d="M321 380h49v-380h-51l-210 299v-299h-49v380h52l209 -297v297zM187 -74v44h56v-37c0 -38 -20 -56 -48 -56h-8v27h8c13 0 19 7 20 22h-28z" />
    <glyph glyph-name="Eng" unicode="&#x14a;" horiz-adv-x="430" 
d="M321 380h49v-404c0 -58 -31 -78 -77 -78c-8 0 -20 1 -28 2v45h23c21 0 32 9 32 33v20l-211 301v-299h-49v380h52l209 -297v297z" />
    <glyph glyph-name="Ntilde" unicode="&#xd1;" horiz-adv-x="430" 
d="M185 445c-10 0 -19 -7 -26 -24l-32 18c12 30 32 45 56 45c29 0 46 -25 64 -25c10 0 19 7 26 24l32 -18c-12 -30 -32 -45 -56 -45c-29 0 -46 25 -64 25zM321 380h49v-380h-51l-210 299v-299h-49v380h52l209 -297v297z" />
    <glyph glyph-name="O" unicode="O" horiz-adv-x="420" 
d="M210 -5c-109 0 -180 77 -180 195c0 115 74 195 180 195c109 0 180 -77 180 -195c0 -115 -74 -195 -180 -195zM210 41c77 0 127 59 127 149s-50 149 -127 149s-127 -59 -127 -149s50 -149 127 -149z" />
    <glyph glyph-name="Oacute" unicode="&#xd3;" horiz-adv-x="420" 
d="M195 410l29 70h65l-57 -70h-37zM210 -5c-109 0 -180 77 -180 195c0 115 74 195 180 195c109 0 180 -77 180 -195c0 -115 -74 -195 -180 -195zM210 41c77 0 127 59 127 149s-50 149 -127 149s-127 -59 -127 -149s50 -149 127 -149z" />
    <glyph glyph-name="Ocircumflex" unicode="&#xd4;" horiz-adv-x="420" 
d="M211 448l-37 -38h-47l57 70h54l57 -70h-47zM210 385c109 0 180 -77 180 -195c0 -115 -74 -195 -180 -195c-109 0 -180 77 -180 195c0 115 74 195 180 195zM210 41c77 0 127 59 127 149s-50 149 -127 149s-127 -59 -127 -149s50 -149 127 -149z" />
    <glyph glyph-name="Odieresis" unicode="&#xd6;" horiz-adv-x="420" 
d="M134 424v56h56v-56h-56zM230 424v56h56v-56h-56zM210 -5c-109 0 -180 77 -180 195c0 115 74 195 180 195c109 0 180 -77 180 -195c0 -115 -74 -195 -180 -195zM210 41c77 0 127 59 127 149s-50 149 -127 149s-127 -59 -127 -149s50 -149 127 -149z" />
    <glyph glyph-name="Ograve" unicode="&#xd2;" horiz-adv-x="420" 
d="M225 410h-37l-57 70h65zM210 -5c-109 0 -180 77 -180 195c0 115 74 195 180 195c109 0 180 -77 180 -195c0 -115 -74 -195 -180 -195zM210 41c77 0 127 59 127 149s-50 149 -127 149s-127 -59 -127 -149s50 -149 127 -149z" />
    <glyph glyph-name="Ohungarumlaut" unicode="&#x150;" horiz-adv-x="420" 
d="M134 424v56h56v-56h-56zM230 424v56h56v-56h-56zM210 -5c-109 0 -180 77 -180 195c0 115 74 195 180 195c109 0 180 -77 180 -195c0 -115 -74 -195 -180 -195zM210 41c77 0 127 59 127 149s-50 149 -127 149s-127 -59 -127 -149s50 -149 127 -149z" />
    <glyph glyph-name="Omacron" unicode="&#x14c;" horiz-adv-x="420" 
d="M130 440v40h160v-40h-160zM210 -5c-109 0 -180 77 -180 195c0 115 74 195 180 195c109 0 180 -77 180 -195c0 -115 -74 -195 -180 -195zM210 41c77 0 127 59 127 149s-50 149 -127 149s-127 -59 -127 -149s50 -149 127 -149z" />
    <glyph glyph-name="Oslash" unicode="&#xd8;" horiz-adv-x="420" 
d="M343 329c30 -34 47 -82 47 -139c0 -115 -74 -195 -180 -195c-41 0 -76 11 -104 30l-24 -30h-49l44 56c-30 34 -47 82 -47 139c0 115 74 195 180 195c41 0 76 -11 104 -30l24 30h49zM83 190c0 -39 9 -72 26 -97l175 223c-20 15 -45 23 -74 23c-77 0 -127 -59 -127 -149z
M210 41c77 0 127 59 127 149c0 39 -9 72 -26 97l-175 -223c20 -15 45 -23 74 -23z" />
    <glyph glyph-name="Otilde" unicode="&#xd5;" horiz-adv-x="420" 
d="M300 465c-12 -30 -32 -45 -56 -45c-29 0 -46 25 -64 25c-10 0 -19 -7 -26 -24l-32 18c12 30 32 45 56 45c29 0 46 -25 64 -25c10 0 19 7 26 24zM210 -5c-109 0 -180 77 -180 195c0 115 74 195 180 195c109 0 180 -77 180 -195c0 -115 -74 -195 -180 -195zM210 41
c77 0 127 59 127 149s-50 149 -127 149s-127 -59 -127 -149s50 -149 127 -149z" />
    <glyph glyph-name="OE" unicode="&#x152;" horiz-adv-x="521" 
d="M317 47h184v-47h-286c-119 0 -185 75 -185 190c0 112 69 190 185 190h281v-47h-179v-115h134v-46h-134v-125zM215 46h50v288h-50c-82 0 -132 -57 -132 -144s50 -144 132 -144z" />
    <glyph glyph-name="P" unicode="P" horiz-adv-x="368" 
d="M217 380c80 0 131 -45 131 -115s-51 -115 -131 -115h-105v-150h-52v380h157zM211 197c56 0 84 23 84 68s-28 68 -84 68h-99v-136h99z" />
    <glyph glyph-name="Thorn" unicode="&#xde;" horiz-adv-x="373" 
d="M217 310c80 0 131 -45 131 -115s-51 -115 -131 -115h-105v-80h-52v380h52v-70h105zM211 127c56 0 84 23 84 68s-28 68 -84 68h-99v-136h99z" />
    <glyph glyph-name="Q" unicode="Q" horiz-adv-x="420" 
d="M390 190c0 -106 -63 -182 -155 -193v-22c0 -25 16 -32 36 -32c19 0 33 1 48 1v-43c-16 -2 -32 -3 -50 -3c-49 0 -83 20 -83 80v18c-95 11 -156 85 -156 194c0 115 74 195 180 195c109 0 180 -77 180 -195zM83 190c0 -90 50 -149 127 -149s127 59 127 149
s-50 149 -127 149s-127 -59 -127 -149z" />
    <glyph glyph-name="R" unicode="R" horiz-adv-x="384" 
d="M304 0l-93 152h-100v-152h-51v380h152c79 0 130 -45 130 -114c0 -52 -29 -90 -77 -106l99 -160h-60zM111 333v-136h94c56 0 84 23 84 68s-28 68 -84 68h-94z" />
    <glyph glyph-name="Racute" unicode="&#x154;" horiz-adv-x="384" 
d="M260 480l-57 -70h-37l29 70h65zM304 0l-93 152h-100v-152h-51v380h152c79 0 130 -45 130 -114c0 -52 -29 -90 -77 -106l99 -160h-60zM111 333v-136h94c56 0 84 23 84 68s-28 68 -84 68h-94z" />
    <glyph glyph-name="Rcaron" unicode="&#x158;" horiz-adv-x="384" 
d="M209 410h-54l-57 70h47l37 -38l37 38h47zM304 0l-93 152h-100v-152h-51v380h152c79 0 130 -45 130 -114c0 -52 -29 -90 -77 -106l99 -160h-60zM111 333v-136h94c56 0 84 23 84 68s-28 68 -84 68h-94z" />
    <glyph glyph-name="uni0156" unicode="&#x156;" horiz-adv-x="384" 
d="M265 160l99 -160h-60l-93 152h-100v-152h-51v380h152c79 0 130 -45 130 -114c0 -52 -29 -90 -77 -106zM111 333v-136h94c56 0 84 23 84 68s-28 68 -84 68h-94zM183 -74v44h56v-37c0 -38 -20 -56 -48 -56h-8v27h8c13 0 19 7 20 22h-28z" />
    <glyph glyph-name="S" unicode="S" horiz-adv-x="348" 
d="M171 -5c-57 0 -109 19 -147 55l32 40c33 -32 76 -49 122 -49c56 0 90 23 90 61c0 30 -19 45 -91 65c-77 22 -140 44 -140 112c0 65 56 106 141 106c51 0 95 -15 133 -44l-31 -41c-27 24 -63 39 -107 39c-51 0 -84 -22 -84 -57c0 -31 24 -47 96 -65
c98 -24 135 -54 135 -109c0 -69 -57 -113 -149 -113z" />
    <glyph glyph-name="Sacute" unicode="&#x15a;" horiz-adv-x="348" 
d="M157 410l29 70h65l-57 -70h-37zM171 -5c-57 0 -109 19 -147 55l32 40c33 -32 76 -49 122 -49c56 0 90 23 90 61c0 30 -19 45 -91 65c-77 22 -140 44 -140 112c0 65 56 106 141 106c51 0 95 -15 133 -44l-31 -41c-27 24 -63 39 -107 39c-51 0 -84 -22 -84 -57
c0 -31 24 -47 96 -65c98 -24 135 -54 135 -109c0 -69 -57 -113 -149 -113z" />
    <glyph glyph-name="Scaron" unicode="&#x160;" horiz-adv-x="348" 
d="M200 410h-54l-57 70h47l37 -38l37 38h47zM185 217c98 -24 135 -54 135 -109c0 -69 -57 -113 -149 -113c-57 0 -109 19 -147 55l32 40c33 -32 76 -49 122 -49c56 0 90 23 90 61c0 30 -19 45 -91 65c-77 22 -140 44 -140 112c0 65 56 106 141 106c51 0 95 -15 133 -44
l-31 -41c-27 24 -63 39 -107 39c-51 0 -84 -22 -84 -57c0 -31 24 -47 96 -65z" />
    <glyph glyph-name="Scedilla" unicode="&#x15e;" horiz-adv-x="348" 
d="M320 108c0 -63 -47 -105 -125 -112l-13 -20c5 1 9 1 13 1c28 0 49 -15 49 -42c0 -26 -28 -45 -68 -45c-23 0 -47 8 -64 21l18 27c15 -10 31 -17 47 -17c17 0 27 6 27 16c0 9 -9 14 -20 14c-7 0 -15 -2 -21 -5l-27 15l21 34c-51 3 -98 22 -133 55l32 40
c33 -32 76 -49 122 -49c56 0 90 23 90 61c0 30 -19 45 -91 65c-77 22 -140 44 -140 112c0 65 56 106 141 106c51 0 95 -15 133 -44l-31 -41c-27 24 -63 39 -107 39c-51 0 -84 -22 -84 -57c0 -31 24 -47 96 -65c98 -24 135 -54 135 -109z" />
    <glyph glyph-name="uni0218" unicode="&#x218;" horiz-adv-x="348" 
d="M185 217c98 -24 135 -54 135 -109c0 -69 -57 -113 -149 -113c-57 0 -109 19 -147 55l32 40c33 -32 76 -49 122 -49c56 0 90 23 90 61c0 30 -19 45 -91 65c-77 22 -140 44 -140 112c0 65 56 106 141 106c51 0 95 -15 133 -44l-31 -41c-27 24 -63 39 -107 39
c-51 0 -84 -22 -84 -57c0 -31 24 -47 96 -65zM144 -74v44h56v-37c0 -38 -20 -56 -48 -56h-8v27h8c13 0 19 7 20 22h-28z" />
    <glyph glyph-name="uni1E9E" unicode="&#x1e9e;" horiz-adv-x="429" 
d="M282 225c70 0 119 -45 119 -112c0 -66 -52 -118 -135 -118c-46 0 -86 17 -109 48l32 32c17 -23 44 -36 77 -36c49 0 83 27 83 73c0 42 -29 74 -78 74c-20 0 -39 -5 -55 -16l-27 34l120 129h-197v-333h-52v380h315v-40l-107 -116c5 1 10 1 14 1z" />
    <glyph glyph-name="T" unicode="T" horiz-adv-x="350" 
d="M340 380v-48h-139v-332h-52v332h-139v48h330z" />
    <glyph glyph-name="Tbar" unicode="&#x166;" horiz-adv-x="350" 
d="M340 332h-139v-115h77v-44h-77v-173h-52v173h-77v44h77v115h-139v48h330v-48z" />
    <glyph glyph-name="Tcaron" unicode="&#x164;" horiz-adv-x="350" 
d="M203 410h-54l-57 70h47l37 -38l37 38h47zM340 380v-48h-139v-332h-52v332h-139v48h330z" />
    <glyph glyph-name="uni0162" unicode="&#x162;" horiz-adv-x="350" 
d="M201 0h-1l-15 -24c5 1 9 1 13 1c28 0 49 -15 49 -42c0 -26 -28 -45 -68 -45c-23 0 -47 8 -64 21l18 27c15 -10 31 -17 47 -17c17 0 27 6 27 16c0 9 -9 14 -20 14c-7 0 -15 -2 -21 -5l-27 15l24 39h-14v332h-139v48h330v-48h-139v-332z" />
    <glyph glyph-name="uni021A" unicode="&#x21a;" horiz-adv-x="350" 
d="M340 380v-48h-139v-332h-52v332h-139v48h330zM147 -74v44h56v-37c0 -38 -20 -56 -48 -56h-8v27h8c13 0 19 7 20 22h-28z" />
    <glyph glyph-name="U" unicode="U" horiz-adv-x="420" 
d="M210 -5c-94 0 -155 60 -155 153v232h52v-232c0 -65 40 -107 103 -107s103 42 103 107v232h52v-232c0 -93 -61 -153 -155 -153z" />
    <glyph glyph-name="Uacute" unicode="&#xda;" horiz-adv-x="420" 
d="M195 410l29 70h65l-57 -70h-37zM210 -5c-94 0 -155 60 -155 153v232h52v-232c0 -65 40 -107 103 -107s103 42 103 107v232h52v-232c0 -93 -61 -153 -155 -153z" />
    <glyph glyph-name="Ucircumflex" unicode="&#xdb;" horiz-adv-x="420" 
d="M211 448l-37 -38h-47l57 70h54l57 -70h-47zM313 380h52v-232c0 -93 -61 -153 -155 -153s-155 60 -155 153v232h52v-232c0 -65 40 -107 103 -107s103 42 103 107v232z" />
    <glyph glyph-name="Udieresis" unicode="&#xdc;" horiz-adv-x="420" 
d="M134 424v56h56v-56h-56zM230 424v56h56v-56h-56zM210 -5c-94 0 -155 60 -155 153v232h52v-232c0 -65 40 -107 103 -107s103 42 103 107v232h52v-232c0 -93 -61 -153 -155 -153z" />
    <glyph glyph-name="Ugrave" unicode="&#xd9;" horiz-adv-x="420" 
d="M225 410h-37l-57 70h65zM210 -5c-94 0 -155 60 -155 153v232h52v-232c0 -65 40 -107 103 -107s103 42 103 107v232h52v-232c0 -93 -61 -153 -155 -153z" />
    <glyph glyph-name="Uhungarumlaut" unicode="&#x170;" horiz-adv-x="420" 
d="M146 410l29 70h65l-57 -70h-37zM236 410l29 70h65l-57 -70h-37zM210 -5c-94 0 -155 60 -155 153v232h52v-232c0 -65 40 -107 103 -107s103 42 103 107v232h52v-232c0 -93 -61 -153 -155 -153z" />
    <glyph glyph-name="Umacron" unicode="&#x16a;" horiz-adv-x="420" 
d="M130 440v40h160v-40h-160zM210 -5c-94 0 -155 60 -155 153v232h52v-232c0 -65 40 -107 103 -107s103 42 103 107v232h52v-232c0 -93 -61 -153 -155 -153z" />
    <glyph glyph-name="Uogonek" unicode="&#x172;" horiz-adv-x="420" 
d="M313 380h52v-232c0 -59 -24 -104 -66 -130c-21 -15 -70 -33 -70 -61c0 -11 8 -18 21 -18c9 0 19 4 28 10l17 -30c-14 -10 -31 -16 -49 -16c-34 0 -56 19 -56 46c0 21 11 36 29 46h-9c-94 0 -155 60 -155 153v232h52v-232c0 -65 40 -107 103 -107s103 42 103 107v232z" />
    <glyph glyph-name="Uring" unicode="&#x16e;" horiz-adv-x="420" 
d="M210 366c-36 0 -63 26 -63 62s27 62 63 62s63 -26 63 -62s-27 -62 -63 -62zM210 399c17 0 29 12 29 29s-12 29 -29 29s-29 -12 -29 -29s12 -29 29 -29zM210 -5c-94 0 -155 60 -155 153v232h52v-232c0 -65 40 -107 103 -107s103 42 103 107v232h52v-232
c0 -93 -61 -153 -155 -153z" />
    <glyph glyph-name="V" unicode="V" horiz-adv-x="384" 
d="M315 380h54l-147 -380h-60l-147 380h55l123 -322z" />
    <glyph glyph-name="W" unicode="W" horiz-adv-x="554" 
d="M483 380h51l-110 -380h-55l-93 316l-92 -316h-54l-110 380h53l88 -303l87 303h58l88 -305z" />
    <glyph glyph-name="Wacute" unicode="&#x1e82;" horiz-adv-x="554" 
d="M356 480l-57 -70h-37l29 70h65zM483 380h51l-110 -380h-55l-93 316l-92 -316h-54l-110 380h53l88 -303l87 303h58l88 -305z" />
    <glyph glyph-name="Wcircumflex" unicode="&#x174;" horiz-adv-x="554" 
d="M278 448l-37 -38h-47l57 70h54l57 -70h-47zM483 380h51l-110 -380h-55l-93 316l-92 -316h-54l-110 380h53l88 -303l87 303h58l88 -305z" />
    <glyph glyph-name="Wdieresis" unicode="&#x1e84;" horiz-adv-x="554" 
d="M257 480v-56h-56v56h56zM353 480v-56h-56v56h56zM483 380h51l-110 -380h-55l-93 316l-92 -316h-54l-110 380h53l88 -303l87 303h58l88 -305z" />
    <glyph glyph-name="Wgrave" unicode="&#x1e80;" horiz-adv-x="554" 
d="M292 410h-37l-57 70h65zM483 380h51l-110 -380h-55l-93 316l-92 -316h-54l-110 380h53l88 -303l87 303h58l88 -305z" />
    <glyph glyph-name="X" unicode="X" horiz-adv-x="372" 
d="M362 0h-62l-114 158l-115 -158h-61l145 195l-135 185h62l105 -147l105 147h60l-134 -183z" />
    <glyph glyph-name="Y" unicode="Y" horiz-adv-x="362" 
d="M357 380l-150 -227v-153h-52v153l-150 227h60l117 -179l116 179h59z" />
    <glyph glyph-name="Yacute" unicode="&#xdd;" horiz-adv-x="362" 
d="M260 480l-57 -70h-37l29 70h65zM357 380l-150 -227v-153h-52v153l-150 227h60l117 -179l116 179h59z" />
    <glyph glyph-name="Ycircumflex" unicode="&#x176;" horiz-adv-x="362" 
d="M182 448l-37 -38h-47l57 70h54l57 -70h-47zM357 380l-150 -227v-153h-52v153l-150 227h60l117 -179l116 179h59z" />
    <glyph glyph-name="Ydieresis" unicode="&#x178;" horiz-adv-x="362" 
d="M161 480v-56h-56v56h56zM257 480v-56h-56v56h56zM357 380l-150 -227v-153h-52v153l-150 227h60l117 -179l116 179h59z" />
    <glyph glyph-name="Ygrave" unicode="&#x1ef2;" horiz-adv-x="362" 
d="M196 410h-37l-57 70h65zM357 380l-150 -227v-153h-52v153l-150 227h60l117 -179l116 179h59z" />
    <glyph glyph-name="Z" unicode="Z" horiz-adv-x="353" 
d="M328 380v-43l-236 -289h236v-48h-303v43l236 289h-225v48h292z" />
    <glyph glyph-name="Zacute" unicode="&#x179;" horiz-adv-x="353" 
d="M256 480l-57 -70h-37l29 70h65zM328 380v-43l-236 -289h236v-48h-303v43l236 289h-225v48h292z" />
    <glyph glyph-name="Zcaron" unicode="&#x17d;" horiz-adv-x="353" 
d="M205 410h-54l-57 70h47l37 -38l37 38h47zM328 380v-43l-236 -289h236v-48h-303v43l236 289h-225v48h292z" />
    <glyph glyph-name="Zdotaccent" unicode="&#x17b;" horiz-adv-x="353" 
d="M205 480v-56h-56v56h56zM328 380v-43l-236 -289h236v-48h-303v43l236 289h-225v48h292z" />
    <glyph glyph-name="K.ss01" horiz-adv-x="389" 
d="M349 48h12v-48h-26c-36 0 -58 22 -58 62v109h-165v-171h-52v380h52v-161h84l101 161h58l-105 -161h79v-151c0 -12 8 -20 20 -20z" />
    <glyph glyph-name="uni0136.ss01" horiz-adv-x="389" 
d="M349 48h12v-48h-26c-36 0 -58 22 -58 62v109h-165v-171h-52v380h52v-161h84l101 161h58l-105 -161h79v-151c0 -12 8 -20 20 -20zM179 -74v44h56v-37c0 -38 -20 -56 -48 -56h-8v27h8c13 0 19 7 20 22h-28z" />
    <glyph glyph-name="R.ss01" horiz-adv-x="389" 
d="M351 48h12v-48h-26c-36 0 -58 22 -58 62v89h-167v-151h-52v380h151c80 0 131 -43 131 -110c0 -42 -22 -73 -61 -89h50v-113c0 -12 8 -20 20 -20zM206 333h-94v-136h94c56 0 84 23 84 68s-28 68 -84 68z" />
    <glyph glyph-name="Racute.ss01" horiz-adv-x="389" 
d="M261 480l-57 -70h-37l29 70h65zM351 48h12v-48h-26c-36 0 -58 22 -58 62v89h-167v-151h-52v380h151c80 0 131 -43 131 -110c0 -42 -22 -73 -61 -89h50v-113c0 -12 8 -20 20 -20zM206 333h-94v-136h94c56 0 84 23 84 68s-28 68 -84 68z" />
    <glyph glyph-name="Rcaron.ss01" horiz-adv-x="389" 
d="M210 410h-54l-57 70h47l37 -38l37 38h47zM351 48h12v-48h-26c-36 0 -58 22 -58 62v89h-167v-151h-52v380h151c80 0 131 -43 131 -110c0 -42 -22 -73 -61 -89h50v-113c0 -12 8 -20 20 -20zM206 333h-94v-136h94c56 0 84 23 84 68s-28 68 -84 68z" />
    <glyph glyph-name="uni0156.ss01" horiz-adv-x="389" 
d="M351 48h12v-48h-26c-36 0 -58 22 -58 62v89h-167v-151h-52v380h151c80 0 131 -43 131 -110c0 -42 -22 -73 -61 -89h50v-113c0 -12 8 -20 20 -20zM206 333h-94v-136h94c56 0 84 23 84 68s-28 68 -84 68zM184 -74v44h56v-37c0 -38 -20 -56 -48 -56h-8v27h8c13 0 19 7 20 22
h-28z" />
    <glyph glyph-name="Y.ss01" horiz-adv-x="384" 
d="M306 380h56l-108 -294c-22 -59 -58 -91 -108 -91c-53 0 -89 35 -89 87c0 32 13 60 38 78h43l-126 220h60l121 -220h35zM148 41c27 0 43 17 56 51l9 25h-93c-8 -9 -13 -20 -13 -33c0 -26 16 -43 41 -43z" />
    <glyph glyph-name="Yacute.ss01" horiz-adv-x="384" 
d="M264 480l-57 -70h-37l29 70h65zM306 380h56l-108 -294c-22 -59 -58 -91 -108 -91c-53 0 -89 35 -89 87c0 32 13 60 38 78h43l-126 220h60l121 -220h35zM148 41c27 0 43 17 56 51l9 25h-93c-8 -9 -13 -20 -13 -33c0 -26 16 -43 41 -43z" />
    <glyph glyph-name="Ycircumflex.ss01" horiz-adv-x="384" 
d="M186 448l-37 -38h-47l57 70h54l57 -70h-47zM306 380h56l-108 -294c-22 -59 -58 -91 -108 -91c-53 0 -89 35 -89 87c0 32 13 60 38 78h43l-126 220h60l121 -220h35zM148 41c27 0 43 17 56 51l9 25h-93c-8 -9 -13 -20 -13 -33c0 -26 16 -43 41 -43z" />
    <glyph glyph-name="Ydieresis.ss01" horiz-adv-x="384" 
d="M165 480v-56h-56v56h56zM261 480v-56h-56v56h56zM306 380h56l-108 -294c-22 -59 -58 -91 -108 -91c-53 0 -89 35 -89 87c0 32 13 60 38 78h43l-126 220h60l121 -220h35zM148 41c27 0 43 17 56 51l9 25h-93c-8 -9 -13 -20 -13 -33c0 -26 16 -43 41 -43z" />
    <glyph glyph-name="Ygrave.ss01" horiz-adv-x="384" 
d="M200 410h-37l-57 70h65zM306 380h56l-108 -294c-22 -59 -58 -91 -108 -91c-53 0 -89 35 -89 87c0 32 13 60 38 78h43l-126 220h60l121 -220h35zM148 41c27 0 43 17 56 51l9 25h-93c-8 -9 -13 -20 -13 -33c0 -26 16 -43 41 -43z" />
    <glyph glyph-name="K.ss02" horiz-adv-x="388" 
d="M314 0l-143 188l-59 -58v-130h-52v380h52v-190l190 190h65l-159 -156l170 -224h-64z" />
    <glyph glyph-name="uni0136.ss02" horiz-adv-x="388" 
d="M208 224l170 -224h-64l-143 188l-59 -58v-130h-52v380h52v-190l190 190h65zM179 -74v44h56v-37c0 -38 -20 -56 -48 -56h-8v27h8c13 0 19 7 20 22h-28z" />
    <glyph glyph-name="R.ss02" horiz-adv-x="384" 
d="M304 0l-93 152h-100v-152h-51v380h152c79 0 130 -45 130 -114c0 -52 -29 -90 -77 -106l99 -160h-60zM111 333v-136h94c56 0 84 23 84 68s-28 68 -84 68h-94z" />
    <glyph glyph-name="Racute.ss02" horiz-adv-x="384" 
d="M260 480l-57 -70h-37l29 70h65zM304 0l-93 152h-100v-152h-51v380h152c79 0 130 -45 130 -114c0 -52 -29 -90 -77 -106l99 -160h-60zM111 333v-136h94c56 0 84 23 84 68s-28 68 -84 68h-94z" />
    <glyph glyph-name="Rcaron.ss02" horiz-adv-x="384" 
d="M209 410h-54l-57 70h47l37 -38l37 38h47zM304 0l-93 152h-100v-152h-51v380h152c79 0 130 -45 130 -114c0 -52 -29 -90 -77 -106l99 -160h-60zM111 333v-136h94c56 0 84 23 84 68s-28 68 -84 68h-94z" />
    <glyph glyph-name="uni0156.ss02" horiz-adv-x="384" 
d="M265 160l99 -160h-60l-93 152h-100v-152h-51v380h152c79 0 130 -45 130 -114c0 -52 -29 -90 -77 -106zM111 333v-136h94c56 0 84 23 84 68s-28 68 -84 68h-94zM183 -74v44h56v-37c0 -38 -20 -56 -48 -56h-8v27h8c13 0 19 7 20 22h-28z" />
    <glyph glyph-name="Y.ss02" horiz-adv-x="362" 
d="M357 380l-150 -227v-153h-52v153l-150 227h60l117 -179l116 179h59z" />
    <glyph glyph-name="Yacute.ss02" horiz-adv-x="362" 
d="M260 480l-57 -70h-37l29 70h65zM357 380l-150 -227v-153h-52v153l-150 227h60l117 -179l116 179h59z" />
    <glyph glyph-name="Ycircumflex.ss02" horiz-adv-x="362" 
d="M182 448l-37 -38h-47l57 70h54l57 -70h-47zM357 380l-150 -227v-153h-52v153l-150 227h60l117 -179l116 179h59z" />
    <glyph glyph-name="Ydieresis.ss02" horiz-adv-x="362" 
d="M161 480v-56h-56v56h56zM257 480v-56h-56v56h56zM357 380l-150 -227v-153h-52v153l-150 227h60l117 -179l116 179h59z" />
    <glyph glyph-name="Ygrave.ss02" horiz-adv-x="362" 
d="M196 410h-37l-57 70h65zM357 380l-150 -227v-153h-52v153l-150 227h60l117 -179l116 179h59z" />
    <glyph glyph-name="K.ss03" horiz-adv-x="389" 
d="M349 48h12v-48h-26c-36 0 -58 22 -58 62v109h-165v-171h-52v380h52v-161h84l101 161h58l-105 -161h79v-151c0 -12 8 -20 20 -20z" />
    <glyph glyph-name="uni0136.ss03" horiz-adv-x="389" 
d="M349 48h12v-48h-26c-36 0 -58 22 -58 62v109h-165v-171h-52v380h52v-161h84l101 161h58l-105 -161h79v-151c0 -12 8 -20 20 -20zM179 -74v44h56v-37c0 -38 -20 -56 -48 -56h-8v27h8c13 0 19 7 20 22h-28z" />
    <glyph glyph-name="R.ss03" horiz-adv-x="389" 
d="M351 48h12v-48h-26c-36 0 -58 22 -58 62v89h-167v-151h-52v380h151c80 0 131 -43 131 -110c0 -42 -22 -73 -61 -89h50v-113c0 -12 8 -20 20 -20zM206 333h-94v-136h94c56 0 84 23 84 68s-28 68 -84 68z" />
    <glyph glyph-name="Racute.ss03" horiz-adv-x="389" 
d="M261 480l-57 -70h-37l29 70h65zM351 48h12v-48h-26c-36 0 -58 22 -58 62v89h-167v-151h-52v380h151c80 0 131 -43 131 -110c0 -42 -22 -73 -61 -89h50v-113c0 -12 8 -20 20 -20zM206 333h-94v-136h94c56 0 84 23 84 68s-28 68 -84 68z" />
    <glyph glyph-name="Rcaron.ss03" horiz-adv-x="389" 
d="M210 410h-54l-57 70h47l37 -38l37 38h47zM351 48h12v-48h-26c-36 0 -58 22 -58 62v89h-167v-151h-52v380h151c80 0 131 -43 131 -110c0 -42 -22 -73 -61 -89h50v-113c0 -12 8 -20 20 -20zM206 333h-94v-136h94c56 0 84 23 84 68s-28 68 -84 68z" />
    <glyph glyph-name="uni0156.ss03" horiz-adv-x="389" 
d="M351 48h12v-48h-26c-36 0 -58 22 -58 62v89h-167v-151h-52v380h151c80 0 131 -43 131 -110c0 -42 -22 -73 -61 -89h50v-113c0 -12 8 -20 20 -20zM206 333h-94v-136h94c56 0 84 23 84 68s-28 68 -84 68zM184 -74v44h56v-37c0 -38 -20 -56 -48 -56h-8v27h8c13 0 19 7 20 22
h-28z" />
    <glyph glyph-name="Y.ss03" horiz-adv-x="384" 
d="M306 380h56l-108 -294c-22 -59 -58 -91 -108 -91c-53 0 -89 35 -89 87c0 32 13 60 38 78h43l-126 220h60l121 -220h35zM148 41c27 0 43 17 56 51l9 25h-93c-8 -9 -13 -20 -13 -33c0 -26 16 -43 41 -43z" />
    <glyph glyph-name="Yacute.ss03" horiz-adv-x="384" 
d="M260 480l-57 -70h-37l29 70h65zM306 380h56l-108 -294c-22 -59 -58 -91 -108 -91c-53 0 -89 35 -89 87c0 32 13 60 38 78h43l-126 220h60l121 -220h35zM148 41c27 0 43 17 56 51l9 25h-93c-8 -9 -13 -20 -13 -33c0 -26 16 -43 41 -43z" />
    <glyph glyph-name="Ycircumflex.ss03" horiz-adv-x="384" 
d="M182 448l-37 -38h-47l57 70h54l57 -70h-47zM306 380h56l-108 -294c-22 -59 -58 -91 -108 -91c-53 0 -89 35 -89 87c0 32 13 60 38 78h43l-126 220h60l121 -220h35zM148 41c27 0 43 17 56 51l9 25h-93c-8 -9 -13 -20 -13 -33c0 -26 16 -43 41 -43z" />
    <glyph glyph-name="Ydieresis.ss03" horiz-adv-x="384" 
d="M161 480v-56h-56v56h56zM257 480v-56h-56v56h56zM306 380h56l-108 -294c-22 -59 -58 -91 -108 -91c-53 0 -89 35 -89 87c0 32 13 60 38 78h43l-126 220h60l121 -220h35zM148 41c27 0 43 17 56 51l9 25h-93c-8 -9 -13 -20 -13 -33c0 -26 16 -43 41 -43z" />
    <glyph glyph-name="Ygrave.ss03" horiz-adv-x="384" 
d="M196 410h-37l-57 70h65zM306 380h56l-108 -294c-22 -59 -58 -91 -108 -91c-53 0 -89 35 -89 87c0 32 13 60 38 78h43l-126 220h60l121 -220h35zM148 41c27 0 43 17 56 51l9 25h-93c-8 -9 -13 -20 -13 -33c0 -26 16 -43 41 -43z" />
    <glyph glyph-name="K.ss04" horiz-adv-x="389" 
d="M349 48h12v-48h-26c-36 0 -58 22 -58 62v65c0 27 -15 44 -41 44h-124v-171h-52v380h52v-161h100l88 161h55l-91 -166c42 -6 65 -36 65 -89v-57c0 -12 8 -20 20 -20z" />
    <glyph glyph-name="uni0136.ss04" horiz-adv-x="389" 
d="M349 48h12v-48h-26c-36 0 -58 22 -58 62v65c0 27 -15 44 -41 44h-124v-171h-52v380h52v-161h100l88 161h55l-91 -166c42 -6 65 -36 65 -89v-57c0 -12 8 -20 20 -20zM179 -74v44h56v-37c0 -38 -20 -56 -48 -56h-8v27h8c13 0 19 7 20 22h-28z" />
    <glyph glyph-name="R.ss04" horiz-adv-x="389" 
d="M352 48h12v-48h-26c-36 0 -58 22 -58 62v45c0 27 -15 44 -41 44h-127v-151h-52v380h151c80 0 131 -45 131 -115c0 -40 -18 -70 -52 -88c27 -11 42 -37 42 -75v-34c0 -12 8 -20 20 -20zM206 333h-94v-136h94c56 0 84 23 84 68s-28 68 -84 68z" />
    <glyph glyph-name="Racute.ss04" horiz-adv-x="389" 
d="M261 480l-57 -70h-37l29 70h65zM352 48h12v-48h-26c-36 0 -58 22 -58 62v45c0 27 -15 44 -41 44h-127v-151h-52v380h151c80 0 131 -45 131 -115c0 -40 -18 -70 -52 -88c27 -11 42 -37 42 -75v-34c0 -12 8 -20 20 -20zM206 333h-94v-136h94c56 0 84 23 84 68
s-28 68 -84 68z" />
    <glyph glyph-name="Rcaron.ss04" horiz-adv-x="389" 
d="M210 410h-54l-57 70h47l37 -38l37 38h47zM352 48h12v-48h-26c-36 0 -58 22 -58 62v45c0 27 -15 44 -41 44h-127v-151h-52v380h151c80 0 131 -45 131 -115c0 -40 -18 -70 -52 -88c27 -11 42 -37 42 -75v-34c0 -12 8 -20 20 -20zM206 333h-94v-136h94c56 0 84 23 84 68
s-28 68 -84 68z" />
    <glyph glyph-name="uni0156.ss04" horiz-adv-x="389" 
d="M352 48h12v-48h-26c-36 0 -58 22 -58 62v45c0 27 -15 44 -41 44h-127v-151h-52v380h151c80 0 131 -45 131 -115c0 -40 -18 -70 -52 -88c27 -11 42 -37 42 -75v-34c0 -12 8 -20 20 -20zM206 333h-94v-136h94c56 0 84 23 84 68s-28 68 -84 68zM184 -74v44h56v-37
c0 -38 -20 -56 -48 -56h-8v27h8c13 0 19 7 20 22h-28z" />
    <glyph glyph-name="K.ss05" horiz-adv-x="389" 
d="M349 48h12v-48h-26c-36 0 -58 22 -58 62v65c0 27 -15 44 -41 44h-124v-171h-52v380h52v-161h100l88 161h55l-91 -166c42 -6 65 -36 65 -89v-57c0 -12 8 -20 20 -20z" />
    <glyph glyph-name="uni0136.ss05" horiz-adv-x="389" 
d="M349 48h12v-48h-26c-36 0 -58 22 -58 62v65c0 27 -15 44 -41 44h-124v-171h-52v380h52v-161h100l88 161h55l-91 -166c42 -6 65 -36 65 -89v-57c0 -12 8 -20 20 -20zM179 -74v44h56v-37c0 -38 -20 -56 -48 -56h-8v27h8c13 0 19 7 20 22h-28z" />
    <glyph glyph-name="R.ss05" horiz-adv-x="389" 
d="M352 48h12v-48h-26c-36 0 -58 22 -58 62v45c0 27 -15 44 -41 44h-127v-151h-52v380h151c80 0 131 -45 131 -115c0 -40 -18 -70 -52 -88c27 -11 42 -37 42 -75v-34c0 -12 8 -20 20 -20zM206 333h-94v-136h94c56 0 84 23 84 68s-28 68 -84 68z" />
    <glyph glyph-name="Racute.ss05" horiz-adv-x="389" 
d="M261 480l-57 -70h-37l29 70h65zM352 48h12v-48h-26c-36 0 -58 22 -58 62v45c0 27 -15 44 -41 44h-127v-151h-52v380h151c80 0 131 -45 131 -115c0 -40 -18 -70 -52 -88c27 -11 42 -37 42 -75v-34c0 -12 8 -20 20 -20zM206 333h-94v-136h94c56 0 84 23 84 68
s-28 68 -84 68z" />
    <glyph glyph-name="Rcaron.ss05" horiz-adv-x="389" 
d="M210 410h-54l-57 70h47l37 -38l37 38h47zM352 48h12v-48h-26c-36 0 -58 22 -58 62v45c0 27 -15 44 -41 44h-127v-151h-52v380h151c80 0 131 -45 131 -115c0 -40 -18 -70 -52 -88c27 -11 42 -37 42 -75v-34c0 -12 8 -20 20 -20zM206 333h-94v-136h94c56 0 84 23 84 68
s-28 68 -84 68z" />
    <glyph glyph-name="uni0156.ss05" horiz-adv-x="389" 
d="M352 48h12v-48h-26c-36 0 -58 22 -58 62v45c0 27 -15 44 -41 44h-127v-151h-52v380h151c80 0 131 -45 131 -115c0 -40 -18 -70 -52 -88c27 -11 42 -37 42 -75v-34c0 -12 8 -20 20 -20zM206 333h-94v-136h94c56 0 84 23 84 68s-28 68 -84 68zM184 -74v44h56v-37
c0 -38 -20 -56 -48 -56h-8v27h8c13 0 19 7 20 22h-28z" />
    <glyph glyph-name="a" unicode="a" horiz-adv-x="317" 
d="M286 44h11v-44c-2 -1 -10 -2 -17 -2c-37 0 -52 13 -55 49c-22 -31 -62 -52 -107 -52c-58 0 -98 36 -98 89c0 72 70 89 129 98c51 8 70 11 70 36c0 27 -27 44 -67 44c-35 0 -69 -15 -94 -41l-31 32c33 33 76 52 127 52c69 0 112 -37 112 -98v-143c0 -14 6 -20 20 -20z
M124 37c50 0 94 35 94 76v46c-11 -8 -29 -11 -62 -16c-42 -7 -86 -14 -86 -58c0 -31 20 -48 54 -48z" />
    <glyph glyph-name="aacute" unicode="&#xe1;" horiz-adv-x="317" 
d="M233 400l-57 -70h-37l29 70h65zM286 44h11v-44c-2 -1 -10 -2 -17 -2c-37 0 -52 13 -55 49c-22 -31 -62 -52 -107 -52c-58 0 -98 36 -98 89c0 72 70 89 129 98c51 8 70 11 70 36c0 27 -27 44 -67 44c-35 0 -69 -15 -94 -41l-31 32c33 33 76 52 127 52
c69 0 112 -37 112 -98v-143c0 -14 6 -20 20 -20zM124 37c50 0 94 35 94 76v46c-11 -8 -29 -11 -62 -16c-42 -7 -86 -14 -86 -58c0 -31 20 -48 54 -48z" />
    <glyph glyph-name="abreve" unicode="&#x103;" horiz-adv-x="317" 
d="M154 330c-46 0 -78 27 -83 70l41 3c3 -23 17 -35 42 -35s39 12 42 35l41 -3c-5 -43 -37 -70 -83 -70zM286 44h11v-44c-2 -1 -10 -2 -17 -2c-37 0 -52 13 -55 49c-22 -31 -62 -52 -107 -52c-58 0 -98 36 -98 89c0 72 70 89 129 98c51 8 70 11 70 36c0 27 -27 44 -67 44
c-35 0 -69 -15 -94 -41l-31 32c33 33 76 52 127 52c69 0 112 -37 112 -98v-143c0 -14 6 -20 20 -20zM124 37c50 0 94 35 94 76v46c-11 -8 -29 -11 -62 -16c-42 -7 -86 -14 -86 -58c0 -31 20 -48 54 -48z" />
    <glyph glyph-name="acircumflex" unicode="&#xe2;" horiz-adv-x="317" 
d="M155 368l-37 -38h-47l57 70h54l57 -70h-47zM286 44h11v-44c-2 -1 -10 -2 -17 -2c-37 0 -52 13 -55 49c-22 -31 -62 -52 -107 -52c-58 0 -98 36 -98 89c0 72 70 89 129 98c51 8 70 11 70 36c0 27 -27 44 -67 44c-35 0 -69 -15 -94 -41l-31 32c33 33 76 52 127 52
c69 0 112 -37 112 -98v-143c0 -14 6 -20 20 -20zM124 37c50 0 94 35 94 76v46c-11 -8 -29 -11 -62 -16c-42 -7 -86 -14 -86 -58c0 -31 20 -48 54 -48z" />
    <glyph glyph-name="adieresis" unicode="&#xe4;" horiz-adv-x="317" 
d="M134 400v-56h-56v56h56zM230 400v-56h-56v56h56zM286 44h11v-44c-2 -1 -10 -2 -17 -2c-37 0 -52 13 -55 49c-22 -31 -62 -52 -107 -52c-58 0 -98 36 -98 89c0 72 70 89 129 98c51 8 70 11 70 36c0 27 -27 44 -67 44c-35 0 -69 -15 -94 -41l-31 32c33 33 76 52 127 52
c69 0 112 -37 112 -98v-143c0 -14 6 -20 20 -20zM124 37c50 0 94 35 94 76v46c-11 -8 -29 -11 -62 -16c-42 -7 -86 -14 -86 -58c0 -31 20 -48 54 -48z" />
    <glyph glyph-name="agrave" unicode="&#xe0;" horiz-adv-x="317" 
d="M169 330h-37l-57 70h65zM286 44h11v-44c-2 -1 -10 -2 -17 -2c-37 0 -52 13 -55 49c-22 -31 -62 -52 -107 -52c-58 0 -98 36 -98 89c0 72 70 89 129 98c51 8 70 11 70 36c0 27 -27 44 -67 44c-35 0 -69 -15 -94 -41l-31 32c33 33 76 52 127 52c69 0 112 -37 112 -98v-143
c0 -14 6 -20 20 -20zM124 37c50 0 94 35 94 76v46c-11 -8 -29 -11 -62 -16c-42 -7 -86 -14 -86 -58c0 -31 20 -48 54 -48z" />
    <glyph glyph-name="amacron" unicode="&#x101;" horiz-adv-x="317" 
d="M234 400v-40h-160v40h160zM286 44h11v-44c-2 -1 -10 -2 -17 -2c-37 0 -52 13 -55 49c-22 -31 -62 -52 -107 -52c-58 0 -98 36 -98 89c0 72 70 89 129 98c51 8 70 11 70 36c0 27 -27 44 -67 44c-35 0 -69 -15 -94 -41l-31 32c33 33 76 52 127 52c69 0 112 -37 112 -98
v-143c0 -14 6 -20 20 -20zM124 37c50 0 94 35 94 76v46c-11 -8 -29 -11 -62 -16c-42 -7 -86 -14 -86 -58c0 -31 20 -48 54 -48z" />
    <glyph glyph-name="aogonek" unicode="&#x105;" horiz-adv-x="317" 
d="M285 -55l17 -31c-14 -9 -30 -14 -47 -14c-34 0 -56 21 -56 50c0 23 17 45 47 55c-13 7 -20 20 -21 42c-22 -31 -62 -52 -107 -52c-58 0 -98 36 -98 89c0 72 70 89 129 98c51 8 70 11 70 36c0 27 -27 44 -67 44c-35 0 -69 -15 -94 -41l-31 32c33 33 76 52 127 52
c69 0 112 -37 112 -98v-143c0 -14 6 -20 20 -20h11v-44s-1 0 -2 -1c-43 -13 -57 -28 -57 -44c0 -12 8 -19 21 -19c9 0 18 3 26 9zM124 37c50 0 94 35 94 76v46c-11 -8 -29 -11 -62 -16c-42 -7 -86 -14 -86 -58c0 -31 20 -48 54 -48z" />
    <glyph glyph-name="aring" unicode="&#xe5;" horiz-adv-x="317" 
d="M154 330c-36 0 -63 26 -63 62s27 62 63 62s63 -26 63 -62s-27 -62 -63 -62zM154 421c-17 0 -29 -12 -29 -29s12 -29 29 -29s29 12 29 29s-12 29 -29 29zM286 44h11v-44c-2 -1 -10 -2 -17 -2c-37 0 -52 13 -55 49c-22 -31 -62 -52 -107 -52c-58 0 -98 36 -98 89
c0 72 70 89 129 98c51 8 70 11 70 36c0 27 -27 44 -67 44c-35 0 -69 -15 -94 -41l-31 32c33 33 76 52 127 52c69 0 112 -37 112 -98v-143c0 -14 6 -20 20 -20zM124 37c50 0 94 35 94 76v46c-11 -8 -29 -11 -62 -16c-42 -7 -86 -14 -86 -58c0 -31 20 -48 54 -48z" />
    <glyph glyph-name="atilde" unicode="&#xe3;" horiz-adv-x="317" 
d="M124 365c-10 0 -19 -7 -26 -24l-32 18c12 30 32 45 56 45c29 0 46 -25 64 -25c10 0 19 7 26 24l32 -18c-12 -30 -32 -45 -56 -45c-29 0 -46 25 -64 25zM286 44h11v-44c-2 -1 -10 -2 -17 -2c-37 0 -52 13 -55 49c-22 -31 -62 -52 -107 -52c-58 0 -98 36 -98 89
c0 72 70 89 129 98c51 8 70 11 70 36c0 27 -27 44 -67 44c-35 0 -69 -15 -94 -41l-31 32c33 33 76 52 127 52c69 0 112 -37 112 -98v-143c0 -14 6 -20 20 -20zM124 37c50 0 94 35 94 76v46c-11 -8 -29 -11 -62 -16c-42 -7 -86 -14 -86 -58c0 -31 20 -48 54 -48z" />
    <glyph glyph-name="ae" unicode="&#xe6;" horiz-adv-x="518" 
d="M269 134c5 -58 41 -95 94 -95c45 0 72 18 87 40l34 -31c-21 -29 -60 -53 -120 -53c-56 0 -96 26 -119 67c-17 -32 -52 -67 -113 -67c-64 0 -107 36 -107 89c0 54 43 88 127 99c59 8 72 7 72 33c0 24 -27 46 -67 46c-35 0 -69 -15 -94 -41l-31 32c33 33 76 52 127 52
c48 0 82 -20 95 -54c24 34 60 54 105 54c81 0 134 -61 134 -155c0 -6 0 -11 -1 -16h-223zM359 262c-48 0 -82 -34 -89 -88h172c-7 54 -38 88 -83 88zM132 37c45 0 91 30 91 89v35c-12 -8 -32 -10 -66 -15c-59 -9 -84 -27 -84 -61c0 -31 22 -48 59 -48z" />
    <glyph glyph-name="b" unicode="b" horiz-adv-x="362" 
d="M202 305c80 0 133 -61 133 -155c0 -92 -56 -155 -133 -155c-46 0 -82 19 -106 53l-4 -48h-42v400h50v-145c24 32 60 50 102 50zM190 39c57 0 94 44 94 111s-37 111 -94 111s-94 -44 -94 -111s37 -111 94 -111z" />
    <glyph glyph-name="c" unicode="c" horiz-adv-x="326" 
d="M175 -5c-87 0 -148 63 -148 155s61 155 148 155c63 0 115 -33 131 -90l-47 -15c-14 38 -44 61 -84 61c-60 0 -97 -44 -97 -111s37 -111 97 -111c40 0 71 23 85 61l46 -15c-17 -57 -69 -90 -131 -90z" />
    <glyph glyph-name="cacute" unicode="&#x107;" horiz-adv-x="326" 
d="M156 330l29 70h65l-57 -70h-37zM175 -5c-87 0 -148 63 -148 155s61 155 148 155c63 0 115 -33 131 -90l-47 -15c-14 38 -44 61 -84 61c-60 0 -97 -44 -97 -111s37 -111 97 -111c40 0 71 23 85 61l46 -15c-17 -57 -69 -90 -131 -90z" />
    <glyph glyph-name="ccaron" unicode="&#x10d;" horiz-adv-x="326" 
d="M199 330h-54l-57 70h47l37 -38l37 38h47zM175 39c40 0 71 23 85 61l46 -15c-17 -57 -69 -90 -131 -90c-87 0 -148 63 -148 155s61 155 148 155c63 0 115 -33 131 -90l-47 -15c-14 38 -44 61 -84 61c-60 0 -97 -44 -97 -111s37 -111 97 -111z" />
    <glyph glyph-name="ccedilla" unicode="&#xe7;" horiz-adv-x="326" 
d="M175 39c40 0 71 23 85 61l46 -15c-15 -51 -59 -83 -112 -89l-13 -20c5 1 9 1 13 1c28 0 49 -15 49 -42c0 -26 -28 -45 -68 -45c-23 0 -47 8 -64 21l18 27c15 -10 31 -17 47 -17c17 0 27 6 27 16c0 9 -9 14 -20 14c-7 0 -15 -2 -21 -5l-27 15l22 35
c-78 8 -130 69 -130 154c0 92 61 155 148 155c63 0 115 -33 131 -90l-47 -15c-14 38 -44 61 -84 61c-60 0 -97 -44 -97 -111s37 -111 97 -111z" />
    <glyph glyph-name="cdotaccent" unicode="&#x10b;" horiz-adv-x="326" 
d="M143 344v56h56v-56h-56zM175 -5c-87 0 -148 63 -148 155s61 155 148 155c63 0 115 -33 131 -90l-47 -15c-14 38 -44 61 -84 61c-60 0 -97 -44 -97 -111s37 -111 97 -111c40 0 71 23 85 61l46 -15c-17 -57 -69 -90 -131 -90z" />
    <glyph glyph-name="d" unicode="d" horiz-adv-x="362" 
d="M262 400h50v-400h-42l-4 50c-24 -35 -62 -55 -106 -55c-80 0 -133 61 -133 155c0 92 56 155 133 155c43 0 79 -17 102 -48v143zM172 39c57 0 94 44 94 111s-37 111 -94 111s-94 -44 -94 -111s37 -111 94 -111z" />
    <glyph glyph-name="eth" unicode="&#xf0;" horiz-adv-x="343" 
d="M229 354c48 -46 79 -112 79 -198c0 -99 -58 -161 -141 -161c-85 0 -140 58 -140 147c0 87 56 147 134 147c28 0 57 -10 79 -30c-12 29 -30 53 -52 73l-62 -34l-19 31l48 26c-13 8 -27 15 -41 20l21 38c22 -9 44 -20 64 -34l56 31l19 -32zM167 39c54 0 89 41 89 103
s-35 103 -89 103s-89 -41 -89 -103s35 -103 89 -103z" />
    <glyph glyph-name="dcaron" unicode="&#x10f;" horiz-adv-x="362" 
d="M262 257v143h50v-400h-42l-4 50c-24 -35 -62 -55 -106 -55c-80 0 -133 61 -133 155c0 92 56 155 133 155c43 0 79 -17 102 -48zM355 400h54l-20 -80h-34v80zM172 39c57 0 94 44 94 111s-37 111 -94 111s-94 -44 -94 -111s37 -111 94 -111z" />
    <glyph glyph-name="dcroat" unicode="&#x111;" horiz-adv-x="362" 
d="M362 365v-41h-50v-324h-42l-4 50c-24 -35 -62 -55 -106 -55c-80 0 -133 61 -133 155c0 92 56 155 133 155c43 0 79 -17 102 -48v67h-60v41h60v35h50v-35h50zM172 39c57 0 94 44 94 111s-37 111 -94 111s-94 -44 -94 -111s37 -111 94 -111z" />
    <glyph glyph-name="e" unicode="e" horiz-adv-x="341" 
d="M78 134c6 -58 43 -95 100 -95c49 0 77 18 93 41l36 -31c-22 -29 -63 -54 -128 -54c-97 0 -152 66 -152 155c0 92 61 155 147 155s142 -61 142 -155c0 -6 0 -11 -1 -16h-237zM174 262c-52 0 -87 -34 -95 -88h185c-7 54 -41 88 -90 88z" />
    <glyph glyph-name="eacute" unicode="&#xe9;" horiz-adv-x="341" 
d="M250 400l-57 -70h-37l29 70h65zM78 134c6 -58 43 -95 100 -95c49 0 77 18 93 41l36 -31c-22 -29 -63 -54 -128 -54c-97 0 -152 66 -152 155c0 92 61 155 147 155s142 -61 142 -155c0 -6 0 -11 -1 -16h-237zM174 262c-52 0 -87 -34 -95 -88h185c-7 54 -41 88 -90 88z" />
    <glyph glyph-name="ecaron" unicode="&#x11b;" horiz-adv-x="341" 
d="M199 330h-54l-57 70h47l37 -38l37 38h47zM78 134c6 -58 43 -95 100 -95c49 0 77 18 93 41l36 -31c-22 -29 -63 -54 -128 -54c-97 0 -152 66 -152 155c0 92 61 155 147 155s142 -61 142 -155c0 -6 0 -11 -1 -16h-237zM174 262c-52 0 -87 -34 -95 -88h185
c-7 54 -41 88 -90 88z" />
    <glyph glyph-name="ecircumflex" unicode="&#xea;" horiz-adv-x="341" 
d="M172 368l-37 -38h-47l57 70h54l57 -70h-47zM78 134c6 -58 43 -95 100 -95c49 0 77 18 93 41l36 -31c-22 -29 -63 -54 -128 -54c-97 0 -152 66 -152 155c0 92 61 155 147 155s142 -61 142 -155c0 -6 0 -11 -1 -16h-237zM174 262c-52 0 -87 -34 -95 -88h185
c-7 54 -41 88 -90 88z" />
    <glyph glyph-name="edieresis" unicode="&#xeb;" horiz-adv-x="341" 
d="M151 400v-56h-56v56h56zM247 400v-56h-56v56h56zM78 134c6 -58 43 -95 100 -95c49 0 77 18 93 41l36 -31c-22 -29 -63 -54 -128 -54c-97 0 -152 66 -152 155c0 92 61 155 147 155s142 -61 142 -155c0 -6 0 -11 -1 -16h-237zM174 262c-52 0 -87 -34 -95 -88h185
c-7 54 -41 88 -90 88z" />
    <glyph glyph-name="edotaccent" unicode="&#x117;" horiz-adv-x="341" 
d="M199 400v-56h-56v56h56zM78 134c6 -58 43 -95 100 -95c49 0 77 18 93 41l36 -31c-22 -29 -63 -54 -128 -54c-97 0 -152 66 -152 155c0 92 61 155 147 155s142 -61 142 -155c0 -6 0 -11 -1 -16h-237zM174 262c-52 0 -87 -34 -95 -88h185c-7 54 -41 88 -90 88z" />
    <glyph glyph-name="egrave" unicode="&#xe8;" horiz-adv-x="341" 
d="M186 330h-37l-57 70h65zM78 134c6 -58 43 -95 100 -95c49 0 77 18 93 41l36 -31c-22 -29 -63 -54 -128 -54c-97 0 -152 66 -152 155c0 92 61 155 147 155s142 -61 142 -155c0 -6 0 -11 -1 -16h-237zM174 262c-52 0 -87 -34 -95 -88h185c-7 54 -41 88 -90 88z" />
    <glyph glyph-name="emacron" unicode="&#x113;" horiz-adv-x="341" 
d="M251 400v-40h-160v40h160zM78 134c6 -58 43 -95 100 -95c49 0 77 18 93 41l36 -31c-22 -29 -63 -54 -128 -54c-97 0 -152 66 -152 155c0 92 61 155 147 155s142 -61 142 -155c0 -6 0 -11 -1 -16h-237zM174 262c-52 0 -87 -34 -95 -88h185c-7 54 -41 88 -90 88z" />
    <glyph glyph-name="eogonek" unicode="&#x119;" horiz-adv-x="343" 
d="M78 134c6 -58 43 -95 100 -95c49 0 77 18 93 41l36 -31c-9 -12 -21 -23 -36 -32l3 1c-38 -29 -68 -35 -68 -61c0 -11 8 -18 21 -18c9 0 19 4 28 10l17 -30c-14 -10 -31 -16 -49 -16c-34 0 -56 19 -56 45c0 19 11 37 30 48c-6 -1 -12 -1 -18 -1c-97 0 -152 66 -152 155
c0 92 61 155 147 155s142 -61 142 -155c0 -6 0 -11 -1 -16h-237zM174 262c-52 0 -87 -34 -95 -88h185c-7 54 -41 88 -90 88z" />
    <glyph glyph-name="f" unicode="f" horiz-adv-x="227" 
d="M167 361c-25 0 -39 -14 -39 -37v-24h87v-43h-87v-257h-50v257h-63v43h63v26c0 49 35 79 92 79c28 0 54 -8 77 -24l-24 -39c-16 13 -33 19 -56 19z" />
    <glyph glyph-name="g" unicode="g" horiz-adv-x="362" 
d="M270 300h42l-1 -273c0 -77 -54 -132 -142 -132c-53 0 -92 16 -119 44l30 35c24 -26 51 -35 89 -35c71 0 95 41 95 90v32c-24 -31 -61 -50 -104 -50c-80 0 -133 58 -133 147c0 87 56 147 133 147c46 0 83 -19 106 -51zM172 54c57 0 94 41 94 104c0 62 -37 103 -94 103
s-94 -41 -94 -103c0 -63 37 -104 94 -104z" />
    <glyph glyph-name="gbreve" unicode="&#x11f;" horiz-adv-x="362" 
d="M172 330c-46 0 -78 27 -83 70l41 3c3 -23 17 -35 42 -35s39 12 42 35l41 -3c-5 -43 -37 -70 -83 -70zM270 300h42l-1 -273c0 -77 -54 -132 -142 -132c-53 0 -92 16 -119 44l30 35c24 -26 51 -35 89 -35c71 0 95 41 95 90v32c-24 -31 -61 -50 -104 -50
c-80 0 -133 58 -133 147c0 87 56 147 133 147c46 0 83 -19 106 -51zM172 54c57 0 94 41 94 104c0 62 -37 103 -94 103s-94 -41 -94 -103c0 -63 37 -104 94 -104z" />
    <glyph glyph-name="uni0123" unicode="&#x123;" horiz-adv-x="362" 
d="M200 388v-54h-56v54c0 38 20 56 48 56h8v-27h-8c-14 0 -20 -8 -20 -24v-5h28zM270 300h42l-1 -273c0 -77 -54 -132 -142 -132c-53 0 -92 16 -119 44l30 35c24 -26 51 -35 89 -35c71 0 95 41 95 90v32c-24 -31 -61 -50 -104 -50c-80 0 -133 58 -133 147
c0 87 56 147 133 147c46 0 83 -19 106 -51zM172 54c57 0 94 41 94 104c0 62 -37 103 -94 103s-94 -41 -94 -103c0 -63 37 -104 94 -104z" />
    <glyph glyph-name="gdotaccent" unicode="&#x121;" horiz-adv-x="362" 
d="M200 400v-56h-56v56h56zM270 300h42l-1 -273c0 -77 -54 -132 -142 -132c-53 0 -92 16 -119 44l30 35c24 -26 51 -35 89 -35c71 0 95 41 95 90v32c-24 -31 -61 -50 -104 -50c-80 0 -133 58 -133 147c0 87 56 147 133 147c46 0 83 -19 106 -51zM172 54c57 0 94 41 94 104
c0 62 -37 103 -94 103s-94 -41 -94 -103c0 -63 37 -104 94 -104z" />
    <glyph glyph-name="h" unicode="h" horiz-adv-x="359" 
d="M204 305c65 0 110 -46 110 -115v-190h-50v175c0 55 -27 86 -72 86c-51 0 -92 -36 -92 -88v-173h-50v400h50v-144c23 30 60 49 104 49z" />
    <glyph glyph-name="hbar" unicode="&#x127;" horiz-adv-x="359" 
d="M204 305c65 0 110 -46 110 -115v-190h-50v175c0 55 -27 86 -72 86c-51 0 -92 -36 -92 -88v-173h-50v324h-38v41h38v35h50v-35h72v-41h-72v-68c23 30 60 49 104 49z" />
    <glyph glyph-name="i" unicode="i" horiz-adv-x="160" 
d="M52 344v56h56v-56h-56zM55 0v300h50v-300h-50z" />
    <glyph glyph-name="dotlessi" unicode="&#x131;" horiz-adv-x="160" 
d="M55 0v300h50v-300h-50z" />
    <glyph glyph-name="iacute" unicode="&#xed;" horiz-adv-x="160" 
d="M65 330l29 70h65l-57 -70h-37zM55 0v300h50v-300h-50z" />
    <glyph glyph-name="icircumflex" unicode="&#xee;" horiz-adv-x="160" 
d="M108 400l57 -70h-47l-37 38l-37 -38h-47l57 70h54zM55 0v300h50v-300h-50z" />
    <glyph glyph-name="idieresis" unicode="&#xef;" horiz-adv-x="160" 
d="M4 344v56h56v-56h-56zM100 344v56h56v-56h-56zM55 0v300h50v-300h-50z" />
    <glyph glyph-name="i.loclTRK" horiz-adv-x="160" 
d="M52 344v56h56v-56h-56zM55 0v300h50v-300h-50z" />
    <glyph glyph-name="igrave" unicode="&#xec;" horiz-adv-x="160" 
d="M95 330h-37l-57 70h65zM55 0v300h50v-300h-50z" />
    <glyph glyph-name="imacron" unicode="&#x12b;" horiz-adv-x="160" 
d="M0 360v40h160v-40h-160zM55 0v300h50v-300h-50z" />
    <glyph glyph-name="iogonek" unicode="&#x12f;" horiz-adv-x="160" 
d="M108 400v-56h-56v56h56zM93 -55l17 -31c-14 -9 -30 -14 -47 -14c-34 0 -56 21 -56 50c0 23 18 46 48 55v295h50v-300c-44 -13 -59 -29 -59 -45c0 -12 8 -19 21 -19c9 0 18 3 26 9z" />
    <glyph glyph-name="j" unicode="j" horiz-adv-x="155" 
d="M52 344v56h56v-56h-56zM28 -102c-8 0 -20 1 -28 2v46c8 -1 15 -1 23 -1c21 0 32 9 32 33v322h50v-324c0 -58 -31 -78 -77 -78z" />
    <glyph glyph-name="uni0237" unicode="&#x237;" horiz-adv-x="155" 
d="M28 -102c-8 0 -20 1 -28 2v46c8 -1 15 -1 23 -1c21 0 32 9 32 33v322h50v-324c0 -58 -31 -78 -77 -78z" />
    <glyph glyph-name="k" unicode="k" horiz-adv-x="316" 
d="M254 0l-109 145l-45 -42v-103h-50v400h50v-239l146 139h64l-129 -121l135 -179h-62z" />
    <glyph glyph-name="uni0137" unicode="&#x137;" horiz-adv-x="316" 
d="M181 179l135 -179h-62l-109 145l-45 -42v-103h-50v400h50v-239l146 139h64zM139 -74v44h56v-37c0 -38 -20 -56 -48 -56h-8v27h8c13 0 19 7 20 22h-28z" />
    <glyph glyph-name="kgreenlandic" unicode="&#x138;" horiz-adv-x="316" 
d="M254 0l-109 145l-45 -42v-103h-50v300h50v-139l146 139h64l-129 -121l135 -179h-62z" />
    <glyph glyph-name="l" unicode="l" horiz-adv-x="150" 
d="M50 0v400h50v-400h-50z" />
    <glyph glyph-name="lacute" unicode="&#x13a;" horiz-adv-x="150" 
d="M60 430l29 70h65l-57 -70h-37zM50 0v400h50v-400h-50z" />
    <glyph glyph-name="lcaron" unicode="&#x13e;" horiz-adv-x="150" 
d="M50 0v400h50v-400h-50zM140 320v80h54l-20 -80h-34z" />
    <glyph glyph-name="uni013C" unicode="&#x13c;" horiz-adv-x="150" 
d="M100 400v-400h-50v400h50zM47 -30h56v-37c0 -38 -20 -56 -48 -56h-8v27h8c13 0 19 7 20 22h-28v44z" />
    <glyph glyph-name="lslash" unicode="&#x142;" horiz-adv-x="160" 
d="M145 239v-42l-40 -12v-185h-50v169l-40 -12v42l40 12v189h50v-173z" />
    <glyph glyph-name="m" unicode="m" horiz-adv-x="557" 
d="M405 305c65 0 107 -46 107 -115v-190h-50v175c0 55 -23 86 -68 86c-51 0 -88 -36 -88 -88v-173h-50v175c0 55 -23 86 -68 86c-51 0 -88 -36 -88 -88v-173h-50v300h42l4 -48c21 33 58 53 104 53s79 -23 95 -60c21 37 61 60 110 60z" />
    <glyph glyph-name="n" unicode="n" 
d="M205 305c65 0 110 -46 110 -115v-190h-50v175c0 55 -27 86 -72 86c-52 0 -93 -36 -93 -88v-173h-50v300h42l4 -50c22 34 62 55 109 55z" />
    <glyph glyph-name="nacute" unicode="&#x144;" 
d="M260 400l-57 -70h-37l29 70h65zM205 305c65 0 110 -46 110 -115v-190h-50v175c0 55 -27 86 -72 86c-52 0 -93 -36 -93 -88v-173h-50v300h42l4 -50c22 34 62 55 109 55z" />
    <glyph glyph-name="ncaron" unicode="&#x148;" 
d="M209 330h-54l-57 70h47l37 -38l37 38h47zM205 305c65 0 110 -46 110 -115v-190h-50v175c0 55 -27 86 -72 86c-52 0 -93 -36 -93 -88v-173h-50v300h42l4 -50c22 34 62 55 109 55z" />
    <glyph glyph-name="uni0146" unicode="&#x146;" 
d="M205 305c65 0 110 -46 110 -115v-190h-50v175c0 55 -27 86 -72 86c-52 0 -93 -36 -93 -88v-173h-50v300h42l4 -50c22 34 62 55 109 55zM153 -74v44h56v-37c0 -38 -20 -56 -48 -56h-8v27h8c13 0 19 7 20 22h-28z" />
    <glyph glyph-name="eng" unicode="&#x14b;" horiz-adv-x="359" 
d="M204 305c65 0 110 -46 110 -115v-214c0 -58 -31 -78 -77 -78c-8 0 -20 1 -28 2v45h23c21 0 32 9 32 33v197c0 55 -27 86 -72 86c-51 0 -92 -36 -92 -88v-173h-50v300h42l4 -50c22 34 62 55 108 55z" />
    <glyph glyph-name="ntilde" unicode="&#xf1;" 
d="M151 365c-10 0 -19 -7 -26 -24l-32 18c12 30 32 45 56 45c29 0 46 -25 64 -25c10 0 19 7 26 24l32 -18c-12 -30 -32 -45 -56 -45c-29 0 -46 25 -64 25zM205 305c65 0 110 -46 110 -115v-190h-50v175c0 55 -27 86 -72 86c-52 0 -93 -36 -93 -88v-173h-50v300h42l4 -50
c22 34 62 55 109 55z" />
    <glyph glyph-name="o" unicode="o" horiz-adv-x="354" 
d="M177 -5c-91 0 -150 61 -150 155c0 92 62 155 150 155c91 0 150 -61 150 -155c0 -92 -62 -155 -150 -155zM177 39c60 0 99 44 99 111s-39 111 -99 111s-99 -44 -99 -111s39 -111 99 -111z" />
    <glyph glyph-name="oacute" unicode="&#xf3;" horiz-adv-x="354" 
d="M162 330l29 70h65l-57 -70h-37zM177 -5c-91 0 -150 61 -150 155c0 92 62 155 150 155c91 0 150 -61 150 -155c0 -92 -62 -155 -150 -155zM177 39c60 0 99 44 99 111s-39 111 -99 111s-99 -44 -99 -111s39 -111 99 -111z" />
    <glyph glyph-name="ocircumflex" unicode="&#xf4;" horiz-adv-x="354" 
d="M178 368l-37 -38h-47l57 70h54l57 -70h-47zM177 305c91 0 150 -61 150 -155c0 -92 -62 -155 -150 -155c-91 0 -150 61 -150 155c0 92 62 155 150 155zM177 39c60 0 99 44 99 111s-39 111 -99 111s-99 -44 -99 -111s39 -111 99 -111z" />
    <glyph glyph-name="odieresis" unicode="&#xf6;" horiz-adv-x="354" 
d="M101 344v56h56v-56h-56zM197 344v56h56v-56h-56zM177 -5c-91 0 -150 61 -150 155c0 92 62 155 150 155c91 0 150 -61 150 -155c0 -92 -62 -155 -150 -155zM177 39c60 0 99 44 99 111s-39 111 -99 111s-99 -44 -99 -111s39 -111 99 -111z" />
    <glyph glyph-name="ograve" unicode="&#xf2;" horiz-adv-x="354" 
d="M192 330h-37l-57 70h65zM177 -5c-91 0 -150 61 -150 155c0 92 62 155 150 155c91 0 150 -61 150 -155c0 -92 -62 -155 -150 -155zM177 39c60 0 99 44 99 111s-39 111 -99 111s-99 -44 -99 -111s39 -111 99 -111z" />
    <glyph glyph-name="ohungarumlaut" unicode="&#x151;" horiz-adv-x="354" 
d="M113 330l29 70h65l-57 -70h-37zM203 330l29 70h65l-57 -70h-37zM177 -5c-91 0 -150 61 -150 155c0 92 62 155 150 155c91 0 150 -61 150 -155c0 -92 -62 -155 -150 -155zM177 39c60 0 99 44 99 111s-39 111 -99 111s-99 -44 -99 -111s39 -111 99 -111z" />
    <glyph glyph-name="omacron" unicode="&#x14d;" horiz-adv-x="354" 
d="M97 360v40h160v-40h-160zM177 -5c-91 0 -150 61 -150 155c0 92 62 155 150 155c91 0 150 -61 150 -155c0 -92 -62 -155 -150 -155zM177 39c60 0 99 44 99 111s-39 111 -99 111s-99 -44 -99 -111s39 -111 99 -111z" />
    <glyph glyph-name="oslash" unicode="&#xf8;" horiz-adv-x="354" 
d="M328 305l-38 -46c24 -27 37 -64 37 -109c0 -92 -62 -155 -150 -155c-34 0 -63 8 -86 24l-20 -24h-44l38 46c-24 26 -38 64 -38 109c0 92 62 155 150 155c34 0 63 -8 87 -24l20 24h44zM78 150c0 -28 7 -52 19 -70l137 164c-16 11 -35 17 -57 17c-60 0 -99 -44 -99 -111z
M276 150c0 28 -7 51 -19 70l-136 -165c15 -10 34 -16 56 -16c60 0 99 44 99 111z" />
    <glyph glyph-name="otilde" unicode="&#xf5;" horiz-adv-x="354" 
d="M267 385c-12 -30 -32 -45 -56 -45c-29 0 -46 25 -64 25c-10 0 -19 -7 -26 -24l-32 18c12 30 32 45 56 45c29 0 46 -25 64 -25c10 0 19 7 26 24zM177 -5c-91 0 -150 61 -150 155c0 92 62 155 150 155c91 0 150 -61 150 -155c0 -92 -62 -155 -150 -155zM177 39
c60 0 99 44 99 111s-39 111 -99 111s-99 -44 -99 -111s39 -111 99 -111z" />
    <glyph glyph-name="oe" unicode="&#x153;" horiz-adv-x="561" 
d="M312 134c5 -58 41 -95 94 -95c45 0 72 18 87 40l34 -31c-21 -29 -60 -53 -120 -53c-57 0 -97 27 -120 69c-24 -43 -67 -69 -120 -69c-85 0 -140 61 -140 155c0 92 58 155 140 155c55 0 98 -25 121 -68c23 42 64 68 114 68c81 0 134 -61 134 -155c0 -6 0 -11 -1 -16h-223z
M402 262c-48 0 -82 -34 -89 -88h172c-7 54 -38 88 -83 88zM172 39c57 0 94 44 94 111s-37 111 -94 111s-94 -44 -94 -111s37 -111 94 -111z" />
    <glyph glyph-name="p" unicode="p" horiz-adv-x="362" 
d="M202 305c80 0 133 -61 133 -155c0 -92 -56 -155 -133 -155c-43 0 -79 17 -102 48v-143h-50v400h42l4 -50c24 35 62 55 106 55zM190 39c57 0 94 44 94 111s-37 111 -94 111s-94 -44 -94 -111s37 -111 94 -111z" />
    <glyph glyph-name="thorn" unicode="&#xfe;" horiz-adv-x="362" 
d="M202 305c80 0 133 -61 133 -155c0 -92 -56 -155 -133 -155c-43 0 -79 17 -102 48v-143h-50v500h50v-145c24 32 60 50 102 50zM190 39c57 0 94 44 94 111s-37 111 -94 111s-94 -44 -94 -111s37 -111 94 -111z" />
    <glyph glyph-name="q" unicode="q" horiz-adv-x="362" 
d="M270 300h42v-400h-50v145c-24 -32 -60 -50 -102 -50c-80 0 -133 61 -133 155c0 92 56 155 133 155c46 0 82 -19 106 -53zM172 39c57 0 94 44 94 111s-37 111 -94 111s-94 -44 -94 -111s37 -111 94 -111z" />
    <glyph glyph-name="r" unicode="r" horiz-adv-x="235" 
d="M204 305c7 0 14 -1 21 -2v-49c-11 1 -22 1 -35 1c-50 0 -90 -35 -90 -85v-170h-50v300h42l4 -50c22 34 62 55 108 55z" />
    <glyph glyph-name="racute" unicode="&#x155;" horiz-adv-x="235" 
d="M213 400l-57 -70h-37l29 70h65zM204 305c7 0 14 -1 21 -2v-49c-11 1 -22 1 -35 1c-50 0 -90 -35 -90 -85v-170h-50v300h42l4 -50c22 34 62 55 108 55z" />
    <glyph glyph-name="rcaron" unicode="&#x159;" horiz-adv-x="235" 
d="M162 330h-54l-57 70h47l37 -38l37 38h47zM204 305c7 0 14 -1 21 -2v-49c-11 1 -22 1 -35 1c-50 0 -90 -35 -90 -85v-170h-50v300h42l4 -50c22 34 62 55 108 55z" />
    <glyph glyph-name="uni0157" unicode="&#x157;" horiz-adv-x="235" 
d="M204 305c7 0 14 -1 21 -2v-49c-11 1 -22 1 -35 1c-50 0 -90 -35 -90 -85v-170h-50v300h42l4 -50c22 34 62 55 108 55zM47 -74v44h56v-37c0 -38 -20 -56 -48 -56h-8v27h8c13 0 19 7 20 22h-28z" />
    <glyph glyph-name="s" unicode="s" horiz-adv-x="288" 
d="M146 -5c-51 0 -93 16 -126 47l29 35c25 -25 58 -38 98 -38c43 0 68 15 68 41c0 23 -18 35 -75 49c-78 20 -107 44 -107 89c0 52 46 87 114 87c40 0 79 -13 110 -37l-30 -39c-22 21 -50 32 -82 32c-38 0 -63 -15 -63 -39c0 -21 18 -33 72 -47c80 -22 109 -46 109 -91
c0 -54 -46 -89 -117 -89z" />
    <glyph glyph-name="sacute" unicode="&#x15b;" horiz-adv-x="288" 
d="M126 330l29 70h65l-57 -70h-37zM146 -5c-51 0 -93 16 -126 47l29 35c25 -25 58 -38 98 -38c43 0 68 15 68 41c0 23 -18 35 -75 49c-78 20 -107 44 -107 89c0 52 46 87 114 87c40 0 79 -13 110 -37l-30 -39c-22 21 -50 32 -82 32c-38 0 -63 -15 -63 -39
c0 -21 18 -33 72 -47c80 -22 109 -46 109 -91c0 -54 -46 -89 -117 -89z" />
    <glyph glyph-name="scaron" unicode="&#x161;" horiz-adv-x="288" 
d="M169 330h-54l-57 70h47l37 -38l37 38h47zM154 175c80 -22 109 -46 109 -91c0 -54 -46 -89 -117 -89c-51 0 -93 16 -126 47l29 35c25 -25 58 -38 98 -38c43 0 68 15 68 41c0 23 -18 35 -75 49c-78 20 -107 44 -107 89c0 52 46 87 114 87c40 0 79 -13 110 -37l-30 -39
c-22 21 -50 32 -82 32c-38 0 -63 -15 -63 -39c0 -21 18 -33 72 -47z" />
    <glyph glyph-name="scedilla" unicode="&#x15f;" horiz-adv-x="288" 
d="M263 84c0 -49 -39 -83 -100 -88l-12 -20c5 1 9 1 13 1c28 0 49 -15 49 -42c0 -26 -28 -45 -68 -45c-23 0 -47 8 -64 21l18 27c15 -10 31 -17 47 -17c17 0 27 6 27 16c0 9 -9 14 -20 14c-7 0 -15 -2 -21 -5l-27 15l21 35c-42 3 -77 19 -106 46l29 35c25 -25 58 -38 98 -38
c43 0 68 15 68 41c0 23 -18 35 -75 49c-78 20 -107 44 -107 89c0 52 46 87 114 87c40 0 79 -13 110 -37l-30 -39c-22 21 -50 32 -82 32c-38 0 -63 -15 -63 -39c0 -21 18 -33 72 -47c80 -22 109 -46 109 -91z" />
    <glyph glyph-name="uni0219" unicode="&#x219;" horiz-adv-x="288" 
d="M154 175c80 -22 109 -46 109 -91c0 -54 -46 -89 -117 -89c-51 0 -93 16 -126 47l29 35c25 -25 58 -38 98 -38c43 0 68 15 68 41c0 23 -18 35 -75 49c-78 20 -107 44 -107 89c0 52 46 87 114 87c40 0 79 -13 110 -37l-30 -39c-22 21 -50 32 -82 32c-38 0 -63 -15 -63 -39
c0 -21 18 -33 72 -47zM113 -74v44h56v-37c0 -38 -20 -56 -48 -56h-8v27h8c13 0 19 7 20 22h-28z" />
    <glyph glyph-name="germandbls" unicode="&#xdf;" horiz-adv-x="375" 
d="M254 -5c-44 0 -84 14 -113 39l27 35c23 -21 55 -33 89 -33c33 0 54 14 54 36c0 18 -16 28 -62 41c-66 20 -91 34 -91 76c0 45 34 60 64 74c25 10 48 19 48 43c0 34 -31 55 -79 55c-60 0 -91 -26 -91 -76v-285h-50v285c0 74 53 120 138 120c77 0 132 -39 132 -93
c0 -52 -40 -70 -74 -83c-24 -10 -45 -18 -45 -38c0 -15 13 -21 56 -32c76 -21 103 -44 103 -84c0 -48 -43 -80 -106 -80z" />
    <glyph glyph-name="t" unicode="t" horiz-adv-x="244" 
d="M218 257h-95v-172c0 -34 14 -43 45 -43c15 0 28 1 50 7v-47c-20 -5 -39 -7 -58 -7c-57 0 -87 29 -87 81v181h-59v43h59l8 80h42v-80h95v-43z" />
    <glyph glyph-name="tbar" unicode="&#x167;" horiz-adv-x="244" 
d="M218 257h-95v-82h77v-44h-77v-46c0 -34 14 -43 45 -43c15 0 28 1 50 7v-47c-20 -5 -39 -7 -58 -7c-57 0 -87 29 -87 81v55h-57v44h57v82h-59v43h59l8 80h42v-80h95v-43z" />
    <glyph glyph-name="tcaron" unicode="&#x165;" horiz-adv-x="244" 
d="M217 400l-20 -80h-34v80h54zM218 257h-95v-172c0 -34 14 -43 45 -43c15 0 28 1 50 7v-47c-20 -5 -39 -7 -58 -7c-57 0 -87 29 -87 81v181h-59v43h59l8 80h42v-80h95v-43z" />
    <glyph glyph-name="uni0163" unicode="&#x163;" horiz-adv-x="244" 
d="M170 -23c28 0 49 -15 49 -42c0 -26 -28 -45 -68 -45c-23 0 -47 8 -64 21l18 27c15 -10 31 -17 47 -17c17 0 27 6 27 16c0 9 -9 14 -20 14c-7 0 -15 -2 -21 -5l-27 15l22 36c-39 8 -60 36 -60 79v181h-59v43h59l8 80h42v-80h95v-43h-95v-172c0 -34 14 -43 45 -43
c15 0 28 1 50 7v-47c-17 -4 -33 -6 -49 -7l-12 -19c5 1 9 1 13 1z" />
    <glyph glyph-name="uni021B" unicode="&#x21b;" horiz-adv-x="244" 
d="M218 257h-95v-172c0 -34 14 -43 45 -43c15 0 28 1 50 7v-47c-20 -5 -39 -7 -58 -7c-57 0 -87 29 -87 81v181h-59v43h59l8 80h42v-80h95v-43zM119 -74v44h56v-37c0 -38 -20 -56 -48 -56h-8v27h8c13 0 19 7 20 22h-28z" />
    <glyph glyph-name="u" unicode="u" 
d="M260 300h50v-300h-42l-4 50c-22 -34 -62 -55 -109 -55c-65 0 -110 46 -110 115v190h50v-175c0 -55 27 -86 72 -86c52 0 93 36 93 88v173z" />
    <glyph glyph-name="uacute" unicode="&#xfa;" 
d="M257 400l-57 -70h-37l29 70h65zM260 300h50v-300h-42l-4 50c-22 -34 -62 -55 -109 -55c-65 0 -110 46 -110 115v190h50v-175c0 -55 27 -86 72 -86c52 0 93 36 93 88v173z" />
    <glyph glyph-name="ucircumflex" unicode="&#xfb;" 
d="M179 368l-37 -38h-47l57 70h54l57 -70h-47zM260 300h50v-300h-42l-4 50c-22 -34 -62 -55 -109 -55c-65 0 -110 46 -110 115v190h50v-175c0 -55 27 -86 72 -86c52 0 93 36 93 88v173z" />
    <glyph glyph-name="udieresis" unicode="&#xfc;" 
d="M158 400v-56h-56v56h56zM254 400v-56h-56v56h56zM260 300h50v-300h-42l-4 50c-22 -34 -62 -55 -109 -55c-65 0 -110 46 -110 115v190h50v-175c0 -55 27 -86 72 -86c52 0 93 36 93 88v173z" />
    <glyph glyph-name="ugrave" unicode="&#xf9;" 
d="M193 330h-37l-57 70h65zM260 300h50v-300h-42l-4 50c-22 -34 -62 -55 -109 -55c-65 0 -110 46 -110 115v190h50v-175c0 -55 27 -86 72 -86c52 0 93 36 93 88v173z" />
    <glyph glyph-name="uhungarumlaut" unicode="&#x171;" 
d="M208 400l-57 -70h-37l29 70h65zM241 330h-37l29 70h65zM260 300h50v-300h-42l-4 50c-22 -34 -62 -55 -109 -55c-65 0 -110 46 -110 115v190h50v-175c0 -55 27 -86 72 -86c52 0 93 36 93 88v173z" />
    <glyph glyph-name="umacron" unicode="&#x16b;" 
d="M258 400v-40h-160v40h160zM260 300h50v-300h-42l-4 50c-22 -34 -62 -55 -109 -55c-65 0 -110 46 -110 115v190h50v-175c0 -55 27 -86 72 -86c52 0 93 36 93 88v173z" />
    <glyph glyph-name="uogonek" unicode="&#x173;" 
d="M298 -55l17 -31c-14 -9 -30 -14 -47 -14c-34 0 -56 21 -56 50c0 25 21 49 55 57l-3 43c-22 -34 -62 -55 -109 -55c-65 0 -110 46 -110 115v190h50v-175c0 -55 27 -86 72 -86c52 0 93 36 93 88v173h50v-300c-44 -13 -59 -29 -59 -45c0 -12 8 -19 21 -19c9 0 18 3 26 9z
" />
    <glyph glyph-name="uring" unicode="&#x16f;" 
d="M178 330c-36 0 -63 26 -63 62s27 62 63 62s63 -26 63 -62s-27 -62 -63 -62zM178 421c-17 0 -29 -12 -29 -29s12 -29 29 -29s29 12 29 29s-12 29 -29 29zM260 300h50v-300h-42l-4 50c-22 -34 -62 -55 -109 -55c-65 0 -110 46 -110 115v190h50v-175c0 -55 27 -86 72 -86
c52 0 93 36 93 88v173z" />
    <glyph glyph-name="v" unicode="v" horiz-adv-x="316" 
d="M253 300h53l-120 -300h-56l-120 300h55l94 -247z" />
    <glyph glyph-name="w" unicode="w" horiz-adv-x="468" 
d="M404 300h49l-94 -300h-54l-71 235l-71 -235h-54l-94 300h51l71 -239l72 239h51l73 -240z" />
    <glyph glyph-name="wacute" unicode="&#x1e83;" horiz-adv-x="468" 
d="M313 400l-57 -70h-37l29 70h65zM404 300h49l-94 -300h-54l-71 235l-71 -235h-54l-94 300h51l71 -239l72 239h51l73 -240z" />
    <glyph glyph-name="wcircumflex" unicode="&#x175;" horiz-adv-x="468" 
d="M235 368l-37 -38h-47l57 70h54l57 -70h-47zM404 300h49l-94 -300h-54l-71 235l-71 -235h-54l-94 300h51l71 -239l72 239h51l73 -240z" />
    <glyph glyph-name="wdieresis" unicode="&#x1e85;" horiz-adv-x="468" 
d="M214 400v-56h-56v56h56zM310 400v-56h-56v56h56zM404 300h49l-94 -300h-54l-71 235l-71 -235h-54l-94 300h51l71 -239l72 239h51l73 -240z" />
    <glyph glyph-name="wgrave" unicode="&#x1e81;" horiz-adv-x="468" 
d="M249 330h-37l-57 70h65zM404 300h49l-94 -300h-54l-71 235l-71 -235h-54l-94 300h51l71 -239l72 239h51l73 -240z" />
    <glyph glyph-name="x" unicode="x" horiz-adv-x="326" 
d="M311 0h-61l-87 119l-89 -119h-59l117 153l-110 147h61l82 -111l83 111h58l-110 -146z" />
    <glyph glyph-name="y" unicode="y" horiz-adv-x="321" 
d="M263 300h52l-115 -316c-17 -47 -47 -89 -95 -89c-54 0 -80 38 -79 84l45 8c-1 -23 5 -46 34 -46c19 0 32 13 44 37l-141 322h55l110 -263z" />
    <glyph glyph-name="yacute" unicode="&#xfd;" horiz-adv-x="321" 
d="M241 400l-57 -70h-37l29 70h65zM263 300h52l-115 -316c-17 -47 -47 -89 -95 -89c-54 0 -80 38 -79 84l45 8c-1 -23 5 -46 34 -46c19 0 32 13 44 37l-141 322h55l110 -263z" />
    <glyph glyph-name="ycircumflex" unicode="&#x177;" horiz-adv-x="321" 
d="M163 368l-37 -38h-47l57 70h54l57 -70h-47zM263 300h52l-115 -316c-17 -47 -47 -89 -95 -89c-54 0 -80 38 -79 84l45 8c-1 -23 5 -46 34 -46c19 0 32 13 44 37l-141 322h55l110 -263z" />
    <glyph glyph-name="ydieresis" unicode="&#xff;" horiz-adv-x="321" 
d="M142 400v-56h-56v56h56zM238 400v-56h-56v56h56zM263 300h52l-115 -316c-17 -47 -47 -89 -95 -89c-54 0 -80 38 -79 84l45 8c-1 -23 5 -46 34 -46c19 0 32 13 44 37l-141 322h55l110 -263z" />
    <glyph glyph-name="ygrave" unicode="&#x1ef3;" horiz-adv-x="321" 
d="M177 330h-37l-57 70h65zM263 300h52l-115 -316c-17 -47 -47 -89 -95 -89c-54 0 -80 38 -79 84l45 8c-1 -23 5 -46 34 -46c19 0 32 13 44 37l-141 322h55l110 -263z" />
    <glyph glyph-name="z" unicode="z" horiz-adv-x="294" 
d="M82 43h192v-43h-254v44l188 213h-179v43h240v-44z" />
    <glyph glyph-name="zacute" unicode="&#x17a;" horiz-adv-x="294" 
d="M227 400l-57 -70h-37l29 70h65zM82 43h192v-43h-254v44l188 213h-179v43h240v-44z" />
    <glyph glyph-name="zcaron" unicode="&#x17e;" horiz-adv-x="294" 
d="M176 330h-54l-57 70h47l37 -38l37 38h47zM82 43h192v-43h-254v44l188 213h-179v43h240v-44z" />
    <glyph glyph-name="zdotaccent" unicode="&#x17c;" horiz-adv-x="294" 
d="M176 400v-56h-56v56h56zM82 43h192v-43h-254v44l188 213h-179v43h240v-44z" />
    <glyph glyph-name="k.ss01" horiz-adv-x="329" 
d="M292 44h11v-44h-24c-32 0 -51 19 -51 51v79h-128v-130h-50v400h50v-224h71l72 124h54l-76 -128h56v-113c0 -9 6 -15 15 -15z" />
    <glyph glyph-name="uni0137.ss01" horiz-adv-x="329" 
d="M292 44h11v-44h-24c-32 0 -51 19 -51 51v79h-128v-130h-50v400h50v-224h71l72 124h54l-76 -128h56v-113c0 -9 6 -15 15 -15zM133 -74v44h56v-37c0 -38 -20 -56 -48 -56h-8v27h8c13 0 19 7 20 22h-28z" />
    <glyph glyph-name="y.ss01" horiz-adv-x="321" 
d="M260 300h53l-102 -300c-25 -73 -57 -105 -104 -105c-46 0 -77 32 -77 81c0 26 10 49 30 68h43l-100 256h55l92 -256h27zM109 -62c18 0 34 16 43 41l8 21h-76c-6 -8 -9 -16 -9 -25c0 -22 14 -37 34 -37z" />
    <glyph glyph-name="yacute.ss01" horiz-adv-x="321" 
d="M241 400l-57 -70h-37l29 70h65zM260 300h53l-102 -300c-25 -73 -57 -105 -104 -105c-46 0 -77 32 -77 81c0 26 10 49 30 68h43l-100 256h55l92 -256h27zM109 -62c18 0 34 16 43 41l8 21h-76c-6 -8 -9 -16 -9 -25c0 -22 14 -37 34 -37z" />
    <glyph glyph-name="ycircumflex.ss01" horiz-adv-x="321" 
d="M163 368l-37 -38h-47l57 70h54l57 -70h-47zM260 300h53l-102 -300c-25 -73 -57 -105 -104 -105c-46 0 -77 32 -77 81c0 26 10 49 30 68h43l-100 256h55l92 -256h27zM109 -62c18 0 34 16 43 41l8 21h-76c-6 -8 -9 -16 -9 -25c0 -22 14 -37 34 -37z" />
    <glyph glyph-name="ydieresis.ss01" horiz-adv-x="321" 
d="M142 400v-56h-56v56h56zM238 400v-56h-56v56h56zM260 300h53l-102 -300c-25 -73 -57 -105 -104 -105c-46 0 -77 32 -77 81c0 26 10 49 30 68h43l-100 256h55l92 -256h27zM109 -62c18 0 34 16 43 41l8 21h-76c-6 -8 -9 -16 -9 -25c0 -22 14 -37 34 -37z" />
    <glyph glyph-name="ygrave.ss01" horiz-adv-x="321" 
d="M177 330h-37l-57 70h65zM260 300h53l-102 -300c-25 -73 -57 -105 -104 -105c-46 0 -77 32 -77 81c0 26 10 49 30 68h43l-100 256h55l92 -256h27zM109 -62c18 0 34 16 43 41l8 21h-76c-6 -8 -9 -16 -9 -25c0 -22 14 -37 34 -37z" />
    <glyph glyph-name="k.ss02" horiz-adv-x="316" 
d="M254 0l-109 145l-45 -42v-103h-50v400h50v-239l146 139h64l-129 -121l135 -179h-62z" />
    <glyph glyph-name="uni0137.ss02" horiz-adv-x="316" 
d="M181 179l135 -179h-62l-109 145l-45 -42v-103h-50v400h50v-239l146 139h64zM139 -74v44h56v-37c0 -38 -20 -56 -48 -56h-8v27h8c13 0 19 7 20 22h-28z" />
    <glyph glyph-name="k.ss03" horiz-adv-x="329" 
d="M292 44h11v-44h-24c-32 0 -51 19 -51 51v79h-128v-130h-50v400h50v-224h71l72 124h54l-76 -128h56v-113c0 -9 6 -15 15 -15z" />
    <glyph glyph-name="uni0137.ss03" horiz-adv-x="329" 
d="M292 44h11v-44h-24c-32 0 -51 19 -51 51v79h-128v-130h-50v400h50v-224h71l72 124h54l-76 -128h56v-113c0 -9 6 -15 15 -15zM133 -74v44h56v-37c0 -38 -20 -56 -48 -56h-8v27h8c13 0 19 7 20 22h-28z" />
    <glyph glyph-name="y.ss03" horiz-adv-x="321" 
d="M260 300h53l-102 -300c-25 -73 -57 -105 -104 -105c-46 0 -77 32 -77 81c0 26 10 49 30 68h43l-100 256h55l92 -256h27zM109 -62c18 0 34 16 43 41l8 21h-76c-6 -8 -9 -16 -9 -25c0 -22 14 -37 34 -37z" />
    <glyph glyph-name="yacute.ss03" horiz-adv-x="321" 
d="M241 400l-57 -70h-37l29 70h65zM260 300h53l-102 -300c-25 -73 -57 -105 -104 -105c-46 0 -77 32 -77 81c0 26 10 49 30 68h43l-100 256h55l92 -256h27zM109 -62c18 0 34 16 43 41l8 21h-76c-6 -8 -9 -16 -9 -25c0 -22 14 -37 34 -37z" />
    <glyph glyph-name="ycircumflex.ss03" horiz-adv-x="321" 
d="M163 368l-37 -38h-47l57 70h54l57 -70h-47zM260 300h53l-102 -300c-25 -73 -57 -105 -104 -105c-46 0 -77 32 -77 81c0 26 10 49 30 68h43l-100 256h55l92 -256h27zM109 -62c18 0 34 16 43 41l8 21h-76c-6 -8 -9 -16 -9 -25c0 -22 14 -37 34 -37z" />
    <glyph glyph-name="ydieresis.ss03" horiz-adv-x="321" 
d="M142 400v-56h-56v56h56zM238 400v-56h-56v56h56zM260 300h53l-102 -300c-25 -73 -57 -105 -104 -105c-46 0 -77 32 -77 81c0 26 10 49 30 68h43l-100 256h55l92 -256h27zM109 -62c18 0 34 16 43 41l8 21h-76c-6 -8 -9 -16 -9 -25c0 -22 14 -37 34 -37z" />
    <glyph glyph-name="ygrave.ss03" horiz-adv-x="321" 
d="M177 330h-37l-57 70h65zM260 300h53l-102 -300c-25 -73 -57 -105 -104 -105c-46 0 -77 32 -77 81c0 26 10 49 30 68h43l-100 256h55l92 -256h27zM109 -62c18 0 34 16 43 41l8 21h-76c-6 -8 -9 -16 -9 -25c0 -22 14 -37 34 -37z" />
    <glyph glyph-name="k.ss04" horiz-adv-x="329" 
d="M290 44h11v-44h-24c-32 0 -51 19 -51 51v43c0 22 -13 35 -35 35h-91v-129h-50v400h50v-227h72l71 127h54l-76 -132c36 -6 54 -31 54 -72v-37c0 -9 6 -15 15 -15z" />
    <glyph glyph-name="uni0137.ss04" horiz-adv-x="329" 
d="M290 44h11v-44h-24c-32 0 -51 19 -51 51v43c0 22 -13 35 -35 35h-91v-129h-50v400h50v-227h72l71 127h54l-76 -132c36 -6 54 -31 54 -72v-37c0 -9 6 -15 15 -15zM145 -74v44h56v-37c0 -38 -20 -56 -48 -56h-8v27h8c13 0 19 7 20 22h-28z" />
    <glyph glyph-name="k.ss05" horiz-adv-x="329" 
d="M290 44h11v-44h-24c-32 0 -51 19 -51 51v43c0 22 -13 35 -35 35h-91v-129h-50v400h50v-227h72l71 127h54l-76 -132c36 -6 54 -31 54 -72v-37c0 -9 6 -15 15 -15z" />
    <glyph glyph-name="uni0137.ss05" horiz-adv-x="329" 
d="M290 44h11v-44h-24c-32 0 -51 19 -51 51v43c0 22 -13 35 -35 35h-91v-129h-50v400h50v-227h72l71 127h54l-76 -132c36 -6 54 -31 54 -72v-37c0 -9 6 -15 15 -15zM145 -74v44h56v-37c0 -38 -20 -56 -48 -56h-8v27h8c13 0 19 7 20 22h-28z" />
    <glyph glyph-name="f.ss06" horiz-adv-x="227" 
d="M164 357c-23 0 -36 -13 -36 -38v-19h87v-43h-87v-257h-50v257h-63v43h63v13c0 53 24 87 87 87h50v-43h-51z" />
    <glyph glyph-name="t.ss06" horiz-adv-x="248" 
d="M219 257h-95v-176c0 -25 13 -38 36 -38h59v-43h-58c-63 0 -87 34 -87 87v170h-59v43h59l8 80h42v-80h95v-43z" />
    <glyph glyph-name="tbar.ss06" horiz-adv-x="248" 
d="M219 257h-95v-82h77v-44h-77v-50c0 -25 13 -38 36 -38h59v-43h-58c-63 0 -87 34 -87 87v44h-57v44h57v82h-59v43h59l8 80h42v-80h95v-43z" />
    <glyph glyph-name="tcaron.ss06" horiz-adv-x="248" 
d="M218 400l-20 -80h-34v80h54zM219 257h-95v-176c0 -25 13 -38 36 -38h59v-43h-58c-63 0 -87 34 -87 87v170h-59v43h59l8 80h42v-80h95v-43z" />
    <glyph glyph-name="uni0163.ss06" horiz-adv-x="248" 
d="M171 -23c28 0 49 -15 49 -42c0 -26 -28 -45 -68 -45c-23 0 -47 8 -64 21l18 27c15 -10 31 -17 47 -17c17 0 27 6 27 16c0 9 -9 14 -20 14c-7 0 -15 -2 -21 -5l-27 15l24 39h25c-63 0 -87 34 -87 87v170h-59v43h59l8 80h42v-80h95v-43h-95v-176c0 -25 13 -38 36 -38h59
v-43h-46l-15 -24c5 1 9 1 13 1z" />
    <glyph glyph-name="uni021B.ss06" horiz-adv-x="248" 
d="M219 257h-95v-176c0 -25 13 -38 36 -38h59v-43h-58c-63 0 -87 34 -87 87v170h-59v43h59l8 80h42v-80h95v-43zM120 -74v44h56v-37c0 -38 -20 -56 -48 -56h-8v27h8c13 0 19 7 20 22h-28z" />
    <glyph glyph-name="y.ss06" horiz-adv-x="321" 
d="M257 300h54l-137 -353c-12 -32 -35 -47 -69 -47h-57v44h52c14 0 24 7 29 20l12 33l-126 303h55l97 -242z" />
    <glyph glyph-name="yacute.ss06" horiz-adv-x="321" 
d="M241 400l-57 -70h-37l29 70h65zM257 300h54l-137 -353c-12 -32 -35 -47 -69 -47h-57v44h52c14 0 24 7 29 20l12 33l-126 303h55l97 -242z" />
    <glyph glyph-name="ycircumflex.ss06" horiz-adv-x="321" 
d="M163 368l-37 -38h-47l57 70h54l57 -70h-47zM257 300h54l-137 -353c-12 -32 -35 -47 -69 -47h-57v44h52c14 0 24 7 29 20l12 33l-126 303h55l97 -242z" />
    <glyph glyph-name="ydieresis.ss06" horiz-adv-x="321" 
d="M142 400v-56h-56v56h56zM238 400v-56h-56v56h56zM257 300h54l-137 -353c-12 -32 -35 -47 -69 -47h-57v44h52c14 0 24 7 29 20l12 33l-126 303h55l97 -242z" />
    <glyph glyph-name="ygrave.ss06" horiz-adv-x="321" 
d="M177 330h-37l-57 70h65zM257 300h54l-137 -353c-12 -32 -35 -47 -69 -47h-57v44h52c14 0 24 7 29 20l12 33l-126 303h55l97 -242z" />
    <glyph glyph-name="uni0410" unicode="&#x410;" horiz-adv-x="390" 
d="M327 0l-38 95h-189l-38 -95h-54l156 380h62l156 -380h-55zM118 141h152l-76 190z" />
    <glyph glyph-name="uni0411" unicode="&#x411;" horiz-adv-x="375" 
d="M219 230c80 0 131 -45 131 -115s-51 -115 -131 -115h-159v380h260v-47h-208v-103h107zM212 46c57 0 85 23 85 69s-28 69 -85 69h-100v-138h100z" />
    <glyph glyph-name="uni0412" unicode="&#x412;" horiz-adv-x="380" 
d="M295 195c35 -17 55 -49 55 -91c0 -63 -46 -104 -118 -104h-172v380h167c70 0 115 -40 115 -101c0 -38 -17 -67 -47 -84zM219 334h-109v-116h109c48 0 72 19 72 58s-24 58 -72 58zM220 46c52 0 78 21 78 63s-26 63 -78 63h-110v-126h110z" />
    <glyph glyph-name="uni0413" unicode="&#x413;" horiz-adv-x="320" 
d="M310 380v-48h-198v-332h-52v380h250z" />
    <glyph glyph-name="uni0490" unicode="&#x490;" horiz-adv-x="320" 
d="M260 460h50v-128h-198v-332h-52v380h200v80z" />
    <glyph glyph-name="uni0414" unicode="&#x414;" horiz-adv-x="422" 
d="M402 48v-128h-50v80h-284v-80h-50v128h38c10 31 14 82 14 163v169h288v-332h44zM107 48h199v284h-184v-121c0 -63 -6 -124 -15 -163z" />
    <glyph glyph-name="uni0415" unicode="&#x415;" horiz-adv-x="340" 
d="M112 47h208v-47h-260v380h255v-47h-203v-115h158v-46h-158v-125z" />
    <glyph glyph-name="uni0401" unicode="&#x401;" horiz-adv-x="340" 
d="M165 480v-56h-56v56h56zM261 480v-56h-56v56h56zM112 47h208v-47h-260v380h255v-47h-203v-115h158v-46h-158v-125z" />
    <glyph glyph-name="uni0416" unicode="&#x416;" horiz-adv-x="566" 
d="M493 0l-128 190l-56 -56v-134h-52v134l-56 56l-128 -190h-63l154 227l-152 153h65l180 -184v184h52v-184l180 184h65l-152 -153l154 -227h-63z" />
    <glyph glyph-name="uni0417" unicode="&#x417;" horiz-adv-x="344" 
d="M255 196c40 -15 64 -45 64 -89c0 -68 -58 -112 -147 -112c-76 0 -131 37 -154 93l45 24c17 -44 57 -71 110 -71c57 0 94 27 94 70c0 37 -32 61 -84 61h-50v46h51c39 0 69 20 69 56c0 40 -29 65 -81 65s-85 -27 -102 -68l-48 17c22 59 80 97 151 97c81 0 133 -42 133 -107
c0 -37 -19 -66 -51 -82z" />
    <glyph glyph-name="uni0418" unicode="&#x418;" horiz-adv-x="430" 
d="M318 380h52v-380h-52v302l-207 -302h-51v380h52v-300z" />
    <glyph glyph-name="uni0419" unicode="&#x419;" horiz-adv-x="430" 
d="M215 408c-49 0 -81 25 -86 69l40 8c2 -27 19 -42 46 -42s44 15 46 42l40 -8c-5 -44 -37 -69 -86 -69zM318 380h52v-380h-52v302l-207 -302h-51v380h52v-300z" />
    <glyph glyph-name="uni041A" unicode="&#x41a;" horiz-adv-x="388" 
d="M314 0l-143 188l-59 -58v-130h-52v380h52v-190l190 190h65l-159 -156l170 -224h-64z" />
    <glyph glyph-name="uni041B" unicode="&#x41b;" horiz-adv-x="430" 
d="M370 380v-380h-52v332h-176v-121c0 -160 -12 -212 -82 -212c-10 0 -22 0 -32 1v50h16c37 0 46 6 46 162v168h280z" />
    <glyph glyph-name="uni041C" unicode="&#x41c;" horiz-adv-x="530" 
d="M470 380v-380h-50v325l-125 -325h-60l-125 325v-325h-50v380h83l123 -322l122 322h82z" />
    <glyph glyph-name="uni041D" unicode="&#x41d;" horiz-adv-x="430" 
d="M318 380h52v-380h-52v171h-206v-171h-52v380h52v-161h206v161z" />
    <glyph glyph-name="uni041E" unicode="&#x41e;" horiz-adv-x="420" 
d="M210 -5c-109 0 -180 77 -180 195c0 115 74 195 180 195c109 0 180 -77 180 -195c0 -115 -74 -195 -180 -195zM210 41c77 0 127 59 127 149s-50 149 -127 149s-127 -59 -127 -149s50 -149 127 -149z" />
    <glyph glyph-name="uni041F" unicode="&#x41f;" horiz-adv-x="430" 
d="M370 380v-380h-52v332h-206v-332h-52v380h310z" />
    <glyph glyph-name="uni0420" unicode="&#x420;" horiz-adv-x="368" 
d="M217 380c80 0 131 -45 131 -115s-51 -115 -131 -115h-105v-150h-52v380h157zM211 197c56 0 84 23 84 68s-28 68 -84 68h-99v-136h99z" />
    <glyph glyph-name="uni0421" unicode="&#x421;" horiz-adv-x="385" 
d="M208 -5c-108 0 -178 77 -178 195c0 115 73 195 178 195c77 0 134 -40 157 -112l-48 -17c-16 54 -54 83 -109 83c-74 0 -125 -59 -125 -149c0 -92 49 -149 125 -149c55 0 93 29 109 83l48 -17c-22 -69 -80 -112 -157 -112z" />
    <glyph glyph-name="uni0422" unicode="&#x422;" horiz-adv-x="350" 
d="M340 380v-48h-139v-332h-52v332h-139v48h330z" />
    <glyph glyph-name="uni0423" unicode="&#x423;" horiz-adv-x="384" 
d="M313 380h56l-131 -313c-17 -42 -45 -72 -89 -72c-47 0 -77 32 -79 81l46 11c2 -31 12 -47 34 -47c15 0 29 5 37 25l-174 315h60l137 -262z" />
    <glyph glyph-name="uni040E" unicode="&#x40e;" horiz-adv-x="384" 
d="M191 408c-49 0 -81 25 -86 69l40 8c2 -27 19 -42 46 -42s44 15 46 42l40 -8c-5 -44 -37 -69 -86 -69zM313 380h56l-131 -313c-17 -42 -45 -72 -89 -72c-47 0 -77 32 -79 81l46 11c2 -31 12 -47 34 -47c15 0 29 5 37 25l-174 315h60l137 -262z" />
    <glyph glyph-name="uni0424" unicode="&#x424;" horiz-adv-x="482" 
d="M291 345c107 0 166 -59 166 -150c0 -88 -61 -150 -166 -150h-24v-51h-52v51h-24c-107 0 -166 59 -166 150c0 88 61 150 166 150h24v41h52v-41h24zM192 90h23v210h-23c-72 0 -114 -38 -114 -105c0 -70 39 -105 114 -105zM290 90c72 0 114 38 114 105
c0 70 -39 105 -114 105h-23v-210h23z" />
    <glyph glyph-name="uni0425" unicode="&#x425;" horiz-adv-x="372" 
d="M362 0h-62l-114 158l-115 -158h-61l145 195l-135 185h62l105 -147l105 147h60l-134 -183z" />
    <glyph glyph-name="uni0427" unicode="&#x427;" horiz-adv-x="396" 
d="M284 380h52v-380h-52v153h-113c-84 0 -131 40 -131 117v110h52v-110c0 -47 27 -69 82 -69h110v179z" />
    <glyph glyph-name="uni0426" unicode="&#x426;" horiz-adv-x="424" 
d="M404 48v-128h-50v80h-294v380h52v-332h196v332h52v-332h44z" />
    <glyph glyph-name="uni0428" unicode="&#x428;" horiz-adv-x="596" 
d="M484 380h52v-380h-476v380h52v-332h160v332h52v-332h160v332z" />
    <glyph glyph-name="uni0429" unicode="&#x429;" horiz-adv-x="600" 
d="M580 48v-128h-50v80h-470v380h52v-332h160v332h52v-332h160v332h52v-332h44z" />
    <glyph glyph-name="uni042C" unicode="&#x42c;" horiz-adv-x="375" 
d="M219 230c80 0 131 -45 131 -115s-51 -115 -131 -115h-159v380h52v-150h107zM213 47c56 0 84 23 84 68s-28 68 -84 68h-101v-136h101z" />
    <glyph glyph-name="uni042A" unicode="&#x42a;" horiz-adv-x="425" 
d="M269 230c80 0 131 -45 131 -115s-51 -115 -131 -115h-159v332h-100v48h152v-150h107zM263 47c56 0 84 23 84 68s-28 68 -84 68h-101v-136h101z" />
    <glyph glyph-name="uni042B" unicode="&#x42b;" horiz-adv-x="527" 
d="M219 230c80 0 131 -45 131 -115s-51 -115 -131 -115h-159v380h52v-150h107zM415 380h52v-380h-52v380zM213 47c56 0 84 23 84 68s-28 68 -84 68h-101v-136h101z" />
    <glyph glyph-name="uni0404" unicode="&#x404;" horiz-adv-x="385" 
d="M208 41c55 0 93 29 109 83l48 -17c-22 -69 -80 -112 -157 -112c-108 0 -178 77 -178 195c0 115 73 195 178 195c77 0 134 -40 157 -112l-48 -17c-16 54 -54 83 -109 83c-67 0 -116 -47 -125 -121h162v-46h-163c6 -81 54 -131 126 -131z" />
    <glyph glyph-name="uni042D" unicode="&#x42d;" horiz-adv-x="380" 
d="M172 385c108 0 178 -77 178 -195c0 -115 -73 -195 -178 -195c-77 0 -135 43 -157 112l48 17c16 -54 54 -83 109 -83c70 0 120 51 126 131h-163v46h162c-9 75 -56 121 -125 121c-55 0 -93 -29 -109 -83l-48 17c23 72 84 112 157 112z" />
    <glyph glyph-name="uni0406" unicode="&#x406;" horiz-adv-x="172" 
d="M60 0v380h52v-380h-52z" />
    <glyph glyph-name="uni0407" unicode="&#x407;" horiz-adv-x="172" 
d="M10 424v56h56v-56h-56zM106 424v56h56v-56h-56zM60 0v380h52v-380h-52z" />
    <glyph glyph-name="uni042E" unicode="&#x42e;" horiz-adv-x="570" 
d="M365 385c106 0 175 -77 175 -195c0 -115 -72 -195 -175 -195c-100 0 -167 69 -174 176h-79v-171h-52v380h52v-161h80c11 99 79 166 173 166zM365 41c74 0 122 59 122 149s-48 149 -122 149s-122 -59 -122 -149s48 -149 122 -149z" />
    <glyph glyph-name="uni042F" unicode="&#x42f;" horiz-adv-x="385" 
d="M325 380v-380h-52v152h-100l-93 -152h-60l99 160c-48 16 -77 54 -77 106c0 69 51 114 130 114h153zM179 197h94v136h-94c-56 0 -84 -23 -84 -68s28 -68 84 -68z" />
    <glyph glyph-name="uni0416.ss01" horiz-adv-x="546" 
d="M506 48h12v-48h-26c-36 0 -58 22 -58 62v109h-135v-171h-52v171h-135v-109c0 -40 -22 -62 -58 -62h-26v48h12c12 0 20 8 20 20v151h79l-105 161h56l103 -161h54v161h52v-161h54l103 161h56l-105 -161h79v-151c0 -12 8 -20 20 -20z" />
    <glyph glyph-name="uni041A.ss01" horiz-adv-x="389" 
d="M349 48h12v-48h-26c-36 0 -58 22 -58 62v109h-165v-171h-52v380h52v-161h84l101 161h58l-105 -161h79v-151c0 -12 8 -20 20 -20z" />
    <glyph glyph-name="uni0423.ss01" horiz-adv-x="384" 
d="M306 380h56l-108 -294c-22 -59 -58 -91 -108 -91c-53 0 -89 35 -89 87c0 32 13 60 38 78h43l-126 220h60l121 -220h35zM148 41c27 0 43 17 56 51l9 25h-93c-8 -9 -13 -20 -13 -33c0 -26 16 -43 41 -43z" />
    <glyph glyph-name="uni040E.ss01" horiz-adv-x="384" 
d="M185 408c-49 0 -81 25 -86 69l40 8c2 -27 19 -42 46 -42s44 15 46 42l40 -8c-5 -44 -37 -69 -86 -69zM306 380h56l-108 -294c-22 -59 -58 -91 -108 -91c-53 0 -89 35 -89 87c0 32 13 60 38 78h43l-126 220h60l121 -220h35zM148 41c27 0 43 17 56 51l9 25h-93
c-8 -9 -13 -20 -13 -33c0 -26 16 -43 41 -43z" />
    <glyph glyph-name="uni042F.ss01" horiz-adv-x="389" 
d="M329 380v-380h-52v151h-167v-89c0 -40 -22 -62 -58 -62h-26v48h12c12 0 20 8 20 20v113h50c-39 16 -61 47 -61 89c0 67 51 110 131 110h151zM183 333c-56 0 -84 -23 -84 -68s28 -68 84 -68h94v136h-94z" />
    <glyph glyph-name="uni0416.ss02" horiz-adv-x="566" 
d="M493 0l-128 190l-56 -56v-134h-52v134l-56 56l-128 -190h-63l154 227l-152 153h65l180 -184v184h52v-184l180 184h65l-152 -153l154 -227h-63z" />
    <glyph glyph-name="uni041A.ss02" horiz-adv-x="388" 
d="M314 0l-143 188l-59 -58v-130h-52v380h52v-190l190 190h65l-159 -156l170 -224h-64z" />
    <glyph glyph-name="uni042F.ss02" horiz-adv-x="385" 
d="M325 380v-380h-52v152h-100l-93 -152h-60l99 160c-48 16 -77 54 -77 106c0 69 51 114 130 114h153zM179 197h94v136h-94c-56 0 -84 -23 -84 -68s28 -68 84 -68z" />
    <glyph glyph-name="uni0416.ss03" horiz-adv-x="546" 
d="M506 48h12v-48h-26c-36 0 -58 22 -58 62v109h-135v-171h-52v171h-135v-109c0 -40 -22 -62 -58 -62h-26v48h12c12 0 20 8 20 20v151h79l-105 161h56l103 -161h54v161h52v-161h54l103 161h56l-105 -161h79v-151c0 -12 8 -20 20 -20z" />
    <glyph glyph-name="uni041A.ss03" horiz-adv-x="389" 
d="M349 48h12v-48h-26c-36 0 -58 22 -58 62v109h-165v-171h-52v380h52v-161h84l101 161h58l-105 -161h79v-151c0 -12 8 -20 20 -20z" />
    <glyph glyph-name="uni0423.ss03" horiz-adv-x="384" 
d="M306 380h56l-108 -294c-22 -59 -58 -91 -108 -91c-53 0 -89 35 -89 87c0 32 13 60 38 78h43l-126 220h60l121 -220h35zM148 41c27 0 43 17 56 51l9 25h-93c-8 -9 -13 -20 -13 -33c0 -26 16 -43 41 -43z" />
    <glyph glyph-name="uni040E.ss03" horiz-adv-x="384" 
d="M185 408c-49 0 -81 25 -86 69l40 8c2 -27 19 -42 46 -42s44 15 46 42l40 -8c-5 -44 -37 -69 -86 -69zM306 380h56l-108 -294c-22 -59 -58 -91 -108 -91c-53 0 -89 35 -89 87c0 32 13 60 38 78h43l-126 220h60l121 -220h35zM148 41c27 0 43 17 56 51l9 25h-93
c-8 -9 -13 -20 -13 -33c0 -26 16 -43 41 -43z" />
    <glyph glyph-name="uni042F.ss03" horiz-adv-x="389" 
d="M329 380v-380h-52v151h-167v-89c0 -40 -22 -62 -58 -62h-26v48h12c12 0 20 8 20 20v113h50c-39 16 -61 47 -61 89c0 67 51 110 131 110h151zM183 333c-56 0 -84 -23 -84 -68s28 -68 84 -68h94v136h-94z" />
    <glyph glyph-name="uni0416.ss04" horiz-adv-x="550" 
d="M510 48h12v-48h-26c-36 0 -58 22 -58 62v64c0 27 -15 44 -41 44h-96v-170h-52v170h-96c-26 0 -41 -17 -41 -44v-64c0 -40 -22 -62 -58 -62h-26v48h12c12 0 20 8 20 20v56c0 53 24 84 67 89l-91 167h57l86 -162h70v162h52v-162h70l86 162h57l-91 -167c43 -5 67 -36 67 -89
v-56c0 -12 8 -20 20 -20z" />
    <glyph glyph-name="uni041A.ss04" horiz-adv-x="389" 
d="M349 48h12v-48h-26c-36 0 -58 22 -58 62v65c0 27 -15 44 -41 44h-124v-171h-52v380h52v-161h100l88 161h55l-91 -166c42 -6 65 -36 65 -89v-57c0 -12 8 -20 20 -20z" />
    <glyph glyph-name="uni042F.ss04" horiz-adv-x="389" 
d="M329 380v-380h-52v151h-127c-26 0 -41 -17 -41 -44v-45c0 -40 -22 -62 -58 -62h-26v48h12c12 0 20 8 20 20v34c0 38 15 64 42 75c-34 18 -52 48 -52 88c0 70 51 115 131 115h151zM183 333c-56 0 -84 -23 -84 -68s28 -68 84 -68h94v136h-94z" />
    <glyph glyph-name="uni0416.ss05" horiz-adv-x="550" 
d="M510 48h12v-48h-26c-36 0 -58 22 -58 62v64c0 27 -15 44 -41 44h-96v-170h-52v170h-96c-26 0 -41 -17 -41 -44v-64c0 -40 -22 -62 -58 -62h-26v48h12c12 0 20 8 20 20v56c0 53 24 84 67 89l-91 167h57l86 -162h70v162h52v-162h70l86 162h57l-91 -167c43 -5 67 -36 67 -89
v-56c0 -12 8 -20 20 -20z" />
    <glyph glyph-name="uni041A.ss05" horiz-adv-x="389" 
d="M349 48h12v-48h-26c-36 0 -58 22 -58 62v65c0 27 -15 44 -41 44h-124v-171h-52v380h52v-161h100l88 161h55l-91 -166c42 -6 65 -36 65 -89v-57c0 -12 8 -20 20 -20z" />
    <glyph glyph-name="uni042F.ss05" horiz-adv-x="389" 
d="M329 380v-380h-52v151h-127c-26 0 -41 -17 -41 -44v-45c0 -40 -22 -62 -58 -62h-26v48h12c12 0 20 8 20 20v34c0 38 15 64 42 75c-34 18 -52 48 -52 88c0 70 51 115 131 115h151zM183 333c-56 0 -84 -23 -84 -68s28 -68 84 -68h94v136h-94z" />
    <glyph glyph-name="uni0423.ss06" horiz-adv-x="384" 
d="M322 380h54l-146 -327c-20 -44 -47 -53 -81 -53h-68v48h66c18 0 26 6 35 26v1l-165 305h59l136 -259z" />
    <glyph glyph-name="uni040E.ss06" horiz-adv-x="384" 
d="M191 408c-49 0 -81 25 -86 69l40 8c2 -27 19 -42 46 -42s44 15 46 42l40 -8c-5 -44 -37 -69 -86 -69zM322 380h54l-146 -327c-20 -44 -47 -53 -81 -53h-68v48h66c18 0 26 6 35 26v1l-165 305h59l136 -259z" />
    <glyph glyph-name="uni041D.ss07" horiz-adv-x="430" 
d="M321 380h49v-380h-51l-210 299v-299h-49v380h52l209 -297v297z" />
    <glyph glyph-name="uni0410.stress" horiz-adv-x="390" 
d="M274 480l-57 -70h-37l29 70h65zM327 0l-38 95h-189l-38 -95h-54l156 380h62l156 -380h-55zM118 141h152l-76 190z" />
    <glyph glyph-name="uni0415.stress" horiz-adv-x="340" 
d="M264 480l-57 -70h-37l29 70h65zM112 47h208v-47h-260v380h255v-47h-203v-115h158v-46h-158v-125z" />
    <glyph glyph-name="uni0401.stress" horiz-adv-x="340" 
d="M237 494l-57 -70h-37l29 70h65zM138 480v-56h-56v56h56zM232 424v56h56v-56h-56zM112 47h208v-47h-260v380h255v-47h-203v-115h158v-46h-158v-125z" />
    <glyph glyph-name="uni0418.stress" horiz-adv-x="430" 
d="M294 480l-57 -70h-37l29 70h65zM318 380h52v-380h-52v302l-207 -302h-51v380h52v-300z" />
    <glyph glyph-name="uni041E.stress" horiz-adv-x="420" 
d="M195 410l29 70h65l-57 -70h-37zM210 -5c-109 0 -180 77 -180 195c0 115 74 195 180 195c109 0 180 -77 180 -195c0 -115 -74 -195 -180 -195zM210 41c77 0 127 59 127 149s-50 149 -127 149s-127 -59 -127 -149s50 -149 127 -149z" />
    <glyph glyph-name="uni0423.stress" horiz-adv-x="384" 
d="M270 480l-57 -70h-37l29 70h65zM313 380h56l-131 -313c-17 -42 -45 -72 -89 -72c-47 0 -77 32 -79 81l46 11c2 -31 12 -47 34 -47c15 0 29 5 37 25l-174 315h60l137 -262z" />
    <glyph glyph-name="uni042B.stress" horiz-adv-x="527" 
d="M343 480l-57 -70h-37l29 70h65zM219 230c80 0 131 -45 131 -115s-51 -115 -131 -115h-159v380h52v-150h107zM415 380h52v-380h-52v380zM213 47c56 0 84 23 84 68s-28 68 -84 68h-101v-136h101z" />
    <glyph glyph-name="uni0404.stress" horiz-adv-x="385" 
d="M287 480l-57 -70h-37l29 70h65zM208 41c55 0 93 29 109 83l48 -17c-22 -69 -80 -112 -157 -112c-108 0 -178 77 -178 195c0 115 73 195 178 195c77 0 134 -40 157 -112l-48 -17c-16 54 -54 83 -109 83c-67 0 -116 -47 -125 -121h162v-46h-163c6 -81 54 -131 126 -131z
" />
    <glyph glyph-name="uni042D.stress" horiz-adv-x="380" 
d="M251 480l-57 -70h-37l29 70h65zM172 385c108 0 178 -77 178 -195c0 -115 -73 -195 -178 -195c-77 0 -135 43 -157 112l48 17c16 -54 54 -83 109 -83c70 0 120 51 126 131h-163v46h162c-9 75 -56 121 -125 121c-55 0 -93 -29 -109 -83l-48 17c23 72 84 112 157 112z" />
    <glyph glyph-name="uni0406.stress" horiz-adv-x="172" 
d="M71 410l29 70h65l-57 -70h-37zM60 0v380h52v-380h-52z" />
    <glyph glyph-name="uni0407.stress" horiz-adv-x="172" 
d="M44 424l29 70h65l-57 -70h-37zM-17 424v56h56v-56h-56zM133 424v56h56v-56h-56zM60 0v380h52v-380h-52z" />
    <glyph glyph-name="uni042E.stress" horiz-adv-x="570" 
d="M337 480l-57 -70h-37l29 70h65zM365 385c106 0 175 -77 175 -195c0 -115 -72 -195 -175 -195c-100 0 -167 69 -174 176h-79v-171h-52v380h52v-161h80c11 99 79 166 173 166zM365 41c74 0 122 59 122 149s-48 149 -122 149s-122 -59 -122 -149s48 -149 122 -149z" />
    <glyph glyph-name="uni042F.stress" horiz-adv-x="385" 
d="M287 480l-57 -70h-37l29 70h65zM325 380v-380h-52v152h-100l-93 -152h-60l99 160c-48 16 -77 54 -77 106c0 69 51 114 130 114h153zM179 197h94v136h-94c-56 0 -84 -23 -84 -68s28 -68 84 -68z" />
    <glyph glyph-name="uni0423.ss03.stress" horiz-adv-x="384" 
d="M264 480l-57 -70h-37l29 70h65zM306 380h56l-108 -294c-22 -59 -58 -91 -108 -91c-53 0 -89 35 -89 87c0 32 13 60 38 78h43l-126 220h60l121 -220h35zM148 41c27 0 43 17 56 51l9 25h-93c-8 -9 -13 -20 -13 -33c0 -26 16 -43 41 -43z" />
    <glyph glyph-name="uni042F.ss03.stress" horiz-adv-x="389" 
d="M277 480l-57 -70h-37l29 70h65zM329 380v-380h-52v151h-167v-89c0 -40 -22 -62 -58 -62h-26v48h12c12 0 20 8 20 20v113h50c-39 16 -61 47 -61 89c0 67 51 110 131 110h151zM183 333c-56 0 -84 -23 -84 -68s28 -68 84 -68h94v136h-94z" />
    <glyph glyph-name="uni042F.ss04.stress" horiz-adv-x="389" 
d="M282 480l-57 -70h-37l29 70h65zM329 380v-380h-52v151h-127c-26 0 -41 -17 -41 -44v-45c0 -40 -22 -62 -58 -62h-26v48h12c12 0 20 8 20 20v34c0 38 15 64 42 75c-34 18 -52 48 -52 88c0 70 51 115 131 115h151zM183 333c-56 0 -84 -23 -84 -68s28 -68 84 -68h94v136h-94
z" />
    <glyph glyph-name="uni0423.ss06.stress" horiz-adv-x="384" 
d="M270 480l-57 -70h-37l29 70h65zM322 380h54l-146 -327c-20 -44 -47 -53 -81 -53h-68v48h66c18 0 26 6 35 26v1l-165 305h59l136 -259z" />
    <glyph glyph-name="uni0430" unicode="&#x430;" horiz-adv-x="317" 
d="M286 44h11v-44c-2 -1 -10 -2 -17 -2c-37 0 -52 13 -55 49c-22 -31 -62 -52 -107 -52c-58 0 -98 36 -98 89c0 72 70 89 129 98c51 8 70 11 70 36c0 27 -27 44 -67 44c-35 0 -69 -15 -94 -41l-31 32c33 33 76 52 127 52c69 0 112 -37 112 -98v-143c0 -14 6 -20 20 -20z
M124 37c50 0 94 35 94 76v46c-11 -8 -29 -11 -62 -16c-42 -7 -86 -14 -86 -58c0 -31 20 -48 54 -48z" />
    <glyph glyph-name="uni0431" unicode="&#x431;" horiz-adv-x="343" 
d="M317 134c1 -81 -58 -139 -141 -139c-88 0 -144 67 -144 170c0 119 40 178 133 197l71 15c11 2 17 8 19 21l1 7l48 -9l-1 -9c-2 -29 -20 -48 -52 -56l-86 -17c-50 -10 -79 -40 -85 -90c22 31 61 48 109 48c73 0 127 -58 128 -138zM176 39c54 0 90 37 90 94
c0 59 -36 96 -90 96c-56 0 -92 -36 -92 -93s38 -97 92 -97z" />
    <glyph glyph-name="uni0432" unicode="&#x432;" horiz-adv-x="323" 
d="M243 154c32 -12 50 -36 50 -73c0 -53 -38 -81 -101 -81h-142v300h131c63 0 104 -24 104 -78c0 -33 -16 -56 -42 -68zM99 258v-84h82c38 0 53 12 53 43c0 27 -18 41 -49 41h-86zM188 42c34 0 54 17 54 45c0 29 -22 47 -59 47h-84v-92h89z" />
    <glyph glyph-name="uni0433" unicode="&#x433;" horiz-adv-x="270" 
d="M260 300v-46h-160v-254h-50v300h210z" />
    <glyph glyph-name="uni0491" unicode="&#x491;" horiz-adv-x="270" 
d="M213 380h47v-126h-160v-254h-50v300h163v80z" />
    <glyph glyph-name="uni0434" unicode="&#x434;" 
d="M301 44h39v-114h-47v70h-228v-70h-47v114h33c8 24 11 66 11 131v125h239v-256zM100 44h151v212h-140v-84c0 -53 -4 -97 -11 -128z" />
    <glyph glyph-name="uni0435" unicode="&#x435;" horiz-adv-x="341" 
d="M78 134c6 -58 43 -95 100 -95c49 0 77 18 93 41l36 -31c-22 -29 -63 -54 -128 -54c-97 0 -152 66 -152 155c0 92 61 155 147 155s142 -61 142 -155c0 -6 0 -11 -1 -16h-237zM174 262c-52 0 -87 -34 -95 -88h185c-7 54 -41 88 -90 88z" />
    <glyph glyph-name="uni0451" unicode="&#x451;" horiz-adv-x="341" 
d="M151 400v-56h-56v56h56zM247 400v-56h-56v56h56zM78 134c6 -58 43 -95 100 -95c49 0 77 18 93 41l36 -31c-22 -29 -63 -54 -128 -54c-97 0 -152 66 -152 155c0 92 61 155 147 155s142 -61 142 -155c0 -6 0 -11 -1 -16h-237zM174 262c-52 0 -87 -34 -95 -88h185
c-7 54 -41 88 -90 88z" />
    <glyph glyph-name="uni0436" unicode="&#x436;" horiz-adv-x="472" 
d="M405 0l-101 146l-43 -42v-104h-50v104l-43 43l-101 -147h-62l128 181l-122 119h64l136 -137v137h50v-137l136 137h64l-122 -119l128 -181h-62z" />
    <glyph glyph-name="uni0437" unicode="&#x437;" horiz-adv-x="280" 
d="M209 155c34 -10 53 -35 53 -71c0 -53 -49 -89 -123 -89c-63 0 -109 31 -127 82l46 17c15 -37 45 -56 82 -56c43 0 70 18 70 47s-24 46 -65 46h-37v44h35c36 0 55 16 55 43c0 29 -21 45 -57 45c-35 0 -60 -18 -72 -51l-47 18c18 46 62 75 120 75c63 0 105 -34 106 -86
c0 -29 -13 -51 -39 -64z" />
    <glyph glyph-name="uni0438" unicode="&#x438;" 
d="M257 300h53v-300h-49v233l-158 -233h-53v300h49v-233z" />
    <glyph glyph-name="uni0439" unicode="&#x439;" 
d="M180 328c-49 0 -81 25 -86 69l40 8c2 -27 19 -42 46 -42s44 15 46 42l40 -8c-5 -44 -37 -69 -86 -69zM257 300h53v-300h-49v233l-158 -233h-53v300h49v-233z" />
    <glyph glyph-name="uni043A" unicode="&#x43a;" horiz-adv-x="316" 
d="M254 0l-109 145l-45 -42v-103h-50v300h50v-139l146 139h64l-129 -121l135 -179h-62z" />
    <glyph glyph-name="uni043B" unicode="&#x43b;" horiz-adv-x="352" 
d="M302 300v-300h-50v256h-136v-118c0 -110 -22 -140 -76 -140c-10 0 -20 1 -25 2v46h14c29 0 38 5 38 98v156h235z" />
    <glyph glyph-name="uni043C" unicode="&#x43c;" horiz-adv-x="440" 
d="M390 300v-300h-49v251l-93 -251h-56l-93 251v-251h-49v300h80l91 -246l90 246h79z" />
    <glyph glyph-name="uni043D" unicode="&#x43d;" 
d="M260 300h50v-300h-50v130h-160v-130h-50v300h50v-124h160v124z" />
    <glyph glyph-name="uni043E" unicode="&#x43e;" horiz-adv-x="354" 
d="M177 -5c-91 0 -150 61 -150 155c0 92 62 155 150 155c91 0 150 -61 150 -155c0 -92 -62 -155 -150 -155zM177 39c60 0 99 44 99 111s-39 111 -99 111s-99 -44 -99 -111s39 -111 99 -111z" />
    <glyph glyph-name="uni043F" unicode="&#x43f;" 
d="M310 300v-300h-50v256h-160v-256h-50v300h260z" />
    <glyph glyph-name="uni0440" unicode="&#x440;" horiz-adv-x="362" 
d="M202 305c80 0 133 -61 133 -155c0 -92 -56 -155 -133 -155c-43 0 -79 17 -102 48v-143h-50v400h42l4 -50c24 35 62 55 106 55zM190 39c57 0 94 44 94 111s-37 111 -94 111s-94 -44 -94 -111s37 -111 94 -111z" />
    <glyph glyph-name="uni0441" unicode="&#x441;" horiz-adv-x="326" 
d="M175 -5c-87 0 -148 63 -148 155s61 155 148 155c63 0 115 -33 131 -90l-47 -15c-14 38 -44 61 -84 61c-60 0 -97 -44 -97 -111s37 -111 97 -111c40 0 71 23 85 61l46 -15c-17 -57 -69 -90 -131 -90z" />
    <glyph glyph-name="uni0442" unicode="&#x442;" horiz-adv-x="290" 
d="M280 300v-44h-110v-256h-50v256h-110v44h270z" />
    <glyph glyph-name="uni0443" unicode="&#x443;" horiz-adv-x="321" 
d="M263 300h52l-115 -316c-17 -47 -47 -89 -95 -89c-54 0 -80 38 -79 84l45 8c-1 -23 5 -46 34 -46c19 0 32 13 44 37l-141 322h55l110 -263z" />
    <glyph glyph-name="uni045E" unicode="&#x45e;" horiz-adv-x="321" 
d="M162 328c-49 0 -81 25 -86 69l40 8c2 -27 19 -42 46 -42s44 15 46 42l40 -8c-5 -44 -37 -69 -86 -69zM263 300h52l-115 -316c-17 -47 -47 -89 -95 -89c-54 0 -80 38 -79 84l45 8c-1 -23 5 -46 34 -46c19 0 32 13 44 37l-141 322h55l110 -263z" />
    <glyph glyph-name="uni0444" unicode="&#x444;" horiz-adv-x="514" 
d="M369 303c71 0 118 -60 118 -153c0 -91 -50 -153 -118 -153c-37 0 -67 14 -87 43v-140h-50v142c-21 -29 -51 -45 -87 -45c-71 0 -118 60 -118 153c0 91 50 153 118 153c37 0 67 -14 87 -42v139h50v-142c21 30 51 45 87 45zM157 39c47 0 78 44 78 111s-31 111 -78 111
c-48 0 -79 -44 -79 -111s31 -111 79 -111zM358 39c47 0 78 44 78 111s-31 111 -78 111c-48 0 -79 -44 -79 -111s31 -111 79 -111z" />
    <glyph glyph-name="uni0445" unicode="&#x445;" horiz-adv-x="326" 
d="M311 0h-61l-87 119l-89 -119h-59l117 153l-110 147h61l82 -111l83 111h58l-110 -146z" />
    <glyph glyph-name="uni0447" unicode="&#x447;" horiz-adv-x="328" 
d="M228 300h50v-300h-50v117h-82c-75 0 -116 38 -116 100v83h50v-83c0 -37 19 -54 66 -54h82v137z" />
    <glyph glyph-name="uni0446" unicode="&#x446;" horiz-adv-x="364" 
d="M305 44h39v-114h-47v70h-247v300h50v-256h155v256h50v-256z" />
    <glyph glyph-name="uni0448" unicode="&#x448;" horiz-adv-x="500" 
d="M400 300h50v-300h-400v300h50v-256h125v256h50v-256h125v256z" />
    <glyph glyph-name="uni0449" unicode="&#x449;" horiz-adv-x="509" 
d="M450 44h39v-114h-47v70h-392v300h50v-256h125v256h50v-256h125v256h50v-256z" />
    <glyph glyph-name="uni044C" unicode="&#x44c;" horiz-adv-x="313" 
d="M189 182c63 0 104 -36 104 -91s-41 -91 -104 -91h-139v300h50v-118h89zM186 44c36 0 56 17 56 47s-20 47 -56 47h-86v-94h86z" />
    <glyph glyph-name="uni044A" unicode="&#x44a;" horiz-adv-x="358" 
d="M234 182c63 0 104 -36 104 -91s-41 -91 -104 -91h-139v254h-85v46h135v-118h89zM231 44c36 0 56 17 56 47s-20 47 -56 47h-86v-94h86z" />
    <glyph glyph-name="uni044B" unicode="&#x44b;" horiz-adv-x="445" 
d="M189 182c63 0 104 -36 104 -91s-41 -91 -104 -91h-139v300h50v-118h89zM345 300h50v-300h-50v300zM186 44c36 0 56 17 56 47s-20 47 -56 47h-86v-94h86z" />
    <glyph glyph-name="uni0454" unicode="&#x454;" horiz-adv-x="327" 
d="M175 39c40 0 72 23 86 60l46 -15c-17 -56 -69 -89 -132 -89c-87 0 -148 63 -148 155s61 155 148 155c64 0 115 -33 132 -89l-47 -15c-14 37 -45 60 -85 60c-53 0 -88 -33 -96 -86h136v-44h-137c6 -56 42 -92 97 -92z" />
    <glyph glyph-name="uni044D" unicode="&#x44d;" horiz-adv-x="327" 
d="M152 305c87 0 148 -63 148 -155s-61 -155 -148 -155c-63 0 -115 33 -132 89l46 15c14 -37 46 -60 86 -60c55 0 91 36 97 92h-137v44h136c-8 53 -43 86 -96 86c-41 0 -73 -23 -87 -60l-45 14c19 57 72 90 132 90z" />
    <glyph glyph-name="uni0456" unicode="&#x456;" horiz-adv-x="160" 
d="M52 344v56h56v-56h-56zM55 0v300h50v-300h-50z" />
    <glyph glyph-name="uni0457" unicode="&#x457;" horiz-adv-x="160" 
d="M4 344v56h56v-56h-56zM100 344v56h56v-56h-56zM55 0v300h50v-300h-50z" />
    <glyph glyph-name="uni044E" unicode="&#x44e;" horiz-adv-x="482" 
d="M310 305c88 0 145 -61 145 -155c0 -92 -60 -155 -145 -155c-82 0 -137 52 -144 135h-66v-130h-50v300h50v-124h67c10 78 66 129 143 129zM310 39c57 0 94 44 94 111s-37 111 -94 111s-94 -44 -94 -111s37 -111 94 -111z" />
    <glyph glyph-name="uni044F" unicode="&#x44f;" horiz-adv-x="319" 
d="M269 300v-300h-50v118h-73l-77 -118h-57l82 125c-38 12 -61 42 -61 81c0 56 42 94 106 94h130zM143 157h76v100h-76c-38 0 -60 -19 -60 -49c0 -32 22 -51 60 -51z" />
    <glyph glyph-name="uni0436.ss01" horiz-adv-x="468" 
d="M431 44h11v-44h-24c-32 0 -51 19 -51 51v79h-108v-130h-50v130h-108v-79c0 -32 -19 -51 -51 -51h-24v44h11c9 0 15 6 15 15v113h56l-76 128h54l72 -125h51v225h50v-225h51l72 125h54l-76 -128h56v-113c0 -9 6 -15 15 -15z" />
    <glyph glyph-name="uni043A.ss01" horiz-adv-x="329" 
d="M292 44h11v-44h-24c-32 0 -51 19 -51 51v79h-128v-130h-50v400h50v-224h71l72 124h54l-76 -128h56v-113c0 -9 6 -15 15 -15z" />
    <glyph glyph-name="uni0443.ss01" horiz-adv-x="321" 
d="M260 300h53l-102 -300c-25 -73 -57 -105 -104 -105c-46 0 -77 32 -77 81c0 26 10 49 30 68h43l-100 256h55l92 -256h27zM109 -62c18 0 34 16 43 41l8 21h-76c-6 -8 -9 -16 -9 -25c0 -22 14 -37 34 -37z" />
    <glyph glyph-name="uni045E.ss01" horiz-adv-x="321" 
d="M162 328c-49 0 -81 25 -86 69l40 8c2 -27 19 -42 46 -42s44 15 46 42l40 -8c-5 -44 -37 -69 -86 -69zM260 300h53l-102 -300c-25 -73 -57 -105 -104 -105c-46 0 -77 32 -77 81c0 26 10 49 30 68h43l-100 256h55l92 -256h27zM109 -62c18 0 34 16 43 41l8 21h-76
c-6 -8 -9 -16 -9 -25c0 -22 14 -37 34 -37z" />
    <glyph glyph-name="uni044F.ss01" horiz-adv-x="330" 
d="M280 300v-300h-50v115h-129v-64c0 -32 -19 -51 -51 -51h-24v44h11c9 0 15 6 15 15v80h47c-35 13 -57 39 -57 73c0 52 41 88 104 88h134zM152 258c-38 0 -60 -19 -60 -50c0 -30 27 -51 66 -51h72v101h-78z" />
    <glyph glyph-name="uni0436.ss02" horiz-adv-x="472" 
d="M405 0l-101 146l-43 -42v-104h-50v104l-43 43l-101 -147h-62l128 181l-122 119h64l136 -137v237h50v-237l136 137h64l-122 -119l128 -181h-62z" />
    <glyph glyph-name="uni043A.ss02" horiz-adv-x="316" 
d="M254 0l-109 145l-45 -42v-103h-50v400h50v-239l146 139h64l-129 -121l135 -179h-62z" />
    <glyph glyph-name="uni044F.ss02" horiz-adv-x="319" 
d="M269 300v-300h-50v118h-73l-77 -118h-57l82 125c-38 12 -61 42 -61 81c0 56 42 94 106 94h130zM143 157h76v100h-76c-38 0 -60 -19 -60 -49c0 -32 22 -51 60 -51z" />
    <glyph glyph-name="uni0436.ss03" horiz-adv-x="468" 
d="M431 44h11v-44h-24c-32 0 -51 19 -51 51v79h-108v-130h-50v130h-108v-79c0 -32 -19 -51 -51 -51h-24v44h11c9 0 15 6 15 15v113h56l-76 128h54l72 -125h51v125h50v-125h51l72 125h54l-76 -128h56v-113c0 -9 6 -15 15 -15z" />
    <glyph glyph-name="uni043A.ss03" horiz-adv-x="329" 
d="M292 44h11v-44h-24c-32 0 -51 19 -51 51v79h-128v-130h-50v300h50v-124h71l72 124h54l-76 -128h56v-113c0 -9 6 -15 15 -15z" />
    <glyph glyph-name="uni0443.ss03" horiz-adv-x="321" 
d="M260 300h53l-102 -300c-25 -73 -57 -105 -104 -105c-46 0 -77 32 -77 81c0 26 10 49 30 68h43l-100 256h55l92 -256h27zM109 -62c18 0 34 16 43 41l8 21h-76c-6 -8 -9 -16 -9 -25c0 -22 14 -37 34 -37z" />
    <glyph glyph-name="uni045E.ss03" horiz-adv-x="321" 
d="M162 328c-49 0 -81 25 -86 69l40 8c2 -27 19 -42 46 -42s44 15 46 42l40 -8c-5 -44 -37 -69 -86 -69zM260 300h53l-102 -300c-25 -73 -57 -105 -104 -105c-46 0 -77 32 -77 81c0 26 10 49 30 68h43l-100 256h55l92 -256h27zM109 -62c18 0 34 16 43 41l8 21h-76
c-6 -8 -9 -16 -9 -25c0 -22 14 -37 34 -37z" />
    <glyph glyph-name="uni044F.ss03" horiz-adv-x="330" 
d="M280 300v-300h-50v115h-129v-64c0 -32 -19 -51 -51 -51h-24v44h11c9 0 15 6 15 15v80h47c-35 13 -57 39 -57 73c0 52 41 88 104 88h134zM152 258c-38 0 -60 -19 -60 -50c0 -30 27 -51 66 -51h72v101h-78z" />
    <glyph glyph-name="uni0436.ss04" horiz-adv-x="474" 
d="M435 44h11v-44h-23c-32 0 -51 19 -51 51v43c0 22 -13 35 -35 35h-75v-129h-50v129h-75c-22 0 -35 -13 -35 -35v-43c0 -32 -19 -51 -51 -51h-23v44h11c9 0 15 6 15 15v37c0 41 18 66 54 72l-76 132h54l68 -127h58v227h50v-227h58l68 127h54l-76 -132c36 -6 54 -31 54 -72
v-37c0 -9 6 -15 15 -15z" />
    <glyph glyph-name="uni043A.ss04" horiz-adv-x="329" 
d="M290 44h11v-44h-24c-32 0 -51 19 -51 51v43c0 22 -13 35 -35 35h-91v-129h-50v400h50v-227h72l71 127h54l-76 -132c36 -6 54 -31 54 -72v-37c0 -9 6 -15 15 -15z" />
    <glyph glyph-name="uni044F.ss04" horiz-adv-x="330" 
d="M280 300v-300h-50v115h-97c-22 0 -35 -13 -35 -35v-29c0 -32 -19 -51 -51 -51h-22v44h11c9 0 15 6 15 15v24c0 32 11 48 33 54c-26 14 -42 39 -42 71c0 55 41 92 104 92h134zM152 257c-38 0 -60 -19 -60 -49c0 -32 22 -51 60 -51h78v100h-78z" />
    <glyph glyph-name="uni0436.ss05" horiz-adv-x="474" 
d="M435 44h11v-44h-23c-32 0 -51 19 -51 51v43c0 22 -13 35 -35 35h-75v-129h-50v129h-75c-22 0 -35 -13 -35 -35v-43c0 -32 -19 -51 -51 -51h-23v44h11c9 0 15 6 15 15v37c0 41 18 66 54 72l-76 132h54l68 -127h58v127h50v-127h58l68 127h54l-76 -132c36 -6 54 -31 54 -72
v-37c0 -9 6 -15 15 -15z" />
    <glyph glyph-name="uni043A.ss05" horiz-adv-x="329" 
d="M290 44h11v-44h-24c-32 0 -51 19 -51 51v43c0 22 -13 35 -35 35h-91v-129h-50v300h50v-127h72l71 127h54l-76 -132c36 -6 54 -31 54 -72v-37c0 -9 6 -15 15 -15z" />
    <glyph glyph-name="uni044F.ss05" horiz-adv-x="330" 
d="M280 300v-300h-50v115h-97c-22 0 -35 -13 -35 -35v-29c0 -32 -19 -51 -51 -51h-22v44h11c9 0 15 6 15 15v24c0 32 11 48 33 54c-26 14 -42 39 -42 71c0 55 41 92 104 92h134zM152 257c-38 0 -60 -19 -60 -49c0 -32 22 -51 60 -51h78v100h-78z" />
    <glyph glyph-name="uni0443.ss06" horiz-adv-x="321" 
d="M257 300h54l-137 -353c-12 -32 -35 -47 -69 -47h-57v44h52c14 0 24 7 29 20l12 33l-126 303h55l97 -242z" />
    <glyph glyph-name="uni045E.ss06" horiz-adv-x="321" 
d="M162 328c-49 0 -81 25 -86 69l40 8c2 -27 19 -42 46 -42s44 15 46 42l40 -8c-5 -44 -37 -69 -86 -69zM257 300h54l-137 -353c-12 -32 -35 -47 -69 -47h-57v44h52c14 0 24 7 29 20l12 33l-126 303h55l97 -242z" />
    <glyph glyph-name="uni043D.ss07" 
d="M262 300h48v-300h-53l-159 224v-224h-48v300h53l159 -224v224z" />
    <glyph glyph-name="uni0430.stress" horiz-adv-x="317" 
d="M233 400l-57 -70h-37l29 70h65zM286 44h11v-44c-2 -1 -10 -2 -17 -2c-37 0 -52 13 -55 49c-22 -31 -62 -52 -107 -52c-58 0 -98 36 -98 89c0 72 70 89 129 98c51 8 70 11 70 36c0 27 -27 44 -67 44c-35 0 -69 -15 -94 -41l-31 32c33 33 76 52 127 52
c69 0 112 -37 112 -98v-143c0 -14 6 -20 20 -20zM124 37c50 0 94 35 94 76v46c-11 -8 -29 -11 -62 -16c-42 -7 -86 -14 -86 -58c0 -31 20 -48 54 -48z" />
    <glyph glyph-name="uni0435.stress" horiz-adv-x="341" 
d="M250 400l-57 -70h-37l29 70h65zM78 134c6 -58 43 -95 100 -95c49 0 77 18 93 41l36 -31c-22 -29 -63 -54 -128 -54c-97 0 -152 66 -152 155c0 92 61 155 147 155s142 -61 142 -155c0 -6 0 -11 -1 -16h-237zM174 262c-52 0 -87 -34 -95 -88h185c-7 54 -41 88 -90 88z" />
    <glyph glyph-name="uni0451.stress" horiz-adv-x="341" 
d="M223 414l-57 -70h-37l29 70h65zM124 400v-56h-56v56h56zM218 344v56h56v-56h-56zM78 134c6 -58 43 -95 100 -95c49 0 77 18 93 41l36 -31c-22 -29 -63 -54 -128 -54c-97 0 -152 66 -152 155c0 92 61 155 147 155s142 -61 142 -155c0 -6 0 -11 -1 -16h-237zM174 262
c-52 0 -87 -34 -95 -88h185c-7 54 -41 88 -90 88z" />
    <glyph glyph-name="uni0438.stress" 
d="M259 400l-57 -70h-37l29 70h65zM257 300h53v-300h-49v233l-158 -233h-53v300h49v-233z" />
    <glyph glyph-name="uni043E.stress" horiz-adv-x="354" 
d="M162 330l29 70h65l-57 -70h-37zM177 -5c-91 0 -150 61 -150 155c0 92 62 155 150 155c91 0 150 -61 150 -155c0 -92 -62 -155 -150 -155zM177 39c60 0 99 44 99 111s-39 111 -99 111s-99 -44 -99 -111s39 -111 99 -111z" />
    <glyph glyph-name="uni0443.stress" horiz-adv-x="321" 
d="M241 400l-57 -70h-37l29 70h65zM263 300h52l-115 -316c-17 -47 -47 -89 -95 -89c-54 0 -80 38 -79 84l45 8c-1 -23 5 -46 34 -46c19 0 32 13 44 37l-141 322h55l110 -263z" />
    <glyph glyph-name="uni044B.stress" horiz-adv-x="445" 
d="M208 330l29 70h65l-57 -70h-37zM189 182c63 0 104 -36 104 -91s-41 -91 -104 -91h-139v300h50v-118h89zM345 300h50v-300h-50v300zM186 44c36 0 56 17 56 47s-20 47 -56 47h-86v-94h86z" />
    <glyph glyph-name="uni0454.stress" horiz-adv-x="327" 
d="M253 400l-57 -70h-37l29 70h65zM175 39c40 0 72 23 86 60l46 -15c-17 -56 -69 -89 -132 -89c-87 0 -148 63 -148 155s61 155 148 155c64 0 115 -33 132 -89l-47 -15c-14 37 -45 60 -85 60c-53 0 -88 -33 -96 -86h136v-44h-137c6 -56 42 -92 97 -92z" />
    <glyph glyph-name="uni044D.stress" horiz-adv-x="327" 
d="M230 400l-57 -70h-37l29 70h65zM152 305c87 0 148 -63 148 -155s-61 -155 -148 -155c-63 0 -115 33 -132 89l46 15c14 -37 46 -60 86 -60c55 0 91 36 97 92h-137v44h136c-8 53 -43 86 -96 86c-41 0 -73 -23 -87 -60l-45 14c19 57 72 90 132 90z" />
    <glyph glyph-name="uni0456.stress" horiz-adv-x="160" 
d="M65 330l29 70h65l-57 -70h-37zM55 0v300h50v-300h-50z" />
    <glyph glyph-name="uni0457.stress" horiz-adv-x="160" 
d="M38 344l29 70h65l-57 -70h-37zM-23 344v56h56v-56h-56zM127 344v56h56v-56h-56zM55 0v300h50v-300h-50z" />
    <glyph glyph-name="uni044E.stress" horiz-adv-x="482" 
d="M295 400l-57 -70h-37l29 70h65zM310 305c88 0 145 -61 145 -155c0 -92 -60 -155 -145 -155c-82 0 -137 52 -144 135h-66v-130h-50v300h50v-124h67c10 78 66 129 143 129zM310 39c57 0 94 44 94 111s-37 111 -94 111s-94 -44 -94 -111s37 -111 94 -111z" />
    <glyph glyph-name="uni044F.stress" horiz-adv-x="319" 
d="M244 400l-57 -70h-37l29 70h65zM269 300v-300h-50v118h-73l-77 -118h-57l82 125c-38 12 -61 42 -61 81c0 56 42 94 106 94h130zM143 157h76v100h-76c-38 0 -60 -19 -60 -49c0 -32 22 -51 60 -51z" />
    <glyph glyph-name="uni0443.ss03.stress" horiz-adv-x="321" 
d="M241 400l-57 -70h-37l29 70h65zM260 300h53l-102 -300c-25 -73 -57 -105 -104 -105c-46 0 -77 32 -77 81c0 26 10 49 30 68h43l-100 256h55l92 -256h27zM109 -62c18 0 34 16 43 41l8 21h-76c-6 -8 -9 -16 -9 -25c0 -22 14 -37 34 -37z" />
    <glyph glyph-name="uni044F.ss03.stress" horiz-adv-x="330" 
d="M240 400l-57 -70h-37l29 70h65zM280 300v-300h-50v115h-129v-64c0 -32 -19 -51 -51 -51h-24v44h11c9 0 15 6 15 15v80h47c-35 13 -57 39 -57 73c0 52 41 88 104 88h134zM152 258c-38 0 -60 -19 -60 -50c0 -30 27 -51 66 -51h72v101h-78z" />
    <glyph glyph-name="uni044F.ss04.stress" horiz-adv-x="330" 
d="M249 400l-57 -70h-37l29 70h65zM280 300v-300h-50v115h-97c-22 0 -35 -13 -35 -35v-29c0 -32 -19 -51 -51 -51h-22v44h11c9 0 15 6 15 15v24c0 32 11 48 33 54c-26 14 -42 39 -42 71c0 55 41 92 104 92h134zM152 257c-38 0 -60 -19 -60 -49c0 -32 22 -51 60 -51h78v100
h-78z" />
    <glyph glyph-name="uni0443.ss06.stress" horiz-adv-x="321" 
d="M241 400l-57 -70h-37l29 70h65zM257 300h54l-137 -353c-12 -32 -35 -47 -69 -47h-57v44h52c14 0 24 7 29 20l12 33l-126 303h55l97 -242z" />
    <glyph glyph-name="zero" unicode="0" 
d="M180 -5c-91 0 -150 77 -150 195s59 195 150 195s150 -77 150 -195s-59 -195 -150 -195zM180 40c60 0 99 59 99 150s-39 150 -99 150s-99 -59 -99 -150s39 -150 99 -150z" />
    <glyph glyph-name="one" unicode="1" horiz-adv-x="225" 
d="M105 0v277h-90v39h15c67 0 85 14 90 64h35v-380h-50z" />
    <glyph glyph-name="two" unicode="2" horiz-adv-x="301" 
d="M90 47h191v-47h-266v32l131 120c52 48 74 83 74 120c0 41 -29 69 -71 69c-50 0 -82 -31 -86 -87l-47 10c7 75 60 121 135 121c71 0 120 -45 120 -110c0 -49 -32 -94 -102 -157z" />
    <glyph glyph-name="three" unicode="3" horiz-adv-x="305" 
d="M169 233c64 0 111 -47 111 -112c0 -72 -59 -126 -138 -126c-64 0 -114 29 -137 80l39 24c19 -41 50 -60 94 -60c57 0 91 31 91 82c0 45 -29 75 -72 75c-17 0 -32 -4 -44 -12l-27 28l116 122h-181v46h248v-36l-107 -111h7z" />
    <glyph glyph-name="four" unicode="4" horiz-adv-x="320" 
d="M315 140v-43h-63v-97h-50v97h-187v39l177 244h60v-240h63zM68 140h134v185z" />
    <glyph glyph-name="five" unicode="5" horiz-adv-x="312" 
d="M157 255c75 0 130 -54 130 -129c0 -77 -58 -131 -142 -131c-59 0 -106 28 -129 70l36 26c17 -30 53 -52 93 -52c55 0 92 35 92 87s-34 87 -86 87c-34 0 -62 -15 -78 -43l-39 12l17 198h208v-46h-168l-9 -106c19 18 44 27 75 27z" />
    <glyph glyph-name="six" unicode="6" horiz-adv-x="326" 
d="M185 242c72 0 128 -45 128 -120s-64 -127 -136 -127c-106 0 -147 93 -147 190c0 102 44 200 156 200c45 0 89 -17 117 -53l-34 -32c-20 28 -49 42 -83 42c-85 0 -111 -80 -110 -152v-6c22 37 62 58 109 58zM177 38c47 0 88 32 88 81c0 50 -37 81 -85 81s-88 -31 -88 -79
c0 -50 35 -83 85 -83z" />
    <glyph glyph-name="seven" unicode="7" horiz-adv-x="279" 
d="M5 380h274v-36c-86 -79 -141 -207 -141 -344h-52c0 134 61 262 135 334h-216v46z" />
    <glyph glyph-name="eight" unicode="8" horiz-adv-x="324" 
d="M230 192c43 -16 69 -48 69 -92c0 -63 -54 -105 -137 -105s-137 42 -137 105c0 44 26 76 69 92c-37 16 -58 47 -58 87c0 64 49 106 126 106s126 -42 126 -106c0 -40 -21 -71 -58 -87zM162 345c-47 0 -77 -27 -77 -68s30 -67 77 -67s77 26 77 67s-30 68 -77 68zM162 35
c53 0 88 27 88 68s-35 67 -88 67s-88 -26 -88 -67s35 -68 88 -68z" />
    <glyph glyph-name="nine" unicode="9" horiz-adv-x="326" 
d="M149 385c106 0 147 -93 147 -190c0 -102 -44 -200 -156 -200c-45 0 -89 17 -117 53l34 32c20 -28 49 -42 83 -42c85 0 111 80 110 152v6c-22 -37 -62 -58 -109 -58c-72 0 -128 45 -128 120s64 127 136 127zM146 180c48 0 88 31 88 79c0 50 -35 83 -85 83
c-47 0 -88 -32 -88 -81c0 -50 37 -81 85 -81z" />
    <glyph glyph-name="zero.zero" 
d="M180 385c91 0 150 -77 150 -195s-59 -195 -150 -195s-150 77 -150 195s59 195 150 195zM180 342c-64 0 -102 -56 -102 -152c0 -37 6 -69 17 -93l146 222c-16 15 -37 23 -61 23zM180 38c64 0 102 56 102 152c0 37 -6 69 -17 93l-146 -222c16 -15 37 -23 61 -23z" />
    <glyph glyph-name="zero.lf" 
d="M180 -5c-91 0 -150 77 -150 195s59 195 150 195s150 -77 150 -195s-59 -195 -150 -195zM180 40c60 0 99 59 99 150s-39 150 -99 150s-99 -59 -99 -150s39 -150 99 -150z" />
    <glyph glyph-name="one.lf" horiz-adv-x="225" 
d="M105 0v277h-90v39h15c67 0 85 14 90 64h35v-380h-50z" />
    <glyph glyph-name="two.lf" horiz-adv-x="301" 
d="M90 47h191v-47h-266v32l131 120c52 48 74 83 74 120c0 41 -29 69 -71 69c-50 0 -82 -31 -86 -87l-47 10c7 75 60 121 135 121c71 0 120 -45 120 -110c0 -49 -32 -94 -102 -157z" />
    <glyph glyph-name="three.lf" horiz-adv-x="305" 
d="M169 233c64 0 111 -47 111 -112c0 -72 -59 -126 -138 -126c-64 0 -114 29 -137 80l39 24c19 -41 50 -60 94 -60c57 0 91 31 91 82c0 45 -29 75 -72 75c-17 0 -32 -4 -44 -12l-27 28l116 122h-181v46h248v-36l-107 -111h7z" />
    <glyph glyph-name="four.lf" horiz-adv-x="320" 
d="M315 140v-43h-63v-97h-50v97h-187v39l177 244h60v-240h63zM68 140h134v185z" />
    <glyph glyph-name="five.lf" horiz-adv-x="316" 
d="M157 255c75 0 130 -54 130 -129c0 -77 -58 -131 -142 -131c-59 0 -106 28 -129 70l36 26c17 -30 53 -52 93 -52c55 0 92 35 92 87s-34 87 -86 87c-34 0 -62 -15 -78 -43l-39 12l17 198h208v-46h-168l-9 -106c19 18 44 27 75 27z" />
    <glyph glyph-name="six.lf" horiz-adv-x="326" 
d="M185 242c72 0 128 -45 128 -120s-64 -127 -136 -127c-106 0 -147 93 -147 190c0 102 44 200 156 200c45 0 89 -17 117 -53l-34 -32c-20 28 -49 42 -83 42c-85 0 -111 -80 -110 -152v-6c22 37 62 58 109 58zM177 38c47 0 88 32 88 81c0 50 -37 81 -85 81s-88 -31 -88 -79
c0 -50 35 -83 85 -83z" />
    <glyph glyph-name="seven.lf" horiz-adv-x="279" 
d="M5 380h274v-36c-86 -79 -141 -207 -141 -344h-52c0 134 61 262 135 334h-216v46z" />
    <glyph glyph-name="eight.lf" horiz-adv-x="324" 
d="M230 192c43 -16 69 -48 69 -92c0 -63 -54 -105 -137 -105s-137 42 -137 105c0 44 26 76 69 92c-37 16 -58 47 -58 87c0 64 49 106 126 106s126 -42 126 -106c0 -40 -21 -71 -58 -87zM162 345c-47 0 -77 -27 -77 -68s30 -67 77 -67s77 26 77 67s-30 68 -77 68zM162 35
c53 0 88 27 88 68s-35 67 -88 67s-88 -26 -88 -67s35 -68 88 -68z" />
    <glyph glyph-name="nine.lf" horiz-adv-x="326" 
d="M149 385c106 0 147 -93 147 -190c0 -102 -44 -200 -156 -200c-45 0 -89 17 -117 53l34 32c20 -28 49 -42 83 -42c85 0 111 80 110 152v6c-22 -37 -62 -58 -109 -58c-72 0 -128 45 -128 120s64 127 136 127zM146 180c48 0 88 31 88 79c0 50 -35 83 -85 83
c-47 0 -88 -32 -88 -81c0 -50 37 -81 85 -81z" />
    <glyph glyph-name="zero.lf.zero" 
d="M180 385c91 0 150 -77 150 -195s-59 -195 -150 -195s-150 77 -150 195s59 195 150 195zM180 342c-64 0 -102 -56 -102 -152c0 -37 6 -69 17 -93l146 222c-16 15 -37 23 -61 23zM180 38c64 0 102 56 102 152c0 37 -6 69 -17 93l-146 -222c16 -15 37 -23 61 -23z" />
    <glyph glyph-name="zero.osf" 
d="M180 -5c-91 0 -150 65 -150 165c0 98 62 165 150 165c91 0 150 -65 150 -165c0 -98 -62 -165 -150 -165zM180 40c60 0 99 47 99 120s-39 120 -99 120s-99 -47 -99 -120s39 -120 99 -120z" />
    <glyph glyph-name="one.osf" horiz-adv-x="225" 
d="M107 0v222h-90v39h15c67 0 85 14 90 64h35v-325h-50z" />
    <glyph glyph-name="two.osf" horiz-adv-x="300" 
d="M109 48h189v-48h-283v32l127 88c64 44 80 65 80 101s-26 60 -70 60c-51 0 -81 -29 -90 -75l-44 8c11 70 67 111 137 111c68 0 116 -39 116 -100c0 -48 -23 -79 -105 -137z" />
    <glyph glyph-name="three.osf" horiz-adv-x="300" 
d="M169 173c64 0 111 -47 111 -112c0 -72 -59 -126 -138 -126c-64 0 -114 29 -137 80l39 24c19 -41 50 -60 94 -60c57 0 91 31 91 82c0 45 -29 75 -72 75c-17 0 -32 -4 -44 -12l-27 28l116 122h-181v46h248v-36l-107 -111h7z" />
    <glyph glyph-name="four.osf" horiz-adv-x="320" 
d="M310 80v-43h-63v-97h-50v97h-187v39l177 244h60v-240h63zM63 80h134v185z" />
    <glyph glyph-name="five.osf" horiz-adv-x="316" 
d="M166 195c75 0 130 -54 130 -129c0 -77 -58 -131 -142 -131c-59 0 -106 28 -129 70l36 26c17 -30 53 -52 93 -52c55 0 92 35 92 87s-34 87 -86 87c-34 0 -62 -15 -78 -43l-39 12l17 198h208v-46h-168l-9 -106c19 18 44 27 75 27z" />
    <glyph glyph-name="six.osf" horiz-adv-x="336" 
d="M188 242c72 0 128 -45 128 -120s-64 -127 -136 -127c-106 0 -147 93 -147 190c0 102 44 200 156 200c45 0 89 -17 117 -53l-34 -32c-20 28 -49 42 -83 42c-85 0 -111 -80 -110 -152v-6c22 37 62 58 109 58zM180 38c47 0 88 32 88 81c0 50 -37 81 -85 81s-88 -31 -88 -79
c0 -50 35 -83 85 -83z" />
    <glyph glyph-name="seven.osf" horiz-adv-x="279" 
d="M2 320h274v-36c-86 -79 -141 -207 -141 -344h-52c0 134 61 262 135 334h-216v46z" />
    <glyph glyph-name="eight.osf" horiz-adv-x="324" 
d="M230 192c43 -16 69 -48 69 -92c0 -63 -54 -105 -137 -105s-137 42 -137 105c0 44 26 76 69 92c-37 16 -58 47 -58 87c0 64 49 106 126 106s126 -42 126 -106c0 -40 -21 -71 -58 -87zM162 345c-47 0 -77 -27 -77 -68s30 -67 77 -67s77 26 77 67s-30 68 -77 68zM162 35
c53 0 88 27 88 68s-35 67 -88 67s-88 -26 -88 -67s35 -68 88 -68z" />
    <glyph glyph-name="nine.osf" horiz-adv-x="328" 
d="M151 325c106 0 147 -93 147 -190c0 -102 -44 -200 -156 -200c-45 0 -89 17 -117 53l34 32c20 -28 49 -42 83 -42c85 0 111 80 110 152v6c-22 -37 -62 -58 -109 -58c-72 0 -128 45 -128 120s64 127 136 127zM148 120c48 0 88 31 88 79c0 50 -35 83 -85 83
c-47 0 -88 -32 -88 -81c0 -50 37 -81 85 -81z" />
    <glyph glyph-name="zero.osf.zero" 
d="M180 325c91 0 150 -65 150 -165c0 -98 -62 -165 -150 -165c-91 0 -150 65 -150 165c0 98 62 165 150 165zM180 284c-63 0 -103 -49 -103 -124c0 -30 6 -55 18 -75l142 182c-15 11 -35 17 -57 17zM180 37c63 0 103 48 103 123c0 30 -6 55 -18 76l-142 -182
c16 -11 35 -17 57 -17z" />
    <glyph glyph-name="zero.tf" 
d="M180 -5c-91 0 -150 77 -150 195s59 195 150 195s150 -77 150 -195s-59 -195 -150 -195zM180 40c60 0 99 59 99 150s-39 150 -99 150s-99 -59 -99 -150s39 -150 99 -150z" />
    <glyph glyph-name="one.tf" 
d="M216 43h114v-43h-280v43h116v234h-102v39h27c67 0 85 14 90 64h35v-337z" />
    <glyph glyph-name="two.tf" 
d="M122 47h191v-47h-266v32l131 120c52 48 74 83 74 120c0 41 -29 69 -71 69c-50 0 -82 -31 -86 -87l-47 10c7 75 60 121 135 121c71 0 120 -45 120 -110c0 -49 -32 -94 -102 -157z" />
    <glyph glyph-name="three.tf" 
d="M199 233c64 0 111 -47 111 -112c0 -72 -59 -126 -138 -126c-64 0 -114 29 -137 80l39 24c19 -41 50 -60 94 -60c57 0 91 31 91 82c0 45 -29 75 -72 75c-17 0 -32 -4 -44 -12l-27 28l116 122h-181v46h248v-36l-107 -111h7z" />
    <glyph glyph-name="four.tf" 
d="M333 140v-43h-63v-97h-50v97h-187v39l177 244h60v-240h63zM86 140h134v185z" />
    <glyph glyph-name="five.tf" 
d="M180 255c75 0 130 -54 130 -129c0 -77 -58 -131 -142 -131c-59 0 -106 28 -129 70l36 26c17 -30 53 -52 93 -52c55 0 92 35 92 87s-34 87 -86 87c-34 0 -62 -15 -78 -43l-39 12l17 198h208v-46h-168l-9 -106c19 18 44 27 75 27z" />
    <glyph glyph-name="six.tf" 
d="M200 242c72 0 128 -45 128 -120s-64 -127 -136 -127c-106 0 -147 93 -147 190c0 102 44 200 156 200c45 0 89 -17 117 -53l-34 -32c-20 28 -49 42 -83 42c-85 0 -111 -80 -110 -152v-6c22 37 62 58 109 58zM192 38c47 0 88 32 88 81c0 50 -37 81 -85 81s-88 -31 -88 -79
c0 -50 35 -83 85 -83z" />
    <glyph glyph-name="seven.tf" 
d="M41 380h290v-36c-91 -79 -149 -207 -149 -344h-54c0 128 66 262 144 334h-231v46z" />
    <glyph glyph-name="eight.tf" 
d="M248 192c43 -16 69 -48 69 -92c0 -63 -54 -105 -137 -105s-137 42 -137 105c0 44 26 76 69 92c-37 16 -58 47 -58 87c0 64 49 106 126 106s126 -42 126 -106c0 -40 -21 -71 -58 -87zM180 345c-47 0 -77 -27 -77 -68s30 -67 77 -67s77 26 77 67s-30 68 -77 68zM180 35
c53 0 88 27 88 68s-35 67 -88 67s-88 -26 -88 -67s35 -68 88 -68z" />
    <glyph glyph-name="nine.tf" 
d="M168 385c106 0 147 -93 147 -190c0 -102 -44 -200 -156 -200c-45 0 -89 17 -117 53l34 32c20 -28 49 -42 83 -42c85 0 111 80 110 152v6c-22 -37 -62 -58 -109 -58c-72 0 -128 45 -128 120s64 127 136 127zM165 180c48 0 88 31 88 79c0 50 -35 83 -85 83
c-47 0 -88 -32 -88 -81c0 -50 37 -81 85 -81z" />
    <glyph glyph-name="zero.tf.zero" 
d="M180 385c91 0 150 -77 150 -195s-59 -195 -150 -195s-150 77 -150 195s59 195 150 195zM180 342c-64 0 -102 -56 -102 -152c0 -37 6 -69 17 -93l146 222c-16 15 -37 23 -61 23zM180 38c64 0 102 56 102 152c0 37 -6 69 -17 93l-146 -222c16 -15 37 -23 61 -23z" />
    <glyph glyph-name="zero.tosf" 
d="M180 -5c-91 0 -150 65 -150 165c0 98 62 165 150 165c91 0 150 -65 150 -165c0 -98 -62 -165 -150 -165zM180 40c60 0 99 47 99 120s-39 120 -99 120s-99 -47 -99 -120s39 -120 99 -120z" />
    <glyph glyph-name="one.tosf" 
d="M216 43h114v-43h-280v43h116v174h-102v39h27c67 0 85 14 90 64h35v-277z" />
    <glyph glyph-name="two.tosf" 
d="M126 48h189v-48h-283v32l127 88c64 44 80 65 80 101s-26 60 -70 60c-51 0 -81 -29 -90 -75l-44 8c11 70 67 111 137 111c68 0 116 -39 116 -100c0 -48 -23 -79 -105 -137z" />
    <glyph glyph-name="three.tosf" 
d="M199 173c64 0 111 -47 111 -112c0 -72 -59 -126 -138 -126c-64 0 -114 29 -137 80l39 24c19 -41 50 -60 94 -60c57 0 91 31 91 82c0 45 -29 75 -72 75c-17 0 -32 -4 -44 -12l-27 28l116 122h-181v46h248v-36l-107 -111h7z" />
    <glyph glyph-name="four.tosf" 
d="M333 80v-43h-63v-97h-50v97h-187v39l177 244h60v-240h63zM86 80h134v185z" />
    <glyph glyph-name="five.tosf" 
d="M180 195c75 0 130 -54 130 -129c0 -77 -58 -131 -142 -131c-59 0 -106 28 -129 70l36 26c17 -30 53 -52 93 -52c55 0 92 35 92 87s-34 87 -86 87c-34 0 -62 -15 -78 -43l-39 12l17 198h208v-46h-168l-9 -106c19 18 44 27 75 27z" />
    <glyph glyph-name="six.tosf" 
d="M200 242c72 0 128 -45 128 -120s-64 -127 -136 -127c-106 0 -147 93 -147 190c0 102 44 200 156 200c45 0 89 -17 117 -53l-34 -32c-20 28 -49 42 -83 42c-85 0 -111 -80 -110 -152v-6c22 37 62 58 109 58zM192 38c47 0 88 32 88 81c0 50 -37 81 -85 81s-88 -31 -88 -79
c0 -50 35 -83 85 -83z" />
    <glyph glyph-name="seven.tosf" 
d="M41 320h290v-36c-91 -79 -149 -207 -149 -344h-54c0 128 66 262 144 334h-231v46z" />
    <glyph glyph-name="eight.tosf" 
d="M248 192c43 -16 69 -48 69 -92c0 -63 -54 -105 -137 -105s-137 42 -137 105c0 44 26 76 69 92c-37 16 -58 47 -58 87c0 64 49 106 126 106s126 -42 126 -106c0 -40 -21 -71 -58 -87zM180 345c-47 0 -77 -27 -77 -68s30 -67 77 -67s77 26 77 67s-30 68 -77 68zM180 35
c53 0 88 27 88 68s-35 67 -88 67s-88 -26 -88 -67s35 -68 88 -68z" />
    <glyph glyph-name="nine.tosf" 
d="M168 325c106 0 147 -93 147 -190c0 -102 -44 -200 -156 -200c-45 0 -89 17 -117 53l34 32c20 -28 49 -42 83 -42c85 0 111 80 110 152v6c-22 -37 -62 -58 -109 -58c-72 0 -128 45 -128 120s64 127 136 127zM165 120c48 0 88 31 88 79c0 50 -35 83 -85 83
c-47 0 -88 -32 -88 -81c0 -50 37 -81 85 -81z" />
    <glyph glyph-name="zero.tosf.zero" 
d="M180 325c91 0 150 -65 150 -165c0 -98 -62 -165 -150 -165c-91 0 -150 65 -150 165c0 98 62 165 150 165zM180 284c-63 0 -103 -49 -103 -124c0 -30 6 -55 18 -75l142 182c-15 11 -35 17 -57 17zM180 37c63 0 103 48 103 123c0 30 -6 55 -18 76l-142 -182
c16 -11 35 -17 57 -17z" />
    <glyph glyph-name="uni2080" unicode="&#x2080;" horiz-adv-x="234" 
d="M117 -83c-60 0 -99 46 -99 115s39 115 99 115s99 -46 99 -115s-39 -115 -99 -115zM117 -46c35 0 58 31 58 78s-23 79 -58 79c-34 0 -58 -32 -58 -79s24 -78 58 -78z" />
    <glyph glyph-name="uni2081" unicode="&#x2081;" horiz-adv-x="190" 
d="M131 144v-224h-41v152h-61v34h14c43 0 55 9 58 38h30z" />
    <glyph glyph-name="uni2082" unicode="&#x2082;" horiz-adv-x="234" 
d="M96 -42h112v-38h-179v28l85 66c29 23 45 43 45 64c0 20 -16 33 -42 33c-29 0 -47 -17 -49 -45l-39 6c4 46 38 75 90 75c49 0 82 -26 82 -65c0 -30 -19 -56 -69 -95z" />
    <glyph glyph-name="uni2083" unicode="&#x2083;" horiz-adv-x="234" 
d="M133 58c42 -1 70 -27 70 -65c0 -43 -40 -76 -90 -76c-42 0 -77 20 -92 50l31 21c11 -23 33 -35 61 -35c30 0 50 16 50 39c0 24 -19 38 -44 38c-9 0 -18 -2 -26 -6l-19 21l66 62h-108v37h164v-29z" />
    <glyph glyph-name="uni2084" unicode="&#x2084;" horiz-adv-x="234" 
d="M218 8v-36h-39v-52h-39v52h-121v33l112 139h48v-136h39zM63 8h77v97z" />
    <glyph glyph-name="uni2085" unicode="&#x2085;" horiz-adv-x="234" 
d="M121 71c48 0 81 -30 81 -73c0 -47 -39 -81 -93 -81c-39 0 -70 17 -85 43l28 22c11 -17 32 -29 58 -29c30 0 52 17 52 44c0 26 -21 41 -50 41c-19 0 -37 -7 -46 -21l-30 10l11 117h139v-36h-107l-5 -49c13 8 29 12 47 12z" />
    <glyph glyph-name="uni2086" unicode="&#x2086;" horiz-adv-x="234" 
d="M131 66c50 0 84 -30 84 -73c0 -45 -38 -76 -90 -76c-65 0 -97 53 -97 114c0 62 34 116 103 116c31 0 59 -10 76 -30l-29 -28c-11 13 -29 21 -49 21c-41 0 -63 -34 -64 -74c14 19 37 30 66 30zM125 -48c28 0 50 15 50 40c0 23 -20 41 -49 41c-28 0 -51 -16 -51 -41
c0 -23 20 -40 50 -40z" />
    <glyph glyph-name="uni2087" unicode="&#x2087;" horiz-adv-x="204" 
d="M6 144h190v-30c-56 -44 -91 -116 -91 -194h-43c0 70 35 141 82 185h-138v39z" />
    <glyph glyph-name="uni2088" unicode="&#x2088;" horiz-adv-x="234" 
d="M165 35c27 -10 43 -30 43 -55c0 -38 -35 -63 -91 -63s-91 25 -91 63c0 25 16 45 43 55c-23 9 -36 27 -36 50c0 37 33 62 84 62s84 -25 84 -62c0 -23 -13 -41 -36 -50zM117 116c-28 0 -46 -13 -46 -35c0 -18 18 -31 46 -31s46 13 46 31c0 22 -18 35 -46 35zM117 -51
c31 0 52 13 52 33c0 21 -21 33 -52 33s-52 -12 -52 -33c0 -20 21 -33 52 -33z" />
    <glyph glyph-name="uni2089" unicode="&#x2089;" horiz-adv-x="234" 
d="M109 147c65 0 97 -53 97 -114c0 -62 -34 -116 -103 -116c-31 0 -59 10 -76 30l29 28c11 -13 29 -21 49 -21c41 0 63 34 64 74c-14 -19 -37 -30 -66 -30c-50 0 -84 30 -84 73c0 45 38 76 90 76zM108 31c28 0 51 16 51 41c0 23 -20 40 -50 40c-28 0 -50 -15 -50 -40
c0 -23 20 -41 49 -41z" />
    <glyph glyph-name="zero.dnom" horiz-adv-x="234" 
d="M117 -3c-60 0 -99 46 -99 115s39 115 99 115s99 -46 99 -115s-39 -115 -99 -115zM117 34c35 0 58 31 58 78s-23 79 -58 79c-34 0 -58 -32 -58 -79s24 -78 58 -78z" />
    <glyph glyph-name="one.dnom" horiz-adv-x="190" 
d="M131 224v-224h-41v152h-61v34h14c43 0 55 9 58 38h30z" />
    <glyph glyph-name="two.dnom" horiz-adv-x="234" 
d="M96 38h112v-38h-179v28l85 66c29 23 45 43 45 64c0 20 -16 33 -42 33c-29 0 -47 -17 -49 -45l-39 6c4 46 38 75 90 75c49 0 82 -26 82 -65c0 -30 -19 -56 -69 -95z" />
    <glyph glyph-name="three.dnom" horiz-adv-x="234" 
d="M133 138c42 -1 70 -27 70 -65c0 -43 -40 -76 -90 -76c-42 0 -77 20 -92 50l31 21c11 -23 33 -35 61 -35c30 0 50 16 50 39c0 24 -19 38 -44 38c-9 0 -18 -2 -26 -6l-19 21l66 62h-108v37h164v-29z" />
    <glyph glyph-name="four.dnom" horiz-adv-x="234" 
d="M218 88v-36h-39v-52h-39v52h-121v33l112 139h48v-136h39zM63 88h77v97z" />
    <glyph glyph-name="five.dnom" horiz-adv-x="234" 
d="M121 151c48 0 81 -30 81 -73c0 -47 -39 -81 -93 -81c-39 0 -70 17 -85 43l28 22c11 -17 32 -29 58 -29c30 0 52 17 52 44c0 26 -21 41 -50 41c-19 0 -37 -7 -46 -21l-30 10l11 117h139v-36h-107l-5 -49c13 8 29 12 47 12z" />
    <glyph glyph-name="six.dnom" horiz-adv-x="234" 
d="M131 146c50 0 84 -30 84 -73c0 -45 -38 -76 -90 -76c-65 0 -97 53 -97 114c0 62 34 116 103 116c31 0 59 -10 76 -30l-29 -28c-11 13 -29 21 -49 21c-41 0 -63 -34 -64 -74c14 19 37 30 66 30zM125 32c28 0 50 15 50 40c0 23 -20 41 -49 41c-28 0 -51 -16 -51 -41
c0 -23 20 -40 50 -40z" />
    <glyph glyph-name="seven.dnom" horiz-adv-x="204" 
d="M6 224h190v-30c-56 -44 -91 -116 -91 -194h-43c0 70 35 141 82 185h-138v39z" />
    <glyph glyph-name="eight.dnom" horiz-adv-x="234" 
d="M165 115c27 -10 43 -30 43 -55c0 -38 -35 -63 -91 -63s-91 25 -91 63c0 25 16 45 43 55c-23 9 -36 27 -36 50c0 37 33 62 84 62s84 -25 84 -62c0 -23 -13 -41 -36 -50zM117 196c-28 0 -46 -13 -46 -35c0 -18 18 -31 46 -31s46 13 46 31c0 22 -18 35 -46 35zM117 29
c31 0 52 13 52 33c0 21 -21 33 -52 33s-52 -12 -52 -33c0 -20 21 -33 52 -33z" />
    <glyph glyph-name="nine.dnom" horiz-adv-x="234" 
d="M109 227c65 0 97 -53 97 -114c0 -62 -34 -116 -103 -116c-31 0 -59 10 -76 30l29 28c11 -13 29 -21 49 -21c41 0 63 34 64 74c-14 -19 -37 -30 -66 -30c-50 0 -84 30 -84 73c0 45 38 76 90 76zM108 111c28 0 51 16 51 41c0 23 -20 40 -50 40c-28 0 -50 -15 -50 -40
c0 -23 20 -41 49 -41z" />
    <glyph glyph-name="zero.numr" horiz-adv-x="234" 
d="M117 153c-60 0 -99 46 -99 115s39 115 99 115s99 -46 99 -115s-39 -115 -99 -115zM117 190c35 0 58 31 58 78s-23 79 -58 79c-34 0 -58 -32 -58 -79s24 -78 58 -78z" />
    <glyph glyph-name="one.numr" horiz-adv-x="190" 
d="M131 380v-224h-41v152h-61v34h14c43 0 55 9 58 38h30z" />
    <glyph glyph-name="two.numr" horiz-adv-x="234" 
d="M96 194h112v-38h-179v28l85 66c29 23 45 43 45 64c0 20 -16 33 -42 33c-29 0 -47 -17 -49 -45l-39 6c4 46 38 75 90 75c49 0 82 -26 82 -65c0 -30 -19 -56 -69 -95z" />
    <glyph glyph-name="three.numr" horiz-adv-x="234" 
d="M133 294c42 -1 70 -27 70 -65c0 -43 -40 -76 -90 -76c-42 0 -77 20 -92 50l31 21c11 -23 33 -35 61 -35c30 0 50 16 50 39c0 24 -19 38 -44 38c-9 0 -18 -2 -26 -6l-19 21l66 62h-108v37h164v-29z" />
    <glyph glyph-name="four.numr" horiz-adv-x="234" 
d="M218 244v-36h-39v-52h-39v52h-121v33l112 139h48v-136h39zM63 244h77v97z" />
    <glyph glyph-name="five.numr" horiz-adv-x="234" 
d="M121 307c48 0 81 -30 81 -73c0 -47 -39 -81 -93 -81c-39 0 -70 17 -85 43l28 22c11 -17 32 -29 58 -29c30 0 52 17 52 44c0 26 -21 41 -50 41c-19 0 -37 -7 -46 -21l-30 10l11 117h139v-36h-107l-5 -49c13 8 29 12 47 12z" />
    <glyph glyph-name="six.numr" horiz-adv-x="234" 
d="M131 302c50 0 84 -30 84 -73c0 -45 -38 -76 -90 -76c-65 0 -97 53 -97 114c0 62 34 116 103 116c31 0 59 -10 76 -30l-29 -28c-11 13 -29 21 -49 21c-41 0 -63 -34 -64 -74c14 19 37 30 66 30zM125 188c28 0 50 15 50 40c0 23 -20 41 -49 41c-28 0 -51 -16 -51 -41
c0 -23 20 -40 50 -40z" />
    <glyph glyph-name="seven.numr" horiz-adv-x="204" 
d="M6 380h190v-30c-56 -44 -91 -116 -91 -194h-43c0 70 35 141 82 185h-138v39z" />
    <glyph glyph-name="eight.numr" horiz-adv-x="234" 
d="M165 271c27 -10 43 -30 43 -55c0 -38 -35 -63 -91 -63s-91 25 -91 63c0 25 16 45 43 55c-23 9 -36 27 -36 50c0 37 33 62 84 62s84 -25 84 -62c0 -23 -13 -41 -36 -50zM117 352c-28 0 -46 -13 -46 -35c0 -18 18 -31 46 -31s46 13 46 31c0 22 -18 35 -46 35zM117 185
c31 0 52 13 52 33c0 21 -21 33 -52 33s-52 -12 -52 -33c0 -20 21 -33 52 -33z" />
    <glyph glyph-name="nine.numr" horiz-adv-x="234" 
d="M109 383c65 0 97 -53 97 -114c0 -62 -34 -116 -103 -116c-31 0 -59 10 -76 30l29 28c11 -13 29 -21 49 -21c41 0 63 34 64 74c-14 -19 -37 -30 -66 -30c-50 0 -84 30 -84 73c0 45 38 76 90 76zM108 267c28 0 51 16 51 41c0 23 -20 40 -50 40c-28 0 -50 -15 -50 -40
c0 -23 20 -41 49 -41z" />
    <glyph glyph-name="uni2070" unicode="&#x2070;" horiz-adv-x="234" 
d="M117 233c-60 0 -99 46 -99 115s39 115 99 115s99 -46 99 -115s-39 -115 -99 -115zM117 270c35 0 58 31 58 78s-23 79 -58 79c-34 0 -58 -32 -58 -79s24 -78 58 -78z" />
    <glyph glyph-name="uni00B9" unicode="&#xb9;" horiz-adv-x="190" 
d="M131 460v-224h-41v152h-61v34h14c43 0 55 9 58 38h30z" />
    <glyph glyph-name="uni00B2" unicode="&#xb2;" horiz-adv-x="234" 
d="M96 274h112v-38h-179v28l85 66c29 23 45 43 45 64c0 20 -16 33 -42 33c-29 0 -47 -17 -49 -45l-39 6c4 46 38 75 90 75c49 0 82 -26 82 -65c0 -30 -19 -56 -69 -95z" />
    <glyph glyph-name="uni00B3" unicode="&#xb3;" horiz-adv-x="234" 
d="M133 374c42 -1 70 -27 70 -65c0 -43 -40 -76 -90 -76c-42 0 -77 20 -92 50l31 21c11 -23 33 -35 61 -35c30 0 50 16 50 39c0 24 -19 38 -44 38c-9 0 -18 -2 -26 -6l-19 21l66 62h-108v37h164v-29z" />
    <glyph glyph-name="uni2074" unicode="&#x2074;" horiz-adv-x="234" 
d="M218 324v-36h-39v-52h-39v52h-121v33l112 139h48v-136h39zM63 324h77v97z" />
    <glyph glyph-name="uni2075" unicode="&#x2075;" horiz-adv-x="234" 
d="M121 387c48 0 81 -30 81 -73c0 -47 -39 -81 -93 -81c-39 0 -70 17 -85 43l28 22c11 -17 32 -29 58 -29c30 0 52 17 52 44c0 26 -21 41 -50 41c-19 0 -37 -7 -46 -21l-30 10l11 117h139v-36h-107l-5 -49c13 8 29 12 47 12z" />
    <glyph glyph-name="uni2076" unicode="&#x2076;" horiz-adv-x="234" 
d="M131 382c50 0 84 -30 84 -73c0 -45 -38 -76 -90 -76c-65 0 -97 53 -97 114c0 62 34 116 103 116c31 0 59 -10 76 -30l-29 -28c-11 13 -29 21 -49 21c-41 0 -63 -34 -64 -74c14 19 37 30 66 30zM125 268c28 0 50 15 50 40c0 23 -20 41 -49 41c-28 0 -51 -16 -51 -41
c0 -23 20 -40 50 -40z" />
    <glyph glyph-name="uni2077" unicode="&#x2077;" horiz-adv-x="204" 
d="M6 460h190v-30c-56 -44 -91 -116 -91 -194h-43c0 70 35 141 82 185h-138v39z" />
    <glyph glyph-name="uni2078" unicode="&#x2078;" horiz-adv-x="234" 
d="M165 351c27 -10 43 -30 43 -55c0 -38 -35 -63 -91 -63s-91 25 -91 63c0 25 16 45 43 55c-23 9 -36 27 -36 50c0 37 33 62 84 62s84 -25 84 -62c0 -23 -13 -41 -36 -50zM117 432c-28 0 -46 -13 -46 -35c0 -18 18 -31 46 -31s46 13 46 31c0 22 -18 35 -46 35zM117 265
c31 0 52 13 52 33c0 21 -21 33 -52 33s-52 -12 -52 -33c0 -20 21 -33 52 -33z" />
    <glyph glyph-name="uni2079" unicode="&#x2079;" horiz-adv-x="234" 
d="M109 463c65 0 97 -53 97 -114c0 -62 -34 -116 -103 -116c-31 0 -59 10 -76 30l29 28c11 -13 29 -21 49 -21c41 0 63 34 64 74c-14 -19 -37 -30 -66 -30c-50 0 -84 30 -84 73c0 45 38 76 90 76zM108 347c28 0 51 16 51 41c0 23 -20 40 -50 40c-28 0 -50 -15 -50 -40
c0 -23 20 -41 49 -41z" />
    <glyph glyph-name="fraction" unicode="&#x2044;" horiz-adv-x="20" 
d="M-132 0l241 380h43l-241 -380h-43z" />
    <glyph glyph-name="onehalf" unicode="&#xbd;" horiz-adv-x="444" 
d="M90 156v152h-61v34h14c43 0 55 9 58 38h30v-224h-41zM299 380h43l-241 -380h-43zM306 38h112v-38h-179v28l85 66c29 23 45 43 45 64c0 20 -16 33 -42 33c-29 0 -47 -17 -49 -45l-39 6c4 46 38 75 90 75c49 0 82 -26 82 -65c0 -30 -19 -56 -69 -95z" />
    <glyph glyph-name="onequarter" unicode="&#xbc;" horiz-adv-x="444" 
d="M90 156v152h-61v34h14c43 0 55 9 58 38h30v-224h-41zM315 380h43l-241 -380h-43zM428 88v-36h-39v-52h-39v52h-121v33l112 139h48v-136h39zM273 88h77v97z" />
    <glyph glyph-name="threequarters" unicode="&#xbe;" horiz-adv-x="488" 
d="M203 229c0 -43 -40 -76 -90 -76c-42 0 -77 20 -92 50l31 21c11 -23 33 -35 61 -35c30 0 50 16 50 39c0 24 -19 38 -44 38c-9 0 -18 -2 -26 -6l-19 21l66 62h-108v37h164v-29l-63 -57c42 -1 70 -27 70 -65zM360 380h43l-241 -380h-43zM472 88v-36h-39v-52h-39v52h-121v33
l112 139h48v-136h39zM317 88h77v97z" />
    <glyph glyph-name="oneeighth" unicode="&#x215b;" horiz-adv-x="444" 
d="M90 156v152h-61v34h14c43 0 55 9 58 38h30v-224h-41zM299 380h43l-241 -380h-43zM375 115c27 -10 43 -30 43 -55c0 -38 -35 -63 -91 -63s-91 25 -91 63c0 25 16 45 43 55c-23 9 -36 27 -36 50c0 37 33 62 84 62s84 -25 84 -62c0 -23 -13 -41 -36 -50zM327 196
c-28 0 -46 -13 -46 -35c0 -18 18 -31 46 -31s46 13 46 31c0 22 -18 35 -46 35zM327 29c31 0 52 13 52 33c0 21 -21 33 -52 33s-52 -12 -52 -33c0 -20 21 -33 52 -33z" />
    <glyph glyph-name="threeeighths" unicode="&#x215c;" horiz-adv-x="488" 
d="M203 229c0 -43 -40 -76 -90 -76c-42 0 -77 20 -92 50l31 21c11 -23 33 -35 61 -35c30 0 50 16 50 39c0 24 -19 38 -44 38c-9 0 -18 -2 -26 -6l-19 21l66 62h-108v37h164v-29l-63 -57c42 -1 70 -27 70 -65zM343 380h43l-241 -380h-43zM419 115c27 -10 43 -30 43 -55
c0 -38 -35 -63 -91 -63s-91 25 -91 63c0 25 16 45 43 55c-23 9 -36 27 -36 50c0 37 33 62 84 62s84 -25 84 -62c0 -23 -13 -41 -36 -50zM371 196c-28 0 -46 -13 -46 -35c0 -18 18 -31 46 -31s46 13 46 31c0 22 -18 35 -46 35zM371 29c31 0 52 13 52 33c0 21 -21 33 -52 33
s-52 -12 -52 -33c0 -20 21 -33 52 -33z" />
    <glyph glyph-name="fiveeighths" unicode="&#x215d;" horiz-adv-x="488" 
d="M202 234c0 -47 -39 -81 -93 -81c-39 0 -70 17 -85 43l28 22c11 -17 32 -29 58 -29c30 0 52 17 52 44c0 26 -21 41 -50 41c-19 0 -37 -7 -46 -21l-30 10l11 117h139v-36h-107l-5 -49c13 8 29 12 47 12c48 0 81 -30 81 -73zM343 380h43l-241 -380h-43zM419 115
c27 -10 43 -30 43 -55c0 -38 -35 -63 -91 -63s-91 25 -91 63c0 25 16 45 43 55c-23 9 -36 27 -36 50c0 37 33 62 84 62s84 -25 84 -62c0 -23 -13 -41 -36 -50zM371 196c-28 0 -46 -13 -46 -35c0 -18 18 -31 46 -31s46 13 46 31c0 22 -18 35 -46 35zM371 29c31 0 52 13 52 33
c0 21 -21 33 -52 33s-52 -12 -52 -33c0 -20 21 -33 52 -33z" />
    <glyph glyph-name="seveneighths" unicode="&#x215e;" horiz-adv-x="458" 
d="M62 156c0 70 35 141 82 185h-138v39h190v-30c-56 -44 -91 -116 -91 -194h-43zM300 380h43l-241 -380h-43zM389 115c27 -10 43 -30 43 -55c0 -38 -35 -63 -91 -63s-91 25 -91 63c0 25 16 45 43 55c-23 9 -36 27 -36 50c0 37 33 62 84 62s84 -25 84 -62
c0 -23 -13 -41 -36 -50zM341 196c-28 0 -46 -13 -46 -35c0 -18 18 -31 46 -31s46 13 46 31c0 22 -18 35 -46 35zM341 29c31 0 52 13 52 33c0 21 -21 33 -52 33s-52 -12 -52 -33c0 -20 21 -33 52 -33z" />
    <glyph glyph-name="period" unicode="." horiz-adv-x="150" 
d="M40 0v70h70v-70h-70z" />
    <glyph glyph-name="comma" unicode="," horiz-adv-x="150" 
d="M40 -70v34h10c18 0 25 10 25 30v6h-35v70h70v-70c0 -48 -24 -70 -60 -70h-10z" />
    <glyph glyph-name="colon" unicode=":" horiz-adv-x="150" 
d="M40 230v70h70v-70h-70zM40 0v70h70v-70h-70z" />
    <glyph glyph-name="semicolon" unicode=";" horiz-adv-x="150" 
d="M40 230v70h70v-70h-70zM40 -70v34h10c18 0 25 10 25 30v6h-35v70h70v-70c0 -48 -24 -70 -60 -70h-10z" />
    <glyph glyph-name="ellipsis" unicode="&#x2026;" horiz-adv-x="430" 
d="M40 0v70h70v-70h-70zM180 0v70h70v-70h-70zM320 0v70h70v-70h-70z" />
    <glyph glyph-name="exclam" unicode="!" horiz-adv-x="172" 
d="M67 120l-11 260h60l-11 -260h-38zM51 0v70h70v-70h-70z" />
    <glyph glyph-name="exclamdown" unicode="&#xa1;" horiz-adv-x="172" 
d="M51 300h70v-70h-70v70zM67 180h38l11 -260h-60z" />
    <glyph glyph-name="question" unicode="?" horiz-adv-x="305" 
d="M127 110c-2 38 7 55 48 88c38 31 49 48 49 75c0 43 -27 68 -71 68c-49 0 -82 -34 -86 -87l-47 10c7 73 60 121 135 121c72 0 120 -44 120 -109c0 -41 -19 -72 -66 -107c-30 -23 -42 -38 -42 -54v-5h-40zM114 0v70h70v-70h-70z" />
    <glyph glyph-name="questiondown" unicode="&#xbf;" horiz-adv-x="305" 
d="M191 300v-70h-70v70h70zM178 190c2 -38 -7 -55 -48 -88c-38 -31 -49 -48 -49 -75c0 -43 27 -68 71 -68c49 0 82 34 86 87l47 -10c-7 -73 -60 -121 -135 -121c-72 0 -120 44 -120 109c0 41 19 72 66 107c30 23 42 38 42 54v5h40z" />
    <glyph glyph-name="periodcentered" unicode="&#xb7;" horiz-adv-x="150" 
d="M40 135v70h70v-70h-70z" />
    <glyph glyph-name="bullet" unicode="&#x2022;" 
d="M180 95c-43 0 -75 32 -75 75s32 75 75 75s75 -32 75 -75s-32 -75 -75 -75z" />
    <glyph glyph-name="asterisk" unicode="*" horiz-adv-x="238" 
d="M213 319l-68 -22l42 -57l-26 -19l-42 57l-42 -57l-26 19l42 58l-68 22l10 31l68 -22v71h32v-71l68 22z" />
    <glyph glyph-name="numbersign" unicode="#" 
d="M335 234h-65v-88h65v-50h-65v-96h-44v96h-92v-96h-44v96h-65v50h65v88h-65v50h65v96h44v-96h92v96h44v-96h65v-50zM226 146v88h-92v-88h92z" />
    <glyph glyph-name="slash" unicode="/" horiz-adv-x="230" 
d="M-20 -20l222 420h48l-222 -420h-48z" />
    <glyph glyph-name="backslash" unicode="\" horiz-adv-x="230" 
d="M250 -20h-48l-222 420h48z" />
    <glyph glyph-name="exclamdown.case" horiz-adv-x="172" 
d="M121 380v-70h-70v70h70zM105 260l11 -260h-60l11 260h38z" />
    <glyph glyph-name="questiondown.case" horiz-adv-x="305" 
d="M191 380v-70h-70v70h70zM178 270c2 -38 -7 -55 -48 -88c-38 -31 -49 -48 -49 -75c0 -43 27 -68 71 -68c49 0 82 34 86 87l47 -10c-7 -73 -60 -121 -135 -121c-72 0 -120 44 -120 109c0 41 19 72 66 107c30 23 42 38 42 54v5h40z" />
    <glyph glyph-name="periodcentered.case" horiz-adv-x="150" 
d="M40 155v70h70v-70h-70z" />
    <glyph glyph-name="bullet.case" 
d="M180 115c-43 0 -75 32 -75 75s32 75 75 75s75 -32 75 -75s-32 -75 -75 -75z" />
    <glyph glyph-name="asterisk.case" horiz-adv-x="238" 
d="M213 299l-68 -22l42 -57l-26 -19l-42 57l-42 -57l-26 19l42 58l-68 22l10 31l68 -22v71h32v-71l68 22z" />
    <glyph glyph-name="slash.case" horiz-adv-x="230" 
d="M-9 0l200 380h48l-200 -380h-48z" />
    <glyph glyph-name="backslash.case" horiz-adv-x="230" 
d="M225 0h-48l-200 380h48z" />
    <glyph glyph-name="parenleft" unicode="(" horiz-adv-x="230" 
d="M181 -74c-82 46 -134 140 -134 244s52 198 134 244l19 -25c-64 -50 -102 -131 -102 -219s38 -169 102 -219z" />
    <glyph glyph-name="parenright" unicode=")" horiz-adv-x="230" 
d="M66 -74l-19 25c64 50 102 131 102 219s-38 169 -102 219l19 25c82 -46 134 -140 134 -244s-52 -198 -134 -244z" />
    <glyph glyph-name="braceleft" unicode="{" horiz-adv-x="230" 
d="M121 230c0 -31 -11 -52 -32 -60c21 -8 32 -29 32 -60v-110c0 -13 7 -20 20 -20h49v-40h-55c-39 0 -60 21 -60 60v107c0 29 -8 43 -29 43h-16v40h16c21 0 29 14 29 43v107c0 39 21 60 60 60h55v-40h-49c-13 0 -20 -7 -20 -20v-110z" />
    <glyph glyph-name="braceright" unicode="}" horiz-adv-x="230" 
d="M174 190h16v-40h-16c-21 0 -29 -14 -29 -43v-107c0 -39 -21 -60 -60 -60h-55v40h49c13 0 20 7 20 20v110c0 31 11 52 32 60c-21 8 -32 29 -32 60v110c0 13 -7 20 -20 20h-49v40h55c39 0 60 -21 60 -60v-107c0 -29 8 -43 29 -43z" />
    <glyph glyph-name="bracketleft" unicode="[" horiz-adv-x="230" 
d="M190 360h-84v-380h84v-40h-130v460h130v-40z" />
    <glyph glyph-name="bracketright" unicode="]" horiz-adv-x="240" 
d="M200 400v-460h-130v40h84v380h-84v40h130z" />
    <glyph glyph-name="parenleft.case" horiz-adv-x="230" 
d="M96 190c0 -75 24 -135 72 -180l-24 -24c-61 43 -98 119 -98 204s37 161 98 204l24 -24c-48 -45 -72 -105 -72 -180z" />
    <glyph glyph-name="parenright.case" horiz-adv-x="230" 
d="M134 190c0 75 -24 135 -72 180l24 24c61 -43 98 -119 98 -204s-37 -161 -98 -204l-24 24c48 45 72 105 72 180z" />
    <glyph glyph-name="braceleft.case" horiz-adv-x="230" 
d="M121 250c0 -31 -11 -52 -32 -60c21 -8 32 -29 32 -60v-70c0 -13 7 -20 20 -20h49v-40h-55c-39 0 -60 21 -60 60v67c0 29 -8 43 -29 43h-16v40h16c21 0 29 14 29 43v67c0 39 21 60 60 60h55v-40h-49c-13 0 -20 -7 -20 -20v-70z" />
    <glyph glyph-name="braceright.case" horiz-adv-x="230" 
d="M184 210h16v-40h-16c-21 0 -29 -14 -29 -43v-67c0 -39 -21 -60 -60 -60h-55v40h49c13 0 20 7 20 20v70c0 31 11 52 32 60c-21 8 -32 29 -32 60v70c0 13 -7 20 -20 20h-49v40h55c39 0 60 -21 60 -60v-67c0 -29 8 -43 29 -43z" />
    <glyph glyph-name="bracketleft.case" horiz-adv-x="230" 
d="M190 340h-84v-300h84v-40h-130v380h130v-40z" />
    <glyph glyph-name="bracketright.case" horiz-adv-x="230" 
d="M170 380v-380h-130v40h84v300h-84v40h130z" />
    <glyph glyph-name="hyphen" unicode="-" horiz-adv-x="240" 
d="M35 145v50h170v-50h-170z" />
    <glyph glyph-name="endash" unicode="&#x2013;" horiz-adv-x="320" 
d="M35 146v48h250v-48h-250z" />
    <glyph glyph-name="emdash" unicode="&#x2014;" horiz-adv-x="440" 
d="M35 146v48h370v-48h-370z" />
    <glyph glyph-name="underscore" unicode="_" horiz-adv-x="250" 
d="M0 -12h250v-48h-250v48z" />
    <glyph glyph-name="hyphen.case" horiz-adv-x="240" 
d="M35 165v50h170v-50h-170z" />
    <glyph glyph-name="endash.case" horiz-adv-x="320" 
d="M35 166v48h250v-48h-250z" />
    <glyph glyph-name="emdash.case" horiz-adv-x="440" 
d="M35 166v48h370v-48h-370z" />
    <glyph glyph-name="quotesinglbase" unicode="&#x201a;" horiz-adv-x="150" 
d="M40 -70v34h10c18 0 25 10 25 30v6h-35v70h70v-70c0 -48 -24 -70 -60 -70h-10z" />
    <glyph glyph-name="quotedblbase" unicode="&#x201e;" horiz-adv-x="260" 
d="M40 -70v34h10c18 0 25 10 25 30v6h-35v70h70v-70c0 -48 -24 -70 -60 -70h-10zM150 -70v34h10c18 0 25 10 25 30v6h-35v70h70v-70c0 -48 -24 -70 -60 -70h-10z" />
    <glyph glyph-name="quotedblleft" unicode="&#x201c;" horiz-adv-x="250" 
d="M100 400v-34h-10c-18 0 -25 -10 -25 -30v-6h35v-70h-70v70c0 48 24 70 60 70h10zM210 400v-34h-10c-18 0 -25 -10 -25 -30v-6h35v-70h-70v70c0 48 24 70 60 70h10z" />
    <glyph glyph-name="quotedblright" unicode="&#x201d;" horiz-adv-x="250" 
d="M40 240v34h10c18 0 25 10 25 30v6h-35v70h70v-70c0 -48 -24 -70 -60 -70h-10zM150 240v34h10c18 0 25 10 25 30v6h-35v70h70v-70c0 -48 -24 -70 -60 -70h-10z" />
    <glyph glyph-name="quoteleft" unicode="&#x2018;" horiz-adv-x="140" 
d="M100 400v-34h-10c-18 0 -25 -10 -25 -30v-6h35v-70h-70v70c0 48 24 70 60 70h10z" />
    <glyph glyph-name="quoteright" unicode="&#x2019;" horiz-adv-x="140" 
d="M40 240v34h10c18 0 25 10 25 30v6h-35v70h70v-70c0 -48 -24 -70 -60 -70h-10z" />
    <glyph glyph-name="guillemotleft" unicode="&#xab;" horiz-adv-x="340" 
d="M40 144v52l120 86v-56l-76 -55l76 -55v-58zM290 282v-56l-76 -55l76 -55v-58l-120 86v52z" />
    <glyph glyph-name="guillemotright" unicode="&#xbb;" horiz-adv-x="340" 
d="M50 224v58l120 -86v-52l-120 -86v56l76 55zM180 282l120 -86v-52l-120 -86v56l76 55l-76 55v58z" />
    <glyph glyph-name="guilsinglleft" unicode="&#x2039;" horiz-adv-x="210" 
d="M160 282v-56l-76 -55l76 -55v-58l-120 86v52z" />
    <glyph glyph-name="guilsinglright" unicode="&#x203a;" horiz-adv-x="210" 
d="M50 282l120 -86v-52l-120 -86v56l76 55l-76 55v58z" />
    <glyph glyph-name="quotedbl" unicode="&#x22;" horiz-adv-x="204" 
d="M31 250l-6 130h54l-6 -130h-42zM131 250l-6 130h54l-6 -130h-42z" />
    <glyph glyph-name="quotesingle" unicode="'" horiz-adv-x="104" 
d="M31 250l-6 130h54l-6 -130h-42z" />
    <glyph glyph-name="guillemotleft.case" horiz-adv-x="340" 
d="M40 164v52l120 86v-56l-76 -55l76 -55v-58zM290 302v-56l-76 -55l76 -55v-58l-120 86v52z" />
    <glyph glyph-name="guillemotright.case" horiz-adv-x="340" 
d="M50 244v58l120 -86v-52l-120 -86v56l76 55zM180 302l120 -86v-52l-120 -86v56l76 55l-76 55v58z" />
    <glyph glyph-name="guilsinglleft.case" horiz-adv-x="210" 
d="M160 302v-56l-76 -55l76 -55v-58l-120 86v52z" />
    <glyph glyph-name="guilsinglright.case" horiz-adv-x="210" 
d="M50 302l120 -86v-52l-120 -86v56l76 55l-76 55v58z" />
    <glyph glyph-name="cent" unicode="&#xa2;" horiz-adv-x="329" 
d="M191 80c32 6 57 27 69 60l46 -15c-16 -52 -60 -84 -115 -89v-36h-38v36c-75 10 -126 70 -126 154s51 144 126 154v36h38v-36c56 -5 100 -37 115 -89l-47 -15c-12 33 -36 54 -68 60v-220zM78 190c0 -58 28 -99 75 -109v218c-47 -10 -75 -51 -75 -109z" />
    <glyph glyph-name="currency" unicode="&#xa4;" 
d="M290 190c0 -24 -7 -45 -20 -63l53 -53l-27 -27l-53 53c-18 -13 -39 -20 -63 -20s-45 7 -63 20l-53 -53l-27 27l53 53c-13 18 -20 39 -20 63s7 45 20 63l-53 53l27 27l53 -53c18 13 39 20 63 20s45 -7 63 -20l53 53l27 -27l-53 -53c13 -18 20 -39 20 -63zM112 190
c0 -38 30 -68 68 -68s68 30 68 68s-30 68 -68 68s-68 -30 -68 -68z" />
    <glyph glyph-name="dollar" unicode="$" horiz-adv-x="351" 
d="M320 108c0 -63 -48 -105 -126 -112v-40h-38v39c-51 3 -97 22 -132 55l32 40c28 -27 62 -43 100 -48v131c-67 20 -119 44 -119 106c0 59 46 99 119 105v36h38v-36c44 -2 83 -17 117 -43l-31 -41c-23 20 -51 34 -86 38v-123c91 -24 126 -54 126 -107zM89 282
c0 -26 17 -42 67 -57v113c-41 -4 -67 -25 -67 -56zM194 42c46 4 74 26 74 60c0 27 -16 42 -74 60v-120z" />
    <glyph glyph-name="Euro" unicode="&#x20ac;" 
d="M191 40c38 0 67 24 84 65l46 -22c-24 -56 -69 -88 -130 -88c-75 0 -128 52 -145 137h-35v36h31c-1 7 -1 14 -1 22s0 15 1 22h-31v36h35c17 85 70 137 145 137c61 0 106 -32 130 -88l-46 -22c-17 41 -46 65 -84 65c-46 0 -80 -35 -93 -92h117v-36h-122
c-1 -7 -1 -14 -1 -22s0 -15 1 -22h122v-36h-117c13 -57 47 -92 93 -92z" />
    <glyph glyph-name="uni20BD" unicode="&#x20bd;" horiz-adv-x="346" 
d="M185 150h-60v-44h141v-36h-141v-70h-50v70h-50v36h50v44h-50v36h50v194h110c80 0 131 -45 131 -115s-51 -115 -131 -115zM171 338h-46v-152h46c62 0 94 26 94 77c0 49 -32 75 -94 75z" />
    <glyph glyph-name="sterling" unicode="&#xa3;" 
d="M287 84l47 -7c-3 -55 -27 -82 -75 -82c-47 0 -80 26 -110 50c-16 -31 -43 -50 -75 -50c-38 0 -64 26 -64 61c0 40 30 62 70 62c14 0 27 -3 39 -8c-1 24 -7 44 -15 62h-73v36h55c-11 22 -20 44 -20 73c0 65 49 104 120 104c70 0 115 -42 123 -101l-47 -13
c-6 44 -32 71 -77 71c-41 0 -71 -23 -71 -62c0 -24 11 -47 23 -72h105v-36h-89c7 -19 12 -39 12 -61c0 -9 -1 -17 -2 -25c32 -22 60 -47 89 -47c22 0 33 14 35 45zM76 33c21 0 33 14 39 36c-12 7 -24 11 -37 11c-18 0 -30 -9 -30 -24c0 -16 14 -23 28 -23z" />
    <glyph glyph-name="yen" unicode="&#xa5;" horiz-adv-x="372" 
d="M357 380l-128 -194h63v-36h-85v-44h85v-36h-85v-70h-52v70h-75v36h75v44h-75v36h53l-128 194h60l117 -179l116 179h59z" />
    <glyph glyph-name="plus" unicode="+" 
d="M315 212v-44h-112v-113h-46v113h-112v44h112v113h46v-113h112z" />
    <glyph glyph-name="minus" unicode="&#x2212;" 
d="M45 168v44h270v-44h-270z" />
    <glyph glyph-name="multiply" unicode="&#xd7;" 
d="M302 280l-90 -90l90 -90l-32 -32l-90 90l-90 -90l-32 32l90 90l-90 90l32 32l90 -90l90 90z" />
    <glyph glyph-name="divide" unicode="&#xf7;" 
d="M152 269v56h56v-56h-56zM45 168v44h270v-44h-270zM152 55v56h56v-56h-56z" />
    <glyph glyph-name="equal" unicode="=" 
d="M45 234v44h270v-44h-270zM45 102v44h270v-44h-270z" />
    <glyph glyph-name="notequal" unicode="&#x2260;" 
d="M315 234h-89l-46 -88h135v-44h-158l-24 -47h-46l24 47h-66v44h89l46 88h-135v44h158l24 47h46l-24 -47h66v-44z" />
    <glyph glyph-name="greater" unicode="&#x3e;" 
d="M45 322l270 -108v-48l-270 -108v47l209 84l-209 83v50z" />
    <glyph glyph-name="less" unicode="&#x3c;" 
d="M315 322v-47l-209 -83l209 -84v-50l-270 108v48z" />
    <glyph glyph-name="greaterequal" unicode="&#x2265;" 
d="M45 342l270 -108v-48l-270 -108v47l209 84l-209 83v50zM45 0v44h270v-44h-270z" />
    <glyph glyph-name="lessequal" unicode="&#x2264;" 
d="M315 342v-47l-209 -83l209 -84v-50l-270 108v48zM45 0v44h270v-44h-270z" />
    <glyph glyph-name="plusminus" unicode="&#xb1;" 
d="M203 230h112v-44h-112v-113h-46v113h-112v44h112v113h46v-113zM45 0v44h270v-44h-270z" />
    <glyph glyph-name="approxequal" unicode="&#x2248;" 
d="M67 218l-32 28c12 19 37 53 84 53c54 0 76 -42 122 -42c18 0 36 12 52 37l32 -28c-12 -19 -37 -53 -84 -53c-54 0 -76 42 -122 42c-18 0 -36 -12 -52 -37zM67 86l-32 28c12 19 37 53 84 53c54 0 76 -42 122 -42c18 0 36 12 52 37l32 -28c-12 -19 -37 -53 -84 -53
c-54 0 -76 42 -122 42c-18 0 -36 -12 -52 -37z" />
    <glyph glyph-name="asciitilde" unicode="~" 
d="M67 152l-32 28c12 19 37 53 84 53c54 0 76 -42 122 -42c18 0 36 12 52 37l32 -28c-12 -19 -37 -53 -84 -53c-54 0 -76 42 -122 42c-18 0 -36 -12 -52 -37z" />
    <glyph glyph-name="logicalnot" unicode="&#xac;" 
d="M315 212v-157h-46v113h-224v44h270z" />
    <glyph glyph-name="asciicircum" unicode="^" 
d="M302 190h-49l-73 145l-74 -145h-48l98 190h48z" />
    <glyph glyph-name="percent" unicode="%" horiz-adv-x="534" 
d="M130 155c-61 0 -100 45 -100 115s39 115 100 115s100 -45 100 -115s-39 -115 -100 -115zM125 0l241 380h43l-241 -380h-43zM130 192c35 0 58 31 58 78s-23 78 -58 78s-58 -31 -58 -78s23 -78 58 -78zM404 -5c-61 0 -100 45 -100 115s39 115 100 115s100 -45 100 -115
s-39 -115 -100 -115zM404 32c35 0 58 31 58 78s-23 78 -58 78s-58 -31 -58 -78s23 -78 58 -78z" />
    <glyph glyph-name="perthousand" unicode="&#x2030;" horiz-adv-x="760" 
d="M130 155c-61 0 -100 45 -100 115s39 115 100 115s100 -45 100 -115s-39 -115 -100 -115zM125 0l241 380h43l-241 -380h-43zM130 192c35 0 58 31 58 78s-23 78 -58 78s-58 -31 -58 -78s23 -78 58 -78zM404 -5c-61 0 -100 45 -100 115s39 115 100 115s100 -45 100 -115
s-39 -115 -100 -115zM640 -5c-61 0 -100 45 -100 115s39 115 100 115s100 -45 100 -115s-39 -115 -100 -115zM404 32c35 0 58 31 58 78s-23 78 -58 78s-58 -31 -58 -78s23 -78 58 -78zM640 32c35 0 58 31 58 78s-23 78 -58 78s-58 -31 -58 -78s23 -78 58 -78z" />
    <glyph glyph-name="arrowboth" unicode="&#x2194;" horiz-adv-x="400" 
d="M269 331l141 -141l-141 -141l-32 32l86 86h-246l86 -86l-32 -32l-141 141l141 141l32 -32l-86 -86h246l-86 86z" />
    <glyph glyph-name="arrowupdn" unicode="&#x2195;" horiz-adv-x="400" 
d="M223 67l86 86l32 -32l-141 -141l-141 141l32 32l86 -86v246l-86 -86l-32 32l141 141l141 -141l-32 -32l-86 86v-246z" />
    <glyph glyph-name="male" unicode="&#x2642;" horiz-adv-x="506" 
d="M253 -64c142 0 180 7 213 40s40 71 40 213s-7 180 -40 213s-71 40 -213 40s-180 -7 -213 -40s-40 -71 -40 -213s7 -180 40 -213s71 -40 213 -40zM275 258c-11 0 -15 4 -15 14c0 9 4 13 15 13c10 0 14 -4 14 -13c0 -10 -4 -14 -14 -14zM197 263v-110h15v-47h-21v28h-78
v-28h-21v47h11c6 10 11 31 11 57v53h83zM134 211c0 -26 -4 -48 -10 -58h51v90h-41v-32zM260 152l32 21l10 -15l-33 -23c-5 -2 -9 -3 -13 -3c-13 0 -21 11 -18 23l19 65h-29l6 19h49l-24 -86zM399 239v-105h-22v37h-18l-24 -37h-24l27 41c-14 4 -23 15 -23 31
c0 19 14 33 35 33h49zM352 189h25v32h-25c-9 0 -16 -7 -16 -16s7 -16 16 -16z" />
    <glyph glyph-name="uni2643" unicode="&#x2643;" horiz-adv-x="506" 
d="M253 -64c-142 0 -180 7 -213 40s-40 71 -40 213s7 180 40 213s71 40 213 40s180 -7 213 -40s40 -71 40 -213s-7 -180 -40 -213s-71 -40 -213 -40zM253 -56c140 0 176 7 207 38s38 67 38 207s-7 176 -38 207s-67 38 -207 38s-176 -7 -207 -38s-38 -67 -38 -207
s7 -176 38 -207s67 -38 207 -38zM275 258c-11 0 -15 4 -15 14s4 14 15 14s16 -4 16 -14s-5 -14 -16 -14zM198 264v-110h15v-49h-22v28h-77v-28h-22v49h11c6 10 10 32 10 56v54h85zM136 211c0 -25 -5 -47 -10 -57h49v88h-39v-31zM261 153l32 22l11 -17l-34 -23
c-5 -3 -9 -4 -14 -4c-13 0 -22 11 -18 24l18 64h-28l5 21h51l-24 -87h1zM400 240v-107h-23v37h-18l-24 -37h-25l27 41c-14 5 -22 17 -22 32c0 20 14 34 35 34h50zM353 190h24v30h-24c-9 0 -16 -6 -16 -15s7 -15 16 -15z" />
    <glyph glyph-name="uni2644" unicode="&#x2644;" horiz-adv-x="506" 
d="M253 -64c-142 0 -180 7 -213 40s-40 71 -40 213s7 180 40 213s71 40 213 40s180 -7 213 -40s40 -71 40 -213s-7 -180 -40 -213s-71 -40 -213 -40zM253 -56c140 0 176 7 207 38s38 67 38 207s-7 176 -38 207s-67 38 -207 38s-176 -7 -207 -38s-38 -67 -38 -207
s7 -176 38 -207s67 -38 207 -38zM253 1c-3 5 -6 9 -11 12c-18 14 -32 35 -36 59h-59v256c32 -16 54 -51 57 -87l9 -72l-5 1c-9 0 -17 -9 -17 -18s6 -16 14 -17l11 -3c18 34 28 67 28 99c0 29 -4 59 -4 89c0 13 5 25 13 34c8 -9 13 -21 13 -34c0 -30 -4 -60 -4 -89
c0 -32 10 -65 28 -99l11 3c8 1 14 8 14 17s-8 18 -18 18l-4 -1l9 72c4 36 25 71 57 87v-256h-59c-4 -24 -17 -45 -36 -59c-5 -3 -8 -7 -11 -12zM165 161h10c2 9 9 17 18 23l-7 59c-2 18 -10 35 -21 48v-130zM331 161h10v130c-11 -13 -19 -30 -21 -48l-7 -59
c9 -6 16 -14 18 -23zM253 115c5 6 11 11 19 13c-8 14 -15 28 -19 43c-4 -15 -11 -29 -19 -43c8 -2 14 -7 19 -13zM165 90h40c0 9 1 17 3 26l-8 1c-12 4 -22 14 -25 26h-10v-53zM301 90h40v53h-10c-3 -12 -13 -22 -25 -26l-8 -1c2 -9 3 -17 3 -26zM222 90h22
c0 11 -8 20 -19 22c-2 -7 -3 -14 -3 -22zM262 90h22c0 8 -1 15 -3 22c-11 -2 -19 -11 -19 -22zM244 35v37h-20c4 -14 11 -26 20 -37zM262 35c9 11 16 23 20 37h-20v-37z" />
    <glyph glyph-name="uni2645" unicode="&#x2645;" horiz-adv-x="558" 
d="M279 -112c-4 8 -10 14 -17 19c-29 22 -50 55 -57 93h-93v402c50 -25 86 -80 90 -137l14 -113l-7 1c-15 0 -28 -14 -28 -28c0 -13 10 -24 23 -27l17 -4c28 53 44 105 44 156c0 46 -6 92 -7 139c0 21 8 40 21 55c13 -15 21 -34 21 -55c0 -47 -7 -93 -7 -139
c0 -51 16 -103 44 -156l17 4c13 3 23 14 23 27c0 14 -13 28 -28 28l-7 -1l14 113c7 57 40 112 90 137v-402h-93c-7 -38 -27 -72 -57 -93c-7 -5 -13 -11 -17 -19zM140 139h16c4 15 15 28 29 36l-11 93c-4 29 -16 55 -34 76v-205zM402 139h16v205c-18 -21 -31 -47 -34 -76
l-11 -93c14 -8 25 -21 29 -36zM279 67c8 9 18 17 30 20c-12 22 -23 45 -30 69c-7 -24 -18 -47 -30 -69c12 -3 22 -11 30 -20zM140 28h63c0 14 2 27 5 40l-13 3c-19 6 -34 21 -39 40h-16v-83zM355 28h63v83h-16c-5 -19 -20 -34 -39 -40l-13 -3c3 -13 5 -26 5 -40zM230 28h35
c0 17 -13 32 -30 34c-3 -11 -5 -22 -5 -34zM293 28h35c0 12 -2 23 -5 34c-17 -2 -30 -17 -30 -34zM265 -59v59h-31c5 -22 16 -42 31 -59zM293 -59c15 17 26 37 31 59h-31v-59z" />
    <glyph glyph-name="at" unicode="@" horiz-adv-x="429" 
d="M398 44h11v-44c-2 -1 -16 -3 -17 -2c-37 0 -52 13 -55 49c-22 -32 -63 -52 -107 -52c-58 0 -98 36 -98 89c0 79 83 92 141 100c30 5 53 9 53 20c0 30 -38 60 -101 60c-91 0 -152 -64 -152 -161c0 -100 64 -163 165 -163c38 0 69 9 97 28l20 -36c-36 -21 -76 -32 -119 -32
c-121 0 -206 84 -206 203c0 117 83 202 196 202c93 0 152 -52 152 -133v-108c0 -14 6 -20 20 -20zM236 37c50 0 94 35 94 76v49c-14 -9 -36 -13 -59 -17c-44 -7 -89 -15 -89 -60c0 -31 20 -48 54 -48z" />
    <glyph glyph-name="ampersand" unicode="&#x26;" horiz-adv-x="482" 
d="M420 85l43 -10c-4 -50 -32 -80 -76 -80c-24 0 -54 13 -94 43c-37 -27 -82 -43 -131 -43c-85 0 -137 39 -137 104c0 52 29 85 95 107c-30 38 -41 62 -41 89c0 53 44 90 107 90c67 0 112 -35 112 -87c0 -46 -38 -86 -99 -109c33 -35 65 -65 93 -89c27 29 46 68 54 112
l48 -11c-11 -51 -34 -96 -65 -131c27 -20 48 -31 60 -31c19 0 27 16 31 46zM186 343c-34 0 -59 -23 -59 -53c0 -19 9 -34 42 -69c49 13 78 39 78 73c0 30 -24 49 -61 49zM166 41c33 0 64 10 90 28c-30 26 -65 60 -106 104c-49 -14 -73 -38 -73 -74c0 -35 36 -58 89 -58z" />
    <glyph glyph-name="paragraph" unicode="&#xb6;" horiz-adv-x="369" 
d="M209 380v-480h-52v292h-9c-66 0 -108 37 -108 94s42 94 108 94h61zM257 380h52v-480h-52v480z" />
    <glyph glyph-name="section" unicode="&#xa7;" horiz-adv-x="294" 
d="M210 87c32 -11 54 -33 54 -69c0 -49 -48 -83 -117 -83c-48 0 -93 14 -130 46l29 36c27 -27 64 -38 102 -38c26 0 68 7 68 41c0 29 -38 39 -81 51c-53 16 -112 33 -112 91c0 40 30 62 67 73c-33 14 -56 32 -56 68c0 50 45 82 114 82c39 0 79 -13 110 -37l-28 -40
c-22 21 -53 33 -84 33c-30 0 -63 -8 -63 -39c0 -29 35 -38 75 -49c53 -14 114 -30 114 -93c0 -40 -30 -64 -62 -73zM72 163c0 -38 59 -47 87 -47c26 0 65 8 65 41c0 38 -59 47 -87 47c-26 0 -65 -8 -65 -41z" />
    <glyph glyph-name="copyright" unicode="&#xa9;" horiz-adv-x="450" 
d="M225 -5c-113 0 -195 82 -195 195s82 195 195 195s195 -82 195 -195s-82 -195 -195 -195zM225 29c93 0 159 67 159 161s-66 161 -159 161s-159 -67 -159 -161s66 -161 159 -161zM228 84c-60 0 -102 44 -102 106s42 106 102 106c44 0 78 -24 90 -61l-43 -16
c-8 22 -25 35 -47 35c-34 0 -55 -25 -55 -64s21 -64 55 -64c22 0 39 13 47 35l43 -16c-12 -37 -46 -61 -90 -61z" />
    <glyph glyph-name="registered" unicode="&#xae;" horiz-adv-x="280" 
d="M140 385c58 0 100 -42 100 -100s-42 -100 -100 -100s-100 42 -100 100s42 100 100 100zM140 209c44 0 76 32 76 76s-32 76 -76 76s-76 -32 -76 -76s32 -76 76 -76zM178 265c0 -3 2 -5 5 -5h2v-25h-12c-13 0 -21 8 -21 21v5c0 6 -2 8 -8 8h-19v-34h-26v102h46
c21 0 37 -13 37 -32c0 -12 -5 -20 -14 -24c6 -2 10 -7 10 -15v-1zM143 312h-18v-18h18c8 0 12 3 12 9s-4 9 -12 9z" />
    <glyph glyph-name="trademark" unicode="&#x2122;" horiz-adv-x="485" 
d="M189 380v-37h-65v-153h-39v153h-65v37h169zM435 380v-190h-37v141l-52 -141h-41l-52 141v-141h-37v190h56l54 -141l53 141h56z" />
    <glyph glyph-name="degree" unicode="&#xb0;" horiz-adv-x="217" 
d="M108 226c-44 0 -80 35 -80 79c0 45 36 80 80 80c45 0 80 -35 80 -80c0 -44 -35 -79 -80 -79zM108 262c25 0 44 18 44 43s-19 44 -44 44c-24 0 -43 -19 -43 -44s19 -43 43 -43z" />
    <glyph glyph-name="prime" unicode="&#x2032;" horiz-adv-x="300" 
d="M165 330l29 70h65l-57 -70h-37z" />
    <glyph glyph-name="bar" unicode="|" horiz-adv-x="166" 
d="M60 -60v460h46v-460h-46z" />
    <glyph glyph-name="brokenbar" unicode="&#xa6;" horiz-adv-x="166" 
d="M60 220v180h46v-180h-46zM106 120v-180h-46v180h46z" />
    <glyph glyph-name="dagger" unicode="&#x2020;" horiz-adv-x="232" 
d="M192 348v-32h-58v-88h-36v88h-58v32h58v52h36v-52h58z" />
    <glyph glyph-name="daggerdbl" unicode="&#x2021;" horiz-adv-x="232" 
d="M192 328h-58v-28h58v-32h-58v-40h-36v40h-58v32h58v28h-58v32h58v40h36v-40h58v-32z" />
    <glyph glyph-name="uni2116" unicode="&#x2116;" horiz-adv-x="623" 
d="M321 83v297h49v-380h-51l-210 299v-299h-49v380h52zM515 218c-47 0 -81 34 -81 81s34 81 81 81c48 0 81 -34 81 -81s-33 -81 -81 -81zM515 349c-28 0 -47 -20 -47 -50s19 -50 47 -50s48 20 48 50s-20 50 -48 50zM443 143v36h144v-36h-144z" />
    <glyph glyph-name="at.case" horiz-adv-x="431" 
d="M400 134h11v-43c-2 -1 -16 -3 -17 -2c-37 0 -52 13 -55 48c-22 -31 -63 -51 -107 -51c-58 0 -98 35 -98 86c0 77 80 90 136 99c31 5 54 9 54 21c0 28 -46 53 -97 53c-90 0 -152 -63 -152 -154c0 -94 67 -158 165 -158c38 0 70 9 97 27l20 -35c-36 -21 -76 -31 -119 -31
c-123 0 -208 80 -208 197c0 115 81 194 198 194c92 0 152 -51 152 -128v-104c0 -14 6 -19 20 -19zM238 127c50 0 94 34 94 73v50c-16 -12 -40 -17 -65 -21c-42 -7 -83 -14 -83 -56c0 -30 19 -46 54 -46z" />
    <glyph glyph-name="bar.case" horiz-adv-x="166" 
d="M60 0v380h46v-380h-46z" />
    <glyph glyph-name="brokenbar.case" horiz-adv-x="166" 
d="M60 240v140h46v-140h-46zM106 140v-140h-46v140h46z" />
    <glyph glyph-name="dagger.case" horiz-adv-x="232" 
d="M192 328v-32h-58v-88h-36v88h-58v32h58v52h36v-52h58z" />
    <glyph glyph-name="daggerdbl.case" horiz-adv-x="232" 
d="M192 308h-58v-28h58v-32h-58v-40h-36v40h-58v32h58v28h-58v32h58v40h36v-40h58v-32z" />
    <glyph glyph-name="uni02BC" unicode="&#x2bc;" horiz-adv-x="110" 
d="M20 254v34h10c18 0 25 10 25 30v6h-35v56h70v-56c0 -48 -24 -70 -60 -70h-10z" />
    <glyph glyph-name="uni0308" unicode="&#x308;" horiz-adv-x="0" 
d="M-256 344v56h56v-56h-56zM-160 344v56h56v-56h-56z" />
    <glyph glyph-name="uni0307" unicode="&#x307;" horiz-adv-x="0" 
d="M-208 344v56h56v-56h-56z" />
    <glyph glyph-name="gravecomb" unicode="&#x300;" horiz-adv-x="0" 
d="M-165 330h-37l-57 70h65z" />
    <glyph glyph-name="acutecomb" unicode="&#x301;" horiz-adv-x="0" 
d="M-195 330l29 70h65l-57 -70h-37z" />
    <glyph glyph-name="uni030B" unicode="&#x30b;" horiz-adv-x="0" 
d="M-244 330l29 70h65l-57 -70h-37zM-154 330l29 70h65l-57 -70h-37z" />
    <glyph glyph-name="uni0302" unicode="&#x302;" horiz-adv-x="0" 
d="M-95 330h-47l-37 38l-37 -38h-47l57 70h54z" />
    <glyph glyph-name="uni030C" unicode="&#x30c;" horiz-adv-x="0" 
d="M-142 400h47l-57 -70h-54l-57 70h47l37 -38z" />
    <glyph glyph-name="uni0306" unicode="&#x306;" horiz-adv-x="0" 
d="M-180 330c-46 0 -78 27 -83 70l41 3c3 -23 17 -35 42 -35s39 12 42 35l41 -3c-5 -43 -37 -70 -83 -70z" />
    <glyph glyph-name="uni030A" unicode="&#x30a;" horiz-adv-x="0" 
d="M-180 330c-36 0 -63 26 -63 62s27 62 63 62s63 -26 63 -62s-27 -62 -63 -62zM-180 363c17 0 29 12 29 29s-12 29 -29 29s-29 -12 -29 -29s12 -29 29 -29z" />
    <glyph glyph-name="tildecomb" unicode="&#x303;" horiz-adv-x="0" 
d="M-90 385c-12 -30 -32 -45 -56 -45c-29 0 -46 25 -64 25c-10 0 -19 -7 -26 -24l-32 18c12 30 32 45 56 45c29 0 46 -25 64 -25c10 0 19 7 26 24z" />
    <glyph glyph-name="uni0304" unicode="&#x304;" horiz-adv-x="0" 
d="M-260 360v40h160v-40h-160z" />
    <glyph glyph-name="uni0312" unicode="&#x312;" horiz-adv-x="0" 
d="M-160 417c-14 0 -20 -8 -20 -24v-5h28v-54h-56v54c0 38 20 56 48 56h8v-27h-8z" />
    <glyph glyph-name="uni0326" unicode="&#x326;" horiz-adv-x="0" 
d="M-208 -30h56v-37c0 -38 -20 -56 -48 -56h-8v27h8c13 0 19 7 20 22h-28v44z" />
    <glyph glyph-name="uni0327" unicode="&#x327;" horiz-adv-x="0" 
d="M-157 -23c28 0 49 -15 49 -42c0 -26 -28 -45 -68 -45c-23 0 -47 8 -64 21l18 27c15 -10 31 -17 47 -17c17 0 27 6 27 16c0 9 -9 14 -20 14c-7 0 -15 -2 -21 -5l-27 15l24 39h37l-15 -24c5 1 9 1 13 1z" />
    <glyph glyph-name="uni0328" unicode="&#x328;" horiz-adv-x="0" 
d="M-185 9l28 -9c-44 -13 -59 -29 -59 -45c0 -12 8 -19 21 -19c9 0 18 3 26 9l17 -31c-14 -9 -30 -14 -47 -14c-34 0 -56 21 -56 50c0 28 27 56 70 59z" />
    <glyph glyph-name="dieresis" unicode="&#xa8;" horiz-adv-x="160" 
d="M34 344v56h56v-56h-56zM130 344v56h56v-56h-56z" />
    <glyph glyph-name="dotaccent" unicode="&#x2d9;" horiz-adv-x="160" 
d="M82 344v56h56v-56h-56z" />
    <glyph glyph-name="grave" unicode="`" horiz-adv-x="160" 
d="M125 330h-37l-57 70h65z" />
    <glyph glyph-name="acute" unicode="&#xb4;" horiz-adv-x="160" 
d="M95 330l29 70h65l-57 -70h-37z" />
    <glyph glyph-name="hungarumlaut" unicode="&#x2dd;" horiz-adv-x="160" 
d="M46 330l29 70h65l-57 -70h-37zM136 330l29 70h65l-57 -70h-37z" />
    <glyph glyph-name="circumflex" unicode="&#x2c6;" horiz-adv-x="160" 
d="M195 330h-47l-37 38l-37 -38h-47l57 70h54z" />
    <glyph glyph-name="caron" unicode="&#x2c7;" horiz-adv-x="160" 
d="M148 400h47l-57 -70h-54l-57 70h47l37 -38z" />
    <glyph glyph-name="breve" unicode="&#x2d8;" horiz-adv-x="160" 
d="M110 330c-46 0 -78 27 -83 70l41 3c3 -23 17 -35 42 -35s39 12 42 35l41 -3c-5 -43 -37 -70 -83 -70z" />
    <glyph glyph-name="ring" unicode="&#x2da;" horiz-adv-x="160" 
d="M110 330c-36 0 -63 26 -63 62s27 62 63 62s63 -26 63 -62s-27 -62 -63 -62zM110 363c17 0 29 12 29 29s-12 29 -29 29s-29 -12 -29 -29s12 -29 29 -29z" />
    <glyph glyph-name="tilde" unicode="&#x2dc;" horiz-adv-x="160" 
d="M200 385c-12 -30 -32 -45 -56 -45c-29 0 -46 25 -64 25c-10 0 -19 -7 -26 -24l-32 18c12 30 32 45 56 45c29 0 46 -25 64 -25c10 0 19 7 26 24z" />
    <glyph glyph-name="macron" unicode="&#xaf;" horiz-adv-x="160" 
d="M30 360v40h160v-40h-160z" />
    <glyph glyph-name="cedilla" unicode="&#xb8;" horiz-adv-x="160" 
d="M133 -23c28 0 49 -15 49 -42c0 -26 -28 -45 -68 -45c-23 0 -47 8 -64 21l18 27c15 -10 31 -17 47 -17c17 0 27 6 27 16c0 9 -9 14 -20 14c-7 0 -15 -2 -21 -5l-27 15l24 39h37l-15 -24c5 1 9 1 13 1z" />
    <glyph glyph-name="ogonek" unicode="&#x2db;" horiz-adv-x="160" 
d="M105 9l28 -9c-44 -13 -59 -29 -59 -45c0 -12 8 -19 21 -19c9 0 18 3 26 9l17 -31c-14 -9 -30 -14 -47 -14c-34 0 -56 21 -56 50c0 28 27 56 70 59z" />
    <glyph glyph-name="caron.alt" 
d="M220 320v80h54l-20 -80h-34z" />
    <glyph glyph-name="uni0308.double" horiz-adv-x="0" 
d="M-342 344v56h56v-56h-56zM-253 344v56h56v-56h-56zM-163 344v56h56v-56h-56zM-74 344v56h56v-56h-56z" />
    <glyph glyph-name="dieresistonos" unicode="&#x385;" 
d="M138 344l29 70h65l-57 -70h-37zM77 344v56h56v-56h-56zM227 344v56h56v-56h-56z" />
    <glyph glyph-name="brevecombcy" horiz-adv-x="0" 
d="M-180 328c-49 0 -81 25 -86 69l40 8c2 -27 19 -42 46 -42s44 15 46 42l40 -8c-5 -44 -37 -69 -86 -69z" />
    <glyph glyph-name="strokecomb" 
d="M100 173v44h160v-44h-160z" />
    </font>
</defs>
</svg>
