<?xml version="1.0" standalone="no"?>
<!DOCTYPE svg PUBLIC "-//W3C//DTD SVG 1.1//EN" "http://www.w3.org/Graphics/SVG/1.1/DTD/svg11.dtd" >
<svg xmlns="http://www.w3.org/2000/svg" xmlns:xlink="http://www.w3.org/1999/xlink" version="1.1">
<metadata>
Created by FontForge 20190801 at Tue May 19 16:32:32 2020
 By root
https://plan.diia.gov.ua
</metadata>
<defs>
<font id="e-Ukraine-Thin" horiz-adv-x="360" >
  <font-face 
    font-family="e-Ukraine Thin"
    font-weight="100"
    font-stretch="normal"
    units-per-em="512"
    panose-1="0 0 2 0 0 0 0 0 0 0"
    ascent="409"
    descent="-103"
    x-height="300"
    cap-height="380"
    bbox="-323 -154 726 500"
    underline-thickness="24"
    underline-position="-68"
    stemh="31"
    stemv="33"
    unicode-range="U+000D-2646"
  />
<missing-glyph horiz-adv-x="558" 
d="M279 -146l173 76c31 14 49 45 49 76v472h-444v-472c0 -31 18 -62 49 -76zM279 -112c-4 8 -10 14 -17 19c-29 22 -50 55 -57 93h-93v402c50 -25 86 -80 90 -137l14 -113l-7 1c-15 0 -28 -14 -28 -28c0 -13 10 -24 23 -27l17 -4c28 53 44 105 44 156c0 46 -6 92 -7 139
c0 21 8 40 21 55c13 -15 21 -34 21 -55c0 -47 -7 -93 -7 -139c0 -51 16 -103 44 -156l17 4c13 3 23 14 23 27c0 14 -13 28 -28 28l-7 -1l14 113c7 57 40 112 90 137v-402h-93c-7 -38 -27 -72 -57 -93c-7 -5 -13 -11 -17 -19zM140 139h16c4 15 15 28 29 36l-11 93
c-4 29 -16 55 -34 76v-205zM402 139h16v205c-18 -21 -31 -47 -34 -76l-11 -93c14 -8 25 -21 29 -36zM279 67c8 9 18 17 30 20c-12 22 -23 45 -30 69c-7 -24 -18 -47 -30 -69c12 -3 22 -11 30 -20zM140 28h63c0 14 2 27 5 40l-13 3c-19 6 -34 21 -39 40h-16v-83zM355 28h63
v83h-16c-5 -19 -20 -34 -39 -40l-13 -3c3 -13 5 -26 5 -40zM230 28h35c0 17 -13 32 -30 34c-3 -11 -5 -22 -5 -34zM293 28h35c0 12 -2 23 -5 34c-17 -2 -30 -17 -30 -34zM265 -59v59h-31c5 -22 16 -42 31 -59zM293 -59c15 17 26 37 31 59h-31v-59z" />
    <glyph glyph-name="I_I.liga" unicode="II" horiz-adv-x="325" 
d="M65 0v380h33v-380h-33zM228 0v380h33v-380h-33z" />
    <glyph glyph-name="dotlessi_dotlessi.liga" unicode="&#x131;&#x131;" horiz-adv-x="303" 
d="M60 0v300h32v-300h-32zM211 0v300h32v-300h-32z" />
    <glyph glyph-name="uni04070407.liga" unicode="&#x407;&#x407;" horiz-adv-x="325" 
d="M20 433v38h39v-38h-39zM102 433v38h39v-38h-39zM185 433v38h39v-38h-39zM267 433v38h39v-38h-39zM65 0v380h33v-380h-33zM228 0v380h33v-380h-33z" />
    <glyph glyph-name="uni04570457.liga" unicode="&#x457;&#x457;" horiz-adv-x="303" 
d="M8 353v38h39v-38h-39zM90 353v38h39v-38h-39zM173 353v38h39v-38h-39zM255 353v38h39v-38h-39zM60 0v300h32v-300h-32zM211 0v300h32v-300h-32z" />
    <glyph glyph-name="uni2019_uni0457.liga" unicode="&#x2019;&#x457;" horiz-adv-x="246" 
d="M20 299v21h9c10 0 15 9 15 22v11h-24v38h45v-47c0 -29 -14 -45 -39 -45h-6zM108 353v38h39v-38h-39zM192 353v38h39v-38h-39zM154 0v300h32v-300h-32z" />
    <glyph glyph-name="uni20B4" unicode="&#x3c;&#x433;&#x440;&#x43d;&#x3e;" 
d="M329 216h-95l-63 -52h158v-28h-190c-21 -16 -30 -33 -30 -54c0 -36 27 -58 74 -58c41 0 74 16 105 58l24 -19c-34 -46 -78 -68 -128 -68c-64 0 -107 34 -107 84c0 22 8 40 25 57h-69v28h98l63 52h-161v28h186c20 17 29 34 29 55c0 35 -27 57 -68 57
c-42 0 -71 -20 -92 -56l-27 18c27 43 71 67 119 67c59 0 101 -34 101 -83c0 -23 -9 -44 -24 -58h72v-28z" />
    <glyph glyph-name="arrowup" unicode="&#x2d;^" horiz-adv-x="400" 
d="M345 255l-20 -18l-111 111v-348h-28v348l-111 -111l-20 18l145 145z" />
    <glyph glyph-name="uni2197" unicode="&#x2f;&#x3e;" horiz-adv-x="400" 
d="M130 320h204v-204l-27 1v157l-246 -246l-19 19l246 246h-158v27z" />
    <glyph glyph-name="arrowright" unicode="&#x2d;&#x3e;" horiz-adv-x="400" 
d="M255 335l145 -145l-145 -145l-18 20l111 111h-348v28h348l-111 111z" />
    <glyph glyph-name="uni2198" unicode="\&#x3e;" horiz-adv-x="400" 
d="M307 246l27 1v-204h-204v27h158l-246 246l19 19l246 -246v157z" />
    <glyph glyph-name="arrowdown" unicode="^&#x2d;" horiz-adv-x="400" 
d="M325 143l20 -18l-145 -145l-145 145l20 18l111 -111v348h28v-348z" />
    <glyph glyph-name="uni2199" unicode="&#x3c;&#x2f;" horiz-adv-x="400" 
d="M358 316l-246 -246h158v-27h-204v204l27 -1v-157l246 246z" />
    <glyph glyph-name="arrowleft" unicode="&#x3c;&#x2d;" horiz-adv-x="400" 
d="M400 204v-28h-348l111 -111l-18 -20l-145 145l145 145l18 -20l-111 -111h348z" />
    <glyph glyph-name="uni2196" unicode="&#x3c;\" horiz-adv-x="400" 
d="M358 47l-19 -19l-246 246v-157l-27 -1v204h204v-27h-158z" />
    <glyph glyph-name="uni2646" unicode="[&#x7c;_&#x7c;_&#x7c;]" horiz-adv-x="558" 
d="M279 -154l-176 78c-32 14 -53 47 -53 82v479h458v-479c0 -35 -21 -68 -53 -82zM279 -146l173 76c31 14 49 45 49 76v472h-444v-472c0 -31 18 -62 49 -76zM279 -112c-4 8 -10 14 -17 19c-29 22 -50 55 -57 93h-93v402c50 -25 86 -80 90 -137l14 -113l-7 1
c-15 0 -28 -14 -28 -28c0 -13 10 -24 23 -27l17 -4c28 53 44 105 44 156c0 46 -6 92 -7 139c0 21 8 40 21 55c13 -15 21 -34 21 -55c0 -47 -7 -93 -7 -139c0 -51 16 -103 44 -156l17 4c13 3 23 14 23 27c0 14 -13 28 -28 28l-7 -1l14 113c7 57 40 112 90 137v-402h-93
c-7 -38 -27 -72 -57 -93c-7 -5 -13 -11 -17 -19zM140 139h16c4 15 15 28 29 36l-11 93c-4 29 -16 55 -34 76v-205zM402 139h16v205c-18 -21 -31 -47 -34 -76l-11 -93c14 -8 25 -21 29 -36zM279 67c8 9 18 17 30 20c-12 22 -23 45 -30 69c-7 -24 -18 -47 -30 -69
c12 -3 22 -11 30 -20zM140 28h63c0 14 2 27 5 40l-13 3c-19 6 -34 21 -39 40h-16v-83zM355 28h63v83h-16c-5 -19 -20 -34 -39 -40l-13 -3c3 -13 5 -26 5 -40zM230 28h35c0 17 -13 32 -30 34c-3 -11 -5 -22 -5 -34zM293 28h35c0 12 -2 23 -5 34c-17 -2 -30 -17 -30 -34z
M265 -59v59h-31c5 -22 16 -42 31 -59zM293 -59c15 17 26 37 31 59h-31v-59z" />
    <glyph glyph-name="ampersand.ss08" unicode="&#x3c;&#x442;&#x430;&#x3e;" horiz-adv-x="336" 
d="M304 27h11v-27c-1 -1 -10 -2 -13 -2c-32 0 -46 15 -48 52c-24 -32 -72 -55 -124 -55c-70 0 -105 30 -105 76c0 59 61 77 120 87v95c-39 -3 -69 -19 -93 -49l-21 22c28 31 68 50 114 55v70h-115v29h259v-29h-114v-69c68 -2 108 -35 108 -88v-144c0 -17 6 -23 21 -23z
M252 204c1 27 -27 47 -77 50v-91c42 7 77 14 77 41zM175 29c47 13 80 44 80 82v50c-19 -15 -50 -21 -80 -25v-107zM127 23c6 0 12 0 18 1v107c-48 -8 -89 -20 -89 -59c0 -32 27 -49 71 -49z" />
    <glyph glyph-name="trident.ss01" unicode="&#x3c;&#x442;&#x440;&#x438;&#x437;&#x443;&#x431;&#x3e;" horiz-adv-x="558" 
d="M279 -112c-4 8 -10 14 -17 19c-29 22 -50 55 -57 93h-93v402c50 -25 86 -80 90 -137l14 -113l-7 1c-15 0 -28 -14 -28 -28c0 -13 10 -24 23 -27l17 -4c28 53 44 105 44 156c0 46 -6 92 -7 139c0 21 8 40 21 55c13 -15 21 -34 21 -55c0 -47 -7 -93 -7 -139
c0 -51 16 -103 44 -156l17 4c13 3 23 14 23 27c0 14 -13 28 -28 28l-7 -1l14 113c7 57 40 112 90 137v-402h-93c-7 -38 -27 -72 -57 -93c-7 -5 -13 -11 -17 -19zM140 139h16c4 15 15 28 29 36l-11 93c-4 29 -16 55 -34 76v-205zM402 139h16v205c-18 -21 -31 -47 -34 -76
l-11 -93c14 -8 25 -21 29 -36zM279 67c8 9 18 17 30 20c-12 22 -23 45 -30 69c-7 -24 -18 -47 -30 -69c12 -3 22 -11 30 -20zM140 28h63c0 14 2 27 5 40l-13 3c-19 6 -34 21 -39 40h-16v-83zM355 28h63v83h-16c-5 -19 -20 -34 -39 -40l-13 -3c3 -13 5 -26 5 -40zM230 28h35
c0 17 -13 32 -30 34c-3 -11 -5 -22 -5 -34zM293 28h35c0 12 -2 23 -5 34c-17 -2 -30 -17 -30 -34zM265 -59v59h-31c5 -22 16 -42 31 -59zM293 -59c15 17 26 37 31 59h-31v-59z" />
    <glyph glyph-name=".notdef" horiz-adv-x="558" 
d="M279 -146l173 76c31 14 49 45 49 76v472h-444v-472c0 -31 18 -62 49 -76zM279 -112c-4 8 -10 14 -17 19c-29 22 -50 55 -57 93h-93v402c50 -25 86 -80 90 -137l14 -113l-7 1c-15 0 -28 -14 -28 -28c0 -13 10 -24 23 -27l17 -4c28 53 44 105 44 156c0 46 -6 92 -7 139
c0 21 8 40 21 55c13 -15 21 -34 21 -55c0 -47 -7 -93 -7 -139c0 -51 16 -103 44 -156l17 4c13 3 23 14 23 27c0 14 -13 28 -28 28l-7 -1l14 113c7 57 40 112 90 137v-402h-93c-7 -38 -27 -72 -57 -93c-7 -5 -13 -11 -17 -19zM140 139h16c4 15 15 28 29 36l-11 93
c-4 29 -16 55 -34 76v-205zM402 139h16v205c-18 -21 -31 -47 -34 -76l-11 -93c14 -8 25 -21 29 -36zM279 67c8 9 18 17 30 20c-12 22 -23 45 -30 69c-7 -24 -18 -47 -30 -69c12 -3 22 -11 30 -20zM140 28h63c0 14 2 27 5 40l-13 3c-19 6 -34 21 -39 40h-16v-83zM355 28h63
v83h-16c-5 -19 -20 -34 -39 -40l-13 -3c3 -13 5 -26 5 -40zM230 28h35c0 17 -13 32 -30 34c-3 -11 -5 -22 -5 -34zM293 28h35c0 12 -2 23 -5 34c-17 -2 -30 -17 -30 -34zM265 -59v59h-31c5 -22 16 -42 31 -59zM293 -59c15 17 26 37 31 59h-31v-59z" />
    <glyph glyph-name="CR" unicode="&#xd;" horiz-adv-x="160" 
 />
    <glyph glyph-name="space" unicode=" " horiz-adv-x="160" 
 />
    <glyph glyph-name="A" unicode="A" horiz-adv-x="379" 
d="M334 0l-44 104h-202l-44 -104h-34l161 380h37l161 -380h-35zM100 134h177l-88 209z" />
    <glyph glyph-name="Aacute" unicode="&#xc1;" horiz-adv-x="379" 
d="M252 480l-45 -64h-26l32 64h39zM334 0l-44 104h-202l-44 -104h-34l161 380h37l161 -380h-35zM100 134h177l-88 209z" />
    <glyph glyph-name="Abreve" unicode="&#x102;" horiz-adv-x="379" 
d="M189 413c-43 0 -70 24 -77 66l28 4c4 -26 22 -43 49 -43s46 17 50 43l27 -4c-7 -42 -34 -66 -77 -66zM334 0l-44 104h-202l-44 -104h-34l161 380h37l161 -380h-35zM100 134h177l-88 209z" />
    <glyph glyph-name="Acircumflex" unicode="&#xc2;" horiz-adv-x="379" 
d="M192 459l-42 -43h-31l53 64h39l54 -64h-32zM334 0l-44 104h-202l-44 -104h-34l161 380h37l161 -380h-35zM100 134h177l-88 209z" />
    <glyph glyph-name="Adieresis" unicode="&#xc4;" horiz-adv-x="379" 
d="M166 471v-38h-39v38h39zM251 471v-38h-39v38h39zM334 0l-44 104h-202l-44 -104h-34l161 380h37l161 -380h-35zM100 134h177l-88 209z" />
    <glyph glyph-name="Agrave" unicode="&#xc0;" horiz-adv-x="379" 
d="M197 416h-26l-45 64h39zM334 0l-44 104h-202l-44 -104h-34l161 380h37l161 -380h-35zM100 134h177l-88 209z" />
    <glyph glyph-name="Amacron" unicode="&#x100;" horiz-adv-x="379" 
d="M265 465v-25h-152v25h152zM334 0l-44 104h-202l-44 -104h-34l161 380h37l161 -380h-35zM100 134h177l-88 209z" />
    <glyph glyph-name="Aogonek" unicode="&#x104;" horiz-adv-x="379" 
d="M363 -67l13 -22c-12 -7 -24 -11 -37 -11c-32 0 -53 21 -53 49c0 23 19 45 46 57l-42 98h-202l-44 -104h-34l161 380h37l161 -380h-1c-28 -10 -54 -29 -54 -50c0 -15 10 -23 25 -23c7 0 16 2 24 6zM100 134h177l-88 209z" />
    <glyph glyph-name="Aring" unicode="&#xc5;" horiz-adv-x="379" 
d="M334 0l-44 104h-202l-44 -104h-34l158 374c-20 8 -34 27 -34 50c0 31 24 55 55 55s55 -24 55 -55c0 -23 -14 -42 -34 -50l159 -374h-35zM159 424c0 -17 13 -30 30 -30s30 13 30 30s-13 30 -30 30s-30 -13 -30 -30zM100 134h177l-88 209z" />
    <glyph glyph-name="Atilde" unicode="&#xc3;" horiz-adv-x="379" 
d="M159 453c-10 0 -19 -8 -28 -27l-21 11c12 27 28 40 49 40c26 0 43 -25 62 -25c10 0 19 8 28 27l21 -11c-12 -27 -28 -40 -49 -40c-26 0 -43 25 -62 25zM334 0l-44 104h-202l-44 -104h-34l161 380h37l161 -380h-35zM100 134h177l-88 209z" />
    <glyph glyph-name="AE" unicode="&#xc6;" horiz-adv-x="474" 
d="M326 32h128v-32h-151l-40 104h-180l-40 -104h-33l148 380h291v-32h-247l54 -137h156v-32h-144zM96 138h153l-76 197z" />
    <glyph glyph-name="B" unicode="B" horiz-adv-x="379" 
d="M281 197c39 -15 63 -49 63 -93c0 -62 -45 -104 -111 -104h-168v380h161c65 0 110 -41 110 -101c0 -38 -21 -67 -55 -82zM226 351h-129v-142h129c47 0 76 28 76 70c0 44 -29 72 -76 72zM232 29c49 0 78 29 78 75c0 47 -29 77 -78 77h-135v-152h135z" />
    <glyph glyph-name="C" unicode="C" horiz-adv-x="383" 
d="M209 -5c-102 0 -173 80 -173 195c0 114 72 195 173 195c79 0 131 -41 153 -114l-31 -11c-19 64 -62 96 -122 96c-82 0 -139 -67 -139 -166s57 -166 139 -166c61 0 104 32 123 96l30 -11c-22 -73 -74 -114 -153 -114z" />
    <glyph glyph-name="Cacute" unicode="&#x106;" horiz-adv-x="383" 
d="M195 416l32 64h39l-45 -64h-26zM209 -5c-102 0 -173 80 -173 195c0 114 72 195 173 195c79 0 131 -41 153 -114l-31 -11c-19 64 -62 96 -122 96c-82 0 -139 -67 -139 -166s57 -166 139 -166c61 0 104 32 123 96l30 -11c-22 -73 -74 -114 -153 -114z" />
    <glyph glyph-name="Ccaron" unicode="&#x10c;" horiz-adv-x="383" 
d="M222 416h-38l-54 64h32l41 -43l42 43h31zM209 24c61 0 104 32 123 96l30 -11c-22 -73 -74 -114 -153 -114c-102 0 -173 80 -173 195c0 114 72 195 173 195c79 0 131 -41 153 -114l-31 -11c-19 64 -62 96 -122 96c-82 0 -139 -67 -139 -166s57 -166 139 -166z" />
    <glyph glyph-name="Ccedilla" unicode="&#xc7;" horiz-adv-x="383" 
d="M209 24c61 0 104 32 123 96l30 -11c-21 -70 -69 -110 -143 -114l-12 -21c5 1 10 1 15 1c28 0 48 -17 48 -41c0 -25 -28 -44 -65 -44c-23 0 -46 7 -62 18l16 24c17 -11 32 -16 48 -16c20 0 31 7 31 20c0 11 -10 17 -30 17c-9 0 -14 -2 -20 -5l-18 12l20 36
c-92 9 -154 86 -154 194c0 114 72 195 173 195c79 0 131 -41 153 -114l-31 -11c-19 64 -62 96 -122 96c-82 0 -139 -67 -139 -166s57 -166 139 -166z" />
    <glyph glyph-name="Cdotaccent" unicode="&#x10a;" horiz-adv-x="383" 
d="M184 433v38h38v-38h-38zM209 -5c-102 0 -173 80 -173 195c0 114 72 195 173 195c79 0 131 -41 153 -114l-31 -11c-19 64 -62 96 -122 96c-82 0 -139 -67 -139 -166s57 -166 139 -166c61 0 104 32 123 96l30 -11c-22 -73 -74 -114 -153 -114z" />
    <glyph glyph-name="D" unicode="D" horiz-adv-x="409" 
d="M193 380c111 0 180 -73 180 -190c0 -116 -71 -190 -180 -190h-128v380h128zM193 31c91 0 146 60 146 159s-55 159 -146 159h-95v-318h95z" />
    <glyph glyph-name="Eth" unicode="&#xd0;" horiz-adv-x="409" 
d="M193 380c111 0 180 -73 180 -190c0 -116 -71 -190 -180 -190h-128v181h-43v28h43v171h128zM193 31c91 0 146 60 146 159s-55 159 -146 159h-95v-140h84v-28h-84v-150h95z" />
    <glyph glyph-name="Dcaron" unicode="&#x10e;" horiz-adv-x="409" 
d="M205 416h-38l-54 64h32l41 -43l42 43h31zM193 380c111 0 180 -73 180 -190c0 -116 -71 -190 -180 -190h-128v380h128zM193 31c91 0 146 60 146 159s-55 159 -146 159h-95v-318h95z" />
    <glyph glyph-name="Dcroat" unicode="&#x110;" horiz-adv-x="409" 
d="M193 380c111 0 180 -73 180 -190c0 -116 -71 -190 -180 -190h-128v181h-43v28h43v171h128zM193 31c91 0 146 60 146 159s-55 159 -146 159h-95v-140h84v-28h-84v-150h95z" />
    <glyph glyph-name="E" unicode="E" horiz-adv-x="333" 
d="M98 30h215v-30h-248v380h243v-30h-210v-141h165v-28h-165v-151z" />
    <glyph glyph-name="Eacute" unicode="&#xc9;" horiz-adv-x="333" 
d="M243 480l-45 -64h-26l32 64h39zM98 30h215v-30h-248v380h243v-30h-210v-141h165v-28h-165v-151z" />
    <glyph glyph-name="Ecaron" unicode="&#x11a;" horiz-adv-x="333" 
d="M199 416h-38l-54 64h32l41 -43l42 43h31zM98 30h215v-30h-248v380h243v-30h-210v-141h165v-28h-165v-151z" />
    <glyph glyph-name="Ecircumflex" unicode="&#xca;" horiz-adv-x="333" 
d="M183 459l-42 -43h-31l53 64h39l54 -64h-32zM98 30h215v-30h-248v380h243v-30h-210v-141h165v-28h-165v-151z" />
    <glyph glyph-name="Edieresis" unicode="&#xcb;" horiz-adv-x="333" 
d="M157 471v-38h-39v38h39zM242 471v-38h-39v38h39zM98 30h215v-30h-248v380h243v-30h-210v-141h165v-28h-165v-151z" />
    <glyph glyph-name="Edotaccent" unicode="&#x116;" horiz-adv-x="333" 
d="M199 471v-38h-38v38h38zM98 30h215v-30h-248v380h243v-30h-210v-141h165v-28h-165v-151z" />
    <glyph glyph-name="Egrave" unicode="&#xc8;" horiz-adv-x="333" 
d="M188 416h-26l-45 64h39zM98 30h215v-30h-248v380h243v-30h-210v-141h165v-28h-165v-151z" />
    <glyph glyph-name="Emacron" unicode="&#x112;" horiz-adv-x="333" 
d="M256 465v-25h-152v25h152zM98 30h215v-30h-248v380h243v-30h-210v-141h165v-28h-165v-151z" />
    <glyph glyph-name="Eogonek" unicode="&#x118;" horiz-adv-x="333" 
d="M308 -67l13 -22c-12 -7 -24 -11 -37 -11c-32 0 -53 21 -53 49c0 20 14 38 35 51h-201v380h243v-30h-210v-141h165v-28h-165v-151h215v-30c-28 -10 -54 -29 -54 -50c0 -15 10 -23 25 -23c7 0 16 2 24 6z" />
    <glyph glyph-name="F" unicode="F" horiz-adv-x="323" 
d="M314 350h-215v-140h170v-29h-170v-181h-34v380h249v-30z" />
    <glyph glyph-name="G" unicode="G" horiz-adv-x="415" 
d="M231 183h141v-183h-26v77c-24 -51 -70 -82 -134 -82c-105 0 -176 79 -176 196c0 113 73 194 177 194c75 0 129 -37 153 -105l-31 -12c-19 57 -63 88 -122 88c-85 0 -143 -67 -143 -165c0 -102 54 -167 143 -167c72 0 124 46 131 131h-113v28z" />
    <glyph glyph-name="Gbreve" unicode="&#x11e;" horiz-adv-x="415" 
d="M214 413c-43 0 -70 24 -77 66l28 4c4 -26 22 -43 49 -43s46 17 50 43l27 -4c-7 -42 -34 -66 -77 -66zM231 183h141v-183h-26v77c-24 -51 -70 -82 -134 -82c-105 0 -176 79 -176 196c0 113 73 194 177 194c75 0 129 -37 153 -105l-31 -12c-19 57 -63 88 -122 88
c-85 0 -143 -67 -143 -165c0 -102 54 -167 143 -167c72 0 124 46 131 131h-113v28z" />
    <glyph glyph-name="uni0122" unicode="&#x122;" horiz-adv-x="415" 
d="M231 183h141v-183h-26v77c-24 -51 -70 -82 -134 -82c-105 0 -176 79 -176 196c0 113 73 194 177 194c75 0 129 -37 153 -105l-31 -12c-19 57 -63 88 -122 88c-85 0 -143 -67 -143 -165c0 -102 54 -167 143 -167c72 0 124 46 131 131h-113v28zM199 -73v38h38v-44
c0 -26 -12 -39 -33 -39h-5v22h8c6 0 10 5 10 13v10h-18z" />
    <glyph glyph-name="Gdotaccent" unicode="&#x120;" horiz-adv-x="415" 
d="M233 471v-38h-38v38h38zM231 183h141v-183h-26v77c-24 -51 -70 -82 -134 -82c-105 0 -176 79 -176 196c0 113 73 194 177 194c75 0 129 -37 153 -105l-31 -12c-19 57 -63 88 -122 88c-85 0 -143 -67 -143 -165c0 -102 54 -167 143 -167c72 0 124 46 131 131h-113v28z" />
    <glyph glyph-name="H" unicode="H" horiz-adv-x="430" 
d="M332 380h33v-380h-33v180h-234v-180h-33v380h33v-170h234v170z" />
    <glyph glyph-name="Hbar" unicode="&#x126;" horiz-adv-x="430" 
d="M407 314v-28h-42v-286h-33v180h-234v-180h-33v286h-42v28h42v66h33v-66h234v66h33v-66h42zM332 210v76h-234v-76h234z" />
    <glyph glyph-name="I" unicode="I" horiz-adv-x="163" 
d="M65 0v380h33v-380h-33z" />
    <glyph glyph-name="Iacute" unicode="&#xcd;" horiz-adv-x="163" 
d="M73 416l32 64h39l-45 -64h-26zM65 0v380h33v-380h-33z" />
    <glyph glyph-name="Icircumflex" unicode="&#xce;" horiz-adv-x="163" 
d="M103 480l54 -64h-32l-41 43l-42 -43h-31l53 64h39zM65 0v380h33v-380h-33z" />
    <glyph glyph-name="Idieresis" unicode="&#xcf;" horiz-adv-x="163" 
d="M19 433v38h39v-38h-39zM104 433v38h39v-38h-39zM65 0v380h33v-380h-33z" />
    <glyph glyph-name="Idotaccent" unicode="&#x130;" horiz-adv-x="163" 
d="M62 433v38h38v-38h-38zM65 0v380h33v-380h-33z" />
    <glyph glyph-name="Igrave" unicode="&#xcc;" horiz-adv-x="163" 
d="M89 416h-26l-45 64h39zM65 0v380h33v-380h-33z" />
    <glyph glyph-name="Imacron" unicode="&#x12a;" horiz-adv-x="163" 
d="M5 440v25h152v-25h-152zM65 0v380h33v-380h-33z" />
    <glyph glyph-name="Iogonek" unicode="&#x12e;" horiz-adv-x="163" 
d="M92 -67l13 -22c-12 -7 -24 -11 -37 -11c-32 0 -53 21 -53 49c0 25 22 47 50 59v372h33v-380h-1c-28 -10 -54 -29 -54 -50c0 -15 10 -23 25 -23c7 0 16 2 24 6z" />
    <glyph glyph-name="J" unicode="J" horiz-adv-x="249" 
d="M90 -5c-46 0 -79 28 -90 76l30 12c8 -37 29 -57 61 -57c38 0 64 29 64 73v281h34v-281c0 -62 -39 -104 -99 -104z" />
    <glyph glyph-name="K" unicode="K" horiz-adv-x="376" 
d="M322 0l-160 197l-64 -62v-135h-33v380h33v-206l212 206h41l-166 -161l180 -219h-43z" />
    <glyph glyph-name="uni0136" unicode="&#x136;" horiz-adv-x="376" 
d="M185 219l180 -219h-43l-160 197l-64 -62v-135h-33v380h33v-206l212 206h41zM188 -73v38h38v-44c0 -26 -12 -39 -33 -39h-5v22h8c6 0 10 5 10 13v10h-18z" />
    <glyph glyph-name="L" unicode="L" horiz-adv-x="328" 
d="M98 31h220v-31h-253v380h33v-349z" />
    <glyph glyph-name="Lacute" unicode="&#x139;" horiz-adv-x="328" 
d="M144 500l-45 -64h-26l32 64h39zM98 31h220v-31h-253v380h33v-349z" />
    <glyph glyph-name="Lcaron" unicode="&#x13d;" horiz-adv-x="328" 
d="M98 31h220v-31h-253v380h33v-349zM180 380l-9 -73h-24v73h33z" />
    <glyph glyph-name="uni013B" unicode="&#x13b;" horiz-adv-x="328" 
d="M98 31h220v-31h-253v380h33v-349zM165 -73v38h38v-44c0 -26 -12 -39 -33 -39h-5v22h8c6 0 10 5 10 13v10h-18z" />
    <glyph glyph-name="Lslash" unicode="&#x141;" horiz-adv-x="328" 
d="M98 31h220v-31h-253v156l-44 -14v30l44 14v194h33v-184l120 37v-30l-120 -37v-135z" />
    <glyph glyph-name="M" unicode="M" horiz-adv-x="517" 
d="M452 380v-380h-32v347l-146 -347h-32l-145 344v-344h-32v380h52l142 -336l141 336h52z" />
    <glyph glyph-name="N" unicode="N" horiz-adv-x="430" 
d="M333 380h32v-380h-36l-232 331v-331h-32v380h36l232 -331v331z" />
    <glyph glyph-name="Nacute" unicode="&#x143;" horiz-adv-x="430" 
d="M278 480l-45 -64h-26l32 64h39zM333 380h32v-380h-36l-232 331v-331h-32v380h36l232 -331v331z" />
    <glyph glyph-name="Ncaron" unicode="&#x147;" horiz-adv-x="430" 
d="M234 416h-38l-54 64h32l41 -43l42 43h31zM333 380h32v-380h-36l-232 331v-331h-32v380h36l232 -331v331z" />
    <glyph glyph-name="uni0145" unicode="&#x145;" horiz-adv-x="430" 
d="M333 380h32v-380h-36l-232 331v-331h-32v380h36l232 -331v331zM191 -73v38h38v-44c0 -26 -12 -39 -33 -39h-5v22h8c6 0 10 5 10 13v10h-18z" />
    <glyph glyph-name="Eng" unicode="&#x14a;" horiz-adv-x="427" 
d="M331 380h30v-415c0 -52 -29 -67 -66 -67c-4 0 -14 1 -18 2v31h16c24 0 36 9 36 38v27l-234 334v-330h-30v380h36l230 -326v326z" />
    <glyph glyph-name="Ntilde" unicode="&#xd1;" horiz-adv-x="430" 
d="M185 453c-10 0 -19 -8 -28 -27l-21 11c12 27 28 40 49 40c26 0 43 -25 62 -25c10 0 19 8 28 27l21 -11c-12 -27 -28 -40 -49 -40c-26 0 -43 25 -62 25zM333 380h32v-380h-36l-232 331v-331h-32v380h36l232 -331v331z" />
    <glyph glyph-name="O" unicode="O" horiz-adv-x="420" 
d="M210 -5c-101 0 -174 81 -174 195s73 195 174 195s174 -81 174 -195s-73 -195 -174 -195zM210 24c82 0 140 68 140 166s-58 166 -140 166s-140 -68 -140 -166s58 -166 140 -166z" />
    <glyph glyph-name="Oacute" unicode="&#xd3;" horiz-adv-x="420" 
d="M202 416l32 64h39l-45 -64h-26zM210 -5c-101 0 -174 81 -174 195s73 195 174 195s174 -81 174 -195s-73 -195 -174 -195zM210 24c82 0 140 68 140 166s-58 166 -140 166s-140 -68 -140 -166s58 -166 140 -166z" />
    <glyph glyph-name="Ocircumflex" unicode="&#xd4;" horiz-adv-x="420" 
d="M213 459l-42 -43h-31l53 64h39l54 -64h-32zM210 385c101 0 174 -81 174 -195s-73 -195 -174 -195s-174 81 -174 195s73 195 174 195zM210 24c82 0 140 68 140 166s-58 166 -140 166s-140 -68 -140 -166s58 -166 140 -166z" />
    <glyph glyph-name="Odieresis" unicode="&#xd6;" horiz-adv-x="420" 
d="M148 433v38h39v-38h-39zM233 433v38h39v-38h-39zM210 -5c-101 0 -174 81 -174 195s73 195 174 195s174 -81 174 -195s-73 -195 -174 -195zM210 24c82 0 140 68 140 166s-58 166 -140 166s-140 -68 -140 -166s58 -166 140 -166z" />
    <glyph glyph-name="Ograve" unicode="&#xd2;" horiz-adv-x="420" 
d="M218 416h-26l-45 64h39zM210 -5c-101 0 -174 81 -174 195s73 195 174 195s174 -81 174 -195s-73 -195 -174 -195zM210 24c82 0 140 68 140 166s-58 166 -140 166s-140 -68 -140 -166s58 -166 140 -166z" />
    <glyph glyph-name="Ohungarumlaut" unicode="&#x150;" horiz-adv-x="420" 
d="M148 433v38h39v-38h-39zM233 433v38h39v-38h-39zM210 -5c-101 0 -174 81 -174 195s73 195 174 195s174 -81 174 -195s-73 -195 -174 -195zM210 24c82 0 140 68 140 166s-58 166 -140 166s-140 -68 -140 -166s58 -166 140 -166z" />
    <glyph glyph-name="Omacron" unicode="&#x14c;" horiz-adv-x="420" 
d="M134 440v25h152v-25h-152zM210 -5c-101 0 -174 81 -174 195s73 195 174 195s174 -81 174 -195s-73 -195 -174 -195zM210 24c82 0 140 68 140 166s-58 166 -140 166s-140 -68 -140 -166s58 -166 140 -166z" />
    <glyph glyph-name="Oslash" unicode="&#xd8;" horiz-adv-x="420" 
d="M335 330c31 -34 49 -83 49 -140c0 -114 -73 -195 -174 -195c-40 0 -76 13 -105 36l-27 -36h-35l42 55c-31 34 -49 83 -49 140c0 114 73 195 174 195c40 0 76 -13 105 -36l27 36h35zM70 190c0 -46 13 -85 35 -114l191 249c-23 20 -53 31 -86 31c-82 0 -140 -68 -140 -166z
M210 24c82 0 140 68 140 166c0 46 -13 85 -35 114l-191 -249c23 -20 53 -31 86 -31z" />
    <glyph glyph-name="Otilde" unicode="&#xd5;" horiz-adv-x="420" 
d="M291 468c-12 -27 -28 -40 -49 -40c-26 0 -43 25 -62 25c-10 0 -19 -8 -28 -27l-21 11c12 27 28 40 49 40c26 0 43 -25 62 -25c10 0 19 8 28 27zM210 -5c-101 0 -174 81 -174 195s73 195 174 195s174 -81 174 -195s-73 -195 -174 -195zM210 24c82 0 140 68 140 166
s-58 166 -140 166s-140 -68 -140 -166s58 -166 140 -166z" />
    <glyph glyph-name="OE" unicode="&#x152;" horiz-adv-x="515" 
d="M303 30h192v-30h-279c-110 0 -180 74 -180 190c0 117 70 190 180 190h274v-30h-187v-141h142v-28h-142v-151zM216 31h54v318h-54c-91 0 -146 -60 -146 -159s55 -159 146 -159z" />
    <glyph glyph-name="P" unicode="P" horiz-adv-x="364" 
d="M217 380c74 0 123 -45 123 -112s-49 -112 -123 -112h-119v-156h-33v380h152zM214 185c58 0 92 31 92 83c0 51 -34 83 -92 83h-116v-166h116z" />
    <glyph glyph-name="Thorn" unicode="&#xde;" horiz-adv-x="364" 
d="M217 307c74 0 123 -45 123 -112s-49 -112 -123 -112h-119v-83h-33v380h33v-73h119zM214 112c58 0 92 31 92 83s-34 83 -92 83h-116v-166h116z" />
    <glyph glyph-name="Q" unicode="Q" horiz-adv-x="420" 
d="M384 190c0 -108 -65 -186 -158 -194v-25c0 -30 13 -43 42 -43c16 0 32 1 49 2v-30c-17 -1 -33 -2 -49 -2c-42 0 -73 16 -73 73v25c-93 7 -159 86 -159 194c0 114 73 195 174 195s174 -81 174 -195zM70 190c0 -98 58 -166 140 -166s140 68 140 166s-58 166 -140 166
s-140 -68 -140 -166z" />
    <glyph glyph-name="R" unicode="R" horiz-adv-x="378" 
d="M355 0h-40l-98 158h-9h-110v-158h-33v380h143c74 0 123 -44 123 -111c0 -53 -30 -91 -79 -105zM98 351v-164h107c57 0 92 31 92 82c0 50 -35 82 -92 82h-107z" />
    <glyph glyph-name="Racute" unicode="&#x154;" horiz-adv-x="378" 
d="M245 480l-45 -64h-26l32 64h39zM355 0h-40l-98 158h-9h-110v-158h-33v380h143c74 0 123 -44 123 -111c0 -53 -30 -91 -79 -105zM98 351v-164h107c57 0 92 31 92 82c0 50 -35 82 -92 82h-107z" />
    <glyph glyph-name="Rcaron" unicode="&#x158;" horiz-adv-x="378" 
d="M201 416h-38l-54 64h32l41 -43l42 43h31zM355 0h-40l-98 158h-9h-110v-158h-33v380h143c74 0 123 -44 123 -111c0 -53 -30 -91 -79 -105zM98 351v-164h107c57 0 92 31 92 82c0 50 -35 82 -92 82h-107z" />
    <glyph glyph-name="uni0156" unicode="&#x156;" horiz-adv-x="378" 
d="M252 164l103 -164h-40l-98 158h-9h-110v-158h-33v380h143c74 0 123 -44 123 -111c0 -53 -30 -91 -79 -105zM98 351v-164h107c57 0 92 31 92 82c0 50 -35 82 -92 82h-107zM193 -73v38h38v-44c0 -26 -12 -39 -33 -39h-5v22h8c6 0 10 5 10 13v10h-18z" />
    <glyph glyph-name="S" unicode="S" horiz-adv-x="348" 
d="M168 -5c-56 0 -106 21 -144 59l21 23c35 -34 77 -53 124 -53c68 0 110 28 110 72c0 36 -26 59 -103 81c-101 30 -133 57 -133 110c0 60 50 98 132 98c46 0 92 -15 128 -44l-20 -25c-32 26 -75 40 -108 40c-62 0 -100 -27 -100 -69c0 -35 25 -53 107 -78
c97 -29 131 -58 131 -110c0 -63 -58 -104 -145 -104z" />
    <glyph glyph-name="Sacute" unicode="&#x15a;" horiz-adv-x="348" 
d="M164 416l32 64h39l-45 -64h-26zM168 -5c-56 0 -106 21 -144 59l21 23c35 -34 77 -53 124 -53c68 0 110 28 110 72c0 36 -26 59 -103 81c-101 30 -133 57 -133 110c0 60 50 98 132 98c46 0 92 -15 128 -44l-20 -25c-32 26 -75 40 -108 40c-62 0 -100 -27 -100 -69
c0 -35 25 -53 107 -78c97 -29 131 -58 131 -110c0 -63 -58 -104 -145 -104z" />
    <glyph glyph-name="Scaron" unicode="&#x160;" horiz-adv-x="348" 
d="M191 416h-38l-54 64h32l41 -43l42 43h31zM182 209c97 -29 131 -58 131 -110c0 -63 -58 -104 -145 -104c-56 0 -106 21 -144 59l21 23c35 -34 77 -53 124 -53c68 0 110 28 110 72c0 36 -26 59 -103 81c-101 30 -133 57 -133 110c0 60 50 98 132 98c46 0 92 -15 128 -44
l-20 -25c-32 26 -75 40 -108 40c-62 0 -100 -27 -100 -69c0 -35 25 -53 107 -78z" />
    <glyph glyph-name="Scedilla" unicode="&#x15e;" horiz-adv-x="348" 
d="M313 99c0 -58 -49 -97 -124 -103l-13 -22c5 1 10 1 15 1c28 0 48 -17 48 -41c0 -25 -28 -44 -65 -44c-23 0 -46 7 -62 18l16 24c17 -11 32 -16 48 -16c20 0 31 7 31 20c0 11 -10 17 -30 17c-9 0 -14 -2 -20 -5l-18 12l19 35c-52 2 -98 23 -134 59l21 23
c35 -34 77 -53 124 -53c68 0 110 28 110 72c0 36 -26 59 -103 81c-101 30 -133 57 -133 110c0 60 50 98 132 98c46 0 92 -15 128 -44l-20 -25c-32 26 -75 40 -108 40c-62 0 -100 -27 -100 -69c0 -35 25 -53 107 -78c97 -29 131 -58 131 -110z" />
    <glyph glyph-name="uni0218" unicode="&#x218;" horiz-adv-x="348" 
d="M182 209c97 -29 131 -58 131 -110c0 -63 -58 -104 -145 -104c-56 0 -106 21 -144 59l21 23c35 -34 77 -53 124 -53c68 0 110 28 110 72c0 36 -26 59 -103 81c-101 30 -133 57 -133 110c0 60 50 98 132 98c46 0 92 -15 128 -44l-20 -25c-32 26 -75 40 -108 40
c-62 0 -100 -27 -100 -69c0 -35 25 -53 107 -78zM153 -73v38h38v-44c0 -26 -12 -39 -33 -39h-5v22h8c6 0 10 5 10 13v10h-18z" />
    <glyph glyph-name="uni1E9E" unicode="&#x1e9e;" horiz-adv-x="420" 
d="M273 224c63 0 118 -40 118 -113c0 -69 -53 -116 -132 -116c-48 0 -88 20 -108 55l26 18c15 -28 43 -44 83 -44c59 0 97 34 97 87c0 52 -34 85 -89 85c-24 0 -45 -5 -64 -16l-16 20l134 149h-224v-349h-33v380h301v-25l-124 -135c10 3 21 4 31 4z" />
    <glyph glyph-name="T" unicode="T" horiz-adv-x="344" 
d="M334 380v-31h-145v-349h-33v349h-146v31h324z" />
    <glyph glyph-name="Tbar" unicode="&#x166;" horiz-adv-x="344" 
d="M334 349h-145v-140h79v-28h-79v-181h-33v181h-80v28h80v140h-146v31h324v-31z" />
    <glyph glyph-name="Tcaron" unicode="&#x164;" horiz-adv-x="344" 
d="M191 416h-38l-54 64h32l41 -43l42 43h31zM334 380v-31h-145v-349h-33v349h-146v31h324z" />
    <glyph glyph-name="uni0162" unicode="&#x162;" horiz-adv-x="344" 
d="M334 349h-145v-349h2l-15 -26c5 1 10 1 15 1c28 0 48 -17 48 -41c0 -25 -28 -44 -65 -44c-23 0 -46 7 -62 18l16 24c17 -11 32 -16 48 -16c20 0 31 7 31 20c0 11 -10 17 -30 17c-9 0 -14 -2 -20 -5l-18 12l22 40h-5v349h-146v31h324v-31z" />
    <glyph glyph-name="uni021A" unicode="&#x21a;" horiz-adv-x="344" 
d="M334 380v-31h-145v-349h-33v349h-146v31h324zM153 -73v38h38v-44c0 -26 -12 -39 -33 -39h-5v22h8c6 0 10 5 10 13v10h-18z" />
    <glyph glyph-name="U" unicode="U" horiz-adv-x="420" 
d="M210 -5c-88 0 -150 59 -150 150v235h33v-235c0 -72 45 -119 117 -119s117 47 117 119v235h33v-235c0 -91 -62 -150 -150 -150z" />
    <glyph glyph-name="Uacute" unicode="&#xda;" horiz-adv-x="420" 
d="M202 416l32 64h39l-45 -64h-26zM210 -5c-88 0 -150 59 -150 150v235h33v-235c0 -72 45 -119 117 -119s117 47 117 119v235h33v-235c0 -91 -62 -150 -150 -150z" />
    <glyph glyph-name="Ucircumflex" unicode="&#xdb;" horiz-adv-x="420" 
d="M213 459l-42 -43h-31l53 64h39l54 -64h-32zM327 380h33v-235c0 -91 -62 -150 -150 -150s-150 59 -150 150v235h33v-235c0 -72 45 -119 117 -119s117 47 117 119v235z" />
    <glyph glyph-name="Udieresis" unicode="&#xdc;" horiz-adv-x="420" 
d="M148 433v38h39v-38h-39zM233 433v38h39v-38h-39zM210 -5c-88 0 -150 59 -150 150v235h33v-235c0 -72 45 -119 117 -119s117 47 117 119v235h33v-235c0 -91 -62 -150 -150 -150z" />
    <glyph glyph-name="Ugrave" unicode="&#xd9;" horiz-adv-x="420" 
d="M218 416h-26l-45 64h39zM210 -5c-88 0 -150 59 -150 150v235h33v-235c0 -72 45 -119 117 -119s117 47 117 119v235h33v-235c0 -91 -62 -150 -150 -150z" />
    <glyph glyph-name="Uhungarumlaut" unicode="&#x170;" horiz-adv-x="420" 
d="M156 416l33 64h39l-45 -64h-27zM236 416l33 64h38l-44 -64h-27zM210 -5c-88 0 -150 59 -150 150v235h33v-235c0 -72 45 -119 117 -119s117 47 117 119v235h33v-235c0 -91 -62 -150 -150 -150z" />
    <glyph glyph-name="Umacron" unicode="&#x16a;" horiz-adv-x="420" 
d="M134 440v25h152v-25h-152zM210 -5c-88 0 -150 59 -150 150v235h33v-235c0 -72 45 -119 117 -119s117 47 117 119v235h33v-235c0 -91 -62 -150 -150 -150z" />
    <glyph glyph-name="Uogonek" unicode="&#x172;" horiz-adv-x="420" 
d="M327 380h33v-235c0 -60 -27 -106 -71 -131c-33 -21 -67 -43 -67 -64c0 -14 10 -23 25 -23c8 0 17 2 25 7l12 -23c-11 -7 -24 -11 -37 -11c-32 0 -52 21 -52 49c0 18 11 34 27 46h-12c-88 0 -150 59 -150 150v235h33v-235c0 -72 45 -119 117 -119s117 47 117 119v235z" />
    <glyph glyph-name="Uring" unicode="&#x16e;" horiz-adv-x="420" 
d="M210 370c-31 0 -55 24 -55 54c0 31 24 55 55 55s55 -24 55 -55c0 -30 -24 -54 -55 -54zM210 394c17 0 30 13 30 30s-13 30 -30 30s-30 -13 -30 -30s13 -30 30 -30zM210 -5c-88 0 -150 59 -150 150v235h33v-235c0 -72 45 -119 117 -119s117 47 117 119v235h33v-235
c0 -91 -62 -150 -150 -150z" />
    <glyph glyph-name="V" unicode="V" horiz-adv-x="375" 
d="M325 380h35l-154 -380h-37l-154 380h35l138 -340z" />
    <glyph glyph-name="W" unicode="W" horiz-adv-x="542" 
d="M486 380h32l-110 -380h-34l-104 341l-102 -341h-34l-110 380h33l96 -331l100 331h36l101 -329z" />
    <glyph glyph-name="Wacute" unicode="&#x1e82;" horiz-adv-x="542" 
d="M334 480l-45 -64h-26l32 64h39zM486 380h32l-110 -380h-34l-104 341l-102 -341h-34l-110 380h33l96 -331l100 331h36l101 -329z" />
    <glyph glyph-name="Wcircumflex" unicode="&#x174;" horiz-adv-x="542" 
d="M274 459l-42 -43h-31l53 64h39l54 -64h-32zM486 380h32l-110 -380h-34l-104 341l-102 -341h-34l-110 380h33l96 -331l100 331h36l101 -329z" />
    <glyph glyph-name="Wdieresis" unicode="&#x1e84;" horiz-adv-x="542" 
d="M248 471v-38h-39v38h39zM333 471v-38h-39v38h39zM486 380h32l-110 -380h-34l-104 341l-102 -341h-34l-110 380h33l96 -331l100 331h36l101 -329z" />
    <glyph glyph-name="Wgrave" unicode="&#x1e80;" horiz-adv-x="542" 
d="M279 416h-26l-45 64h39zM486 380h32l-110 -380h-34l-104 341l-102 -341h-34l-110 380h33l96 -331l100 331h36l101 -329z" />
    <glyph glyph-name="X" unicode="X" horiz-adv-x="362" 
d="M350 0h-41l-128 173l-129 -173h-40l148 198l-136 182h41l116 -159l117 159h40l-136 -182z" />
    <glyph glyph-name="Y" unicode="Y" horiz-adv-x="347" 
d="M341 380l-151 -224v-156h-33v154l-151 226h39l129 -193l129 193h38z" />
    <glyph glyph-name="Yacute" unicode="&#xdd;" horiz-adv-x="347" 
d="M236 480l-45 -64h-26l32 64h39zM341 380l-151 -224v-156h-33v154l-151 226h39l129 -193l129 193h38z" />
    <glyph glyph-name="Ycircumflex" unicode="&#x176;" horiz-adv-x="347" 
d="M176 459l-42 -43h-31l53 64h39l54 -64h-32zM341 380l-151 -224v-156h-33v154l-151 226h39l129 -193l129 193h38z" />
    <glyph glyph-name="Ydieresis" unicode="&#x178;" horiz-adv-x="347" 
d="M150 471v-38h-39v38h39zM235 471v-38h-39v38h39zM341 380l-151 -224v-156h-33v154l-151 226h39l129 -193l129 193h38z" />
    <glyph glyph-name="Ygrave" unicode="&#x1ef2;" horiz-adv-x="347" 
d="M181 416h-26l-45 64h39zM341 380l-151 -224v-156h-33v154l-151 226h39l129 -193l129 193h38z" />
    <glyph glyph-name="Z" unicode="Z" horiz-adv-x="353" 
d="M326 380v-32l-259 -317h259v-31h-298v32l259 317h-248v31h287z" />
    <glyph glyph-name="Zacute" unicode="&#x179;" horiz-adv-x="353" 
d="M243 480l-45 -64h-26l32 64h39zM326 380v-32l-259 -317h259v-31h-298v32l259 317h-248v31h287z" />
    <glyph glyph-name="Zcaron" unicode="&#x17d;" horiz-adv-x="353" 
d="M199 416h-38l-54 64h32l41 -43l42 43h31zM326 380v-32l-259 -317h259v-31h-298v32l259 317h-248v31h287z" />
    <glyph glyph-name="Zdotaccent" unicode="&#x17b;" horiz-adv-x="353" 
d="M199 471v-38h-38v38h38zM326 380v-32l-259 -317h259v-31h-298v32l259 317h-248v31h287z" />
    <glyph glyph-name="K.ss01" horiz-adv-x="383" 
d="M345 31h11v-31h-15c-31 0 -51 20 -51 57v123h-192v-180h-33v380h33v-170h106l110 170h34l-109 -170h84v-157c0 -13 9 -22 22 -22z" />
    <glyph glyph-name="uni0136.ss01" horiz-adv-x="383" 
d="M345 31h11v-31h-15c-31 0 -51 20 -51 57v123h-192v-180h-33v380h33v-170h106l110 170h34l-109 -170h84v-157c0 -13 9 -22 22 -22zM188 -73v38h38v-44c0 -26 -12 -39 -33 -39h-5v22h8c6 0 10 5 10 13v10h-18z" />
    <glyph glyph-name="R.ss01" horiz-adv-x="385" 
d="M346 31h11v-31h-15c-32 0 -51 21 -51 57v101h-192v-158h-34v380h151c72 0 118 -42 118 -106c0 -43 -22 -75 -58 -91h48v-130c0 -13 9 -22 22 -22zM216 351h-117v-164h100c59 0 101 36 101 87c0 48 -31 77 -84 77z" />
    <glyph glyph-name="Racute.ss01" horiz-adv-x="385" 
d="M245 480l-45 -64h-26l32 64h39zM346 31h11v-31h-15c-32 0 -51 21 -51 57v101h-192v-158h-34v380h151c72 0 118 -42 118 -106c0 -43 -22 -75 -58 -91h48v-130c0 -13 9 -22 22 -22zM216 351h-117v-164h100c59 0 101 36 101 87c0 48 -31 77 -84 77z" />
    <glyph glyph-name="Rcaron.ss01" horiz-adv-x="385" 
d="M201 416h-38l-54 64h32l41 -43l42 43h31zM346 31h11v-31h-15c-32 0 -51 21 -51 57v101h-192v-158h-34v380h151c72 0 118 -42 118 -106c0 -43 -22 -75 -58 -91h48v-130c0 -13 9 -22 22 -22zM216 351h-117v-164h100c59 0 101 36 101 87c0 48 -31 77 -84 77z" />
    <glyph glyph-name="uni0156.ss01" horiz-adv-x="385" 
d="M346 31h11v-31h-15c-32 0 -51 21 -51 57v101h-192v-158h-34v380h151c72 0 118 -42 118 -106c0 -43 -22 -75 -58 -91h48v-130c0 -13 9 -22 22 -22zM216 351h-117v-164h100c59 0 101 36 101 87c0 48 -31 77 -84 77zM193 -73v38h38v-44c0 -26 -12 -39 -33 -39h-5v22h8
c6 0 10 5 10 13v10h-18z" />
    <glyph glyph-name="Y.ss01" horiz-adv-x="363" 
d="M314 380h34l-111 -303c-20 -56 -50 -82 -93 -82c-49 0 -82 32 -82 81c0 31 15 58 41 75h46l-139 229h38l138 -229h45zM144 24c28 0 49 19 65 65l12 34h-105c-14 -8 -22 -26 -22 -47c0 -31 20 -52 50 -52z" />
    <glyph glyph-name="Yacute.ss01" horiz-adv-x="363" 
d="M243 480l-45 -64h-26l32 64h39zM314 380h34l-111 -303c-20 -56 -50 -82 -93 -82c-49 0 -82 32 -82 81c0 31 15 58 41 75h46l-139 229h38l138 -229h45zM144 24c28 0 49 19 65 65l12 34h-105c-14 -8 -22 -26 -22 -47c0 -31 20 -52 50 -52z" />
    <glyph glyph-name="Ycircumflex.ss01" horiz-adv-x="363" 
d="M183 459l-42 -43h-31l53 64h39l54 -64h-32zM314 380h34l-111 -303c-20 -56 -50 -82 -93 -82c-49 0 -82 32 -82 81c0 31 15 58 41 75h46l-139 229h38l138 -229h45zM144 24c28 0 49 19 65 65l12 34h-105c-14 -8 -22 -26 -22 -47c0 -31 20 -52 50 -52z" />
    <glyph glyph-name="Ydieresis.ss01" horiz-adv-x="363" 
d="M157 471v-38h-39v38h39zM242 471v-38h-39v38h39zM314 380h34l-111 -303c-20 -56 -50 -82 -93 -82c-49 0 -82 32 -82 81c0 31 15 58 41 75h46l-139 229h38l138 -229h45zM144 24c28 0 49 19 65 65l12 34h-105c-14 -8 -22 -26 -22 -47c0 -31 20 -52 50 -52z" />
    <glyph glyph-name="Ygrave.ss01" horiz-adv-x="363" 
d="M188 416h-26l-45 64h39zM314 380h34l-111 -303c-20 -56 -50 -82 -93 -82c-49 0 -82 32 -82 81c0 31 15 58 41 75h46l-139 229h38l138 -229h45zM144 24c28 0 49 19 65 65l12 34h-105c-14 -8 -22 -26 -22 -47c0 -31 20 -52 50 -52z" />
    <glyph glyph-name="K.ss02" horiz-adv-x="376" 
d="M322 0l-160 197l-64 -62v-135h-33v380h33v-206l212 206h41l-166 -161l180 -219h-43z" />
    <glyph glyph-name="uni0136.ss02" horiz-adv-x="376" 
d="M185 219l180 -219h-43l-160 197l-64 -62v-135h-33v380h33v-206l212 206h41zM188 -73v38h38v-44c0 -26 -12 -39 -33 -39h-5v22h8c6 0 10 5 10 13v10h-18z" />
    <glyph glyph-name="R.ss02" horiz-adv-x="378" 
d="M355 0h-40l-98 158h-9h-110v-158h-33v380h143c74 0 123 -44 123 -111c0 -53 -30 -91 -79 -105zM98 351v-164h107c57 0 92 31 92 82c0 50 -35 82 -92 82h-107z" />
    <glyph glyph-name="Racute.ss02" horiz-adv-x="378" 
d="M245 480l-45 -64h-26l32 64h39zM355 0h-40l-98 158h-9h-110v-158h-33v380h143c74 0 123 -44 123 -111c0 -53 -30 -91 -79 -105zM98 351v-164h107c57 0 92 31 92 82c0 50 -35 82 -92 82h-107z" />
    <glyph glyph-name="Rcaron.ss02" horiz-adv-x="378" 
d="M201 416h-38l-54 64h32l41 -43l42 43h31zM355 0h-40l-98 158h-9h-110v-158h-33v380h143c74 0 123 -44 123 -111c0 -53 -30 -91 -79 -105zM98 351v-164h107c57 0 92 31 92 82c0 50 -35 82 -92 82h-107z" />
    <glyph glyph-name="uni0156.ss02" horiz-adv-x="378" 
d="M252 164l103 -164h-40l-98 158h-9h-110v-158h-33v380h143c74 0 123 -44 123 -111c0 -53 -30 -91 -79 -105zM98 351v-164h107c57 0 92 31 92 82c0 50 -35 82 -92 82h-107zM193 -73v38h38v-44c0 -26 -12 -39 -33 -39h-5v22h8c6 0 10 5 10 13v10h-18z" />
    <glyph glyph-name="Y.ss02" horiz-adv-x="347" 
d="M341 380l-151 -224v-156h-33v154l-151 226h39l129 -193l129 193h38z" />
    <glyph glyph-name="Yacute.ss02" horiz-adv-x="347" 
d="M236 480l-45 -64h-26l32 64h39zM341 380l-151 -224v-156h-33v154l-151 226h39l129 -193l129 193h38z" />
    <glyph glyph-name="Ycircumflex.ss02" horiz-adv-x="347" 
d="M176 459l-42 -43h-31l53 64h39l54 -64h-32zM341 380l-151 -224v-156h-33v154l-151 226h39l129 -193l129 193h38z" />
    <glyph glyph-name="Ydieresis.ss02" horiz-adv-x="347" 
d="M150 471v-38h-39v38h39zM235 471v-38h-39v38h39zM341 380l-151 -224v-156h-33v154l-151 226h39l129 -193l129 193h38z" />
    <glyph glyph-name="Ygrave.ss02" horiz-adv-x="347" 
d="M181 416h-26l-45 64h39zM341 380l-151 -224v-156h-33v154l-151 226h39l129 -193l129 193h38z" />
    <glyph glyph-name="K.ss03" horiz-adv-x="383" 
d="M345 31h11v-31h-15c-31 0 -51 20 -51 57v123h-192v-180h-33v380h33v-170h106l110 170h34l-109 -170h84v-157c0 -13 9 -22 22 -22z" />
    <glyph glyph-name="uni0136.ss03" horiz-adv-x="383" 
d="M345 31h11v-31h-15c-31 0 -51 20 -51 57v123h-192v-180h-33v380h33v-170h106l110 170h34l-109 -170h84v-157c0 -13 9 -22 22 -22zM188 -73v38h38v-44c0 -26 -12 -39 -33 -39h-5v22h8c6 0 10 5 10 13v10h-18z" />
    <glyph glyph-name="R.ss03" horiz-adv-x="385" 
d="M346 31h11v-31h-15c-32 0 -51 21 -51 57v101h-192v-158h-34v380h151c72 0 118 -42 118 -106c0 -43 -22 -75 -58 -91h48v-130c0 -13 9 -22 22 -22zM216 351h-117v-164h100c59 0 101 36 101 87c0 48 -31 77 -84 77z" />
    <glyph glyph-name="Racute.ss03" horiz-adv-x="385" 
d="M245 480l-45 -64h-26l32 64h39zM346 31h11v-31h-15c-32 0 -51 21 -51 57v101h-192v-158h-34v380h151c72 0 118 -42 118 -106c0 -43 -22 -75 -58 -91h48v-130c0 -13 9 -22 22 -22zM216 351h-117v-164h100c59 0 101 36 101 87c0 48 -31 77 -84 77z" />
    <glyph glyph-name="Rcaron.ss03" horiz-adv-x="385" 
d="M201 416h-38l-54 64h32l41 -43l42 43h31zM346 31h11v-31h-15c-32 0 -51 21 -51 57v101h-192v-158h-34v380h151c72 0 118 -42 118 -106c0 -43 -22 -75 -58 -91h48v-130c0 -13 9 -22 22 -22zM216 351h-117v-164h100c59 0 101 36 101 87c0 48 -31 77 -84 77z" />
    <glyph glyph-name="uni0156.ss03" horiz-adv-x="385" 
d="M346 31h11v-31h-15c-32 0 -51 21 -51 57v101h-192v-158h-34v380h151c72 0 118 -42 118 -106c0 -43 -22 -75 -58 -91h48v-130c0 -13 9 -22 22 -22zM216 351h-117v-164h100c59 0 101 36 101 87c0 48 -31 77 -84 77zM193 -73v38h38v-44c0 -26 -12 -39 -33 -39h-5v22h8
c6 0 10 5 10 13v10h-18z" />
    <glyph glyph-name="Y.ss03" horiz-adv-x="363" 
d="M314 380h34l-111 -303c-20 -56 -50 -82 -93 -82c-49 0 -82 32 -82 81c0 31 15 58 41 75h46l-139 229h38l138 -229h45zM144 24c28 0 49 19 65 65l12 34h-105c-14 -8 -22 -26 -22 -47c0 -31 20 -52 50 -52z" />
    <glyph glyph-name="Yacute.ss03" horiz-adv-x="363" 
d="M236 480l-45 -64h-26l32 64h39zM314 380h34l-111 -303c-20 -56 -50 -82 -93 -82c-49 0 -82 32 -82 81c0 31 15 58 41 75h46l-139 229h38l138 -229h45zM144 24c28 0 49 19 65 65l12 34h-105c-14 -8 -22 -26 -22 -47c0 -31 20 -52 50 -52z" />
    <glyph glyph-name="Ycircumflex.ss03" horiz-adv-x="363" 
d="M176 459l-42 -43h-31l53 64h39l54 -64h-32zM314 380h34l-111 -303c-20 -56 -50 -82 -93 -82c-49 0 -82 32 -82 81c0 31 15 58 41 75h46l-139 229h38l138 -229h45zM144 24c28 0 49 19 65 65l12 34h-105c-14 -8 -22 -26 -22 -47c0 -31 20 -52 50 -52z" />
    <glyph glyph-name="Ydieresis.ss03" horiz-adv-x="363" 
d="M150 471v-38h-39v38h39zM235 471v-38h-39v38h39zM314 380h34l-111 -303c-20 -56 -50 -82 -93 -82c-49 0 -82 32 -82 81c0 31 15 58 41 75h46l-139 229h38l138 -229h45zM144 24c28 0 49 19 65 65l12 34h-105c-14 -8 -22 -26 -22 -47c0 -31 20 -52 50 -52z" />
    <glyph glyph-name="Ygrave.ss03" horiz-adv-x="363" 
d="M181 416h-26l-45 64h39zM314 380h34l-111 -303c-20 -56 -50 -82 -93 -82c-49 0 -82 32 -82 81c0 31 15 58 41 75h46l-139 229h38l138 -229h45zM144 24c28 0 49 19 65 65l12 34h-105c-14 -8 -22 -26 -22 -47c0 -31 20 -52 50 -52z" />
    <glyph glyph-name="K.ss04" horiz-adv-x="383" 
d="M345 31h11v-31h-15c-32 0 -51 21 -51 57v70c0 36 -15 53 -44 53h-148v-180h-33v380h33v-170h117l94 170h34l-95 -170c49 -1 75 -31 75 -83v-74c0 -13 9 -22 22 -22z" />
    <glyph glyph-name="uni0136.ss04" horiz-adv-x="383" 
d="M345 31h11v-31h-15c-32 0 -51 21 -51 57v70c0 36 -15 53 -44 53h-148v-180h-33v380h33v-170h117l94 170h34l-95 -170c49 -1 75 -31 75 -83v-74c0 -13 9 -22 22 -22zM188 -73v38h38v-44c0 -26 -12 -39 -33 -39h-5v22h8c6 0 10 5 10 13v10h-18z" />
    <glyph glyph-name="R.ss04" horiz-adv-x="385" 
d="M345 31h11v-31h-15c-31 0 -51 21 -51 57v50c0 36 -15 54 -43 54h-149v-161h-33v380h146c74 0 122 -43 122 -109c0 -41 -20 -72 -55 -89c29 -10 45 -36 45 -75v-54c0 -13 9 -22 22 -22zM210 351h-112v-161h112c56 0 89 34 89 81c0 50 -32 80 -89 80z" />
    <glyph glyph-name="Racute.ss04" horiz-adv-x="385" 
d="M245 480l-45 -64h-26l32 64h39zM345 31h11v-31h-15c-31 0 -51 21 -51 57v50c0 36 -15 54 -43 54h-149v-161h-33v380h146c74 0 122 -43 122 -109c0 -41 -20 -72 -55 -89c29 -10 45 -36 45 -75v-54c0 -13 9 -22 22 -22zM210 351h-112v-161h112c56 0 89 34 89 81
c0 50 -32 80 -89 80z" />
    <glyph glyph-name="Rcaron.ss04" horiz-adv-x="385" 
d="M201 416h-38l-54 64h32l41 -43l42 43h31zM345 31h11v-31h-15c-31 0 -51 21 -51 57v50c0 36 -15 54 -43 54h-149v-161h-33v380h146c74 0 122 -43 122 -109c0 -41 -20 -72 -55 -89c29 -10 45 -36 45 -75v-54c0 -13 9 -22 22 -22zM210 351h-112v-161h112c56 0 89 34 89 81
c0 50 -32 80 -89 80z" />
    <glyph glyph-name="uni0156.ss04" horiz-adv-x="385" 
d="M345 31h11v-31h-15c-31 0 -51 21 -51 57v50c0 36 -15 54 -43 54h-149v-161h-33v380h146c74 0 122 -43 122 -109c0 -41 -20 -72 -55 -89c29 -10 45 -36 45 -75v-54c0 -13 9 -22 22 -22zM210 351h-112v-161h112c56 0 89 34 89 81c0 50 -32 80 -89 80zM193 -73v38h38v-44
c0 -26 -12 -39 -33 -39h-5v22h8c6 0 10 5 10 13v10h-18z" />
    <glyph glyph-name="K.ss05" horiz-adv-x="383" 
d="M345 31h11v-31h-15c-32 0 -51 21 -51 57v70c0 36 -15 53 -44 53h-148v-180h-33v380h33v-170h117l94 170h34l-95 -170c49 -1 75 -31 75 -83v-74c0 -13 9 -22 22 -22z" />
    <glyph glyph-name="uni0136.ss05" horiz-adv-x="383" 
d="M345 31h11v-31h-15c-32 0 -51 21 -51 57v70c0 36 -15 53 -44 53h-148v-180h-33v380h33v-170h117l94 170h34l-95 -170c49 -1 75 -31 75 -83v-74c0 -13 9 -22 22 -22zM188 -73v38h38v-44c0 -26 -12 -39 -33 -39h-5v22h8c6 0 10 5 10 13v10h-18z" />
    <glyph glyph-name="R.ss05" horiz-adv-x="385" 
d="M345 31h11v-31h-15c-31 0 -51 21 -51 57v50c0 36 -15 54 -43 54h-149v-161h-33v380h146c74 0 122 -43 122 -109c0 -41 -20 -72 -55 -89c29 -10 45 -36 45 -75v-54c0 -13 9 -22 22 -22zM210 351h-112v-161h112c56 0 89 34 89 81c0 50 -32 80 -89 80z" />
    <glyph glyph-name="Racute.ss05" horiz-adv-x="385" 
d="M245 480l-45 -64h-26l32 64h39zM345 31h11v-31h-15c-31 0 -51 21 -51 57v50c0 36 -15 54 -43 54h-149v-161h-33v380h146c74 0 122 -43 122 -109c0 -41 -20 -72 -55 -89c29 -10 45 -36 45 -75v-54c0 -13 9 -22 22 -22zM210 351h-112v-161h112c56 0 89 34 89 81
c0 50 -32 80 -89 80z" />
    <glyph glyph-name="Rcaron.ss05" horiz-adv-x="385" 
d="M201 416h-38l-54 64h32l41 -43l42 43h31zM345 31h11v-31h-15c-31 0 -51 21 -51 57v50c0 36 -15 54 -43 54h-149v-161h-33v380h146c74 0 122 -43 122 -109c0 -41 -20 -72 -55 -89c29 -10 45 -36 45 -75v-54c0 -13 9 -22 22 -22zM210 351h-112v-161h112c56 0 89 34 89 81
c0 50 -32 80 -89 80z" />
    <glyph glyph-name="uni0156.ss05" horiz-adv-x="385" 
d="M345 31h11v-31h-15c-31 0 -51 21 -51 57v50c0 36 -15 54 -43 54h-149v-161h-33v380h146c74 0 122 -43 122 -109c0 -41 -20 -72 -55 -89c29 -10 45 -36 45 -75v-54c0 -13 9 -22 22 -22zM210 351h-112v-161h112c56 0 89 34 89 81c0 50 -32 80 -89 80zM193 -73v38h38v-44
c0 -26 -12 -39 -33 -39h-5v22h8c6 0 10 5 10 13v10h-18z" />
    <glyph glyph-name="a" unicode="a" horiz-adv-x="316" 
d="M283 27h11v-27c-1 -1 -9 -2 -12 -2c-34 0 -48 15 -49 52c-21 -32 -64 -55 -113 -55c-58 0 -95 32 -95 82c0 71 67 83 124 95c44 9 81 15 81 46c0 35 -31 59 -77 59c-40 0 -73 -17 -98 -50l-24 22c30 36 74 56 123 56c67 0 108 -36 108 -96v-159c0 -17 6 -23 21 -23z
M121 24c62 0 111 41 111 94v55c-19 -15 -49 -22 -80 -27c-47 -9 -94 -18 -94 -69c0 -33 23 -53 63 -53z" />
    <glyph glyph-name="aacute" unicode="&#xe1;" horiz-adv-x="316" 
d="M211 400l-45 -64h-26l32 64h39zM283 27h11v-27c-1 -1 -9 -2 -12 -2c-34 0 -48 15 -49 52c-21 -32 -64 -55 -113 -55c-58 0 -95 32 -95 82c0 71 67 83 124 95c44 9 81 15 81 46c0 35 -31 59 -77 59c-40 0 -73 -17 -98 -50l-24 22c30 36 74 56 123 56c67 0 108 -36 108 -96
v-159c0 -17 6 -23 21 -23zM121 24c62 0 111 41 111 94v55c-19 -15 -49 -22 -80 -27c-47 -9 -94 -18 -94 -69c0 -33 23 -53 63 -53z" />
    <glyph glyph-name="abreve" unicode="&#x103;" horiz-adv-x="316" 
d="M148 333c-43 0 -70 24 -77 66l28 4c4 -26 22 -43 49 -43s46 17 50 43l27 -4c-7 -42 -34 -66 -77 -66zM283 27h11v-27c-1 -1 -9 -2 -12 -2c-34 0 -48 15 -49 52c-21 -32 -64 -55 -113 -55c-58 0 -95 32 -95 82c0 71 67 83 124 95c44 9 81 15 81 46c0 35 -31 59 -77 59
c-40 0 -73 -17 -98 -50l-24 22c30 36 74 56 123 56c67 0 108 -36 108 -96v-159c0 -17 6 -23 21 -23zM121 24c62 0 111 41 111 94v55c-19 -15 -49 -22 -80 -27c-47 -9 -94 -18 -94 -69c0 -33 23 -53 63 -53z" />
    <glyph glyph-name="acircumflex" unicode="&#xe2;" horiz-adv-x="316" 
d="M151 379l-42 -43h-31l53 64h39l54 -64h-32zM283 27h11v-27c-1 -1 -9 -2 -12 -2c-34 0 -48 15 -49 52c-21 -32 -64 -55 -113 -55c-58 0 -95 32 -95 82c0 71 67 83 124 95c44 9 81 15 81 46c0 35 -31 59 -77 59c-40 0 -73 -17 -98 -50l-24 22c30 36 74 56 123 56
c67 0 108 -36 108 -96v-159c0 -17 6 -23 21 -23zM121 24c62 0 111 41 111 94v55c-19 -15 -49 -22 -80 -27c-47 -9 -94 -18 -94 -69c0 -33 23 -53 63 -53z" />
    <glyph glyph-name="adieresis" unicode="&#xe4;" horiz-adv-x="316" 
d="M125 391v-38h-39v38h39zM210 391v-38h-39v38h39zM283 27h11v-27c-1 -1 -9 -2 -12 -2c-34 0 -48 15 -49 52c-21 -32 -64 -55 -113 -55c-58 0 -95 32 -95 82c0 71 67 83 124 95c44 9 81 15 81 46c0 35 -31 59 -77 59c-40 0 -73 -17 -98 -50l-24 22c30 36 74 56 123 56
c67 0 108 -36 108 -96v-159c0 -17 6 -23 21 -23zM121 24c62 0 111 41 111 94v55c-19 -15 -49 -22 -80 -27c-47 -9 -94 -18 -94 -69c0 -33 23 -53 63 -53z" />
    <glyph glyph-name="agrave" unicode="&#xe0;" horiz-adv-x="316" 
d="M156 336h-26l-45 64h39zM283 27h11v-27c-1 -1 -9 -2 -12 -2c-34 0 -48 15 -49 52c-21 -32 -64 -55 -113 -55c-58 0 -95 32 -95 82c0 71 67 83 124 95c44 9 81 15 81 46c0 35 -31 59 -77 59c-40 0 -73 -17 -98 -50l-24 22c30 36 74 56 123 56c67 0 108 -36 108 -96v-159
c0 -17 6 -23 21 -23zM121 24c62 0 111 41 111 94v55c-19 -15 -49 -22 -80 -27c-47 -9 -94 -18 -94 -69c0 -33 23 -53 63 -53z" />
    <glyph glyph-name="amacron" unicode="&#x101;" horiz-adv-x="316" 
d="M224 385v-25h-152v25h152zM283 27h11v-27c-1 -1 -9 -2 -12 -2c-34 0 -48 15 -49 52c-21 -32 -64 -55 -113 -55c-58 0 -95 32 -95 82c0 71 67 83 124 95c44 9 81 15 81 46c0 35 -31 59 -77 59c-40 0 -73 -17 -98 -50l-24 22c30 36 74 56 123 56c67 0 108 -36 108 -96v-159
c0 -17 6 -23 21 -23zM121 24c62 0 111 41 111 94v55c-19 -15 -49 -22 -80 -27c-47 -9 -94 -18 -94 -69c0 -33 23 -53 63 -53z" />
    <glyph glyph-name="aogonek" unicode="&#x105;" horiz-adv-x="316" 
d="M289 -67l13 -22c-12 -7 -24 -11 -37 -11c-32 0 -53 21 -53 49c0 22 17 42 41 55c-13 7 -20 22 -20 46c-21 -32 -64 -55 -113 -55c-58 0 -95 32 -95 82c0 71 67 83 124 95c44 9 81 15 81 46c0 35 -31 59 -77 59c-40 0 -73 -17 -98 -50l-24 22c30 36 74 56 123 56
c67 0 108 -36 108 -96v-159c0 -17 6 -23 21 -23h11v-27s-1 -1 -2 -1c-27 -10 -52 -29 -52 -49c0 -15 10 -23 25 -23c7 0 16 2 24 6zM121 24c62 0 111 41 111 94v55c-19 -15 -49 -22 -80 -27c-47 -9 -94 -18 -94 -69c0 -33 23 -53 63 -53z" />
    <glyph glyph-name="aring" unicode="&#xe5;" horiz-adv-x="316" 
d="M148 333c-31 0 -55 24 -55 54c0 31 24 55 55 55s55 -24 55 -55c0 -30 -24 -54 -55 -54zM148 417c-17 0 -30 -13 -30 -30s13 -30 30 -30s30 13 30 30s-13 30 -30 30zM283 27h11v-27c-1 -1 -9 -2 -12 -2c-34 0 -48 15 -49 52c-21 -32 -64 -55 -113 -55c-58 0 -95 32 -95 82
c0 71 67 83 124 95c44 9 81 15 81 46c0 35 -31 59 -77 59c-40 0 -73 -17 -98 -50l-24 22c30 36 74 56 123 56c67 0 108 -36 108 -96v-159c0 -17 6 -23 21 -23zM121 24c62 0 111 41 111 94v55c-19 -15 -49 -22 -80 -27c-47 -9 -94 -18 -94 -69c0 -33 23 -53 63 -53z" />
    <glyph glyph-name="atilde" unicode="&#xe3;" horiz-adv-x="316" 
d="M118 373c-10 0 -19 -8 -28 -27l-21 11c12 27 28 40 49 40c26 0 43 -25 62 -25c10 0 19 8 28 27l21 -11c-12 -27 -28 -40 -49 -40c-26 0 -43 25 -62 25zM283 27h11v-27c-1 -1 -9 -2 -12 -2c-34 0 -48 15 -49 52c-21 -32 -64 -55 -113 -55c-58 0 -95 32 -95 82
c0 71 67 83 124 95c44 9 81 15 81 46c0 35 -31 59 -77 59c-40 0 -73 -17 -98 -50l-24 22c30 36 74 56 123 56c67 0 108 -36 108 -96v-159c0 -17 6 -23 21 -23zM121 24c62 0 111 41 111 94v55c-19 -15 -49 -22 -80 -27c-47 -9 -94 -18 -94 -69c0 -33 23 -53 63 -53z" />
    <glyph glyph-name="ae" unicode="&#xe6;" horiz-adv-x="516" 
d="M261 138c4 -71 46 -114 109 -114c37 0 70 18 89 46l22 -21c-19 -27 -57 -54 -111 -54c-59 0 -101 31 -122 80c-20 -49 -71 -80 -127 -80c-59 0 -96 32 -96 82c0 70 66 85 124 95c45 9 82 15 82 46c0 34 -32 59 -78 59c-40 0 -73 -17 -98 -50l-24 22c30 36 74 56 123 56
c54 0 90 -25 100 -69c23 43 62 69 109 69c76 0 125 -61 125 -155v-12h-227zM363 277c-56 0 -96 -44 -101 -112h196c-5 69 -41 112 -95 112zM122 24c61 0 110 41 110 94v55c-19 -15 -49 -22 -80 -27c-48 -9 -94 -18 -94 -69c0 -33 24 -53 64 -53z" />
    <glyph glyph-name="b" unicode="b" horiz-adv-x="361" 
d="M194 305c81 0 137 -64 137 -155s-56 -155 -137 -155c-47 0 -85 21 -108 57l-4 -52h-27v400h32v-152c24 36 62 57 107 57zM191 23c64 0 107 51 107 127s-43 127 -107 127c-65 0 -107 -51 -107 -127s42 -127 107 -127z" />
    <glyph glyph-name="c" unicode="c" horiz-adv-x="326" 
d="M174 -5c-85 0 -144 64 -144 155c0 90 60 155 144 155c65 0 112 -35 129 -91l-30 -10c-14 43 -50 73 -99 73c-65 0 -111 -52 -111 -127s46 -127 111 -127c48 0 86 30 100 73l29 -10c-17 -56 -65 -91 -129 -91z" />
    <glyph glyph-name="cacute" unicode="&#x107;" horiz-adv-x="326" 
d="M163 336l32 64h39l-45 -64h-26zM174 -5c-85 0 -144 64 -144 155c0 90 60 155 144 155c65 0 112 -35 129 -91l-30 -10c-14 43 -50 73 -99 73c-65 0 -111 -52 -111 -127s46 -127 111 -127c48 0 86 30 100 73l29 -10c-17 -56 -65 -91 -129 -91z" />
    <glyph glyph-name="ccaron" unicode="&#x10d;" horiz-adv-x="326" 
d="M190 336h-38l-54 64h32l41 -43l42 43h31zM174 23c48 0 86 30 100 73l29 -10c-17 -56 -65 -91 -129 -91c-85 0 -144 64 -144 155c0 90 60 155 144 155c65 0 112 -35 129 -91l-30 -10c-14 43 -50 73 -99 73c-65 0 -111 -52 -111 -127s46 -127 111 -127z" />
    <glyph glyph-name="ccedilla" unicode="&#xe7;" horiz-adv-x="326" 
d="M174 23c48 0 86 30 100 73l29 -10c-16 -52 -59 -86 -117 -91l-12 -21c5 1 10 1 15 1c28 0 48 -17 48 -41c0 -25 -28 -44 -65 -44c-23 0 -46 7 -62 18l16 24c17 -11 32 -16 48 -16c20 0 31 7 31 20c0 11 -10 17 -30 17c-9 0 -14 -2 -20 -5l-18 12l20 36
c-76 8 -127 69 -127 154c0 90 60 155 144 155c65 0 112 -35 129 -91l-30 -10c-14 43 -50 73 -99 73c-65 0 -111 -52 -111 -127s46 -127 111 -127z" />
    <glyph glyph-name="cdotaccent" unicode="&#x10b;" horiz-adv-x="326" 
d="M152 353v38h38v-38h-38zM174 -5c-85 0 -144 64 -144 155c0 90 60 155 144 155c65 0 112 -35 129 -91l-30 -10c-14 43 -50 73 -99 73c-65 0 -111 -52 -111 -127s46 -127 111 -127c48 0 86 30 100 73l29 -10c-17 -56 -65 -91 -129 -91z" />
    <glyph glyph-name="d" unicode="d" horiz-adv-x="361" 
d="M274 400h32v-400h-27l-4 54c-24 -37 -62 -59 -108 -59c-81 0 -137 64 -137 155s56 155 137 155c46 0 83 -21 107 -55v150zM170 23c65 0 107 51 107 127s-42 127 -107 127c-64 0 -107 -51 -107 -127s43 -127 107 -127z" />
    <glyph glyph-name="eth" unicode="&#xf0;" horiz-adv-x="342" 
d="M218 356c51 -45 85 -112 85 -200c0 -99 -56 -161 -137 -161s-136 61 -136 149s57 147 136 147c32 0 66 -13 89 -39c-13 35 -35 65 -64 89l-69 -38l-13 21l60 33c-15 10 -33 18 -52 25l13 25c24 -8 47 -20 68 -35l59 32l13 -20zM166 23c62 0 103 48 103 121
s-40 121 -103 121c-62 0 -103 -50 -103 -121c0 -73 41 -121 103 -121z" />
    <glyph glyph-name="dcaron" unicode="&#x10f;" horiz-adv-x="361" 
d="M274 250v150h32v-400h-27l-4 54c-24 -37 -62 -59 -108 -59c-81 0 -137 64 -137 155s56 155 137 155c46 0 83 -21 107 -55zM346 400h33l-9 -73h-24v73zM170 23c65 0 107 51 107 127s-42 127 -107 127c-64 0 -107 -51 -107 -127s43 -127 107 -127z" />
    <glyph glyph-name="dcroat" unicode="&#x111;" horiz-adv-x="361" 
d="M362 358v-27h-56v-331h-27l-4 54c-24 -37 -62 -59 -108 -59c-81 0 -137 64 -137 155s56 155 137 155c46 0 83 -21 107 -55v81h-72v27h72v42h32v-42h56zM170 23c65 0 107 51 107 127s-42 127 -107 127c-64 0 -107 -51 -107 -127s43 -127 107 -127z" />
    <glyph glyph-name="e" unicode="e" horiz-adv-x="340" 
d="M63 138c5 -71 49 -114 119 -114c41 0 79 18 100 46l22 -20c-22 -27 -67 -55 -122 -55c-97 0 -152 66 -152 155c0 91 62 155 144 155c84 0 138 -61 138 -155v-12h-249zM174 277c-62 0 -105 -44 -110 -112h216c-5 69 -45 112 -106 112z" />
    <glyph glyph-name="eacute" unicode="&#xe9;" horiz-adv-x="340" 
d="M233 400l-45 -64h-26l32 64h39zM63 138c5 -71 49 -114 119 -114c41 0 79 18 100 46l22 -20c-22 -27 -67 -55 -122 -55c-97 0 -152 66 -152 155c0 91 62 155 144 155c84 0 138 -61 138 -155v-12h-249zM174 277c-62 0 -105 -44 -110 -112h216c-5 69 -45 112 -106 112z" />
    <glyph glyph-name="ecaron" unicode="&#x11b;" horiz-adv-x="340" 
d="M189 336h-38l-54 64h32l41 -43l42 43h31zM63 138c5 -71 49 -114 119 -114c41 0 79 18 100 46l22 -20c-22 -27 -67 -55 -122 -55c-97 0 -152 66 -152 155c0 91 62 155 144 155c84 0 138 -61 138 -155v-12h-249zM174 277c-62 0 -105 -44 -110 -112h216
c-5 69 -45 112 -106 112z" />
    <glyph glyph-name="ecircumflex" unicode="&#xea;" horiz-adv-x="340" 
d="M173 379l-42 -43h-31l53 64h39l54 -64h-32zM63 138c5 -71 49 -114 119 -114c41 0 79 18 100 46l22 -20c-22 -27 -67 -55 -122 -55c-97 0 -152 66 -152 155c0 91 62 155 144 155c84 0 138 -61 138 -155v-12h-249zM174 277c-62 0 -105 -44 -110 -112h216
c-5 69 -45 112 -106 112z" />
    <glyph glyph-name="edieresis" unicode="&#xeb;" horiz-adv-x="340" 
d="M147 391v-38h-39v38h39zM232 391v-38h-39v38h39zM63 138c5 -71 49 -114 119 -114c41 0 79 18 100 46l22 -20c-22 -27 -67 -55 -122 -55c-97 0 -152 66 -152 155c0 91 62 155 144 155c84 0 138 -61 138 -155v-12h-249zM174 277c-62 0 -105 -44 -110 -112h216
c-5 69 -45 112 -106 112z" />
    <glyph glyph-name="edotaccent" unicode="&#x117;" horiz-adv-x="340" 
d="M189 391v-38h-38v38h38zM63 138c5 -71 49 -114 119 -114c41 0 79 18 100 46l22 -20c-22 -27 -67 -55 -122 -55c-97 0 -152 66 -152 155c0 91 62 155 144 155c84 0 138 -61 138 -155v-12h-249zM174 277c-62 0 -105 -44 -110 -112h216c-5 69 -45 112 -106 112z" />
    <glyph glyph-name="egrave" unicode="&#xe8;" horiz-adv-x="340" 
d="M178 336h-26l-45 64h39zM63 138c5 -71 49 -114 119 -114c41 0 79 18 100 46l22 -20c-22 -27 -67 -55 -122 -55c-97 0 -152 66 -152 155c0 91 62 155 144 155c84 0 138 -61 138 -155v-12h-249zM174 277c-62 0 -105 -44 -110 -112h216c-5 69 -45 112 -106 112z" />
    <glyph glyph-name="emacron" unicode="&#x113;" horiz-adv-x="340" 
d="M246 385v-25h-152v25h152zM63 138c5 -71 49 -114 119 -114c41 0 79 18 100 46l22 -20c-22 -27 -67 -55 -122 -55c-97 0 -152 66 -152 155c0 91 62 155 144 155c84 0 138 -61 138 -155v-12h-249zM174 277c-62 0 -105 -44 -110 -112h216c-5 69 -45 112 -106 112z" />
    <glyph glyph-name="eogonek" unicode="&#x119;" horiz-adv-x="343" 
d="M63 138c5 -71 49 -114 119 -114c41 0 79 18 100 46l22 -20c-10 -12 -25 -25 -44 -35c-37 -24 -57 -45 -57 -65c0 -14 10 -23 25 -23c8 0 16 2 24 7l13 -23c-12 -7 -24 -11 -37 -11c-32 0 -52 21 -52 49c0 18 11 35 29 48c-8 -1 -15 -2 -23 -2c-97 0 -152 66 -152 155
c0 91 62 155 144 155c84 0 138 -61 138 -155v-12h-249zM174 277c-62 0 -105 -44 -110 -112h216c-5 69 -45 112 -106 112z" />
    <glyph glyph-name="f" unicode="f" horiz-adv-x="216" 
d="M163 372c-32 0 -50 -16 -50 -47v-25h96v-29h-96v-271h-32v271h-64v29h64v25c0 46 32 76 82 76c27 0 51 -7 73 -23l-17 -26c-19 14 -35 20 -56 20z" />
    <glyph glyph-name="g" unicode="g" horiz-adv-x="361" 
d="M279 300h27v-273c0 -79 -53 -132 -134 -132c-49 0 -90 18 -117 50l22 20c23 -28 53 -41 95 -41c66 0 103 38 103 103v34c-24 -35 -62 -56 -108 -56c-81 0 -137 62 -137 150s56 150 137 150c47 0 85 -21 109 -56zM170 33c65 0 107 49 107 122c0 74 -42 122 -107 122
c-64 0 -107 -49 -107 -122c0 -72 43 -122 107 -122z" />
    <glyph glyph-name="gbreve" unicode="&#x11f;" horiz-adv-x="361" 
d="M171 333c-43 0 -70 24 -77 66l28 4c4 -26 22 -43 49 -43s46 17 50 43l27 -4c-7 -42 -34 -66 -77 -66zM279 300h27v-273c0 -79 -53 -132 -134 -132c-49 0 -90 18 -117 50l22 20c23 -28 53 -41 95 -41c66 0 103 38 103 103v34c-24 -35 -62 -56 -108 -56
c-81 0 -137 62 -137 150s56 150 137 150c47 0 85 -21 109 -56zM170 33c65 0 107 49 107 122c0 74 -42 122 -107 122c-64 0 -107 -49 -107 -122c0 -72 43 -122 107 -122z" />
    <glyph glyph-name="uni0123" unicode="&#x123;" horiz-adv-x="361" 
d="M190 374v-39h-38v45c0 26 12 39 33 39h5v-22h-8c-6 0 -10 -5 -10 -13v-10h18zM279 300h27v-273c0 -79 -53 -132 -134 -132c-49 0 -90 18 -117 50l22 20c23 -28 53 -41 95 -41c66 0 103 38 103 103v34c-24 -35 -62 -56 -108 -56c-81 0 -137 62 -137 150s56 150 137 150
c47 0 85 -21 109 -56zM170 33c65 0 107 49 107 122c0 74 -42 122 -107 122c-64 0 -107 -49 -107 -122c0 -72 43 -122 107 -122z" />
    <glyph glyph-name="gdotaccent" unicode="&#x121;" horiz-adv-x="361" 
d="M190 391v-38h-38v38h38zM279 300h27v-273c0 -79 -53 -132 -134 -132c-49 0 -90 18 -117 50l22 20c23 -28 53 -41 95 -41c66 0 103 38 103 103v34c-24 -35 -62 -56 -108 -56c-81 0 -137 62 -137 150s56 150 137 150c47 0 85 -21 109 -56zM170 33c65 0 107 49 107 122
c0 74 -42 122 -107 122c-64 0 -107 -49 -107 -122c0 -72 43 -122 107 -122z" />
    <glyph glyph-name="h" unicode="h" 
d="M195 305c68 0 115 -44 115 -124v-181h-32v174c0 68 -36 103 -90 103c-56 0 -101 -46 -101 -101v-176h-32v400h32v-151c22 34 61 56 108 56z" />
    <glyph glyph-name="hbar" unicode="&#x127;" 
d="M195 305c68 0 115 -44 115 -124v-181h-32v174c0 68 -36 103 -90 103c-56 0 -101 -46 -101 -101v-176h-32v331h-43v27h43v42h32v-42h85v-27h-85v-82c22 34 61 56 108 56z" />
    <glyph glyph-name="i" unicode="i" horiz-adv-x="151" 
d="M56 353v38h38v-38h-38zM60 0v300h32v-300h-32z" />
    <glyph glyph-name="dotlessi" unicode="&#x131;" horiz-adv-x="151" 
d="M60 0v300h32v-300h-32z" />
    <glyph glyph-name="iacute" unicode="&#xed;" horiz-adv-x="151" 
d="M67 336l32 64h39l-45 -64h-26zM60 0v300h32v-300h-32z" />
    <glyph glyph-name="icircumflex" unicode="&#xee;" horiz-adv-x="151" 
d="M97 400l54 -64h-32l-41 43l-42 -43h-31l53 64h39zM60 0v300h32v-300h-32z" />
    <glyph glyph-name="idieresis" unicode="&#xef;" horiz-adv-x="151" 
d="M13 353v38h39v-38h-39zM98 353v38h39v-38h-39zM60 0v300h32v-300h-32z" />
    <glyph glyph-name="i.loclTRK" horiz-adv-x="151" 
d="M56 353v38h38v-38h-38zM60 0v300h32v-300h-32z" />
    <glyph glyph-name="igrave" unicode="&#xec;" horiz-adv-x="151" 
d="M83 336h-26l-45 64h39zM60 0v300h32v-300h-32z" />
    <glyph glyph-name="imacron" unicode="&#x12b;" horiz-adv-x="151" 
d="M-1 360v25h152v-25h-152zM60 0v300h32v-300h-32z" />
    <glyph glyph-name="iogonek" unicode="&#x12f;" horiz-adv-x="151" 
d="M94 391v-38h-38v38h38zM86 -67l13 -22c-12 -7 -24 -11 -37 -11c-32 0 -53 21 -53 49c0 25 22 47 51 59v292h32v-300h-1c-28 -10 -54 -29 -54 -50c0 -15 10 -23 25 -23c7 0 16 2 24 6z" />
    <glyph glyph-name="j" unicode="j" horiz-adv-x="147" 
d="M56 353v38h38v-38h-38zM25 -102c-7 0 -19 1 -25 2v28c8 -1 16 -2 24 -2c26 0 36 12 36 42v332h32v-333c0 -45 -24 -69 -67 -69z" />
    <glyph glyph-name="uni0237" unicode="&#x237;" horiz-adv-x="147" 
d="M25 -102c-7 0 -19 1 -25 2v28c8 -1 16 -2 24 -2c26 0 36 12 36 42v332h32v-333c0 -45 -24 -69 -67 -69z" />
    <glyph glyph-name="k" unicode="k" horiz-adv-x="308" 
d="M263 0l-126 155l-50 -46v-109h-32v400h32v-255l168 155h41l-136 -125l144 -175h-41z" />
    <glyph glyph-name="uni0137" unicode="&#x137;" horiz-adv-x="308" 
d="M160 175l144 -175h-41l-126 155l-50 -46v-109h-32v400h32v-255l168 155h41zM142 -73v38h38v-44c0 -26 -12 -39 -33 -39h-5v22h8c6 0 10 5 10 13v10h-18z" />
    <glyph glyph-name="kgreenlandic" unicode="&#x138;" horiz-adv-x="308" 
d="M263 0l-126 155l-50 -46v-109h-32v300h32v-155l168 155h41l-136 -125l144 -175h-41z" />
    <glyph glyph-name="l" unicode="l" horiz-adv-x="141" 
d="M55 0v400h32v-400h-32z" />
    <glyph glyph-name="lacute" unicode="&#x13a;" horiz-adv-x="141" 
d="M62 436l32 64h39l-45 -64h-26zM55 0v400h32v-400h-32z" />
    <glyph glyph-name="lcaron" unicode="&#x13e;" horiz-adv-x="141" 
d="M55 0v400h32v-400h-32zM127 327v73h33l-9 -73h-24z" />
    <glyph glyph-name="uni013C" unicode="&#x13c;" horiz-adv-x="141" 
d="M87 400v-400h-32v400h32zM51 -35h38v-44c0 -26 -12 -39 -33 -39h-5v22h8c6 0 10 5 10 13v10h-18v38z" />
    <glyph glyph-name="lslash" unicode="&#x142;" horiz-adv-x="160" 
d="M145 232v-29l-53 -16v-187h-32v177l-45 -14v29l45 14v194h32v-184z" />
    <glyph glyph-name="m" unicode="m" horiz-adv-x="560" 
d="M401 305c64 0 109 -44 109 -124v-181h-32v174c0 68 -33 103 -83 103c-53 0 -97 -46 -97 -101v-176h-32v174c0 68 -33 103 -83 103c-53 0 -96 -46 -96 -101v-176h-32v300h27l4 -52c21 34 59 57 105 57c47 0 82 -23 98 -67c20 40 63 67 112 67z" />
    <glyph glyph-name="n" unicode="n" 
d="M196 305c67 0 114 -44 114 -124v-181h-32v174c0 68 -36 103 -90 103c-56 0 -101 -46 -101 -101v-176h-32v300h27l4 -53c21 35 62 58 110 58z" />
    <glyph glyph-name="nacute" unicode="&#x144;" 
d="M244 400l-45 -64h-26l32 64h39zM196 305c67 0 114 -44 114 -124v-181h-32v174c0 68 -36 103 -90 103c-56 0 -101 -46 -101 -101v-176h-32v300h27l4 -53c21 35 62 58 110 58z" />
    <glyph glyph-name="ncaron" unicode="&#x148;" 
d="M200 336h-38l-54 64h32l41 -43l42 43h31zM196 305c67 0 114 -44 114 -124v-181h-32v174c0 68 -36 103 -90 103c-56 0 -101 -46 -101 -101v-176h-32v300h27l4 -53c21 35 62 58 110 58z" />
    <glyph glyph-name="uni0146" unicode="&#x146;" 
d="M196 305c67 0 114 -44 114 -124v-181h-32v174c0 68 -36 103 -90 103c-56 0 -101 -46 -101 -101v-176h-32v300h27l4 -53c21 35 62 58 110 58zM162 -73v38h38v-44c0 -26 -12 -39 -33 -39h-5v22h8c6 0 10 5 10 13v10h-18z" />
    <glyph glyph-name="eng" unicode="&#x14b;" horiz-adv-x="358" 
d="M197 305c66 0 111 -46 111 -115v-225c0 -52 -29 -67 -66 -67c-6 0 -18 1 -24 2v31h22c23 0 35 9 35 38v208c0 62 -30 96 -82 96c-58 0 -104 -40 -104 -99v-174h-34v300h26l4 -53c22 35 63 58 112 58z" />
    <glyph glyph-name="ntilde" unicode="&#xf1;" 
d="M151 373c-10 0 -19 -8 -28 -27l-21 11c12 27 28 40 49 40c26 0 43 -25 62 -25c10 0 19 8 28 27l21 -11c-12 -27 -28 -40 -49 -40c-26 0 -43 25 -62 25zM196 305c67 0 114 -44 114 -124v-181h-32v174c0 68 -36 103 -90 103c-56 0 -101 -46 -101 -101v-176h-32v300h27
l4 -53c21 35 62 58 110 58z" />
    <glyph glyph-name="o" unicode="o" horiz-adv-x="350" 
d="M175 -5c-87 0 -145 62 -145 155c0 91 59 155 145 155c87 0 145 -62 145 -155c0 -91 -59 -155 -145 -155zM175 23c67 0 112 51 112 127c0 77 -44 127 -112 127c-67 0 -112 -51 -112 -127c0 -77 45 -127 112 -127z" />
    <glyph glyph-name="oacute" unicode="&#xf3;" horiz-adv-x="350" 
d="M167 336l32 64h39l-45 -64h-26zM175 -5c-87 0 -145 62 -145 155c0 91 59 155 145 155c87 0 145 -62 145 -155c0 -91 -59 -155 -145 -155zM175 23c67 0 112 51 112 127c0 77 -44 127 -112 127c-67 0 -112 -51 -112 -127c0 -77 45 -127 112 -127z" />
    <glyph glyph-name="ocircumflex" unicode="&#xf4;" horiz-adv-x="350" 
d="M178 379l-42 -43h-31l53 64h39l54 -64h-32zM175 305c87 0 145 -62 145 -155c0 -91 -59 -155 -145 -155c-87 0 -145 62 -145 155c0 91 59 155 145 155zM175 23c67 0 112 51 112 127c0 77 -44 127 -112 127c-67 0 -112 -51 -112 -127c0 -77 45 -127 112 -127z" />
    <glyph glyph-name="odieresis" unicode="&#xf6;" horiz-adv-x="350" 
d="M113 353v38h39v-38h-39zM198 353v38h39v-38h-39zM175 -5c-87 0 -145 62 -145 155c0 91 59 155 145 155c87 0 145 -62 145 -155c0 -91 -59 -155 -145 -155zM175 23c67 0 112 51 112 127c0 77 -44 127 -112 127c-67 0 -112 -51 -112 -127c0 -77 45 -127 112 -127z" />
    <glyph glyph-name="ograve" unicode="&#xf2;" horiz-adv-x="350" 
d="M183 336h-26l-45 64h39zM175 -5c-87 0 -145 62 -145 155c0 91 59 155 145 155c87 0 145 -62 145 -155c0 -91 -59 -155 -145 -155zM175 23c67 0 112 51 112 127c0 77 -44 127 -112 127c-67 0 -112 -51 -112 -127c0 -77 45 -127 112 -127z" />
    <glyph glyph-name="ohungarumlaut" unicode="&#x151;" horiz-adv-x="350" 
d="M121 336l33 64h39l-45 -64h-27zM201 336l33 64h38l-44 -64h-27zM175 -5c-87 0 -145 62 -145 155c0 91 59 155 145 155c87 0 145 -62 145 -155c0 -91 -59 -155 -145 -155zM175 23c67 0 112 51 112 127c0 77 -44 127 -112 127c-67 0 -112 -51 -112 -127
c0 -77 45 -127 112 -127z" />
    <glyph glyph-name="omacron" unicode="&#x14d;" horiz-adv-x="350" 
d="M99 360v25h152v-25h-152zM175 -5c-87 0 -145 62 -145 155c0 91 59 155 145 155c87 0 145 -62 145 -155c0 -91 -59 -155 -145 -155zM175 23c67 0 112 51 112 127c0 77 -44 127 -112 127c-67 0 -112 -51 -112 -127c0 -77 45 -127 112 -127z" />
    <glyph glyph-name="oslash" unicode="&#xf8;" horiz-adv-x="350" 
d="M321 305l-38 -46c24 -27 37 -64 37 -109c0 -91 -59 -155 -145 -155c-35 0 -65 10 -88 27l-23 -27h-35l38 46c-24 27 -37 64 -37 109c0 91 59 155 145 155c35 0 65 -10 88 -27l23 27h35zM63 150c0 -34 9 -63 24 -84l157 188c-18 15 -42 23 -69 23
c-67 0 -112 -51 -112 -127zM287 150c0 34 -9 63 -24 85l-157 -189c19 -15 42 -23 69 -23c67 0 112 51 112 127z" />
    <glyph glyph-name="otilde" unicode="&#xf5;" horiz-adv-x="350" 
d="M256 388c-12 -27 -28 -40 -49 -40c-26 0 -43 25 -62 25c-10 0 -19 -8 -28 -27l-21 11c12 27 28 40 49 40c26 0 43 -25 62 -25c10 0 19 8 28 27zM175 -5c-87 0 -145 62 -145 155c0 91 59 155 145 155c87 0 145 -62 145 -155c0 -91 -59 -155 -145 -155zM175 23
c67 0 112 51 112 127c0 77 -44 127 -112 127c-67 0 -112 -51 -112 -127c0 -77 45 -127 112 -127z" />
    <glyph glyph-name="oe" unicode="&#x153;" horiz-adv-x="562" 
d="M307 138c4 -71 45 -114 108 -114c38 0 71 18 90 46l22 -21c-19 -27 -57 -54 -111 -54c-61 0 -104 31 -124 79c-22 -49 -67 -79 -123 -79c-84 0 -139 62 -139 155c0 91 56 155 139 155c58 0 102 -30 123 -79c22 49 65 79 117 79c76 0 125 -61 125 -155v-12h-227zM170 23
c64 0 107 51 107 127c0 77 -42 127 -107 127c-64 0 -107 -51 -107 -127c0 -77 43 -127 107 -127zM409 277c-56 0 -96 -44 -101 -112h196c-5 69 -41 112 -95 112z" />
    <glyph glyph-name="p" unicode="p" horiz-adv-x="361" 
d="M194 305c81 0 137 -64 137 -155s-56 -155 -137 -155c-46 0 -83 21 -107 55v-150h-32v400h27l4 -54c24 37 62 59 108 59zM191 23c64 0 107 51 107 127s-43 127 -107 127c-65 0 -107 -51 -107 -127s42 -127 107 -127z" />
    <glyph glyph-name="thorn" unicode="&#xfe;" horiz-adv-x="361" 
d="M194 305c81 0 137 -64 137 -155s-56 -155 -137 -155c-46 0 -83 21 -107 55v-150h-32v500h32v-152c24 36 62 57 107 57zM191 23c64 0 107 51 107 127s-43 127 -107 127c-65 0 -107 -51 -107 -127s42 -127 107 -127z" />
    <glyph glyph-name="q" unicode="q" horiz-adv-x="361" 
d="M279 300h27v-400h-32v152c-24 -36 -62 -57 -107 -57c-81 0 -137 64 -137 155s56 155 137 155c47 0 85 -21 108 -57zM170 23c65 0 107 51 107 127s-42 127 -107 127c-64 0 -107 -51 -107 -127s43 -127 107 -127z" />
    <glyph glyph-name="r" unicode="r" horiz-adv-x="226" 
d="M197 305c6 0 12 0 19 -1v-31c-9 1 -21 1 -27 1c-60 0 -102 -41 -102 -101v-173h-32v300h27l4 -53c21 36 62 58 111 58z" />
    <glyph glyph-name="racute" unicode="&#x155;" horiz-adv-x="226" 
d="M197 400l-45 -64h-26l32 64h39zM197 305c6 0 12 0 19 -1v-31c-9 1 -21 1 -27 1c-60 0 -102 -41 -102 -101v-173h-32v300h27l4 -53c21 36 62 58 111 58z" />
    <glyph glyph-name="rcaron" unicode="&#x159;" horiz-adv-x="226" 
d="M153 336h-38l-54 64h32l41 -43l42 43h31zM197 305c6 0 12 0 19 -1v-31c-9 1 -21 1 -27 1c-60 0 -102 -41 -102 -101v-173h-32v300h27l4 -53c21 36 62 58 111 58z" />
    <glyph glyph-name="uni0157" unicode="&#x157;" horiz-adv-x="226" 
d="M197 305c6 0 12 0 19 -1v-31c-9 1 -21 1 -27 1c-60 0 -102 -41 -102 -101v-173h-32v300h27l4 -53c21 36 62 58 111 58zM56 -73v38h38v-44c0 -26 -12 -39 -33 -39h-5v22h8c6 0 10 5 10 13v10h-18z" />
    <glyph glyph-name="s" unicode="s" horiz-adv-x="268" 
d="M135 -5c-45 0 -89 19 -118 49l22 22c24 -27 58 -42 96 -42c50 0 82 21 82 52c0 28 -21 45 -84 63c-77 23 -101 46 -101 88c0 45 45 78 105 78c38 0 75 -13 103 -38l-21 -25c-23 23 -54 34 -83 34c-43 0 -73 -20 -73 -48c0 -27 15 -39 81 -59c76 -23 104 -47 104 -88
c0 -51 -46 -86 -113 -86z" />
    <glyph glyph-name="sacute" unicode="&#x15b;" horiz-adv-x="268" 
d="M124 336l32 64h39l-45 -64h-26zM135 -5c-45 0 -89 19 -118 49l22 22c24 -27 58 -42 96 -42c50 0 82 21 82 52c0 28 -21 45 -84 63c-77 23 -101 46 -101 88c0 45 45 78 105 78c38 0 75 -13 103 -38l-21 -25c-23 23 -54 34 -83 34c-43 0 -73 -20 -73 -48
c0 -27 15 -39 81 -59c76 -23 104 -47 104 -88c0 -51 -46 -86 -113 -86z" />
    <glyph glyph-name="scaron" unicode="&#x161;" horiz-adv-x="268" 
d="M151 336h-38l-54 64h32l41 -43l42 43h31zM144 169c76 -23 104 -47 104 -88c0 -51 -46 -86 -113 -86c-45 0 -89 19 -118 49l22 22c24 -27 58 -42 96 -42c50 0 82 21 82 52c0 28 -21 45 -84 63c-77 23 -101 46 -101 88c0 45 45 78 105 78c38 0 75 -13 103 -38l-21 -25
c-23 23 -54 34 -83 34c-43 0 -73 -20 -73 -48c0 -27 15 -39 81 -59z" />
    <glyph glyph-name="scedilla" unicode="&#x15f;" horiz-adv-x="268" 
d="M248 81c0 -47 -40 -81 -100 -86l-12 -21c5 1 10 1 15 1c28 0 48 -17 48 -41c0 -25 -28 -44 -65 -44c-23 0 -46 7 -62 18l16 24c17 -11 32 -16 48 -16c20 0 31 7 31 20c0 11 -10 17 -30 17c-9 0 -14 -2 -20 -5l-18 12l20 36c-39 4 -77 22 -102 48l22 22
c24 -27 58 -42 96 -42c50 0 82 21 82 52c0 28 -21 45 -84 63c-77 23 -101 46 -101 88c0 45 45 78 105 78c38 0 75 -13 103 -38l-21 -25c-23 23 -54 34 -83 34c-43 0 -73 -20 -73 -48c0 -27 15 -39 81 -59c76 -23 104 -47 104 -88z" />
    <glyph glyph-name="uni0219" unicode="&#x219;" horiz-adv-x="268" 
d="M144 169c76 -23 104 -47 104 -88c0 -51 -46 -86 -113 -86c-45 0 -89 19 -118 49l22 22c24 -27 58 -42 96 -42c50 0 82 21 82 52c0 28 -21 45 -84 63c-77 23 -101 46 -101 88c0 45 45 78 105 78c38 0 75 -13 103 -38l-21 -25c-23 23 -54 34 -83 34c-43 0 -73 -20 -73 -48
c0 -27 15 -39 81 -59zM113 -73v38h38v-44c0 -26 -12 -39 -33 -39h-5v22h8c6 0 10 5 10 13v10h-18z" />
    <glyph glyph-name="germandbls" unicode="&#xdf;" 
d="M244 -5c-45 0 -81 14 -109 43l19 23c24 -25 54 -37 90 -37c42 0 70 17 70 44c0 24 -19 36 -74 51c-66 18 -91 37 -91 71c0 33 21 54 70 72c42 15 54 26 54 52c0 36 -36 61 -90 61c-62 0 -96 -31 -96 -88v-287h-32v287c0 73 48 117 128 117c73 0 121 -36 121 -90
c0 -38 -23 -61 -74 -78c-37 -13 -51 -25 -51 -44c0 -18 14 -27 69 -43c72 -21 97 -43 97 -81c0 -43 -42 -73 -101 -73z" />
    <glyph glyph-name="t" unicode="t" horiz-adv-x="238" 
d="M209 271h-101v-198c0 -34 14 -49 48 -49c17 0 32 2 53 8v-30c-20 -5 -38 -7 -57 -7c-49 0 -76 27 -76 76v200h-59v29h59l5 80h27v-80h101v-29z" />
    <glyph glyph-name="tbar" unicode="&#x167;" horiz-adv-x="238" 
d="M209 271h-101v-104h94v-28h-94v-66c0 -34 14 -49 48 -49c17 0 32 2 53 8v-30c-20 -5 -38 -7 -57 -7c-49 0 -76 27 -76 76v68h-58v28h58v104h-59v29h59l5 80h27v-80h101v-29z" />
    <glyph glyph-name="tcaron" unicode="&#x165;" horiz-adv-x="238" 
d="M181 400l-9 -73h-24v73h33zM209 271h-101v-198c0 -34 14 -49 48 -49c17 0 32 2 53 8v-30c-20 -5 -38 -7 -57 -7c-49 0 -76 27 -76 76v200h-59v29h59l5 80h27v-80h101v-29z" />
    <glyph glyph-name="uni0163" unicode="&#x163;" horiz-adv-x="238" 
d="M162 -25c28 0 48 -17 48 -41c0 -25 -28 -44 -65 -44c-23 0 -46 7 -62 18l16 24c17 -11 32 -16 48 -16c20 0 31 7 31 20c0 11 -10 17 -30 17c-9 0 -14 -2 -20 -5l-18 12l20 37c-35 7 -54 33 -54 74v200h-59v29h59l5 80h27v-80h101v-29h-101v-198c0 -34 14 -49 48 -49
c17 0 32 2 53 8v-30c-17 -4 -33 -6 -50 -7l-12 -21c5 1 10 1 15 1z" />
    <glyph glyph-name="uni021B" unicode="&#x21b;" horiz-adv-x="238" 
d="M209 271h-101v-198c0 -34 14 -49 48 -49c17 0 32 2 53 8v-30c-20 -5 -38 -7 -57 -7c-49 0 -76 27 -76 76v200h-59v29h59l5 80h27v-80h101v-29zM124 -73v38h38v-44c0 -26 -12 -39 -33 -39h-5v22h8c6 0 10 5 10 13v10h-18z" />
    <glyph glyph-name="u" unicode="u" 
d="M273 300h32v-300h-27l-4 53c-21 -35 -62 -58 -110 -58c-67 0 -114 44 -114 124v181h32v-174c0 -68 36 -103 90 -103c56 0 101 46 101 101v176z" />
    <glyph glyph-name="uacute" unicode="&#xfa;" 
d="M241 400l-45 -64h-26l32 64h39zM273 300h32v-300h-27l-4 53c-21 -35 -62 -58 -110 -58c-67 0 -114 44 -114 124v181h32v-174c0 -68 36 -103 90 -103c56 0 101 46 101 101v176z" />
    <glyph glyph-name="ucircumflex" unicode="&#xfb;" 
d="M181 379l-42 -43h-31l53 64h39l54 -64h-32zM273 300h32v-300h-27l-4 53c-21 -35 -62 -58 -110 -58c-67 0 -114 44 -114 124v181h32v-174c0 -68 36 -103 90 -103c56 0 101 46 101 101v176z" />
    <glyph glyph-name="udieresis" unicode="&#xfc;" 
d="M155 391v-38h-39v38h39zM240 391v-38h-39v38h39zM273 300h32v-300h-27l-4 53c-21 -35 -62 -58 -110 -58c-67 0 -114 44 -114 124v181h32v-174c0 -68 36 -103 90 -103c56 0 101 46 101 101v176z" />
    <glyph glyph-name="ugrave" unicode="&#xf9;" 
d="M186 336h-26l-45 64h39zM273 300h32v-300h-27l-4 53c-21 -35 -62 -58 -110 -58c-67 0 -114 44 -114 124v181h32v-174c0 -68 36 -103 90 -103c56 0 101 46 101 101v176z" />
    <glyph glyph-name="uhungarumlaut" unicode="&#x171;" 
d="M196 400l-45 -64h-27l33 64h39zM275 400l-44 -64h-27l33 64h38zM273 300h32v-300h-27l-4 53c-21 -35 -62 -58 -110 -58c-67 0 -114 44 -114 124v181h32v-174c0 -68 36 -103 90 -103c56 0 101 46 101 101v176z" />
    <glyph glyph-name="umacron" unicode="&#x16b;" 
d="M254 385v-25h-152v25h152zM273 300h32v-300h-27l-4 53c-21 -35 -62 -58 -110 -58c-67 0 -114 44 -114 124v181h32v-174c0 -68 36 -103 90 -103c56 0 101 46 101 101v176z" />
    <glyph glyph-name="uogonek" unicode="&#x173;" 
d="M305 -67l13 -22c-12 -7 -24 -11 -37 -11c-32 0 -53 21 -53 49c0 24 21 47 49 59l-3 45c-21 -35 -62 -58 -110 -58c-67 0 -114 44 -114 124v181h32v-174c0 -68 36 -103 90 -103c56 0 101 46 101 101v176h32v-297l5 -3c-28 -10 -54 -29 -54 -50c0 -15 10 -23 25 -23
c7 0 16 2 24 6z" />
    <glyph glyph-name="uring" unicode="&#x16f;" 
d="M178 333c-31 0 -55 24 -55 54c0 31 24 55 55 55s55 -24 55 -55c0 -30 -24 -54 -55 -54zM178 417c-17 0 -30 -13 -30 -30s13 -30 30 -30s30 13 30 30s-13 30 -30 30zM273 300h32v-300h-27l-4 53c-21 -35 -62 -58 -110 -58c-67 0 -114 44 -114 124v181h32v-174
c0 -68 36 -103 90 -103c56 0 101 46 101 101v176z" />
    <glyph glyph-name="v" unicode="v" horiz-adv-x="307" 
d="M262 300h35l-126 -300h-35l-126 300h35l109 -263z" />
    <glyph glyph-name="w" unicode="w" horiz-adv-x="457" 
d="M410 300h31l-97 -300h-34l-82 260l-80 -260h-34l-97 300h33l81 -258l82 258h32l82 -261z" />
    <glyph glyph-name="wacute" unicode="&#x1e83;" horiz-adv-x="457" 
d="M291 400l-45 -64h-26l32 64h39zM410 300h31l-97 -300h-34l-82 260l-80 -260h-34l-97 300h33l81 -258l82 258h32l82 -261z" />
    <glyph glyph-name="wcircumflex" unicode="&#x175;" horiz-adv-x="457" 
d="M231 379l-42 -43h-31l53 64h39l54 -64h-32zM410 300h31l-97 -300h-34l-82 260l-80 -260h-34l-97 300h33l81 -258l82 258h32l82 -261z" />
    <glyph glyph-name="wdieresis" unicode="&#x1e85;" horiz-adv-x="457" 
d="M205 391v-38h-39v38h39zM290 391v-38h-39v38h39zM410 300h31l-97 -300h-34l-82 260l-80 -260h-34l-97 300h33l81 -258l82 258h32l82 -261z" />
    <glyph glyph-name="wgrave" unicode="&#x1e81;" horiz-adv-x="457" 
d="M236 336h-26l-45 64h39zM410 300h31l-97 -300h-34l-82 260l-80 -260h-34l-97 300h33l81 -258l82 258h32l82 -261z" />
    <glyph glyph-name="x" unicode="x" horiz-adv-x="317" 
d="M299 0h-40l-101 132l-101 -132h-39l120 155l-113 145h40l94 -123l95 123h39l-113 -145z" />
    <glyph glyph-name="y" unicode="y" horiz-adv-x="308" 
d="M269 300h34l-121 -325c-14 -38 -38 -80 -84 -80c-44 0 -65 30 -64 78l30 5c-3 -24 3 -54 36 -54c23 0 40 23 50 51l-140 325h35l121 -283z" />
    <glyph glyph-name="yacute" unicode="&#xfd;" horiz-adv-x="308" 
d="M219 400l-45 -64h-26l32 64h39zM269 300h34l-121 -325c-14 -38 -38 -80 -84 -80c-44 0 -65 30 -64 78l30 5c-3 -24 3 -54 36 -54c23 0 40 23 50 51l-140 325h35l121 -283z" />
    <glyph glyph-name="ycircumflex" unicode="&#x177;" horiz-adv-x="308" 
d="M159 379l-42 -43h-31l53 64h39l54 -64h-32zM269 300h34l-121 -325c-14 -38 -38 -80 -84 -80c-44 0 -65 30 -64 78l30 5c-3 -24 3 -54 36 -54c23 0 40 23 50 51l-140 325h35l121 -283z" />
    <glyph glyph-name="ydieresis" unicode="&#xff;" horiz-adv-x="308" 
d="M133 391v-38h-39v38h39zM218 391v-38h-39v38h39zM269 300h34l-121 -325c-14 -38 -38 -80 -84 -80c-44 0 -65 30 -64 78l30 5c-3 -24 3 -54 36 -54c23 0 40 23 50 51l-140 325h35l121 -283z" />
    <glyph glyph-name="ygrave" unicode="&#x1ef3;" horiz-adv-x="308" 
d="M164 336h-26l-45 64h39zM269 300h34l-121 -325c-14 -38 -38 -80 -84 -80c-44 0 -65 30 -64 78l30 5c-3 -24 3 -54 36 -54c23 0 40 23 50 51l-140 325h35l121 -283z" />
    <glyph glyph-name="z" unicode="z" horiz-adv-x="291" 
d="M58 29h213v-29h-250v31l206 240h-197v29h234v-31z" />
    <glyph glyph-name="zacute" unicode="&#x17a;" horiz-adv-x="291" 
d="M212 400l-45 -64h-26l32 64h39zM58 29h213v-29h-250v31l206 240h-197v29h234v-31z" />
    <glyph glyph-name="zcaron" unicode="&#x17e;" horiz-adv-x="291" 
d="M168 336h-38l-54 64h32l41 -43l42 43h31zM58 29h213v-29h-250v31l206 240h-197v29h234v-31z" />
    <glyph glyph-name="zdotaccent" unicode="&#x17c;" horiz-adv-x="291" 
d="M168 391v-38h-38v38h38zM58 29h213v-29h-250v31l206 240h-197v29h234v-31z" />
    <glyph glyph-name="k.ss01" horiz-adv-x="324" 
d="M284 29h10v-29h-15c-26 0 -42 17 -42 47v92h-150v-139h-32v400h32v-232h84l82 132h35l-84 -132h64v-122c0 -10 7 -17 16 -17z" />
    <glyph glyph-name="uni0137.ss01" horiz-adv-x="324" 
d="M284 29h10v-29h-15c-26 0 -42 17 -42 47v92h-150v-139h-32v400h32v-232h84l82 132h35l-84 -132h64v-122c0 -10 7 -17 16 -17zM142 -73v38h38v-44c0 -26 -12 -39 -33 -39h-5v22h8c6 0 10 5 10 13v10h-18z" />
    <glyph glyph-name="y.ss01" horiz-adv-x="309" 
d="M265 300h35l-104 -303c-25 -73 -51 -102 -92 -102c-40 0 -67 28 -67 69c0 29 12 51 30 65h41l-109 271h35l107 -271h34zM104 -77c25 0 43 19 59 77h-84c-8 -10 -13 -22 -13 -34c0 -26 15 -43 38 -43z" />
    <glyph glyph-name="yacute.ss01" horiz-adv-x="309" 
d="M219 400l-45 -64h-26l32 64h39zM265 300h35l-104 -303c-25 -73 -51 -102 -92 -102c-40 0 -67 28 -67 69c0 29 12 51 30 65h41l-109 271h35l107 -271h34zM104 -77c25 0 43 19 59 77h-84c-8 -10 -13 -22 -13 -34c0 -26 15 -43 38 -43z" />
    <glyph glyph-name="ycircumflex.ss01" horiz-adv-x="309" 
d="M159 379l-42 -43h-31l53 64h39l54 -64h-32zM265 300h35l-104 -303c-25 -73 -51 -102 -92 -102c-40 0 -67 28 -67 69c0 29 12 51 30 65h41l-109 271h35l107 -271h34zM104 -77c25 0 43 19 59 77h-84c-8 -10 -13 -22 -13 -34c0 -26 15 -43 38 -43z" />
    <glyph glyph-name="ydieresis.ss01" horiz-adv-x="309" 
d="M133 391v-38h-39v38h39zM218 391v-38h-39v38h39zM265 300h35l-104 -303c-25 -73 -51 -102 -92 -102c-40 0 -67 28 -67 69c0 29 12 51 30 65h41l-109 271h35l107 -271h34zM104 -77c25 0 43 19 59 77h-84c-8 -10 -13 -22 -13 -34c0 -26 15 -43 38 -43z" />
    <glyph glyph-name="ygrave.ss01" horiz-adv-x="309" 
d="M164 336h-26l-45 64h39zM265 300h35l-104 -303c-25 -73 -51 -102 -92 -102c-40 0 -67 28 -67 69c0 29 12 51 30 65h41l-109 271h35l107 -271h34zM104 -77c25 0 43 19 59 77h-84c-8 -10 -13 -22 -13 -34c0 -26 15 -43 38 -43z" />
    <glyph glyph-name="k.ss02" horiz-adv-x="308" 
d="M263 0l-126 155l-50 -46v-109h-32v400h32v-255l168 155h41l-136 -125l144 -175h-41z" />
    <glyph glyph-name="uni0137.ss02" horiz-adv-x="308" 
d="M160 175l144 -175h-41l-126 155l-50 -46v-109h-32v400h32v-255l168 155h41zM142 -73v38h38v-44c0 -26 -12 -39 -33 -39h-5v22h8c6 0 10 5 10 13v10h-18z" />
    <glyph glyph-name="k.ss03" horiz-adv-x="324" 
d="M284 29h10v-29h-15c-26 0 -42 17 -42 47v92h-150v-139h-32v400h32v-232h84l82 132h35l-84 -132h64v-122c0 -10 7 -17 16 -17z" />
    <glyph glyph-name="uni0137.ss03" horiz-adv-x="324" 
d="M284 29h10v-29h-15c-26 0 -42 17 -42 47v92h-150v-139h-32v400h32v-232h84l82 132h35l-84 -132h64v-122c0 -10 7 -17 16 -17zM142 -73v38h38v-44c0 -26 -12 -39 -33 -39h-5v22h8c6 0 10 5 10 13v10h-18z" />
    <glyph glyph-name="y.ss03" horiz-adv-x="309" 
d="M265 300h35l-104 -303c-25 -73 -51 -102 -92 -102c-40 0 -67 28 -67 69c0 29 12 51 30 65h41l-109 271h35l107 -271h34zM104 -77c25 0 43 19 59 77h-84c-8 -10 -13 -22 -13 -34c0 -26 15 -43 38 -43z" />
    <glyph glyph-name="yacute.ss03" horiz-adv-x="309" 
d="M219 400l-45 -64h-26l32 64h39zM265 300h35l-104 -303c-25 -73 -51 -102 -92 -102c-40 0 -67 28 -67 69c0 29 12 51 30 65h41l-109 271h35l107 -271h34zM104 -77c25 0 43 19 59 77h-84c-8 -10 -13 -22 -13 -34c0 -26 15 -43 38 -43z" />
    <glyph glyph-name="ycircumflex.ss03" horiz-adv-x="309" 
d="M159 379l-42 -43h-31l53 64h39l54 -64h-32zM265 300h35l-104 -303c-25 -73 -51 -102 -92 -102c-40 0 -67 28 -67 69c0 29 12 51 30 65h41l-109 271h35l107 -271h34zM104 -77c25 0 43 19 59 77h-84c-8 -10 -13 -22 -13 -34c0 -26 15 -43 38 -43z" />
    <glyph glyph-name="ydieresis.ss03" horiz-adv-x="309" 
d="M133 391v-38h-39v38h39zM218 391v-38h-39v38h39zM265 300h35l-104 -303c-25 -73 -51 -102 -92 -102c-40 0 -67 28 -67 69c0 29 12 51 30 65h41l-109 271h35l107 -271h34zM104 -77c25 0 43 19 59 77h-84c-8 -10 -13 -22 -13 -34c0 -26 15 -43 38 -43z" />
    <glyph glyph-name="ygrave.ss03" horiz-adv-x="309" 
d="M164 336h-26l-45 64h39zM265 300h35l-104 -303c-25 -73 -51 -102 -92 -102c-40 0 -67 28 -67 69c0 29 12 51 30 65h41l-109 271h35l107 -271h34zM104 -77c25 0 43 19 59 77h-84c-8 -10 -13 -22 -13 -34c0 -26 15 -43 38 -43z" />
    <glyph glyph-name="k.ss04" horiz-adv-x="326" 
d="M281 29h11v-29h-16c-26 0 -42 17 -42 47v53c0 25 -12 38 -34 38h-113v-138h-32v400h32v-233h90l75 133h33l-75 -133c36 -3 56 -27 56 -68v-53c0 -10 6 -17 15 -17z" />
    <glyph glyph-name="uni0137.ss04" horiz-adv-x="326" 
d="M281 29h11v-29h-16c-26 0 -42 17 -42 47v53c0 25 -12 38 -34 38h-113v-138h-32v400h32v-233h90l75 133h33l-75 -133c36 -3 56 -27 56 -68v-53c0 -10 6 -17 15 -17zM148 -73v38h38v-44c0 -26 -12 -39 -33 -39h-5v22h8c6 0 10 5 10 13v10h-18z" />
    <glyph glyph-name="k.ss05" horiz-adv-x="326" 
d="M281 29h11v-29h-16c-26 0 -42 17 -42 47v53c0 25 -12 38 -34 38h-113v-138h-32v400h32v-233h90l75 133h33l-75 -133c36 -3 56 -27 56 -68v-53c0 -10 6 -17 15 -17z" />
    <glyph glyph-name="uni0137.ss05" horiz-adv-x="326" 
d="M281 29h11v-29h-16c-26 0 -42 17 -42 47v53c0 25 -12 38 -34 38h-113v-138h-32v400h32v-233h90l75 133h33l-75 -133c36 -3 56 -27 56 -68v-53c0 -10 6 -17 15 -17zM148 -73v38h38v-44c0 -26 -12 -39 -33 -39h-5v22h8c6 0 10 5 10 13v10h-18z" />
    <glyph glyph-name="f.ss06" horiz-adv-x="216" 
d="M165 371c-38 0 -52 -15 -52 -57v-14h91v-29h-91v-271h-32v271h-64v29h64v14c0 50 20 86 84 86h39v-29h-39z" />
    <glyph glyph-name="t.ss06" horiz-adv-x="238" 
d="M209 271h-101v-195c0 -32 14 -47 45 -47h56v-29h-56c-49 0 -77 27 -77 77v194h-59v29h59l5 80h27v-80h101v-29z" />
    <glyph glyph-name="tbar.ss06" horiz-adv-x="238" 
d="M209 271h-101v-104h88v-28h-88v-63c0 -32 14 -47 45 -47h56v-29h-56c-49 0 -77 27 -77 77v62h-64v28h64v104h-59v29h59l5 80h27v-80h101v-29z" />
    <glyph glyph-name="tcaron.ss06" horiz-adv-x="238" 
d="M192 400l-9 -73h-24v73h33zM209 271h-101v-195c0 -32 14 -47 45 -47h56v-29h-56c-49 0 -77 27 -77 77v194h-59v29h59l5 80h27v-80h101v-29z" />
    <glyph glyph-name="uni0163.ss06" horiz-adv-x="238" 
d="M162 -25c28 0 48 -17 48 -41c0 -25 -28 -44 -65 -44c-23 0 -46 7 -62 18l16 24c17 -11 32 -16 48 -16c20 0 31 7 31 20c0 11 -10 17 -30 17c-9 0 -14 -2 -20 -5l-18 12l22 40h21c-49 0 -77 27 -77 77v194h-59v29h59l5 80h27v-80h101v-29h-101v-195c0 -32 14 -47 45 -47
h56v-29h-47l-15 -26c5 1 10 1 15 1z" />
    <glyph glyph-name="uni021B.ss06" horiz-adv-x="238" 
d="M209 271h-101v-195c0 -32 14 -47 45 -47h56v-29h-56c-49 0 -77 27 -77 77v194h-59v29h59l5 80h27v-80h101v-29zM124 -73v38h38v-44c0 -26 -12 -39 -33 -39h-5v22h8c6 0 10 5 10 13v10h-18z" />
    <glyph glyph-name="y.ss06" horiz-adv-x="308" 
d="M270 300h34l-138 -344c-16 -43 -35 -56 -74 -56h-51v29h50c27 0 33 4 47 38l8 21l-135 312h35l117 -273z" />
    <glyph glyph-name="yacute.ss06" horiz-adv-x="308" 
d="M219 400l-45 -64h-26l32 64h39zM270 300h34l-138 -344c-16 -43 -35 -56 -74 -56h-51v29h50c27 0 33 4 47 38l8 21l-135 312h35l117 -273z" />
    <glyph glyph-name="ycircumflex.ss06" horiz-adv-x="308" 
d="M159 379l-42 -43h-31l53 64h39l54 -64h-32zM270 300h34l-138 -344c-16 -43 -35 -56 -74 -56h-51v29h50c27 0 33 4 47 38l8 21l-135 312h35l117 -273z" />
    <glyph glyph-name="ydieresis.ss06" horiz-adv-x="308" 
d="M133 391v-38h-39v38h39zM218 391v-38h-39v38h39zM270 300h34l-138 -344c-16 -43 -35 -56 -74 -56h-51v29h50c27 0 33 4 47 38l8 21l-135 312h35l117 -273z" />
    <glyph glyph-name="ygrave.ss06" horiz-adv-x="308" 
d="M164 336h-26l-45 64h39zM270 300h34l-138 -344c-16 -43 -35 -56 -74 -56h-51v29h50c27 0 33 4 47 38l8 21l-135 312h35l117 -273z" />
    <glyph glyph-name="uni0410" unicode="&#x410;" horiz-adv-x="379" 
d="M334 0l-44 104h-202l-44 -104h-34l161 380h37l161 -380h-35zM100 134h177l-88 209z" />
    <glyph glyph-name="uni0411" unicode="&#x411;" horiz-adv-x="370" 
d="M218 222c74 0 123 -45 123 -111s-49 -111 -123 -111h-153v380h251v-30h-218v-128h120zM215 29c58 0 92 31 92 82s-34 82 -92 82h-117v-164h117z" />
    <glyph glyph-name="uni0412" unicode="&#x412;" horiz-adv-x="379" 
d="M281 197c39 -15 63 -49 63 -93c0 -62 -45 -104 -111 -104h-168v380h161c65 0 110 -41 110 -101c0 -38 -21 -67 -55 -82zM226 351h-129v-142h129c47 0 76 28 76 70c0 44 -29 72 -76 72zM232 29c49 0 78 29 78 75c0 47 -29 77 -78 77h-135v-152h135z" />
    <glyph glyph-name="uni0413" unicode="&#x413;" horiz-adv-x="318" 
d="M308 380v-31h-210v-349h-33v380h243z" />
    <glyph glyph-name="uni0490" unicode="&#x490;" horiz-adv-x="318" 
d="M277 460h31v-111h-210v-349h-33v380h212v80z" />
    <glyph glyph-name="uni0414" unicode="&#x414;" horiz-adv-x="413" 
d="M393 31v-111h-31v80h-311v-80h-31v111h33c14 30 20 84 20 180v169h276v-349h44zM87 31h228v318h-209v-138c0 -70 -8 -143 -19 -180z" />
    <glyph glyph-name="uni0415" unicode="&#x415;" horiz-adv-x="333" 
d="M98 30h215v-30h-248v380h243v-30h-210v-141h165v-28h-165v-151z" />
    <glyph glyph-name="uni0401" unicode="&#x401;" horiz-adv-x="333" 
d="M157 471v-38h-39v38h39zM242 471v-38h-39v38h39zM98 30h215v-30h-248v380h243v-30h-210v-141h165v-28h-165v-151z" />
    <glyph glyph-name="uni0416" unicode="&#x416;" horiz-adv-x="545" 
d="M492 0l-142 202l-61 -60v-142h-33v142l-61 60l-143 -202h-40l162 223l-160 157h42l200 -197v197h33v-198l201 198h41l-158 -156l160 -224h-41z" />
    <glyph glyph-name="uni0417" unicode="&#x417;" horiz-adv-x="338" 
d="M240 197c42 -14 69 -49 69 -90c0 -66 -59 -112 -143 -112c-68 0 -126 41 -144 98l28 13c16 -48 64 -82 116 -82c65 0 110 34 110 83c0 44 -39 74 -97 74h-49v28h51c47 0 80 29 80 70c0 46 -37 77 -92 77c-54 0 -96 -30 -113 -82l-31 11c20 60 77 100 144 100
c74 0 125 -43 125 -106c0 -35 -20 -65 -54 -82z" />
    <glyph glyph-name="uni0418" unicode="&#x418;" horiz-adv-x="430" 
d="M330 380h35v-380h-33v330l-233 -330h-34v380h33v-330z" />
    <glyph glyph-name="uni0419" unicode="&#x419;" horiz-adv-x="430" 
d="M213 413c-45 0 -75 25 -80 66l29 4c3 -28 21 -44 51 -44s48 16 51 44l29 -4c-5 -41 -35 -66 -80 -66zM330 380h35v-380h-33v330l-233 -330h-34v380h33v-330z" />
    <glyph glyph-name="uni041A" unicode="&#x41a;" horiz-adv-x="376" 
d="M322 0l-160 197l-64 -62v-135h-33v380h33v-206l212 206h41l-166 -161l180 -219h-43z" />
    <glyph glyph-name="uni041B" unicode="&#x41b;" horiz-adv-x="426" 
d="M361 380v-380h-33v349h-201v-127c0 -184 -13 -223 -76 -223c-8 0 -13 0 -21 1v31h20c33 0 44 15 44 189v160h267z" />
    <glyph glyph-name="uni041C" unicode="&#x41c;" horiz-adv-x="517" 
d="M452 380v-380h-32v347l-146 -347h-32l-145 344v-344h-32v380h52l142 -336l141 336h52z" />
    <glyph glyph-name="uni041D" unicode="&#x41d;" horiz-adv-x="430" 
d="M332 380h33v-380h-33v180h-234v-180h-33v380h33v-170h234v170z" />
    <glyph glyph-name="uni041E" unicode="&#x41e;" horiz-adv-x="420" 
d="M210 -5c-101 0 -174 81 -174 195s73 195 174 195s174 -81 174 -195s-73 -195 -174 -195zM210 24c82 0 140 68 140 166s-58 166 -140 166s-140 -68 -140 -166s58 -166 140 -166z" />
    <glyph glyph-name="uni041F" unicode="&#x41f;" horiz-adv-x="430" 
d="M365 380v-380h-33v349h-234v-349h-33v380h300z" />
    <glyph glyph-name="uni0420" unicode="&#x420;" horiz-adv-x="364" 
d="M217 380c74 0 123 -45 123 -112s-49 -112 -123 -112h-119v-156h-33v380h152zM214 185c58 0 92 31 92 83c0 51 -34 83 -92 83h-116v-166h116z" />
    <glyph glyph-name="uni0421" unicode="&#x421;" horiz-adv-x="383" 
d="M209 -5c-102 0 -173 80 -173 195c0 114 72 195 173 195c79 0 131 -41 153 -114l-31 -11c-19 64 -62 96 -122 96c-82 0 -139 -67 -139 -166s57 -166 139 -166c61 0 104 32 123 96l30 -11c-22 -73 -74 -114 -153 -114z" />
    <glyph glyph-name="uni0422" unicode="&#x422;" horiz-adv-x="344" 
d="M334 380v-31h-145v-349h-33v349h-146v31h324z" />
    <glyph glyph-name="uni0423" unicode="&#x423;" horiz-adv-x="379" 
d="M324 380h36l-141 -330c-15 -34 -40 -55 -70 -55c-41 0 -65 27 -66 74l30 6c2 -36 12 -49 38 -49c16 0 31 14 38 37l-174 317h38l153 -284z" />
    <glyph glyph-name="uni040E" unicode="&#x40e;" horiz-adv-x="379" 
d="M187 413c-45 0 -75 25 -80 66l29 4c3 -28 21 -44 51 -44s48 16 51 44l29 -4c-5 -41 -35 -66 -80 -66zM324 380h36l-141 -330c-15 -34 -40 -55 -70 -55c-41 0 -65 27 -66 74l30 6c2 -36 12 -49 38 -49c16 0 31 14 38 37l-174 317h38l153 -284z" />
    <glyph glyph-name="uni0424" unicode="&#x424;" horiz-adv-x="467" 
d="M281 345c99 0 163 -59 163 -150s-64 -150 -163 -150h-31v-51h-33v51h-31c-99 0 -163 59 -163 150s64 150 163 150h31v41h33v-41h31zM186 75h31v240h-31c-78 0 -129 -47 -129 -120s51 -120 129 -120zM281 75c78 0 129 47 129 120s-51 120 -129 120h-31v-240h31z" />
    <glyph glyph-name="uni0425" unicode="&#x425;" horiz-adv-x="362" 
d="M350 0h-41l-128 173l-129 -173h-40l148 198l-136 182h41l116 -159l117 159h40l-136 -182z" />
    <glyph glyph-name="uni0427" unicode="&#x427;" horiz-adv-x="394" 
d="M296 380h33v-380h-33v159h-124c-80 0 -127 39 -127 114v107h33v-107c0 -57 31 -83 94 -83h124v190z" />
    <glyph glyph-name="uni0426" unicode="&#x426;" horiz-adv-x="416" 
d="M396 31v-111h-31v80h-300v380h33v-349h220v349h33v-349h45z" />
    <glyph glyph-name="uni0428" unicode="&#x428;" horiz-adv-x="590" 
d="M493 380h33v-380h-461v380h33v-349h181v349h33v-349h181v349z" />
    <glyph glyph-name="uni0429" unicode="&#x429;" horiz-adv-x="591" 
d="M571 31v-111h-32v80h-474v380h33v-349h181v349h33v-349h181v349h33v-349h45z" />
    <glyph glyph-name="uni042C" unicode="&#x42c;" horiz-adv-x="370" 
d="M215 224c75 0 124 -45 124 -112s-49 -112 -124 -112h-150v380h33v-156h117zM212 29c58 0 93 32 93 83c0 52 -35 83 -93 83h-114v-166h114z" />
    <glyph glyph-name="uni042A" unicode="&#x42a;" horiz-adv-x="416" 
d="M261 224c75 0 124 -45 124 -112s-49 -112 -124 -112h-150v349h-101v31h134v-156h117zM258 29c58 0 93 32 93 83c0 52 -35 83 -93 83h-114v-166h114z" />
    <glyph glyph-name="uni042B" unicode="&#x42b;" horiz-adv-x="518" 
d="M215 224c75 0 124 -45 124 -112s-49 -112 -124 -112h-150v380h33v-156h117zM420 380h33v-380h-33v380zM212 29c58 0 93 32 93 83c0 52 -35 83 -93 83h-114v-166h114z" />
    <glyph glyph-name="uni0404" unicode="&#x404;" horiz-adv-x="383" 
d="M209 24c62 0 106 32 124 95l29 -10c-22 -73 -74 -114 -153 -114c-102 0 -173 79 -173 195c0 115 72 195 173 195c79 0 131 -41 153 -114l-30 -11c-19 64 -62 96 -123 96c-77 0 -133 -60 -140 -147h176v-28h-177c4 -92 61 -157 141 -157z" />
    <glyph glyph-name="uni042D" unicode="&#x42d;" horiz-adv-x="383" 
d="M177 385c99 0 170 -80 170 -195c0 -116 -70 -195 -170 -195c-78 0 -133 41 -156 113l29 10c20 -62 68 -94 127 -94c78 0 134 65 138 157h-177v28h176c-7 87 -61 147 -137 147c-63 0 -107 -32 -125 -95l-31 11c23 72 79 113 156 113z" />
    <glyph glyph-name="uni0406" unicode="&#x406;" horiz-adv-x="163" 
d="M65 0v380h33v-380h-33z" />
    <glyph glyph-name="uni0407" unicode="&#x407;" horiz-adv-x="163" 
d="M19 433v38h39v-38h-39zM104 433v38h39v-38h-39zM65 0v380h33v-380h-33z" />
    <glyph glyph-name="uni042E" unicode="&#x42e;" horiz-adv-x="562" 
d="M356 385c100 0 171 -81 171 -195s-71 -195 -171 -195c-96 0 -166 76 -170 185h-88v-180h-33v380h33v-170h89c8 103 76 175 169 175zM356 24c80 0 137 68 137 166s-57 166 -137 166c-79 0 -136 -68 -136 -166s57 -166 136 -166z" />
    <glyph glyph-name="uni042F" unicode="&#x42f;" horiz-adv-x="378" 
d="M314 380v-380h-33v158h-111h-9l-100 -158h-37l104 163c-50 14 -80 53 -80 106c0 67 48 111 122 111h144zM173 187h108v164h-108c-57 0 -91 -32 -91 -82c0 -51 34 -82 91 -82z" />
    <glyph glyph-name="uni0416.ss01" horiz-adv-x="527" 
d="M489 31h11v-31h-16c-30 0 -50 20 -50 57v123h-154v-180h-33v180h-154v-123c0 -37 -20 -57 -50 -57h-16v31h11c13 0 22 9 22 22v157h84l-109 170h34l110 -170h68v170h33v-170h68l110 170h34l-109 -170h84v-157c0 -13 9 -22 22 -22z" />
    <glyph glyph-name="uni041A.ss01" horiz-adv-x="383" 
d="M345 31h11v-31h-15c-31 0 -51 20 -51 57v123h-192v-180h-33v380h33v-170h106l110 170h34l-109 -170h84v-157c0 -13 9 -22 22 -22z" />
    <glyph glyph-name="uni0423.ss01" horiz-adv-x="363" 
d="M314 380h34l-111 -303c-20 -56 -50 -82 -93 -82c-49 0 -82 32 -82 81c0 31 15 58 41 75h46l-139 229h38l138 -229h45zM144 24c28 0 49 19 65 65l12 34h-105c-14 -8 -22 -26 -22 -47c0 -31 20 -52 50 -52z" />
    <glyph glyph-name="uni040E.ss01" horiz-adv-x="363" 
d="M180 413c-45 0 -75 25 -80 66l29 4c3 -28 21 -44 51 -44s48 16 51 44l29 -4c-5 -41 -35 -66 -80 -66zM314 380h34l-111 -303c-20 -56 -50 -82 -93 -82c-49 0 -82 32 -82 81c0 31 15 58 41 75h46l-139 229h38l138 -229h45zM144 24c28 0 49 19 65 65l12 34h-105
c-14 -8 -22 -26 -22 -47c0 -31 20 -52 50 -52z" />
    <glyph glyph-name="uni042F.ss01" horiz-adv-x="385" 
d="M320 380v-380h-34v158h-192v-101c0 -36 -19 -57 -51 -57h-15v31h11c13 0 22 9 22 22v130h48c-36 16 -58 48 -58 91c0 64 46 106 118 106h151zM85 274c0 -51 42 -87 101 -87h100v164h-117c-53 0 -84 -29 -84 -77z" />
    <glyph glyph-name="uni0416.ss02" horiz-adv-x="545" 
d="M492 0l-142 202l-61 -60v-142h-33v142l-61 60l-143 -202h-40l162 223l-160 157h42l200 -197v197h33v-198l201 198h41l-158 -156l160 -224h-41z" />
    <glyph glyph-name="uni041A.ss02" horiz-adv-x="376" 
d="M322 0l-160 197l-64 -62v-135h-33v380h33v-206l212 206h41l-166 -161l180 -219h-43z" />
    <glyph glyph-name="uni042F.ss02" horiz-adv-x="378" 
d="M314 380v-380h-33v158h-111h-9l-100 -158h-37l104 163c-50 14 -80 53 -80 106c0 67 48 111 122 111h144zM173 187h108v164h-108c-57 0 -91 -32 -91 -82c0 -51 34 -82 91 -82z" />
    <glyph glyph-name="uni0416.ss03" horiz-adv-x="527" 
d="M489 31h11v-31h-16c-30 0 -50 20 -50 57v123h-154v-180h-33v180h-154v-123c0 -37 -20 -57 -50 -57h-16v31h11c13 0 22 9 22 22v157h84l-109 170h34l110 -170h68v170h33v-170h68l110 170h34l-109 -170h84v-157c0 -13 9 -22 22 -22z" />
    <glyph glyph-name="uni041A.ss03" horiz-adv-x="383" 
d="M345 31h11v-31h-15c-31 0 -51 20 -51 57v123h-192v-180h-33v380h33v-170h106l110 170h34l-109 -170h84v-157c0 -13 9 -22 22 -22z" />
    <glyph glyph-name="uni0423.ss03" horiz-adv-x="363" 
d="M314 380h34l-111 -303c-20 -56 -50 -82 -93 -82c-49 0 -82 32 -82 81c0 31 15 58 41 75h46l-139 229h38l138 -229h45zM144 24c28 0 49 19 65 65l12 34h-105c-14 -8 -22 -26 -22 -47c0 -31 20 -52 50 -52z" />
    <glyph glyph-name="uni040E.ss03" horiz-adv-x="363" 
d="M180 413c-45 0 -75 25 -80 66l29 4c3 -28 21 -44 51 -44s48 16 51 44l29 -4c-5 -41 -35 -66 -80 -66zM314 380h34l-111 -303c-20 -56 -50 -82 -93 -82c-49 0 -82 32 -82 81c0 31 15 58 41 75h46l-139 229h38l138 -229h45zM144 24c28 0 49 19 65 65l12 34h-105
c-14 -8 -22 -26 -22 -47c0 -31 20 -52 50 -52z" />
    <glyph glyph-name="uni042F.ss03" horiz-adv-x="385" 
d="M320 380v-380h-34v158h-192v-101c0 -36 -19 -57 -51 -57h-15v31h11c13 0 22 9 22 22v130h48c-36 16 -58 48 -58 91c0 64 46 106 118 106h151zM85 274c0 -51 42 -87 101 -87h100v164h-117c-53 0 -84 -29 -84 -77z" />
    <glyph glyph-name="uni0416.ss04" horiz-adv-x="529" 
d="M490 31h11v-31h-15c-32 0 -51 21 -51 57v70c0 35 -15 52 -44 52h-110v-179h-33v179h-110c-29 0 -44 -17 -44 -52v-70c0 -36 -19 -57 -50 -57h-16v31h11c13 0 22 9 22 22v74c0 49 23 78 64 82l-83 171h33l83 -170h90v170h33v-170h90l83 170h33l-82 -171
c41 -5 63 -34 63 -82v-74c0 -13 9 -22 22 -22z" />
    <glyph glyph-name="uni041A.ss04" horiz-adv-x="383" 
d="M345 31h11v-31h-15c-32 0 -51 21 -51 57v70c0 36 -15 53 -44 53h-148v-180h-33v380h33v-170h117l94 170h34l-95 -170c49 -1 75 -31 75 -83v-74c0 -13 9 -22 22 -22z" />
    <glyph glyph-name="uni042F.ss04" horiz-adv-x="385" 
d="M320 380v-380h-34v161h-148c-29 0 -44 -18 -44 -54v-50c0 -36 -19 -57 -51 -57h-15v31h11c13 0 22 9 22 22v54c0 39 16 65 45 75c-35 17 -55 48 -55 89c0 66 48 109 122 109h147zM174 351c-56 0 -89 -30 -89 -80c0 -47 33 -81 89 -81h112v161h-112z" />
    <glyph glyph-name="uni0416.ss05" horiz-adv-x="529" 
d="M490 31h11v-31h-15c-32 0 -51 21 -51 57v70c0 35 -15 52 -44 52h-110v-179h-33v179h-110c-29 0 -44 -17 -44 -52v-70c0 -36 -19 -57 -50 -57h-16v31h11c13 0 22 9 22 22v74c0 49 23 78 64 82l-83 171h33l83 -170h90v170h33v-170h90l83 170h33l-82 -171
c41 -5 63 -34 63 -82v-74c0 -13 9 -22 22 -22z" />
    <glyph glyph-name="uni041A.ss05" horiz-adv-x="383" 
d="M345 31h11v-31h-15c-32 0 -51 21 -51 57v70c0 36 -15 53 -44 53h-148v-180h-33v380h33v-170h117l94 170h34l-95 -170c49 -1 75 -31 75 -83v-74c0 -13 9 -22 22 -22z" />
    <glyph glyph-name="uni042F.ss05" horiz-adv-x="385" 
d="M320 380v-380h-34v161h-148c-29 0 -44 -18 -44 -54v-50c0 -36 -19 -57 -51 -57h-15v31h11c13 0 22 9 22 22v54c0 39 16 65 45 75c-35 17 -55 48 -55 89c0 66 48 109 122 109h147zM174 351c-56 0 -89 -30 -89 -80c0 -47 33 -81 89 -81h112v161h-112z" />
    <glyph glyph-name="uni0423.ss06" horiz-adv-x="384" 
d="M335 380h35l-150 -331c-18 -37 -41 -49 -74 -49h-56v29h56c22 0 34 7 45 32l5 12l-170 307h37l151 -273z" />
    <glyph glyph-name="uni040E.ss06" horiz-adv-x="384" 
d="M192 413c-45 0 -75 25 -80 66l29 4c3 -28 21 -44 51 -44s48 16 51 44l29 -4c-5 -41 -35 -66 -80 -66zM335 380h35l-150 -331c-18 -37 -41 -49 -74 -49h-56v29h56c22 0 34 7 45 32l5 12l-170 307h37l151 -273z" />
    <glyph glyph-name="uni041D.ss07" horiz-adv-x="430" 
d="M333 380h32v-380h-36l-232 331v-331h-32v380h36l232 -331v331z" />
    <glyph glyph-name="uni0410.stress" horiz-adv-x="379" 
d="M252 480l-45 -64h-26l32 64h39zM334 0l-44 104h-202l-44 -104h-34l161 380h37l161 -380h-35zM100 134h177l-88 209z" />
    <glyph glyph-name="uni0415.stress" horiz-adv-x="333" 
d="M243 480l-45 -64h-26l32 64h39zM98 30h215v-30h-248v380h243v-30h-210v-141h165v-28h-165v-151z" />
    <glyph glyph-name="uni0401.stress" horiz-adv-x="333" 
d="M223 497l-44 -64h-27l33 64h38zM144 471v-38h-39v38h39zM216 433v38h39v-38h-39zM98 30h215v-30h-248v380h243v-30h-210v-141h165v-28h-165v-151z" />
    <glyph glyph-name="uni0418.stress" horiz-adv-x="430" 
d="M276 480l-45 -64h-26l32 64h39zM330 380h35v-380h-33v330l-233 -330h-34v380h33v-330z" />
    <glyph glyph-name="uni041E.stress" horiz-adv-x="420" 
d="M202 416l32 64h39l-45 -64h-26zM210 -5c-101 0 -174 81 -174 195s73 195 174 195s174 -81 174 -195s-73 -195 -174 -195zM210 24c82 0 140 68 140 166s-58 166 -140 166s-140 -68 -140 -166s58 -166 140 -166z" />
    <glyph glyph-name="uni0423.stress" horiz-adv-x="379" 
d="M250 480l-45 -64h-26l32 64h39zM324 380h36l-141 -330c-15 -34 -40 -55 -70 -55c-41 0 -65 27 -66 74l30 6c2 -36 12 -49 38 -49c16 0 31 14 38 37l-174 317h38l153 -284z" />
    <glyph glyph-name="uni042B.stress" horiz-adv-x="518" 
d="M322 480l-45 -64h-26l32 64h39zM215 224c75 0 124 -45 124 -112s-49 -112 -124 -112h-150v380h33v-156h117zM420 380h33v-380h-33v380zM212 29c58 0 93 32 93 83c0 52 -35 83 -93 83h-114v-166h114z" />
    <glyph glyph-name="uni0404.stress" horiz-adv-x="383" 
d="M272 480l-45 -64h-26l32 64h39zM209 24c62 0 106 32 124 95l29 -10c-22 -73 -74 -114 -153 -114c-102 0 -173 79 -173 195c0 115 72 195 173 195c79 0 131 -41 153 -114l-30 -11c-19 64 -62 96 -123 96c-77 0 -133 -60 -140 -147h176v-28h-177c4 -92 61 -157 141 -157z
" />
    <glyph glyph-name="uni042D.stress" horiz-adv-x="383" 
d="M240 480l-45 -64h-26l32 64h39zM177 385c99 0 170 -80 170 -195c0 -116 -70 -195 -170 -195c-78 0 -133 41 -156 113l29 10c20 -62 68 -94 127 -94c78 0 134 65 138 157h-177v28h176c-7 87 -61 147 -137 147c-63 0 -107 -32 -125 -95l-31 11c23 72 79 113 156 113z" />
    <glyph glyph-name="uni0406.stress" horiz-adv-x="163" 
d="M73 416l32 64h39l-45 -64h-26zM65 0v380h33v-380h-33z" />
    <glyph glyph-name="uni0407.stress" horiz-adv-x="163" 
d="M53 433l33 64h38l-44 -64h-27zM6 433v38h39v-38h-39zM117 433v38h39v-38h-39zM65 0v380h33v-380h-33z" />
    <glyph glyph-name="uni042E.stress" horiz-adv-x="562" 
d="M321 480l-45 -64h-26l32 64h39zM356 385c100 0 171 -81 171 -195s-71 -195 -171 -195c-96 0 -166 76 -170 185h-88v-180h-33v380h33v-170h89c8 103 76 175 169 175zM356 24c80 0 137 68 137 166s-57 166 -137 166c-79 0 -136 -68 -136 -166s57 -166 136 -166z" />
    <glyph glyph-name="uni042F.stress" horiz-adv-x="378" 
d="M271 480l-45 -64h-26l32 64h39zM314 380v-380h-33v158h-111h-9l-100 -158h-37l104 163c-50 14 -80 53 -80 106c0 67 48 111 122 111h144zM173 187h108v164h-108c-57 0 -91 -32 -91 -82c0 -51 34 -82 91 -82z" />
    <glyph glyph-name="uni0423.ss03.stress" horiz-adv-x="363" 
d="M243 480l-45 -64h-26l32 64h39zM314 380h34l-111 -303c-20 -56 -50 -82 -93 -82c-49 0 -82 32 -82 81c0 31 15 58 41 75h46l-139 229h38l138 -229h45zM144 24c28 0 49 19 65 65l12 34h-105c-14 -8 -22 -26 -22 -47c0 -31 20 -52 50 -52z" />
    <glyph glyph-name="uni042F.ss03.stress" horiz-adv-x="385" 
d="M261 480l-45 -64h-26l32 64h39zM320 380v-380h-34v158h-192v-101c0 -36 -19 -57 -51 -57h-15v31h11c13 0 22 9 22 22v130h48c-36 16 -58 48 -58 91c0 64 46 106 118 106h151zM85 274c0 -51 42 -87 101 -87h100v164h-117c-53 0 -84 -29 -84 -77z" />
    <glyph glyph-name="uni042F.ss04.stress" horiz-adv-x="385" 
d="M271 480l-45 -64h-26l32 64h39zM320 380v-380h-34v161h-148c-29 0 -44 -18 -44 -54v-50c0 -36 -19 -57 -51 -57h-15v31h11c13 0 22 9 22 22v54c0 39 16 65 45 75c-35 17 -55 48 -55 89c0 66 48 109 122 109h147zM174 351c-56 0 -89 -30 -89 -80c0 -47 33 -81 89 -81h112
v161h-112z" />
    <glyph glyph-name="uni0423.ss06.stress" horiz-adv-x="384" 
d="M255 480l-45 -64h-26l32 64h39zM335 380h35l-150 -331c-18 -37 -41 -49 -74 -49h-56v29h56c22 0 34 7 45 32l5 12l-170 307h37l151 -273z" />
    <glyph glyph-name="uni0430" unicode="&#x430;" horiz-adv-x="316" 
d="M283 27h11v-27c-1 -1 -9 -2 -12 -2c-34 0 -48 15 -49 52c-21 -32 -64 -55 -113 -55c-58 0 -95 32 -95 82c0 71 67 83 124 95c44 9 81 15 81 46c0 35 -31 59 -77 59c-40 0 -73 -17 -98 -50l-24 22c30 36 74 56 123 56c67 0 108 -36 108 -96v-159c0 -17 6 -23 21 -23z
M121 24c62 0 111 41 111 94v55c-19 -15 -49 -22 -80 -27c-47 -9 -94 -18 -94 -69c0 -33 23 -53 63 -53z" />
    <glyph glyph-name="uni0431" unicode="&#x431;" horiz-adv-x="343" 
d="M310 134c1 -80 -56 -139 -135 -139c-84 0 -138 64 -138 168c0 122 42 180 131 197l71 15c11 2 17 8 19 22l1 6l31 -5l-1 -11c-3 -18 -16 -36 -44 -42l-71 -14c-66 -14 -100 -51 -105 -117c22 38 62 59 115 59c71 0 125 -57 126 -139zM175 24c61 0 102 43 102 108
c0 69 -38 112 -98 112c-65 0 -108 -42 -108 -106c0 -66 44 -114 104 -114z" />
    <glyph glyph-name="uni0432" unicode="&#x432;" horiz-adv-x="318" 
d="M234 157c37 -12 54 -36 54 -74c0 -51 -40 -83 -105 -83h-128v300h122c64 0 100 -29 100 -81c0 -28 -16 -52 -43 -62zM86 273v-106h103c36 0 58 20 58 52c0 33 -25 54 -62 54h-99zM186 27c45 0 70 21 70 57c0 34 -25 57 -62 57h-108v-114h100z" />
    <glyph glyph-name="uni0433" unicode="&#x433;" horiz-adv-x="261" 
d="M255 300v-29h-168v-271h-32v300h200z" />
    <glyph glyph-name="uni0491" unicode="&#x491;" horiz-adv-x="261" 
d="M225 380h30v-109h-168v-271h-32v300h170v80z" />
    <glyph glyph-name="uni0434" unicode="&#x434;" horiz-adv-x="351" 
d="M326 29v-99h-31v70h-244v-70h-31v99h29c13 29 17 92 17 146v125h225v-271h35zM81 29h178v242h-162v-99c0 -63 -6 -113 -16 -143z" />
    <glyph glyph-name="uni0435" unicode="&#x435;" horiz-adv-x="340" 
d="M63 138c5 -71 49 -114 119 -114c41 0 79 18 100 46l22 -20c-22 -27 -67 -55 -122 -55c-97 0 -152 66 -152 155c0 91 62 155 144 155c84 0 138 -61 138 -155v-12h-249zM174 277c-62 0 -105 -44 -110 -112h216c-5 69 -45 112 -106 112z" />
    <glyph glyph-name="uni0451" unicode="&#x451;" horiz-adv-x="340" 
d="M147 391v-38h-39v38h39zM232 391v-38h-39v38h39zM63 138c5 -71 49 -114 119 -114c41 0 79 18 100 46l22 -20c-22 -27 -67 -55 -122 -55c-97 0 -152 66 -152 155c0 91 62 155 144 155c84 0 138 -61 138 -155v-12h-249zM174 277c-62 0 -105 -44 -110 -112h216
c-5 69 -45 112 -106 112z" />
    <glyph glyph-name="uni0436" unicode="&#x436;" horiz-adv-x="452" 
d="M408 0l-117 161l-49 -45v-116h-32v116l-49 46l-117 -162h-39l134 183l-126 117h42l155 -147v147h32v-149l156 149h41l-126 -117l134 -183h-39z" />
    <glyph glyph-name="uni0437" unicode="&#x437;" horiz-adv-x="274" 
d="M198 156c37 -11 58 -38 58 -72c-1 -52 -50 -89 -117 -89c-60 0 -108 34 -123 83l29 11c11 -40 48 -66 95 -66c49 0 84 25 84 61c0 34 -29 56 -70 56h-45v27h43c34 0 57 22 57 53c0 34 -29 58 -71 58c-43 0 -77 -25 -88 -66l-30 9c15 50 61 84 118 84
c59 0 102 -36 102 -85c0 -26 -14 -50 -42 -64z" />
    <glyph glyph-name="uni0438" unicode="&#x438;" 
d="M271 300h34v-300h-31v255l-185 -255h-34v300h31v-255z" />
    <glyph glyph-name="uni0439" unicode="&#x439;" 
d="M180 333c-45 0 -75 25 -80 66l29 4c3 -28 21 -44 51 -44s48 16 51 44l29 -4c-5 -41 -35 -66 -80 -66zM271 300h34v-300h-31v255l-185 -255h-34v300h31v-255z" />
    <glyph glyph-name="uni043A" unicode="&#x43a;" horiz-adv-x="308" 
d="M263 0l-126 155l-50 -46v-109h-32v300h32v-155l168 155h41l-136 -125l144 -175h-41z" />
    <glyph glyph-name="uni043B" unicode="&#x43b;" horiz-adv-x="347" 
d="M293 300v-300h-32v271h-158v-134c0 -103 -18 -139 -68 -139c-7 0 -12 1 -15 2v29h14c28 0 38 21 38 113v158h221z" />
    <glyph glyph-name="uni043C" unicode="&#x43c;" horiz-adv-x="434" 
d="M380 300v-300h-31v268l-116 -268h-32l-115 267v-267h-31v300h48l114 -264l114 264h49z" />
    <glyph glyph-name="uni043D" unicode="&#x43d;" 
d="M273 300h32v-300h-32v139h-186v-139h-32v300h32v-133h186v133z" />
    <glyph glyph-name="uni043E" unicode="&#x43e;" horiz-adv-x="350" 
d="M175 -5c-87 0 -145 62 -145 155c0 91 59 155 145 155c87 0 145 -62 145 -155c0 -91 -59 -155 -145 -155zM175 23c67 0 112 51 112 127c0 77 -44 127 -112 127c-67 0 -112 -51 -112 -127c0 -77 45 -127 112 -127z" />
    <glyph glyph-name="uni043F" unicode="&#x43f;" 
d="M305 300v-300h-32v271h-186v-271h-32v300h250z" />
    <glyph glyph-name="uni0440" unicode="&#x440;" horiz-adv-x="361" 
d="M194 305c81 0 137 -64 137 -155s-56 -155 -137 -155c-46 0 -83 21 -107 55v-150h-32v400h27l4 -54c24 37 62 59 108 59zM191 23c64 0 107 51 107 127s-43 127 -107 127c-65 0 -107 -51 -107 -127s42 -127 107 -127z" />
    <glyph glyph-name="uni0441" unicode="&#x441;" horiz-adv-x="326" 
d="M174 -5c-85 0 -144 64 -144 155c0 90 60 155 144 155c65 0 112 -35 129 -91l-30 -10c-14 43 -50 73 -99 73c-65 0 -111 -52 -111 -127s46 -127 111 -127c48 0 86 30 100 73l29 -10c-17 -56 -65 -91 -129 -91z" />
    <glyph glyph-name="uni0442" unicode="&#x442;" horiz-adv-x="269" 
d="M264 300v-29h-113v-271h-32v271h-114v29h259z" />
    <glyph glyph-name="uni0443" unicode="&#x443;" horiz-adv-x="308" 
d="M269 300h34l-121 -325c-14 -38 -38 -80 -84 -80c-44 0 -65 30 -64 78l30 5c-3 -24 3 -54 36 -54c23 0 40 23 50 51l-140 325h35l121 -283z" />
    <glyph glyph-name="uni045E" unicode="&#x45e;" horiz-adv-x="308" 
d="M156 333c-45 0 -75 25 -80 66l29 4c3 -28 21 -44 51 -44s48 16 51 44l29 -4c-5 -41 -35 -66 -80 -66zM269 300h34l-121 -325c-14 -38 -38 -80 -84 -80c-44 0 -65 30 -64 78l30 5c-3 -24 3 -54 36 -54c23 0 40 23 50 51l-140 325h35l121 -283z" />
    <glyph glyph-name="uni0444" unicode="&#x444;" horiz-adv-x="513" 
d="M363 305c71 0 120 -64 120 -155s-49 -155 -120 -155c-39 0 -70 19 -90 53v-148h-32v150c-20 -35 -51 -55 -91 -55c-71 0 -120 64 -120 155s49 155 120 155c40 0 71 -21 91 -56v151h32v-149c20 34 51 54 90 54zM152 23c54 0 90 51 90 127s-36 127 -90 127
c-52 0 -89 -51 -89 -127s37 -127 89 -127zM361 23c53 0 89 51 89 127s-36 127 -89 127c-54 0 -90 -51 -90 -127s36 -127 90 -127z" />
    <glyph glyph-name="uni0445" unicode="&#x445;" horiz-adv-x="317" 
d="M299 0h-40l-101 132l-101 -132h-39l120 155l-113 145h40l94 -123l95 123h39l-113 -145z" />
    <glyph glyph-name="uni0447" unicode="&#x447;" horiz-adv-x="324" 
d="M237 300h32v-300h-32v125h-96c-69 0 -107 33 -107 92v83h33v-83c0 -42 25 -63 74 -63h96v146z" />
    <glyph glyph-name="uni0446" unicode="&#x446;" horiz-adv-x="355" 
d="M331 29v-99h-31v70h-245v300h32v-271h177v271h32v-271h35z" />
    <glyph glyph-name="uni0448" unicode="&#x448;" horiz-adv-x="495" 
d="M409 300h32v-300h-386v300h32v-271h145v271h32v-271h145v271z" />
    <glyph glyph-name="uni0449" unicode="&#x449;" horiz-adv-x="500" 
d="M476 29v-99h-30v70h-391v300h32v-271h145v271h32v-271h145v271h32v-271h35z" />
    <glyph glyph-name="uni044C" unicode="&#x44c;" horiz-adv-x="307" 
d="M180 176c63 0 104 -36 104 -88s-42 -88 -104 -88h-125v300h32v-124h93zM180 29c44 0 71 23 71 59c0 37 -27 59 -71 59h-93v-118h93z" />
    <glyph glyph-name="uni044A" unicode="&#x44a;" horiz-adv-x="349" 
d="M222 176c62 0 103 -36 103 -88s-41 -88 -103 -88h-126v271h-86v29h118v-124h94zM222 29c43 0 70 23 70 59c0 37 -27 59 -70 59h-94v-118h94z" />
    <glyph glyph-name="uni044B" unicode="&#x44b;" horiz-adv-x="432" 
d="M180 176c63 0 104 -36 104 -88s-42 -88 -104 -88h-125v300h32v-124h93zM345 300h32v-300h-32v300zM180 29c44 0 71 23 71 59c0 37 -27 59 -71 59h-93v-118h93z" />
    <glyph glyph-name="uni0454" unicode="&#x454;" horiz-adv-x="328" 
d="M174 23c49 0 86 30 100 73l29 -10c-17 -56 -64 -91 -129 -91c-85 0 -144 62 -144 155c0 90 60 155 144 155c65 0 112 -35 129 -91l-30 -10c-14 43 -50 73 -99 73c-60 0 -105 -45 -111 -110h156v-28h-157c5 -70 50 -116 112 -116z" />
    <glyph glyph-name="uni044D" unicode="&#x44d;" horiz-adv-x="325" 
d="M153 305c83 0 142 -65 142 -155c0 -93 -58 -155 -142 -155c-63 0 -112 36 -130 91l27 9c14 -42 52 -72 103 -72c63 0 106 46 110 116h-157v28h156c-6 65 -48 110 -109 110c-50 0 -88 -30 -102 -73l-28 10c18 54 67 91 130 91z" />
    <glyph glyph-name="uni0456" unicode="&#x456;" horiz-adv-x="151" 
d="M56 353v38h38v-38h-38zM60 0v300h32v-300h-32z" />
    <glyph glyph-name="uni0457" unicode="&#x457;" horiz-adv-x="151" 
d="M13 353v38h39v-38h-39zM98 353v38h39v-38h-39zM60 0v300h32v-300h-32z" />
    <glyph glyph-name="uni044E" unicode="&#x44e;" horiz-adv-x="474" 
d="M304 305c85 0 141 -62 141 -155c0 -91 -58 -155 -141 -155c-81 0 -135 57 -140 144h-77v-139h-32v300h32v-133h78c6 82 61 138 139 138zM304 23c64 0 108 51 108 127c0 77 -43 127 -108 127c-63 0 -107 -51 -107 -127c0 -77 43 -127 107 -127z" />
    <glyph glyph-name="uni044F" unicode="&#x44f;" horiz-adv-x="313" 
d="M259 300v-300h-31v124h-87h-8l-81 -124h-35l85 130c-40 12 -64 42 -64 82c0 52 41 88 103 88h118zM142 151h86v121h-86c-45 0 -71 -23 -71 -60c0 -38 26 -61 71 -61z" />
    <glyph glyph-name="uni0436.ss01" horiz-adv-x="458" 
d="M418 29h10v-29h-16c-26 0 -42 17 -42 47v92h-125v-139h-32v139h-125v-92c0 -30 -16 -47 -43 -47h-15v29h10c9 0 16 7 16 17v122h55l-74 132h34l74 -132h68v232h32v-232h67l75 132h34l-75 -132h56v-122c0 -10 7 -17 16 -17z" />
    <glyph glyph-name="uni043A.ss01" horiz-adv-x="324" 
d="M284 29h10v-29h-15c-26 0 -42 17 -42 47v92h-150v-139h-32v400h32v-232h84l82 132h35l-84 -132h64v-122c0 -10 7 -17 16 -17z" />
    <glyph glyph-name="uni0443.ss01" horiz-adv-x="309" 
d="M265 300h35l-104 -303c-25 -73 -51 -102 -92 -102c-40 0 -67 28 -67 69c0 29 12 51 30 65h41l-109 271h35l107 -271h34zM104 -77c25 0 43 19 59 77h-84c-8 -10 -13 -22 -13 -34c0 -26 15 -43 38 -43z" />
    <glyph glyph-name="uni045E.ss01" horiz-adv-x="309" 
d="M156 333c-45 0 -75 25 -80 66l29 4c3 -28 21 -44 51 -44s48 16 51 44l29 -4c-5 -41 -35 -66 -80 -66zM265 300h35l-104 -303c-25 -73 -51 -102 -92 -102c-40 0 -67 28 -67 69c0 29 12 51 30 65h41l-109 271h35l107 -271h34zM104 -77c25 0 43 19 59 77h-84
c-8 -10 -13 -22 -13 -34c0 -26 15 -43 38 -43z" />
    <glyph glyph-name="uni044F.ss01" horiz-adv-x="329" 
d="M274 300v-300h-32v122h-156v-75c0 -30 -16 -47 -42 -47h-16v29h10c9 0 16 7 16 17v98h39c-30 13 -47 38 -47 72c0 51 37 84 96 84h132zM143 272c-40 0 -64 -21 -64 -58c0 -39 30 -65 74 -65h89v123h-99z" />
    <glyph glyph-name="uni0436.ss02" horiz-adv-x="452" 
d="M408 0l-117 161l-49 -45v-116h-32v116l-49 46l-117 -162h-39l134 183l-126 117h42l155 -147v247h32v-249l156 149h41l-126 -117l134 -183h-39z" />
    <glyph glyph-name="uni043A.ss02" horiz-adv-x="308" 
d="M263 0l-126 155l-50 -46v-109h-32v400h32v-255l168 155h41l-136 -125l144 -175h-41z" />
    <glyph glyph-name="uni044F.ss02" horiz-adv-x="313" 
d="M259 300v-300h-31v124h-87h-8l-81 -124h-35l85 130c-40 12 -64 42 -64 82c0 52 41 88 103 88h118zM142 151h86v121h-86c-45 0 -71 -23 -71 -60c0 -38 26 -61 71 -61z" />
    <glyph glyph-name="uni0436.ss03" horiz-adv-x="458" 
d="M418 29h10v-29h-16c-26 0 -42 17 -42 47v92h-125v-139h-32v139h-125v-92c0 -30 -16 -47 -43 -47h-15v29h10c9 0 16 7 16 17v122h55l-74 132h34l74 -132h68v132h32v-132h67l75 132h34l-75 -132h56v-122c0 -10 7 -17 16 -17z" />
    <glyph glyph-name="uni043A.ss03" horiz-adv-x="324" 
d="M284 29h10v-29h-15c-26 0 -42 17 -42 47v92h-150v-139h-32v300h32v-132h84l82 132h35l-84 -132h64v-122c0 -10 7 -17 16 -17z" />
    <glyph glyph-name="uni0443.ss03" horiz-adv-x="309" 
d="M265 300h35l-104 -303c-25 -73 -51 -102 -92 -102c-40 0 -67 28 -67 69c0 29 12 51 30 65h41l-109 271h35l107 -271h34zM104 -77c25 0 43 19 59 77h-84c-8 -10 -13 -22 -13 -34c0 -26 15 -43 38 -43z" />
    <glyph glyph-name="uni045E.ss03" horiz-adv-x="309" 
d="M156 333c-45 0 -75 25 -80 66l29 4c3 -28 21 -44 51 -44s48 16 51 44l29 -4c-5 -41 -35 -66 -80 -66zM265 300h35l-104 -303c-25 -73 -51 -102 -92 -102c-40 0 -67 28 -67 69c0 29 12 51 30 65h41l-109 271h35l107 -271h34zM104 -77c25 0 43 19 59 77h-84
c-8 -10 -13 -22 -13 -34c0 -26 15 -43 38 -43z" />
    <glyph glyph-name="uni044F.ss03" horiz-adv-x="329" 
d="M274 300v-300h-32v122h-156v-75c0 -30 -16 -47 -42 -47h-16v29h10c9 0 16 7 16 17v98h39c-30 13 -47 38 -47 72c0 51 37 84 96 84h132zM143 272c-40 0 -64 -21 -64 -58c0 -39 30 -65 74 -65h89v123h-99z" />
    <glyph glyph-name="uni0436.ss04" horiz-adv-x="469" 
d="M426 29h10v-29h-16c-26 0 -42 17 -42 47v53c0 25 -12 38 -33 38h-94v-138h-32v138h-94c-21 0 -33 -13 -33 -38v-53c0 -30 -17 -47 -43 -47h-15v29h10c9 0 16 7 16 17v53c0 42 20 66 57 68l-76 133h34l75 -133h69v233h32v-233h69l76 133h33l-77 -133c37 -2 58 -26 58 -68
v-53c0 -10 7 -17 16 -17z" />
    <glyph glyph-name="uni043A.ss04" horiz-adv-x="326" 
d="M281 29h11v-29h-16c-26 0 -42 17 -42 47v53c0 25 -12 38 -34 38h-113v-138h-32v400h32v-233h90l75 133h33l-75 -133c36 -3 56 -27 56 -68v-53c0 -10 6 -17 15 -17z" />
    <glyph glyph-name="uni044F.ss04" horiz-adv-x="325" 
d="M271 300v-300h-32v125h-118c-22 0 -33 -14 -33 -41v-37c0 -30 -17 -47 -42 -47h-16v29h10c9 0 16 7 16 17v37c0 31 13 51 37 59c-29 13 -45 39 -45 72c0 52 39 86 99 86h124zM149 272c-44 0 -69 -22 -69 -59s25 -61 69 -61h90v120h-90z" />
    <glyph glyph-name="uni0436.ss05" horiz-adv-x="469" 
d="M426 29h10v-29h-16c-26 0 -42 17 -42 47v53c0 25 -12 38 -33 38h-94v-138h-32v138h-94c-21 0 -33 -13 -33 -38v-53c0 -30 -17 -47 -43 -47h-15v29h10c9 0 16 7 16 17v53c0 42 20 66 57 68l-76 133h34l75 -133h69v133h32v-133h69l76 133h33l-77 -133c37 -2 58 -26 58 -68
v-53c0 -10 7 -17 16 -17z" />
    <glyph glyph-name="uni043A.ss05" horiz-adv-x="326" 
d="M281 29h11v-29h-16c-26 0 -42 17 -42 47v53c0 25 -12 38 -34 38h-113v-138h-32v300h32v-133h90l75 133h33l-75 -133c36 -3 56 -27 56 -68v-53c0 -10 6 -17 15 -17z" />
    <glyph glyph-name="uni044F.ss05" horiz-adv-x="325" 
d="M271 300v-300h-32v125h-118c-22 0 -33 -14 -33 -41v-37c0 -30 -17 -47 -42 -47h-16v29h10c9 0 16 7 16 17v37c0 31 13 51 37 59c-29 13 -45 39 -45 72c0 52 39 86 99 86h124zM149 272c-44 0 -69 -22 -69 -59s25 -61 69 -61h90v120h-90z" />
    <glyph glyph-name="uni0443.ss06" horiz-adv-x="308" 
d="M270 300h34l-138 -344c-16 -43 -35 -56 -74 -56h-51v29h50c27 0 33 4 47 38l8 21l-135 312h35l117 -273z" />
    <glyph glyph-name="uni045E.ss06" horiz-adv-x="308" 
d="M156 333c-45 0 -75 25 -80 66l29 4c3 -28 21 -44 51 -44s48 16 51 44l29 -4c-5 -41 -35 -66 -80 -66zM270 300h34l-138 -344c-16 -43 -35 -56 -74 -56h-51v29h50c27 0 33 4 47 38l8 21l-135 312h35l117 -273z" />
    <glyph glyph-name="uni043D.ss07" 
d="M274 300h31v-300h-34l-185 255v-255h-31v300h34l185 -255v255z" />
    <glyph glyph-name="uni0430.stress" horiz-adv-x="316" 
d="M211 400l-45 -64h-26l32 64h39zM283 27h11v-27c-1 -1 -9 -2 -12 -2c-34 0 -48 15 -49 52c-21 -32 -64 -55 -113 -55c-58 0 -95 32 -95 82c0 71 67 83 124 95c44 9 81 15 81 46c0 35 -31 59 -77 59c-40 0 -73 -17 -98 -50l-24 22c30 36 74 56 123 56c67 0 108 -36 108 -96
v-159c0 -17 6 -23 21 -23zM121 24c62 0 111 41 111 94v55c-19 -15 -49 -22 -80 -27c-47 -9 -94 -18 -94 -69c0 -33 23 -53 63 -53z" />
    <glyph glyph-name="uni0435.stress" horiz-adv-x="340" 
d="M233 400l-45 -64h-26l32 64h39zM63 138c5 -71 49 -114 119 -114c41 0 79 18 100 46l22 -20c-22 -27 -67 -55 -122 -55c-97 0 -152 66 -152 155c0 91 62 155 144 155c84 0 138 -61 138 -155v-12h-249zM174 277c-62 0 -105 -44 -110 -112h216c-5 69 -45 112 -106 112z" />
    <glyph glyph-name="uni0451.stress" horiz-adv-x="340" 
d="M213 417l-44 -64h-27l33 64h38zM134 391v-38h-39v38h39zM206 353v38h39v-38h-39zM63 138c5 -71 49 -114 119 -114c41 0 79 18 100 46l22 -20c-22 -27 -67 -55 -122 -55c-97 0 -152 66 -152 155c0 91 62 155 144 155c84 0 138 -61 138 -155v-12h-249zM174 277
c-62 0 -105 -44 -110 -112h216c-5 69 -45 112 -106 112z" />
    <glyph glyph-name="uni0438.stress" 
d="M243 400l-45 -64h-26l32 64h39zM271 300h34v-300h-31v255l-185 -255h-34v300h31v-255z" />
    <glyph glyph-name="uni043E.stress" horiz-adv-x="350" 
d="M167 336l32 64h39l-45 -64h-26zM175 -5c-87 0 -145 62 -145 155c0 91 59 155 145 155c87 0 145 -62 145 -155c0 -91 -59 -155 -145 -155zM175 23c67 0 112 51 112 127c0 77 -44 127 -112 127c-67 0 -112 -51 -112 -127c0 -77 45 -127 112 -127z" />
    <glyph glyph-name="uni0443.stress" horiz-adv-x="308" 
d="M219 400l-45 -64h-26l32 64h39zM269 300h34l-121 -325c-14 -38 -38 -80 -84 -80c-44 0 -65 30 -64 78l30 5c-3 -24 3 -54 36 -54c23 0 40 23 50 51l-140 325h35l121 -283z" />
    <glyph glyph-name="uni044B.stress" horiz-adv-x="432" 
d="M279 400l-45 -64h-26l32 64h39zM180 176c63 0 104 -36 104 -88s-42 -88 -104 -88h-125v300h32v-124h93zM345 300h32v-300h-32v300zM180 29c44 0 71 23 71 59c0 37 -27 59 -71 59h-93v-118h93z" />
    <glyph glyph-name="uni0454.stress" horiz-adv-x="328" 
d="M234 400l-45 -64h-26l32 64h39zM174 23c49 0 86 30 100 73l29 -10c-17 -56 -64 -91 -129 -91c-85 0 -144 62 -144 155c0 90 60 155 144 155c65 0 112 -35 129 -91l-30 -10c-14 43 -50 73 -99 73c-60 0 -105 -45 -111 -110h156v-28h-157c5 -70 50 -116 112 -116z" />
    <glyph glyph-name="uni044D.stress" horiz-adv-x="325" 
d="M216 400l-45 -64h-26l32 64h39zM153 305c83 0 142 -65 142 -155c0 -93 -58 -155 -142 -155c-63 0 -112 36 -130 91l27 9c14 -42 52 -72 103 -72c63 0 106 46 110 116h-157v28h156c-6 65 -48 110 -109 110c-50 0 -88 -30 -102 -73l-28 10c18 54 67 91 130 91z" />
    <glyph glyph-name="uni0456.stress" horiz-adv-x="151" 
d="M67 336l32 64h39l-45 -64h-26zM60 0v300h32v-300h-32z" />
    <glyph glyph-name="uni0457.stress" horiz-adv-x="151" 
d="M47 353l33 64h38l-44 -64h-27zM0 353v38h39v-38h-39zM111 353v38h39v-38h-39zM60 0v300h32v-300h-32z" />
    <glyph glyph-name="uni044E.stress" horiz-adv-x="474" 
d="M279 400l-45 -64h-26l32 64h39zM304 305c85 0 141 -62 141 -155c0 -91 -58 -155 -141 -155c-81 0 -135 57 -140 144h-77v-139h-32v300h32v-133h78c6 82 61 138 139 138zM304 23c64 0 108 51 108 127c0 77 -43 127 -108 127c-63 0 -107 -51 -107 -127
c0 -77 43 -127 107 -127z" />
    <glyph glyph-name="uni044F.stress" horiz-adv-x="313" 
d="M231 400l-45 -64h-26l32 64h39zM259 300v-300h-31v124h-87h-8l-81 -124h-35l85 130c-40 12 -64 42 -64 82c0 52 41 88 103 88h118zM142 151h86v121h-86c-45 0 -71 -23 -71 -60c0 -38 26 -61 71 -61z" />
    <glyph glyph-name="uni0443.ss03.stress" horiz-adv-x="309" 
d="M219 400l-45 -64h-26l32 64h39zM265 300h35l-104 -303c-25 -73 -51 -102 -92 -102c-40 0 -67 28 -67 69c0 29 12 51 30 65h41l-109 271h35l107 -271h34zM104 -77c25 0 43 19 59 77h-84c-8 -10 -13 -22 -13 -34c0 -26 15 -43 38 -43z" />
    <glyph glyph-name="uni044F.ss03.stress" horiz-adv-x="329" 
d="M224 400l-45 -64h-26l32 64h39zM274 300v-300h-32v122h-156v-75c0 -30 -16 -47 -42 -47h-16v29h10c9 0 16 7 16 17v98h39c-30 13 -47 38 -47 72c0 51 37 84 96 84h132zM143 272c-40 0 -64 -21 -64 -58c0 -39 30 -65 74 -65h89v123h-99z" />
    <glyph glyph-name="uni044F.ss04.stress" horiz-adv-x="325" 
d="M233 400l-45 -64h-26l32 64h39zM271 300v-300h-32v125h-118c-22 0 -33 -14 -33 -41v-37c0 -30 -17 -47 -42 -47h-16v29h10c9 0 16 7 16 17v37c0 31 13 51 37 59c-29 13 -45 39 -45 72c0 52 39 86 99 86h124zM149 272c-44 0 -69 -22 -69 -59s25 -61 69 -61h90v120h-90z
" />
    <glyph glyph-name="uni0443.ss06.stress" horiz-adv-x="308" 
d="M219 400l-45 -64h-26l32 64h39zM270 300h34l-138 -344c-16 -43 -35 -56 -74 -56h-51v29h50c27 0 33 4 47 38l8 21l-135 312h35l117 -273z" />
    <glyph glyph-name="zero" unicode="0" 
d="M180 -5c-88 0 -146 78 -146 195s58 195 146 195s146 -78 146 -195s-58 -195 -146 -195zM180 24c68 0 113 65 113 166s-45 166 -113 166s-113 -65 -113 -166s45 -166 113 -166z" />
    <glyph glyph-name="one" unicode="1" horiz-adv-x="210" 
d="M104 0v292h-93v25h14c68 0 87 14 92 63h20v-380h-33z" />
    <glyph glyph-name="two" unicode="2" horiz-adv-x="288" 
d="M64 30h206v-30h-257v21l128 122c53 49 83 93 83 132c0 48 -33 82 -81 82c-56 0 -92 -36 -98 -96l-31 8c8 71 58 116 129 116c68 0 114 -45 114 -109c0 -44 -29 -90 -95 -153z" />
    <glyph glyph-name="three" unicode="3" horiz-adv-x="296" 
d="M163 231c70 0 108 -54 108 -112c0 -61 -43 -124 -135 -124c-59 0 -109 27 -132 74l28 16c18 -41 53 -62 104 -62c62 0 102 39 102 98c0 54 -36 84 -80 84c-17 0 -35 -5 -53 -13l-15 20l128 139h-198v29h241v-23l-122 -129c8 2 16 3 24 3z" />
    <glyph glyph-name="four" unicode="4" horiz-adv-x="306" 
d="M306 130v-28h-68v-102h-32v102h-191v24l188 254h35v-250h68zM51 130h155v211z" />
    <glyph glyph-name="five" unicode="5" horiz-adv-x="304" 
d="M150 253c75 0 129 -52 129 -127c0 -76 -57 -131 -138 -131c-58 0 -104 28 -126 71l26 19c17 -36 50 -61 101 -61c63 0 104 41 104 102c0 59 -37 98 -96 98c-39 0 -70 -17 -87 -49l-27 6l17 199h197v-30h-171l-11 -130c20 21 48 33 82 33z" />
    <glyph glyph-name="six" unicode="6" horiz-adv-x="314" 
d="M180 240c71 0 125 -51 125 -122c0 -70 -55 -123 -129 -123c-87 0 -142 76 -142 195c0 116 58 195 148 195c47 0 88 -19 113 -53l-22 -21c-23 31 -54 46 -91 46c-72 0 -120 -68 -120 -167c0 -8 -1 -14 1 -25c19 48 62 75 117 75zM175 24c57 0 98 39 98 94s-41 94 -98 94
c-56 0 -97 -39 -97 -94c0 -52 43 -94 97 -94z" />
    <glyph glyph-name="seven" unicode="7" horiz-adv-x="265" 
d="M0 380h272v-21c-91 -84 -152 -217 -152 -359h-32c0 143 70 282 140 350h-228v30z" />
    <glyph glyph-name="eight" unicode="8" horiz-adv-x="312" 
d="M216 191c45 -15 72 -47 72 -92c0 -62 -53 -104 -132 -104c-78 0 -131 42 -131 104c0 45 27 77 72 92c-37 16 -59 48 -59 88c0 64 47 106 118 106c72 0 119 -42 119 -106c0 -40 -22 -72 -59 -88zM71 279c0 -47 34 -76 85 -76c52 0 85 29 85 76c0 48 -33 78 -85 78
c-51 0 -85 -30 -85 -78zM156 23c60 0 100 30 100 77s-40 77 -100 77c-59 0 -99 -30 -99 -77s40 -77 99 -77z" />
    <glyph glyph-name="nine" unicode="9" horiz-adv-x="314" 
d="M139 385c87 0 142 -76 142 -195c0 -116 -58 -195 -149 -195c-47 0 -88 19 -112 53l22 21c23 -31 54 -46 90 -46c73 0 121 68 121 167c0 8 1 15 -1 27c-19 -49 -63 -77 -118 -77c-71 0 -125 51 -125 122c0 70 56 123 130 123zM139 168c57 0 98 39 98 94
c0 52 -44 94 -97 94c-57 0 -98 -39 -98 -94s41 -94 97 -94z" />
    <glyph glyph-name="zero.zero" 
d="M180 385c88 0 146 -78 146 -195s-58 -195 -146 -195s-146 78 -146 195s58 195 146 195zM180 356c-69 0 -115 -64 -115 -166c0 -46 10 -85 26 -113l161 249c-19 19 -44 30 -72 30zM180 24c69 0 115 64 115 166c0 46 -10 85 -26 113l-161 -249c19 -19 44 -30 72 -30z" />
    <glyph glyph-name="zero.lf" 
d="M180 -5c-88 0 -146 78 -146 195s58 195 146 195s146 -78 146 -195s-58 -195 -146 -195zM180 24c68 0 113 65 113 166s-45 166 -113 166s-113 -65 -113 -166s45 -166 113 -166z" />
    <glyph glyph-name="one.lf" horiz-adv-x="225" 
d="M104 0v292h-93v25h14c68 0 87 14 92 63h20v-380h-33z" />
    <glyph glyph-name="two.lf" horiz-adv-x="301" 
d="M64 30h206v-30h-257v21l128 122c53 49 83 93 83 132c0 48 -33 82 -81 82c-56 0 -92 -36 -98 -96l-31 8c8 71 58 116 129 116c68 0 114 -45 114 -109c0 -44 -29 -90 -95 -153z" />
    <glyph glyph-name="three.lf" horiz-adv-x="305" 
d="M163 231c70 0 108 -54 108 -112c0 -61 -43 -124 -135 -124c-59 0 -109 27 -132 74l28 16c18 -41 53 -62 104 -62c62 0 102 39 102 98c0 54 -36 84 -80 84c-17 0 -35 -5 -53 -13l-15 20l128 139h-198v29h241v-23l-122 -129c8 2 16 3 24 3z" />
    <glyph glyph-name="four.lf" horiz-adv-x="320" 
d="M306 130v-28h-68v-102h-32v102h-191v24l188 254h35v-250h68zM51 130h155v211z" />
    <glyph glyph-name="five.lf" horiz-adv-x="316" 
d="M150 253c75 0 129 -52 129 -127c0 -76 -57 -131 -138 -131c-58 0 -104 28 -126 71l26 19c17 -36 50 -61 101 -61c63 0 104 41 104 102c0 59 -37 98 -96 98c-39 0 -70 -17 -87 -49l-27 6l17 199h197v-30h-171l-11 -130c20 21 48 33 82 33z" />
    <glyph glyph-name="six.lf" horiz-adv-x="326" 
d="M180 240c71 0 125 -51 125 -122c0 -70 -55 -123 -129 -123c-87 0 -142 76 -142 195c0 116 58 195 148 195c47 0 88 -19 113 -53l-22 -21c-23 31 -54 46 -91 46c-72 0 -120 -68 -120 -167c0 -8 -1 -14 1 -25c19 48 62 75 117 75zM175 24c57 0 98 39 98 94s-41 94 -98 94
c-56 0 -97 -39 -97 -94c0 -52 43 -94 97 -94z" />
    <glyph glyph-name="seven.lf" horiz-adv-x="279" 
d="M0 380h272v-21c-91 -84 -152 -217 -152 -359h-32c0 143 70 282 140 350h-228v30z" />
    <glyph glyph-name="eight.lf" horiz-adv-x="324" 
d="M216 191c45 -15 72 -47 72 -92c0 -62 -53 -104 -132 -104c-78 0 -131 42 -131 104c0 45 27 77 72 92c-37 16 -59 48 -59 88c0 64 47 106 118 106c72 0 119 -42 119 -106c0 -40 -22 -72 -59 -88zM71 279c0 -47 34 -76 85 -76c52 0 85 29 85 76c0 48 -33 78 -85 78
c-51 0 -85 -30 -85 -78zM156 23c60 0 100 30 100 77s-40 77 -100 77c-59 0 -99 -30 -99 -77s40 -77 99 -77z" />
    <glyph glyph-name="nine.lf" horiz-adv-x="326" 
d="M139 385c87 0 142 -76 142 -195c0 -116 -58 -195 -149 -195c-47 0 -88 19 -112 53l22 21c23 -31 54 -46 90 -46c73 0 121 68 121 167c0 8 1 15 -1 27c-19 -49 -63 -77 -118 -77c-71 0 -125 51 -125 122c0 70 56 123 130 123zM139 168c57 0 98 39 98 94
c0 52 -44 94 -97 94c-57 0 -98 -39 -98 -94s41 -94 97 -94z" />
    <glyph glyph-name="zero.lf.zero" 
d="M180 385c88 0 146 -78 146 -195s-58 -195 -146 -195s-146 78 -146 195s58 195 146 195zM180 356c-69 0 -115 -64 -115 -166c0 -46 10 -85 26 -113l161 249c-19 19 -44 30 -72 30zM180 24c69 0 115 64 115 166c0 46 -10 85 -26 113l-161 -249c19 -19 44 -30 72 -30z" />
    <glyph glyph-name="zero.osf" 
d="M180 -5c-88 0 -146 66 -146 165c0 97 62 165 146 165c88 0 146 -66 146 -165c0 -97 -62 -165 -146 -165zM180 24c68 0 113 54 113 136s-45 137 -113 137s-113 -55 -113 -137s45 -136 113 -136z" />
    <glyph glyph-name="one.osf" horiz-adv-x="190" 
d="M106 0v239h-92v25h14c68 0 87 14 92 63h19v-327h-33z" />
    <glyph glyph-name="two.osf" horiz-adv-x="300" 
d="M73 30h216v-30h-273v21l123 91c65 49 88 76 88 113c0 43 -33 72 -83 72c-53 0 -88 -31 -98 -86l-31 5c13 66 66 109 130 109c65 0 112 -40 112 -100c0 -43 -19 -72 -100 -132z" />
    <glyph glyph-name="three.osf" horiz-adv-x="300" 
d="M167 171c70 0 108 -54 108 -112c0 -61 -44 -124 -135 -124c-59 0 -109 27 -133 74l29 16c17 -41 53 -62 104 -62c62 0 102 39 102 98c0 54 -36 84 -80 84c-17 0 -36 -5 -53 -13l-15 20l128 139h-198v29h241v-23l-122 -129c8 2 16 3 24 3z" />
    <glyph glyph-name="four.osf" horiz-adv-x="320" 
d="M306 70v-28h-68v-102h-32v102h-190v24l188 254h34v-250h68zM51 70h155v209z" />
    <glyph glyph-name="five.osf" horiz-adv-x="316" 
d="M163 193c75 0 129 -52 129 -127c0 -76 -57 -131 -138 -131c-58 0 -105 28 -126 71l26 19c17 -36 50 -61 101 -61c63 0 104 41 104 102c0 59 -38 98 -96 98c-39 0 -71 -17 -88 -49l-26 6l17 199h197v-30h-171l-11 -130c20 21 48 33 82 33z" />
    <glyph glyph-name="six.osf" horiz-adv-x="336" 
d="M183 240c71 0 125 -51 125 -122c0 -70 -55 -123 -129 -123c-87 0 -142 76 -142 195c0 116 58 195 148 195c47 0 88 -19 113 -53l-22 -21c-23 31 -54 46 -91 46c-72 0 -120 -68 -120 -167c0 -8 -1 -14 1 -25c19 48 62 75 117 75zM178 24c57 0 98 39 98 94s-41 94 -98 94
c-56 0 -97 -39 -97 -94c0 -52 43 -94 97 -94z" />
    <glyph glyph-name="seven.osf" horiz-adv-x="279" 
d="M1 320h272v-21c-92 -84 -152 -217 -152 -359h-32c0 143 69 282 140 350h-228v30z" />
    <glyph glyph-name="eight.osf" horiz-adv-x="324" 
d="M221 191c45 -15 72 -47 72 -92c0 -62 -53 -104 -131 -104s-131 42 -131 104c0 45 27 77 72 92c-37 16 -59 48 -59 88c0 64 47 106 118 106s118 -42 118 -106c0 -40 -22 -72 -59 -88zM76 279c0 -47 34 -76 86 -76s85 29 85 76c0 48 -33 78 -85 78s-86 -30 -86 -78zM162 23
c60 0 99 30 99 77s-39 77 -99 77s-99 -30 -99 -77s39 -77 99 -77z" />
    <glyph glyph-name="nine.osf" horiz-adv-x="328" 
d="M141 325c87 0 142 -76 142 -195c0 -116 -58 -195 -149 -195c-47 0 -88 19 -112 53l22 21c23 -31 54 -46 90 -46c73 0 121 68 121 167c0 8 1 15 -1 27c-19 -49 -63 -77 -118 -77c-71 0 -125 51 -125 122c0 70 56 123 130 123zM141 108c57 0 98 39 98 94
c0 52 -44 94 -97 94c-57 0 -98 -39 -98 -94s41 -94 97 -94z" />
    <glyph glyph-name="zero.osf.zero" 
d="M180 325c88 0 146 -66 146 -165c0 -97 -62 -165 -146 -165c-88 0 -146 66 -146 165c0 97 62 165 146 165zM67 160c0 -38 9 -69 26 -93l156 206c-19 15 -42 24 -69 24c-68 0 -113 -55 -113 -137zM180 24c68 0 113 54 113 136c0 37 -9 69 -26 93l-155 -205
c18 -16 41 -24 68 -24z" />
    <glyph glyph-name="zero.tf" 
d="M180 -5c-88 0 -146 78 -146 195s58 195 146 195s146 -78 146 -195s-58 -195 -146 -195zM180 24c68 0 113 65 113 166s-45 166 -113 166s-113 -65 -113 -166s45 -166 113 -166z" />
    <glyph glyph-name="one.tf" 
d="M209 27h117v-27h-266v27h117v265h-103v25h39c64 0 72 14 77 63h19v-353z" />
    <glyph glyph-name="two.tf" 
d="M100 30h206v-30h-256v21l128 122c53 49 83 93 83 132c0 48 -33 82 -81 82c-56 0 -92 -36 -98 -96l-31 8c8 71 58 116 129 116c67 0 114 -45 114 -109c0 -44 -30 -90 -95 -153z" />
    <glyph glyph-name="three.tf" 
d="M197 231c70 0 108 -54 108 -112c0 -61 -44 -124 -135 -124c-59 0 -109 27 -133 74l29 16c17 -41 53 -62 104 -62c62 0 102 39 102 98c0 54 -36 84 -80 84c-17 0 -36 -5 -53 -13l-15 20l128 139h-198v29h241v-23l-122 -129c8 2 16 3 24 3z" />
    <glyph glyph-name="four.tf" 
d="M329 130v-28h-68v-102h-32v102h-190v24l188 254h34v-250h68zM74 130h155v209z" />
    <glyph glyph-name="five.tf" 
d="M177 253c75 0 129 -52 129 -127c0 -76 -57 -131 -138 -131c-58 0 -105 28 -126 71l26 19c17 -36 50 -61 101 -61c63 0 104 41 104 102c0 59 -38 98 -96 98c-39 0 -71 -17 -88 -49l-26 6l17 199h197v-30h-171l-11 -130c20 21 48 33 82 33z" />
    <glyph glyph-name="six.tf" 
d="M200 240c71 0 125 -51 125 -122c0 -70 -55 -123 -129 -123c-87 0 -142 76 -142 195c0 116 58 195 148 195c47 0 88 -19 113 -53l-23 -21c-23 31 -53 46 -90 46c-73 0 -121 -68 -120 -167c0 -8 -1 -15 0 -26c19 48 63 76 118 76zM195 24c56 0 97 39 97 94s-40 94 -97 94
s-97 -39 -97 -94c0 -52 43 -94 97 -94z" />
    <glyph glyph-name="seven.tf" 
d="M45 380h286v-21c-97 -84 -159 -216 -159 -359h-38c0 136 74 280 154 349h-243v31z" />
    <glyph glyph-name="eight.tf" 
d="M239 191c45 -15 72 -47 72 -92c0 -62 -53 -104 -131 -104s-131 42 -131 104c0 45 27 77 72 92c-37 16 -59 48 -59 88c0 64 47 106 118 106s118 -42 118 -106c0 -40 -22 -72 -59 -88zM94 279c0 -47 34 -76 86 -76s85 29 85 76c0 48 -33 78 -85 78s-86 -30 -86 -78zM180 23
c60 0 99 30 99 77s-39 77 -99 77s-99 -30 -99 -77s39 -77 99 -77z" />
    <glyph glyph-name="nine.tf" 
d="M164 385c87 0 142 -76 142 -195c0 -116 -58 -195 -148 -195c-47 0 -88 19 -113 53l23 21c23 -31 53 -46 90 -46c73 0 121 68 120 167c0 8 1 15 0 26c-19 -48 -63 -76 -118 -76c-71 0 -125 51 -125 122c0 70 55 123 129 123zM165 168c57 0 97 39 97 94c0 52 -43 94 -97 94
c-56 0 -97 -39 -97 -94s40 -94 97 -94z" />
    <glyph glyph-name="zero.tf.zero" 
d="M180 385c88 0 146 -78 146 -195s-58 -195 -146 -195s-146 78 -146 195s58 195 146 195zM180 356c-69 0 -115 -64 -115 -166c0 -46 10 -85 26 -113l161 249c-19 19 -44 30 -72 30zM180 24c69 0 115 64 115 166c0 46 -10 85 -26 113l-161 -249c19 -19 44 -30 72 -30z" />
    <glyph glyph-name="zero.tosf" 
d="M180 -5c-88 0 -146 66 -146 165c0 97 62 165 146 165c88 0 146 -66 146 -165c0 -97 -62 -165 -146 -165zM180 24c68 0 113 54 113 136s-45 137 -113 137s-113 -55 -113 -137s45 -136 113 -136z" />
    <glyph glyph-name="one.tosf" 
d="M209 27h117v-27h-266v27h117v205h-103v25h39c64 0 72 14 77 63h19v-293z" />
    <glyph glyph-name="two.tosf" 
d="M90 30h216v-30h-273v21l123 91c65 49 88 76 88 113c0 43 -33 72 -83 72c-53 0 -88 -31 -98 -86l-31 5c13 66 66 109 130 109c65 0 112 -40 112 -100c0 -43 -19 -72 -100 -132z" />
    <glyph glyph-name="three.tosf" 
d="M197 171c70 0 108 -54 108 -112c0 -61 -44 -124 -135 -124c-59 0 -109 27 -133 74l29 16c17 -41 53 -62 104 -62c62 0 102 39 102 98c0 54 -36 84 -80 84c-17 0 -36 -5 -53 -13l-15 20l128 139h-198v29h241v-23l-122 -129c8 2 16 3 24 3z" />
    <glyph glyph-name="four.tosf" 
d="M329 70v-28h-68v-102h-32v102h-190v24l188 254h34v-250h68zM74 70h155v209z" />
    <glyph glyph-name="five.tosf" 
d="M177 193c75 0 129 -52 129 -127c0 -76 -57 -131 -138 -131c-58 0 -105 28 -126 71l26 19c17 -36 50 -61 101 -61c63 0 104 41 104 102c0 59 -38 98 -96 98c-39 0 -71 -17 -88 -49l-26 6l17 199h197v-30h-171l-11 -130c20 21 48 33 82 33z" />
    <glyph glyph-name="six.tosf" 
d="M200 240c71 0 125 -51 125 -122c0 -70 -55 -123 -129 -123c-87 0 -142 76 -142 195c0 116 58 195 148 195c47 0 88 -19 113 -53l-23 -21c-23 31 -53 46 -90 46c-73 0 -121 -68 -120 -167c0 -8 -1 -15 0 -26c19 48 63 76 118 76zM195 24c56 0 97 39 97 94s-40 94 -97 94
s-97 -39 -97 -94c0 -52 43 -94 97 -94z" />
    <glyph glyph-name="seven.tosf" 
d="M45 320h286v-21c-97 -84 -159 -216 -159 -359h-38c0 136 74 280 154 349h-243v31z" />
    <glyph glyph-name="eight.tosf" 
d="M239 191c45 -15 72 -47 72 -92c0 -62 -53 -104 -131 -104s-131 42 -131 104c0 45 27 77 72 92c-37 16 -59 48 -59 88c0 64 47 106 118 106s118 -42 118 -106c0 -40 -22 -72 -59 -88zM94 279c0 -47 34 -76 86 -76s85 29 85 76c0 48 -33 78 -85 78s-86 -30 -86 -78zM180 23
c60 0 99 30 99 77s-39 77 -99 77s-99 -30 -99 -77s39 -77 99 -77z" />
    <glyph glyph-name="nine.tosf" 
d="M164 325c87 0 142 -76 142 -195c0 -116 -58 -195 -148 -195c-47 0 -88 19 -113 53l23 21c23 -31 53 -46 90 -46c73 0 121 68 120 167c0 8 1 15 0 26c-19 -48 -63 -76 -118 -76c-71 0 -125 51 -125 122c0 70 55 123 129 123zM165 108c57 0 97 39 97 94c0 52 -43 94 -97 94
c-56 0 -97 -39 -97 -94s40 -94 97 -94z" />
    <glyph glyph-name="zero.tosf.zero" 
d="M180 325c88 0 146 -66 146 -165c0 -97 -62 -165 -146 -165c-88 0 -146 66 -146 165c0 97 62 165 146 165zM67 160c0 -38 9 -69 26 -93l156 206c-19 15 -42 24 -69 24c-68 0 -113 -55 -113 -137zM180 24c68 0 113 54 113 136c0 37 -9 69 -26 93l-155 -205
c18 -16 41 -24 68 -24z" />
    <glyph glyph-name="uni2080" unicode="&#x2080;" horiz-adv-x="234" 
d="M117 -83c-58 0 -97 47 -97 115s39 115 97 115s97 -47 97 -115s-39 -115 -97 -115zM117 -55c39 0 66 35 66 87s-27 87 -66 87s-66 -35 -66 -87s27 -87 66 -87z" />
    <glyph glyph-name="uni2081" unicode="&#x2081;" horiz-adv-x="190" 
d="M124 144v-224h-31v161h-58v25h10c45 0 55 9 58 38h21z" />
    <glyph glyph-name="uni2082" unicode="&#x2082;" horiz-adv-x="234" 
d="M83 -51h120v-29h-172v19l83 70c33 28 50 50 50 71c0 23 -19 39 -49 39c-32 0 -53 -18 -56 -50l-28 5c4 45 38 73 86 73c47 0 79 -26 79 -63c0 -30 -21 -56 -65 -94z" />
    <glyph glyph-name="uni2083" unicode="&#x2083;" horiz-adv-x="234" 
d="M131 58c41 0 69 -27 69 -65c0 -44 -38 -76 -88 -76c-39 0 -74 19 -89 47l25 16c11 -22 35 -35 65 -35c35 0 57 18 57 45s-21 45 -49 45c-11 0 -21 -3 -28 -7l-16 17l71 70h-114v29h160v-20l-69 -66h6z" />
    <glyph glyph-name="uni2084" unicode="&#x2084;" horiz-adv-x="234" 
d="M216 2v-28h-42v-54h-30v54h-122v25l117 145h35v-142h42zM57 2h87v110z" />
    <glyph glyph-name="uni2085" unicode="&#x2085;" horiz-adv-x="234" 
d="M118 72c48 0 82 -31 82 -75c0 -47 -38 -80 -91 -80c-38 0 -68 17 -82 42l24 17c10 -18 31 -31 59 -31c35 0 60 20 60 51c0 30 -23 49 -56 49c-23 0 -42 -9 -52 -24l-24 6l11 117h134v-29h-111l-5 -58c14 10 31 15 51 15z" />
    <glyph glyph-name="uni2086" unicode="&#x2086;" horiz-adv-x="234" 
d="M131 66c48 0 82 -31 82 -74c0 -45 -36 -75 -84 -75c-60 0 -98 46 -98 114c0 60 32 116 101 116c30 0 58 -10 75 -31l-23 -21c-12 15 -31 23 -53 23c-51 0 -74 -43 -73 -86v-4c15 24 40 38 73 38zM128 -55c33 0 56 18 56 46s-22 46 -57 46c-36 0 -59 -18 -59 -44
c0 -28 25 -48 60 -48z" />
    <glyph glyph-name="uni2087" unicode="&#x2087;" horiz-adv-x="204" 
d="M7 144h188v-20c-60 -46 -98 -123 -98 -204h-33c0 74 39 150 87 194h-144v30z" />
    <glyph glyph-name="uni2088" unicode="&#x2088;" horiz-adv-x="234" 
d="M159 33c29 -9 46 -28 46 -54c0 -37 -35 -62 -88 -62s-88 25 -88 62c0 26 17 45 46 54c-25 10 -39 28 -39 52c0 37 32 62 81 62s81 -25 81 -62c0 -24 -14 -42 -39 -52zM117 123c-31 0 -51 -15 -51 -40c0 -22 20 -37 51 -37s51 15 51 37c0 25 -20 40 -51 40zM117 -58
c35 0 59 15 59 38c0 24 -24 38 -59 38s-59 -14 -59 -38c0 -23 24 -38 59 -38z" />
    <glyph glyph-name="uni2089" unicode="&#x2089;" horiz-adv-x="234" 
d="M105 147c60 0 98 -46 98 -114c0 -60 -32 -116 -101 -116c-30 0 -58 10 -75 31l23 21c12 -15 31 -23 53 -23c51 0 74 43 73 86v4c-15 -24 -40 -38 -73 -38c-48 0 -82 31 -82 74c0 45 36 75 84 75zM107 27c36 0 59 18 59 44c0 28 -25 48 -60 48c-33 0 -56 -18 -56 -46
s22 -46 57 -46z" />
    <glyph glyph-name="zero.dnom" horiz-adv-x="234" 
d="M117 -3c-58 0 -97 47 -97 115s39 115 97 115s97 -47 97 -115s-39 -115 -97 -115zM117 25c39 0 66 35 66 87s-27 87 -66 87s-66 -35 -66 -87s27 -87 66 -87z" />
    <glyph glyph-name="one.dnom" horiz-adv-x="190" 
d="M124 224v-224h-31v161h-58v25h10c45 0 55 9 58 38h21z" />
    <glyph glyph-name="two.dnom" horiz-adv-x="234" 
d="M83 29h120v-29h-172v19l83 70c33 28 50 50 50 71c0 23 -19 39 -49 39c-32 0 -53 -18 -56 -50l-28 5c4 45 38 73 86 73c47 0 79 -26 79 -63c0 -30 -21 -56 -65 -94z" />
    <glyph glyph-name="three.dnom" horiz-adv-x="234" 
d="M131 138c41 0 69 -27 69 -65c0 -44 -38 -76 -88 -76c-39 0 -74 19 -89 47l25 16c11 -22 35 -35 65 -35c35 0 57 18 57 45s-21 45 -49 45c-11 0 -21 -3 -28 -7l-16 17l71 70h-114v29h160v-20l-69 -66h6z" />
    <glyph glyph-name="four.dnom" horiz-adv-x="234" 
d="M216 82v-28h-42v-54h-30v54h-122v25l117 145h35v-142h42zM57 82h87v110z" />
    <glyph glyph-name="five.dnom" horiz-adv-x="234" 
d="M118 152c48 0 82 -31 82 -75c0 -47 -38 -80 -91 -80c-38 0 -68 17 -82 42l24 17c10 -18 31 -31 59 -31c35 0 60 20 60 51c0 30 -23 49 -56 49c-23 0 -42 -9 -52 -24l-24 6l11 117h134v-29h-111l-5 -58c14 10 31 15 51 15z" />
    <glyph glyph-name="six.dnom" horiz-adv-x="234" 
d="M131 146c48 0 82 -31 82 -74c0 -45 -36 -75 -84 -75c-60 0 -98 46 -98 114c0 60 32 116 101 116c30 0 58 -10 75 -31l-23 -21c-12 15 -31 23 -53 23c-51 0 -74 -43 -73 -86v-4c15 24 40 38 73 38zM128 25c33 0 56 18 56 46s-22 46 -57 46c-36 0 -59 -18 -59 -44
c0 -28 25 -48 60 -48z" />
    <glyph glyph-name="seven.dnom" horiz-adv-x="204" 
d="M7 224h188v-20c-60 -46 -98 -123 -98 -204h-33c0 74 39 150 87 194h-144v30z" />
    <glyph glyph-name="eight.dnom" horiz-adv-x="234" 
d="M159 113c29 -9 46 -28 46 -54c0 -37 -35 -62 -88 -62s-88 25 -88 62c0 26 17 45 46 54c-25 10 -39 28 -39 52c0 37 32 62 81 62s81 -25 81 -62c0 -24 -14 -42 -39 -52zM117 203c-31 0 -51 -15 -51 -40c0 -22 20 -37 51 -37s51 15 51 37c0 25 -20 40 -51 40zM117 22
c35 0 59 15 59 38c0 24 -24 38 -59 38s-59 -14 -59 -38c0 -23 24 -38 59 -38z" />
    <glyph glyph-name="nine.dnom" horiz-adv-x="234" 
d="M105 227c60 0 98 -46 98 -114c0 -60 -32 -116 -101 -116c-30 0 -58 10 -75 31l23 21c12 -15 31 -23 53 -23c51 0 74 43 73 86v4c-15 -24 -40 -38 -73 -38c-48 0 -82 31 -82 74c0 45 36 75 84 75zM107 107c36 0 59 18 59 44c0 28 -25 48 -60 48c-33 0 -56 -18 -56 -46
s22 -46 57 -46z" />
    <glyph glyph-name="zero.numr" horiz-adv-x="234" 
d="M117 153c-58 0 -97 47 -97 115s39 115 97 115s97 -47 97 -115s-39 -115 -97 -115zM117 181c39 0 66 35 66 87s-27 87 -66 87s-66 -35 -66 -87s27 -87 66 -87z" />
    <glyph glyph-name="one.numr" horiz-adv-x="190" 
d="M124 380v-224h-31v161h-58v25h10c45 0 55 9 58 38h21z" />
    <glyph glyph-name="two.numr" horiz-adv-x="234" 
d="M83 185h120v-29h-172v19l83 70c33 28 50 50 50 71c0 23 -19 39 -49 39c-32 0 -53 -18 -56 -50l-28 5c4 45 38 73 86 73c47 0 79 -26 79 -63c0 -30 -21 -56 -65 -94z" />
    <glyph glyph-name="three.numr" horiz-adv-x="234" 
d="M131 294c41 0 69 -27 69 -65c0 -44 -38 -76 -88 -76c-39 0 -74 19 -89 47l25 16c11 -22 35 -35 65 -35c35 0 57 18 57 45s-21 45 -49 45c-11 0 -21 -3 -28 -7l-16 17l71 70h-114v29h160v-20l-69 -66h6z" />
    <glyph glyph-name="four.numr" horiz-adv-x="234" 
d="M216 238v-28h-42v-54h-30v54h-122v25l117 145h35v-142h42zM57 238h87v110z" />
    <glyph glyph-name="five.numr" horiz-adv-x="234" 
d="M118 308c48 0 82 -31 82 -75c0 -47 -38 -80 -91 -80c-38 0 -68 17 -82 42l24 17c10 -18 31 -31 59 -31c35 0 60 20 60 51c0 30 -23 49 -56 49c-23 0 -42 -9 -52 -24l-24 6l11 117h134v-29h-111l-5 -58c14 10 31 15 51 15z" />
    <glyph glyph-name="six.numr" horiz-adv-x="234" 
d="M131 302c48 0 82 -31 82 -74c0 -45 -36 -75 -84 -75c-60 0 -98 46 -98 114c0 60 32 116 101 116c30 0 58 -10 75 -31l-23 -21c-12 15 -31 23 -53 23c-51 0 -74 -43 -73 -86v-4c15 24 40 38 73 38zM128 181c33 0 56 18 56 46s-22 46 -57 46c-36 0 -59 -18 -59 -44
c0 -28 25 -48 60 -48z" />
    <glyph glyph-name="seven.numr" horiz-adv-x="204" 
d="M7 380h188v-20c-60 -46 -98 -123 -98 -204h-33c0 74 39 150 87 194h-144v30z" />
    <glyph glyph-name="eight.numr" horiz-adv-x="234" 
d="M159 269c29 -9 46 -28 46 -54c0 -37 -35 -62 -88 -62s-88 25 -88 62c0 26 17 45 46 54c-25 10 -39 28 -39 52c0 37 32 62 81 62s81 -25 81 -62c0 -24 -14 -42 -39 -52zM117 359c-31 0 -51 -15 -51 -40c0 -22 20 -37 51 -37s51 15 51 37c0 25 -20 40 -51 40zM117 178
c35 0 59 15 59 38c0 24 -24 38 -59 38s-59 -14 -59 -38c0 -23 24 -38 59 -38z" />
    <glyph glyph-name="nine.numr" horiz-adv-x="234" 
d="M105 383c60 0 98 -46 98 -114c0 -60 -32 -116 -101 -116c-30 0 -58 10 -75 31l23 21c12 -15 31 -23 53 -23c51 0 74 43 73 86v4c-15 -24 -40 -38 -73 -38c-48 0 -82 31 -82 74c0 45 36 75 84 75zM107 263c36 0 59 18 59 44c0 28 -25 48 -60 48c-33 0 -56 -18 -56 -46
s22 -46 57 -46z" />
    <glyph glyph-name="uni2070" unicode="&#x2070;" horiz-adv-x="234" 
d="M117 233c-58 0 -97 47 -97 115s39 115 97 115s97 -47 97 -115s-39 -115 -97 -115zM117 261c39 0 66 35 66 87s-27 87 -66 87s-66 -35 -66 -87s27 -87 66 -87z" />
    <glyph glyph-name="uni00B9" unicode="&#xb9;" horiz-adv-x="190" 
d="M124 460v-224h-31v161h-58v25h10c45 0 55 9 58 38h21z" />
    <glyph glyph-name="uni00B2" unicode="&#xb2;" horiz-adv-x="234" 
d="M83 265h120v-29h-172v19l83 70c33 28 50 50 50 71c0 23 -19 39 -49 39c-32 0 -53 -18 -56 -50l-28 5c4 45 38 73 86 73c47 0 79 -26 79 -63c0 -30 -21 -56 -65 -94z" />
    <glyph glyph-name="uni00B3" unicode="&#xb3;" horiz-adv-x="234" 
d="M131 374c41 0 69 -27 69 -65c0 -44 -38 -76 -88 -76c-39 0 -74 19 -89 47l25 16c11 -22 35 -35 65 -35c35 0 57 18 57 45s-21 45 -49 45c-11 0 -21 -3 -28 -7l-16 17l71 70h-114v29h160v-20l-69 -66h6z" />
    <glyph glyph-name="uni2074" unicode="&#x2074;" horiz-adv-x="234" 
d="M216 318v-28h-42v-54h-30v54h-122v25l117 145h35v-142h42zM57 318h87v110z" />
    <glyph glyph-name="uni2075" unicode="&#x2075;" horiz-adv-x="234" 
d="M118 388c48 0 82 -31 82 -75c0 -47 -38 -80 -91 -80c-38 0 -68 17 -82 42l24 17c10 -18 31 -31 59 -31c35 0 60 20 60 51c0 30 -23 49 -56 49c-23 0 -42 -9 -52 -24l-24 6l11 117h134v-29h-111l-5 -58c14 10 31 15 51 15z" />
    <glyph glyph-name="uni2076" unicode="&#x2076;" horiz-adv-x="234" 
d="M131 382c48 0 82 -31 82 -74c0 -45 -36 -75 -84 -75c-60 0 -98 46 -98 114c0 60 32 116 101 116c30 0 58 -10 75 -31l-23 -21c-12 15 -31 23 -53 23c-51 0 -74 -43 -73 -86v-4c15 24 40 38 73 38zM128 261c33 0 56 18 56 46s-22 46 -57 46c-36 0 -59 -18 -59 -44
c0 -28 25 -48 60 -48z" />
    <glyph glyph-name="uni2077" unicode="&#x2077;" horiz-adv-x="204" 
d="M7 460h188v-20c-60 -46 -98 -123 -98 -204h-33c0 74 39 150 87 194h-144v30z" />
    <glyph glyph-name="uni2078" unicode="&#x2078;" horiz-adv-x="234" 
d="M159 349c29 -9 46 -28 46 -54c0 -37 -35 -62 -88 -62s-88 25 -88 62c0 26 17 45 46 54c-25 10 -39 28 -39 52c0 37 32 62 81 62s81 -25 81 -62c0 -24 -14 -42 -39 -52zM117 439c-31 0 -51 -15 -51 -40c0 -22 20 -37 51 -37s51 15 51 37c0 25 -20 40 -51 40zM117 258
c35 0 59 15 59 38c0 24 -24 38 -59 38s-59 -14 -59 -38c0 -23 24 -38 59 -38z" />
    <glyph glyph-name="uni2079" unicode="&#x2079;" horiz-adv-x="234" 
d="M105 463c60 0 98 -46 98 -114c0 -60 -32 -116 -101 -116c-30 0 -58 10 -75 31l23 21c12 -15 31 -23 53 -23c51 0 74 43 73 86v4c-15 -24 -40 -38 -73 -38c-48 0 -82 31 -82 74c0 45 36 75 84 75zM107 343c36 0 59 18 59 44c0 28 -25 48 -60 48c-33 0 -56 -18 -56 -46
s22 -46 57 -46z" />
    <glyph glyph-name="fraction" unicode="&#x2044;" horiz-adv-x="20" 
d="M-126 0l241 380h31l-241 -380h-31z" />
    <glyph glyph-name="onehalf" unicode="&#xbd;" horiz-adv-x="444" 
d="M93 156v161h-58v25h10c45 0 55 9 58 38h21v-224h-31zM305 380h31l-241 -380h-31zM293 29h120v-29h-172v19l83 70c33 28 50 50 50 71c0 23 -19 39 -49 39c-32 0 -53 -18 -56 -50l-28 5c4 45 38 73 86 73c47 0 79 -26 79 -63c0 -30 -21 -56 -65 -94z" />
    <glyph glyph-name="onequarter" unicode="&#xbc;" horiz-adv-x="444" 
d="M93 156v161h-58v25h10c45 0 55 9 58 38h21v-224h-31zM319 380h31l-241 -380h-31zM426 82v-28h-42v-54h-30v54h-122v25l117 145h35v-142h42zM267 82h87v110z" />
    <glyph glyph-name="threequarters" unicode="&#xbe;" horiz-adv-x="488" 
d="M200 229c0 -44 -38 -76 -88 -76c-39 0 -74 19 -89 47l25 16c11 -22 35 -35 65 -35c35 0 57 18 57 45s-21 45 -49 45c-11 0 -21 -3 -28 -7l-16 17l71 70h-114v29h160v-20l-69 -66h6c41 0 69 -27 69 -65zM362 380h32l-241 -380h-32zM470 82v-28h-42v-54h-30v54h-122v25
l117 145h35v-142h42zM311 82h87v110z" />
    <glyph glyph-name="oneeighth" unicode="&#x215b;" horiz-adv-x="444" 
d="M93 156v161h-58v25h10c45 0 55 9 58 38h21v-224h-31zM305 380h31l-241 -380h-31zM369 113c29 -9 46 -28 46 -54c0 -37 -35 -62 -88 -62s-88 25 -88 62c0 26 17 45 46 54c-25 10 -39 28 -39 52c0 37 32 62 81 62s81 -25 81 -62c0 -24 -14 -42 -39 -52zM327 203
c-31 0 -51 -15 -51 -40c0 -22 20 -37 51 -37s51 15 51 37c0 25 -20 40 -51 40zM327 22c35 0 59 15 59 38c0 24 -24 38 -59 38s-59 -14 -59 -38c0 -23 24 -38 59 -38z" />
    <glyph glyph-name="threeeighths" unicode="&#x215c;" horiz-adv-x="488" 
d="M200 229c0 -44 -38 -76 -88 -76c-39 0 -74 19 -89 47l25 16c11 -22 35 -35 65 -35c35 0 57 18 57 45s-21 45 -49 45c-11 0 -21 -3 -28 -7l-16 17l71 70h-114v29h160v-20l-69 -66h6c41 0 69 -27 69 -65zM349 380h31l-241 -380h-31zM413 113c29 -9 46 -28 46 -54
c0 -37 -35 -62 -88 -62s-88 25 -88 62c0 26 17 45 46 54c-25 10 -39 28 -39 52c0 37 32 62 81 62s81 -25 81 -62c0 -24 -14 -42 -39 -52zM371 203c-31 0 -51 -15 -51 -40c0 -22 20 -37 51 -37s51 15 51 37c0 25 -20 40 -51 40zM371 22c35 0 59 15 59 38c0 24 -24 38 -59 38
s-59 -14 -59 -38c0 -23 24 -38 59 -38z" />
    <glyph glyph-name="fiveeighths" unicode="&#x215d;" horiz-adv-x="488" 
d="M200 233c0 -47 -38 -80 -91 -80c-38 0 -68 17 -82 42l24 17c10 -18 31 -31 59 -31c35 0 60 20 60 51c0 30 -23 49 -56 49c-23 0 -42 -9 -52 -24l-24 6l11 117h134v-29h-111l-5 -58c14 10 31 15 51 15c48 0 82 -31 82 -75zM349 380h31l-241 -380h-31zM413 113
c29 -9 46 -28 46 -54c0 -37 -35 -62 -88 -62s-88 25 -88 62c0 26 17 45 46 54c-25 10 -39 28 -39 52c0 37 32 62 81 62s81 -25 81 -62c0 -24 -14 -42 -39 -52zM371 203c-31 0 -51 -15 -51 -40c0 -22 20 -37 51 -37s51 15 51 37c0 25 -20 40 -51 40zM371 22c35 0 59 15 59 38
c0 24 -24 38 -59 38s-59 -14 -59 -38c0 -23 24 -38 59 -38z" />
    <glyph glyph-name="seveneighths" unicode="&#x215e;" horiz-adv-x="458" 
d="M64 156c0 74 39 150 87 194h-144v30h188v-20c-60 -46 -98 -123 -98 -204h-33zM305 380h31l-241 -380h-31zM383 113c29 -9 46 -28 46 -54c0 -37 -35 -62 -88 -62s-88 25 -88 62c0 26 17 45 46 54c-25 10 -39 28 -39 52c0 37 32 62 81 62s81 -25 81 -62
c0 -24 -14 -42 -39 -52zM341 203c-31 0 -51 -15 -51 -40c0 -22 20 -37 51 -37s51 15 51 37c0 25 -20 40 -51 40zM341 22c35 0 59 15 59 38c0 24 -24 38 -59 38s-59 -14 -59 -38c0 -23 24 -38 59 -38z" />
    <glyph glyph-name="period" unicode="." horiz-adv-x="133" 
d="M44 0v45h45v-45h-45z" />
    <glyph glyph-name="comma" unicode="," horiz-adv-x="133" 
d="M44 -54v22h9c9 0 14 9 14 21v11h-23v45h45v-54c0 -29 -14 -45 -39 -45h-6z" />
    <glyph glyph-name="colon" unicode=":" horiz-adv-x="125" 
d="M40 255v45h45v-45h-45zM40 0v45h45v-45h-45z" />
    <glyph glyph-name="semicolon" unicode=";" horiz-adv-x="125" 
d="M40 255v45h45v-45h-45zM40 -54v22h9c10 0 15 9 15 21v11h-24v45h45v-54c0 -29 -14 -45 -39 -45h-6z" />
    <glyph glyph-name="ellipsis" unicode="&#x2026;" horiz-adv-x="381" 
d="M44 0v45h45v-45h-45zM168 0v45h45v-45h-45zM292 0v45h45v-45h-45z" />
    <glyph glyph-name="exclam" unicode="!" horiz-adv-x="159" 
d="M68 110l-7 270h37l-7 -270h-23zM57 0v45h45v-45h-45z" />
    <glyph glyph-name="exclamdown" unicode="&#xa1;" horiz-adv-x="159" 
d="M57 300h45v-45h-45v45zM68 190h23l7 -270h-37z" />
    <glyph glyph-name="question" unicode="?" horiz-adv-x="296" 
d="M130 97c-3 32 2 55 48 90c44 34 56 58 56 90c0 48 -33 80 -83 80c-58 0 -94 -39 -98 -100l-31 6c7 74 60 122 129 122c71 0 116 -42 116 -108c0 -39 -19 -68 -69 -110c-32 -26 -45 -40 -45 -60v-10h-23zM122 0v45h45v-45h-45z" />
    <glyph glyph-name="questiondown" unicode="&#xbf;" horiz-adv-x="297" 
d="M175 300v-45h-45v45h45zM167 203c3 -32 -3 -55 -48 -90c-44 -34 -57 -58 -57 -90c0 -48 34 -80 83 -80c58 0 95 39 99 100l30 -6c-6 -74 -60 -122 -129 -122c-71 0 -116 42 -116 108c0 39 19 68 70 110c32 26 45 40 45 60v10h23z" />
    <glyph glyph-name="periodcentered" unicode="&#xb7;" horiz-adv-x="133" 
d="M44 147v46h45v-46h-45z" />
    <glyph glyph-name="bullet" unicode="&#x2022;" horiz-adv-x="346" 
d="M173 114c-31 0 -56 24 -56 56s25 56 56 56c32 0 56 -24 56 -56s-24 -56 -56 -56z" />
    <glyph glyph-name="asterisk" unicode="*" horiz-adv-x="231" 
d="M205 324l-70 -22l43 -58l-19 -15l-44 59l-43 -59l-19 15l42 59l-69 22l7 25l70 -23v73h25v-73l70 23z" />
    <glyph glyph-name="numbersign" unicode="#" 
d="M333 242h-71v-104h71v-31h-71v-107h-30v107h-104v-107h-30v107h-71v31h71v104h-71v31h71v107h30v-107h104v107h30v-107h71v-31zM232 138v104h-104v-104h104z" />
    <glyph glyph-name="slash" unicode="/" horiz-adv-x="217" 
d="M-18 -20l222 420h31l-222 -420h-31z" />
    <glyph glyph-name="backslash" unicode="\" horiz-adv-x="216" 
d="M235 -20h-31l-222 420h31z" />
    <glyph glyph-name="exclamdown.case" horiz-adv-x="159" 
d="M102 380v-45h-45v45h45zM91 270l7 -270h-37l7 270h23z" />
    <glyph glyph-name="questiondown.case" horiz-adv-x="297" 
d="M175 380v-45h-45v45h45zM167 283c3 -32 -3 -55 -48 -90c-44 -34 -57 -58 -57 -90c0 -48 34 -80 83 -80c58 0 95 39 99 100l30 -6c-6 -74 -60 -122 -129 -122c-71 0 -116 42 -116 108c0 39 19 68 70 110c32 26 45 40 45 60v10h23z" />
    <glyph glyph-name="periodcentered.case" horiz-adv-x="133" 
d="M44 167v46h45v-46h-45z" />
    <glyph glyph-name="bullet.case" 
d="M173 134c-31 0 -56 24 -56 56s25 56 56 56c32 0 56 -24 56 -56s-24 -56 -56 -56z" />
    <glyph glyph-name="asterisk.case" horiz-adv-x="231" 
d="M205 304l-70 -22l43 -58l-19 -15l-44 59l-43 -59l-19 15l42 59l-69 22l7 25l70 -23v73h25v-73l70 23z" />
    <glyph glyph-name="slash.case" horiz-adv-x="217" 
d="M-7 0l200 380h31l-200 -380h-31z" />
    <glyph glyph-name="backslash.case" horiz-adv-x="216" 
d="M223 0h-31l-200 380h31z" />
    <glyph glyph-name="parenleft" unicode="(" horiz-adv-x="220" 
d="M176 -75c-76 48 -126 142 -126 244s50 196 126 244l15 -19c-66 -44 -110 -132 -110 -225s44 -181 110 -225z" />
    <glyph glyph-name="parenright" unicode=")" horiz-adv-x="230" 
d="M71 -75l-15 19c66 44 110 132 110 225s-44 181 -110 225l15 19c76 -48 126 -142 126 -244s-50 -196 -126 -244z" />
    <glyph glyph-name="braceleft" unicode="{" horiz-adv-x="220" 
d="M107 223c0 -29 -11 -47 -31 -53c20 -6 31 -24 31 -53v-128c0 -13 9 -22 21 -22h52v-27h-50c-33 0 -53 20 -53 53v120c0 29 -8 44 -31 44h-16v26h16c23 0 31 15 31 44v120c0 33 20 53 53 53h50v-27h-52c-12 0 -21 -9 -21 -22v-128z" />
    <glyph glyph-name="braceright" unicode="}" horiz-adv-x="230" 
d="M174 183h16v-26h-16c-23 0 -31 -15 -31 -44v-120c0 -33 -20 -53 -53 -53h-50v27h52c12 0 21 9 21 22v128c0 29 11 47 31 53c-20 6 -31 24 -31 53v128c0 13 -9 22 -21 22h-52v27h50c33 0 53 -20 53 -53v-120c0 -29 8 -44 31 -44z" />
    <glyph glyph-name="bracketleft" unicode="[" horiz-adv-x="209" 
d="M179 373h-83v-406h83v-27h-114v460h114v-27z" />
    <glyph glyph-name="bracketright" unicode="]" horiz-adv-x="240" 
d="M195 400v-460h-114v27h83v406h-83v27h114z" />
    <glyph glyph-name="parenleft.case" horiz-adv-x="214" 
d="M87 190c0 -75 22 -135 66 -181l-15 -16c-51 44 -83 116 -83 197s32 153 83 197l15 -16c-44 -46 -66 -106 -66 -181z" />
    <glyph glyph-name="parenright.case" horiz-adv-x="214" 
d="M127 190c0 75 -22 135 -67 181l16 16c51 -44 82 -116 82 -197s-31 -153 -82 -197l-16 16c45 46 67 106 67 181z" />
    <glyph glyph-name="braceleft.case" horiz-adv-x="220" 
d="M107 243c0 -29 -11 -47 -31 -53c20 -6 31 -24 31 -53v-88c0 -13 9 -22 21 -22h52v-27h-50c-33 0 -53 20 -53 53v80c0 29 -8 44 -31 44h-16v26h16c23 0 31 15 31 44v80c0 33 20 53 53 53h50v-27h-52c-12 0 -21 -9 -21 -22v-88z" />
    <glyph glyph-name="braceright.case" horiz-adv-x="220" 
d="M174 203h16v-26h-16c-23 0 -31 -15 -31 -44v-80c0 -33 -20 -53 -53 -53h-50v27h52c12 0 21 9 21 22v88c0 29 11 47 31 53c-20 6 -31 24 -31 53v88c0 13 -9 22 -21 22h-52v27h50c33 0 53 -20 53 -53v-80c0 -29 8 -44 31 -44z" />
    <glyph glyph-name="bracketleft.case" horiz-adv-x="220" 
d="M179 353h-83v-326h83v-27h-114v380h114v-27z" />
    <glyph glyph-name="bracketright.case" horiz-adv-x="220" 
d="M155 380v-380h-114v27h83v326h-83v27h114z" />
    <glyph glyph-name="hyphen" unicode="-" horiz-adv-x="233" 
d="M35 155v30h163v-30h-163z" />
    <glyph glyph-name="endash" unicode="&#x2013;" horiz-adv-x="313" 
d="M35 155v30h243v-30h-243z" />
    <glyph glyph-name="emdash" unicode="&#x2014;" horiz-adv-x="433" 
d="M35 155v30h363v-30h-363z" />
    <glyph glyph-name="underscore" unicode="_" horiz-adv-x="241" 
d="M5 -31h231v-29h-231v29z" />
    <glyph glyph-name="hyphen.case" horiz-adv-x="233" 
d="M35 175v30h163v-30h-163z" />
    <glyph glyph-name="endash.case" horiz-adv-x="313" 
d="M35 175v30h243v-30h-243z" />
    <glyph glyph-name="emdash.case" horiz-adv-x="433" 
d="M35 175v30h363v-30h-363z" />
    <glyph glyph-name="quotesinglbase" unicode="&#x201a;" horiz-adv-x="133" 
d="M44 -54v22h9c9 0 14 9 14 21v11h-23v45h45v-54c0 -29 -14 -45 -39 -45h-6z" />
    <glyph glyph-name="quotedblbase" unicode="&#x201e;" horiz-adv-x="215" 
d="M44 -54v22h9c9 0 14 9 14 21v11h-23v45h45v-54c0 -29 -14 -45 -39 -45h-6zM125 -54v22h9c10 0 15 9 15 21v11h-24v45h46v-54c0 -29 -15 -45 -39 -45h-7z" />
    <glyph glyph-name="quotedblleft" unicode="&#x201c;" horiz-adv-x="216" 
d="M94 400v-22h-9c-9 0 -14 -9 -14 -21v-11h23v-45h-45v54c0 29 14 45 39 45h6zM176 400v-22h-9c-10 0 -15 -9 -15 -21v-11h24v-45h-45v54c0 29 14 45 39 45h6z" />
    <glyph glyph-name="quotedblright" unicode="&#x201d;" horiz-adv-x="203" 
d="M40 281v21h9c10 0 15 9 15 22v11h-24v45h45v-54c0 -29 -14 -45 -39 -45h-6zM122 281v21h9c9 0 14 9 14 22v11h-23v45h45v-54c0 -29 -15 -45 -39 -45h-6z" />
    <glyph glyph-name="quoteleft" unicode="&#x2018;" horiz-adv-x="121" 
d="M81 400v-22h-9c-9 0 -15 -9 -15 -21v-11h24v-45h-45v54c0 29 14 45 39 45h6z" />
    <glyph glyph-name="quoteright" unicode="&#x2019;" horiz-adv-x="121" 
d="M40 281v21h9c10 0 15 9 15 22v11h-24v45h45v-54c0 -29 -14 -45 -39 -45h-6z" />
    <glyph glyph-name="guillemotleft" unicode="&#xab;" horiz-adv-x="328" 
d="M40 155v29l116 87v-36l-85 -64l85 -64v-39zM278 271v-36l-85 -64l85 -64v-39l-117 87v29z" />
    <glyph glyph-name="guillemotright" unicode="&#xbb;" horiz-adv-x="328" 
d="M50 233v39l116 -87v-29l-116 -87v36l85 64zM171 272l117 -87v-29l-117 -87v36l85 64l-85 64v39z" />
    <glyph glyph-name="guilsinglleft" unicode="&#x2039;" horiz-adv-x="206" 
d="M156 271v-36l-85 -64l85 -64v-39l-116 87v29z" />
    <glyph glyph-name="guilsinglright" unicode="&#x203a;" horiz-adv-x="206" 
d="M50 272l116 -87v-29l-116 -87v36l85 64l-85 64v39z" />
    <glyph glyph-name="quotedbl" unicode="&#x22;" horiz-adv-x="143" 
d="M22 278l-2 102h32l-3 -102h-27zM94 278l-2 102h31l-2 -102h-27z" />
    <glyph glyph-name="quotesingle" unicode="'" horiz-adv-x="72" 
d="M22 278l-2 102h32l-3 -102h-27z" />
    <glyph glyph-name="guillemotleft.case" horiz-adv-x="328" 
d="M40 175v29l116 87v-36l-85 -64l85 -64v-39zM278 291v-36l-85 -64l85 -64v-39l-117 87v29z" />
    <glyph glyph-name="guillemotright.case" horiz-adv-x="340" 
d="M62 253v39l117 -87v-29l-117 -87v36l85 64zM184 292l116 -87v-29l-116 -87v36l85 64l-85 64v39z" />
    <glyph glyph-name="guilsinglleft.case" horiz-adv-x="210" 
d="M156 291v-36l-85 -64l85 -64v-39l-116 87v29z" />
    <glyph glyph-name="guilsinglright.case" horiz-adv-x="210" 
d="M54 292l116 -87v-29l-116 -87v36l85 64l-85 64v39z" />
    <glyph glyph-name="cent" unicode="&#xa2;" horiz-adv-x="331" 
d="M187 64c42 5 74 33 87 72l29 -10c-16 -52 -59 -86 -116 -91v-35h-28v36c-77 7 -129 68 -129 154c0 85 53 147 129 154v36h28v-35c58 -5 100 -39 116 -91l-30 -10c-13 39 -44 67 -86 72v-252zM63 190c0 -69 39 -119 96 -126v252c-57 -7 -96 -57 -96 -126z" />
    <glyph glyph-name="currency" unicode="&#xa4;" 
d="M315 73l-17 -17l-55 55c-17 -14 -39 -22 -63 -22s-46 8 -63 22l-55 -55l-16 17l55 54c-14 17 -22 39 -22 63s8 45 22 62l-56 56l17 17l56 -56c17 14 38 22 62 22s45 -8 63 -22l55 55l16 -16l-55 -55c14 -17 22 -39 22 -63s-8 -45 -21 -62zM180 115c42 0 75 33 75 75
s-33 75 -75 75s-75 -33 -75 -75s33 -75 75 -75z" />
    <glyph glyph-name="dollar" unicode="$" horiz-adv-x="348" 
d="M313 99c0 -58 -48 -97 -123 -103v-40h-28v39c-54 2 -101 22 -138 59l21 23c33 -33 72 -51 117 -53v157c-90 29 -119 56 -119 106c0 57 45 94 119 98v35h28v-36c41 -2 81 -17 113 -43l-20 -25c-27 22 -63 36 -93 39v-148c91 -29 123 -57 123 -108zM75 287
c0 -32 21 -50 87 -72v141c-54 -4 -87 -30 -87 -69zM190 25c56 5 89 32 89 71c0 34 -23 56 -89 77v-148z" />
    <glyph glyph-name="Euro" unicode="&#x20ac;" 
d="M195 24c43 0 78 27 97 73l28 -15c-24 -54 -68 -87 -125 -87c-74 0 -126 55 -141 141h-42v28h38c-1 8 -1 17 -1 26s0 18 1 26h-38v28h42c15 86 67 141 141 141c57 0 101 -33 125 -87l-28 -15c-19 46 -54 73 -97 73c-55 0 -95 -42 -108 -112h121v-28h-125
c-1 -8 -1 -17 -1 -26s0 -18 1 -26h125v-28h-121c13 -70 53 -112 108 -112z" />
    <glyph glyph-name="uni20BD" unicode="&#x20bd;" horiz-adv-x="333" 
d="M176 156h-63v-52h153v-28h-153v-76h-33v76h-50v28h50v52h-50v28h50v196h96c75 0 124 -45 124 -112s-49 -112 -124 -112zM173 351h-60v-167h60c58 0 93 32 93 84s-35 83 -93 83z" />
    <glyph glyph-name="sterling" unicode="&#xa3;" 
d="M297 76l31 -5c-3 -48 -26 -76 -69 -76c-51 0 -84 32 -118 56c-14 -34 -39 -56 -69 -56c-37 0 -57 26 -57 53c0 29 19 56 64 56c15 0 28 -3 42 -9v13c0 26 -7 48 -15 68h-75v28h62c-12 24 -22 47 -22 77c0 67 49 104 114 104c68 0 111 -42 118 -102l-30 -8
c-8 49 -36 83 -88 83c-50 0 -83 -27 -83 -74c0 -27 11 -53 23 -80h117v-28h-106c8 -22 14 -44 14 -70c0 -9 -1 -17 -2 -25c40 -24 74 -58 110 -58c23 0 36 10 39 53zM73 23c25 0 38 17 44 43c-12 6 -25 10 -39 10c-25 0 -36 -13 -36 -28s10 -25 31 -25z" />
    <glyph glyph-name="yen" unicode="&#xa5;" horiz-adv-x="361" 
d="M342 380l-132 -196h66v-28h-85v-52h85v-28h-85v-76h-33v76h-85v28h85v50l-1 2h-84v28h65l-131 196h39l129 -193l129 193h38z" />
    <glyph glyph-name="plus" unicode="+" 
d="M310 204v-28h-116v-116h-28v116h-116v28h116v116h28v-116h116z" />
    <glyph glyph-name="minus" unicode="&#x2212;" 
d="M50 176v28h260v-28h-260z" />
    <glyph glyph-name="multiply" unicode="&#xd7;" 
d="M294 286l-95 -96l95 -95l-18 -19l-96 96l-95 -96l-19 19l96 95l-96 96l19 18l95 -95l96 95z" />
    <glyph glyph-name="divide" unicode="&#xf7;" 
d="M161 276v39h38v-39h-38zM50 176v28h260v-28h-260zM161 65v39h38v-39h-38z" />
    <glyph glyph-name="equal" unicode="=" 
d="M50 238v29h260v-29h-260zM50 113v29h260v-29h-260z" />
    <glyph glyph-name="notequal" unicode="&#x2260;" 
d="M310 238h-90l-50 -96h140v-29h-155l-27 -53h-30l27 53h-75v29h90l50 96h-140v29h155l27 53h30l-27 -53h75v-29z" />
    <glyph glyph-name="greater" unicode="&#x3e;" 
d="M50 311l260 -107v-28l-260 -107v30l218 90l-218 91v31z" />
    <glyph glyph-name="less" unicode="&#x3c;" 
d="M310 311v-30l-218 -90l218 -91v-31l-260 107v28z" />
    <glyph glyph-name="greaterequal" unicode="&#x2265;" 
d="M50 320l260 -107v-27l-260 -107v30l218 90l-218 90v31zM50 8v28h260v-28h-260z" />
    <glyph glyph-name="lessequal" unicode="&#x2264;" 
d="M310 320v-30l-218 -90l218 -90v-31l-260 107v27zM50 2v29h260v-29h-260z" />
    <glyph glyph-name="plusminus" unicode="&#xb1;" 
d="M194 212h116v-29h-116v-116h-28v116h-116v29h116v116h28v-116zM50 8v28h260v-28h-260z" />
    <glyph glyph-name="approxequal" unicode="&#x2248;" 
d="M60 225l-23 17c17 22 44 48 82 48c52 0 80 -42 122 -42c21 0 39 11 59 37l23 -18c-17 -22 -44 -48 -82 -48c-52 0 -79 43 -122 43c-21 0 -39 -11 -59 -37zM60 100l-23 17c17 22 44 49 82 49c52 0 80 -43 122 -43c21 0 39 11 59 37l23 -17c-17 -22 -44 -49 -82 -49
c-52 0 -79 43 -122 43c-21 0 -39 -11 -59 -37z" />
    <glyph glyph-name="asciitilde" unicode="~" 
d="M60 162l-23 18c17 22 44 48 82 48c52 0 80 -43 122 -43c21 0 39 11 59 37l23 -17c-17 -22 -44 -49 -82 -49c-52 0 -79 43 -122 43c-21 0 -39 -11 -59 -37z" />
    <glyph glyph-name="logicalnot" unicode="&#xac;" 
d="M310 204v-139h-29v111h-231v28h260z" />
    <glyph glyph-name="asciicircum" unicode="^" 
d="M289 190h-32l-77 156l-78 -156h-31l96 190h26z" />
    <glyph glyph-name="percent" unicode="%" horiz-adv-x="527" 
d="M130 155c-59 0 -96 45 -96 115s37 115 96 115s96 -45 96 -115s-37 -115 -96 -115zM128 0l241 380h31l-241 -380h-31zM130 183c39 0 65 35 65 87s-26 87 -65 87s-65 -35 -65 -87s26 -87 65 -87zM397 -5c-59 0 -96 45 -96 115s37 115 96 115s97 -45 97 -115
s-38 -115 -97 -115zM397 23c39 0 65 35 65 87s-26 87 -65 87c-38 0 -64 -35 -64 -87s26 -87 64 -87z" />
    <glyph glyph-name="perthousand" unicode="&#x2030;" horiz-adv-x="746" 
d="M130 155c-59 0 -96 45 -96 115s37 115 96 115s96 -45 96 -115s-37 -115 -96 -115zM128 0l241 380h31l-241 -380h-31zM130 183c39 0 65 35 65 87s-26 87 -65 87s-65 -35 -65 -87s26 -87 65 -87zM397 -5c-59 0 -96 45 -96 115s37 115 96 115s97 -45 97 -115
s-38 -115 -97 -115zM630 -5c-60 0 -97 45 -97 115s37 115 97 115c59 0 96 -45 96 -115s-37 -115 -96 -115zM397 23c39 0 65 35 65 87s-26 87 -65 87c-38 0 -64 -35 -64 -87s26 -87 64 -87zM630 23c38 0 64 35 64 87s-26 87 -64 87c-39 0 -65 -35 -65 -87s26 -87 65 -87z" />
    <glyph glyph-name="arrowboth" unicode="&#x2194;" horiz-adv-x="400" 
d="M285 315l125 -125l-125 -125l-19 20l92 91h-316l92 -91l-19 -20l-125 125l125 125l19 -20l-92 -91h316l-92 91z" />
    <glyph glyph-name="arrowupdn" unicode="&#x2195;" horiz-adv-x="400" 
d="M214 32l91 92l20 -19l-125 -125l-125 125l20 19l91 -92v316l-91 -92l-20 19l125 125l125 -125l-20 -19l-91 92v-316z" />
    <glyph glyph-name="male" unicode="&#x2642;" horiz-adv-x="506" 
d="M253 -64c142 0 180 7 213 40s40 71 40 213s-7 180 -40 213s-71 40 -213 40s-180 -7 -213 -40s-40 -71 -40 -213s7 -180 40 -213s71 -40 213 -40zM275 258c-11 0 -15 4 -15 14c0 9 4 13 15 13c10 0 14 -4 14 -13c0 -10 -4 -14 -14 -14zM197 263v-110h15v-47h-21v28h-78
v-28h-21v47h11c6 10 11 31 11 57v53h83zM134 211c0 -26 -4 -48 -10 -58h51v90h-41v-32zM260 152l32 21l10 -15l-33 -23c-5 -2 -9 -3 -13 -3c-13 0 -21 11 -18 23l19 65h-29l6 19h49l-24 -86zM399 239v-105h-22v37h-18l-24 -37h-24l27 41c-14 4 -23 15 -23 31
c0 19 14 33 35 33h49zM352 189h25v32h-25c-9 0 -16 -7 -16 -16s7 -16 16 -16z" />
    <glyph glyph-name="uni2643" unicode="&#x2643;" horiz-adv-x="506" 
d="M253 -64c-142 0 -180 7 -213 40s-40 71 -40 213s7 180 40 213s71 40 213 40s180 -7 213 -40s40 -71 40 -213s-7 -180 -40 -213s-71 -40 -213 -40zM253 -56c140 0 176 7 207 38s38 67 38 207s-7 176 -38 207s-67 38 -207 38s-176 -7 -207 -38s-38 -67 -38 -207
s7 -176 38 -207s67 -38 207 -38zM275 258c-11 0 -15 4 -15 14s4 14 15 14s16 -4 16 -14s-5 -14 -16 -14zM198 264v-110h15v-49h-22v28h-77v-28h-22v49h11c6 10 10 32 10 56v54h85zM136 211c0 -25 -5 -47 -10 -57h49v88h-39v-31zM261 153l32 22l11 -17l-34 -23
c-5 -3 -9 -4 -14 -4c-13 0 -22 11 -18 24l18 64h-28l5 21h51l-24 -87h1zM400 240v-107h-23v37h-18l-24 -37h-25l27 41c-14 5 -22 17 -22 32c0 20 14 34 35 34h50zM353 190h24v30h-24c-9 0 -16 -6 -16 -15s7 -15 16 -15z" />
    <glyph glyph-name="uni2644" unicode="&#x2644;" horiz-adv-x="506" 
d="M253 -64c-142 0 -180 7 -213 40s-40 71 -40 213s7 180 40 213s71 40 213 40s180 -7 213 -40s40 -71 40 -213s-7 -180 -40 -213s-71 -40 -213 -40zM253 -56c140 0 176 7 207 38s38 67 38 207s-7 176 -38 207s-67 38 -207 38s-176 -7 -207 -38s-38 -67 -38 -207
s7 -176 38 -207s67 -38 207 -38zM253 1c-3 5 -6 9 -11 12c-18 14 -32 35 -36 59h-59v256c32 -16 54 -51 57 -87l9 -72l-5 1c-9 0 -17 -9 -17 -18s6 -16 14 -17l11 -3c18 34 28 67 28 99c0 29 -4 59 -4 89c0 13 5 25 13 34c8 -9 13 -21 13 -34c0 -30 -4 -60 -4 -89
c0 -32 10 -65 28 -99l11 3c8 1 14 8 14 17s-8 18 -18 18l-4 -1l9 72c4 36 25 71 57 87v-256h-59c-4 -24 -17 -45 -36 -59c-5 -3 -8 -7 -11 -12zM165 161h10c2 9 9 17 18 23l-7 59c-2 18 -10 35 -21 48v-130zM331 161h10v130c-11 -13 -19 -30 -21 -48l-7 -59
c9 -6 16 -14 18 -23zM253 115c5 6 11 11 19 13c-8 14 -15 28 -19 43c-4 -15 -11 -29 -19 -43c8 -2 14 -7 19 -13zM165 90h40c0 9 1 17 3 26l-8 1c-12 4 -22 14 -25 26h-10v-53zM301 90h40v53h-10c-3 -12 -13 -22 -25 -26l-8 -1c2 -9 3 -17 3 -26zM222 90h22
c0 11 -8 20 -19 22c-2 -7 -3 -14 -3 -22zM262 90h22c0 8 -1 15 -3 22c-11 -2 -19 -11 -19 -22zM244 35v37h-20c4 -14 11 -26 20 -37zM262 35c9 11 16 23 20 37h-20v-37z" />
    <glyph glyph-name="uni2645" unicode="&#x2645;" horiz-adv-x="558" 
d="M279 -112c-4 8 -10 14 -17 19c-29 22 -50 55 -57 93h-93v402c50 -25 86 -80 90 -137l14 -113l-7 1c-15 0 -28 -14 -28 -28c0 -13 10 -24 23 -27l17 -4c28 53 44 105 44 156c0 46 -6 92 -7 139c0 21 8 40 21 55c13 -15 21 -34 21 -55c0 -47 -7 -93 -7 -139
c0 -51 16 -103 44 -156l17 4c13 3 23 14 23 27c0 14 -13 28 -28 28l-7 -1l14 113c7 57 40 112 90 137v-402h-93c-7 -38 -27 -72 -57 -93c-7 -5 -13 -11 -17 -19zM140 139h16c4 15 15 28 29 36l-11 93c-4 29 -16 55 -34 76v-205zM402 139h16v205c-18 -21 -31 -47 -34 -76
l-11 -93c14 -8 25 -21 29 -36zM279 67c8 9 18 17 30 20c-12 22 -23 45 -30 69c-7 -24 -18 -47 -30 -69c12 -3 22 -11 30 -20zM140 28h63c0 14 2 27 5 40l-13 3c-19 6 -34 21 -39 40h-16v-83zM355 28h63v83h-16c-5 -19 -20 -34 -39 -40l-13 -3c3 -13 5 -26 5 -40zM230 28h35
c0 17 -13 32 -30 34c-3 -11 -5 -22 -5 -34zM293 28h35c0 12 -2 23 -5 34c-17 -2 -30 -17 -30 -34zM265 -59v59h-31c5 -22 16 -42 31 -59zM293 -59c15 17 26 37 31 59h-31v-59z" />
    <glyph glyph-name="at" unicode="@" horiz-adv-x="427" 
d="M394 27h11v-27c-1 -1 -9 -2 -17 -2c-30 0 -44 15 -43 53c-21 -33 -65 -56 -114 -56c-58 0 -95 32 -95 84c0 68 64 82 111 90c88 15 91 27 91 34c-1 42 -50 73 -109 73c-93 0 -161 -74 -161 -173c0 -101 72 -174 174 -174c34 0 65 8 98 29l14 -26
c-38 -22 -75 -32 -113 -32c-119 0 -205 87 -205 204c0 115 83 201 195 201c80 0 142 -43 142 -124v-131c0 -17 6 -23 21 -23zM234 24c60 0 109 41 109 94v54c-17 -14 -42 -20 -80 -26c-47 -8 -94 -18 -94 -68c0 -34 24 -54 65 -54z" />
    <glyph glyph-name="ampersand" unicode="&#x26;" horiz-adv-x="482" 
d="M422 75l32 -7c-4 -45 -29 -73 -69 -73c-20 0 -49 14 -91 46c-37 -29 -83 -46 -132 -46c-84 0 -134 37 -134 101c0 55 30 87 98 108c-32 42 -43 65 -43 93c0 51 43 88 101 88c62 0 108 -32 108 -86c0 -48 -41 -87 -103 -109c37 -41 73 -76 105 -103c31 31 54 74 63 122
l35 -8c-13 -54 -38 -101 -71 -136c32 -25 57 -39 70 -39c20 0 27 17 31 49zM184 352c-38 0 -67 -26 -67 -59c0 -21 8 -33 47 -76l1 -1l1 1c51 9 89 40 89 81c0 34 -28 54 -71 54zM165 31c37 0 72 12 101 32c-33 29 -73 67 -119 117c-54 -14 -84 -40 -84 -85
c0 -39 41 -64 102 -64z" />
    <glyph glyph-name="paragraph" unicode="&#xb6;" horiz-adv-x="340" 
d="M188 380v-480h-32v312h-12c-58 0 -95 33 -95 84s37 84 95 84h44zM243 380h32v-480h-32v480z" />
    <glyph glyph-name="section" unicode="&#xa7;" horiz-adv-x="281" 
d="M185 86c43 -15 66 -34 66 -70c0 -48 -48 -81 -117 -81c-41 0 -90 13 -121 45l21 25c30 -30 63 -41 100 -41c51 0 84 21 84 50c0 35 -41 48 -74 58c-64 19 -121 35 -121 89c0 40 30 67 76 75c-46 17 -65 36 -65 71c0 47 43 78 105 78c44 0 82 -16 107 -39l-20 -25
c-20 21 -54 35 -89 35c-44 0 -71 -19 -71 -49c0 -36 41 -48 83 -62c53 -15 109 -31 109 -86c0 -38 -27 -65 -73 -73zM55 164c0 -34 41 -57 93 -57c47 0 78 20 78 49c0 34 -41 57 -93 57c-48 0 -78 -20 -78 -49z" />
    <glyph glyph-name="copyright" unicode="&#xa9;" horiz-adv-x="461" 
d="M231 -5c-113 0 -195 82 -195 195s82 195 195 195s195 -82 195 -195s-82 -195 -195 -195zM231 26c96 0 163 68 163 164s-67 164 -163 164s-164 -68 -164 -164s68 -164 164 -164zM233 84c-57 0 -100 45 -100 106s43 106 100 106c45 0 77 -25 90 -62l-31 -13
c-11 29 -33 47 -59 47c-42 0 -68 -30 -68 -78s26 -78 68 -78c26 0 48 18 59 47l31 -13c-13 -37 -45 -62 -90 -62z" />
    <glyph glyph-name="registered" unicode="&#xae;" horiz-adv-x="287" 
d="M144 385c58 0 100 -42 100 -100s-42 -100 -100 -100s-100 42 -100 100s42 100 100 100zM144 205c45 0 78 34 78 80s-33 80 -78 80c-46 0 -79 -34 -79 -80s33 -80 79 -80zM179 261c0 -3 2 -5 5 -5h4v-21h-10c-13 0 -21 8 -21 21v6c0 8 -3 11 -11 11h-23v-38h-20v102h44
c21 0 37 -13 37 -33c0 -11 -5 -19 -14 -23c6 -3 9 -8 9 -15v-5zM144 317h-21v-25h21c11 0 17 4 17 12c0 9 -6 13 -17 13z" />
    <glyph glyph-name="trademark" unicode="&#x2122;" horiz-adv-x="464" 
d="M183 380v-26h-68v-164h-25v164h-68v26h161zM410 380v-190h-25v164l-63 -164h-22l-63 164v-164h-26v190h42l58 -151l58 151h41z" />
    <glyph glyph-name="degree" unicode="&#xb0;" horiz-adv-x="197" 
d="M99 238c-42 0 -74 32 -74 74c0 40 33 73 74 73c40 0 73 -33 73 -73c0 -42 -32 -74 -73 -74zM99 267c25 0 44 19 44 45c0 25 -19 45 -44 45s-45 -20 -45 -45c0 -26 20 -45 45 -45z" />
    <glyph glyph-name="prime" unicode="&#x2032;" horiz-adv-x="300" 
d="M172 336l32 64h39l-45 -64h-26z" />
    <glyph glyph-name="bar" unicode="|" horiz-adv-x="160" 
d="M65 -60v460h31v-460h-31z" />
    <glyph glyph-name="brokenbar" unicode="&#xa6;" horiz-adv-x="160" 
d="M65 220v180h31v-180h-31zM96 120v-180h-31v180h31z" />
    <glyph glyph-name="dagger" unicode="&#x2020;" horiz-adv-x="232" 
d="M186 357v-24h-58v-96h-24v96h-58v24h58v43h24v-43h58z" />
    <glyph glyph-name="daggerdbl" unicode="&#x2021;" horiz-adv-x="232" 
d="M186 334h-58v-30h58v-25h-58v-42h-24v42h-58v25h58v30h-58v24h58v42h24v-42h58v-24z" />
    <glyph glyph-name="uni2116" unicode="&#x2116;" horiz-adv-x="623" 
d="M333 49v331h32v-380h-36l-232 331v-331h-32v380h36zM514 218c-46 0 -79 34 -79 81s33 81 79 81s79 -34 79 -81s-33 -81 -79 -81zM514 357c-31 0 -53 -24 -53 -58s22 -58 53 -58s53 24 53 58s-22 58 -53 58zM444 150v27h140v-27h-140z" />
    <glyph glyph-name="at.case" horiz-adv-x="425" 
d="M394 117h11v-27c-1 -1 -9 -2 -17 -2c-30 0 -44 15 -43 53c-21 -33 -65 -56 -114 -56c-58 0 -95 32 -95 84c0 68 64 82 111 90c88 15 91 27 91 34c0 36 -51 63 -109 63c-93 0 -161 -71 -161 -167c0 -99 72 -170 174 -170c34 0 65 8 98 29l14 -26c-38 -22 -75 -32 -113 -32
c-119 0 -205 85 -205 200c0 112 83 195 195 195c80 0 142 -41 142 -115v-130c0 -17 6 -23 21 -23zM234 114c60 0 109 41 109 94v54c-17 -15 -42 -20 -80 -26c-47 -8 -94 -18 -94 -68c0 -34 24 -54 65 -54z" />
    <glyph glyph-name="bar.case" horiz-adv-x="160" 
d="M65 0v380h31v-380h-31z" />
    <glyph glyph-name="brokenbar.case" horiz-adv-x="160" 
d="M65 240v140h31v-140h-31zM96 140v-140h-31v140h31z" />
    <glyph glyph-name="dagger.case" horiz-adv-x="232" 
d="M186 337v-24h-58v-96h-24v96h-58v24h58v43h24v-43h58z" />
    <glyph glyph-name="daggerdbl.case" horiz-adv-x="232" 
d="M186 314h-58v-30h58v-25h-58v-42h-24v42h-58v25h58v30h-58v24h58v42h24v-42h58v-24z" />
    <glyph glyph-name="uni02BC" unicode="&#x2bc;" horiz-adv-x="85" 
d="M20 287v22h9c10 0 15 9 15 21v11h-24v39h45v-47c0 -30 -14 -46 -39 -46h-6z" />
    <glyph glyph-name="uni0308" unicode="&#x308;" horiz-adv-x="0" 
d="M-242 353v38h39v-38h-39zM-157 353v38h39v-38h-39z" />
    <glyph glyph-name="uni0307" unicode="&#x307;" horiz-adv-x="0" 
d="M-199 353v38h38v-38h-38z" />
    <glyph glyph-name="gravecomb" unicode="&#x300;" horiz-adv-x="0" 
d="M-172 336h-26l-45 64h39z" />
    <glyph glyph-name="acutecomb" unicode="&#x301;" horiz-adv-x="0" 
d="M-188 336l32 64h39l-45 -64h-26z" />
    <glyph glyph-name="uni030B" unicode="&#x30b;" horiz-adv-x="0" 
d="M-234 336l33 64h39l-45 -64h-27zM-154 336l33 64h38l-44 -64h-27z" />
    <glyph glyph-name="uni0302" unicode="&#x302;" horiz-adv-x="0" 
d="M-104 336h-32l-41 43l-42 -43h-31l53 64h39z" />
    <glyph glyph-name="uni030C" unicode="&#x30c;" horiz-adv-x="0" 
d="M-138 400h31l-54 -64h-38l-54 64h32l41 -43z" />
    <glyph glyph-name="uni0306" unicode="&#x306;" horiz-adv-x="0" 
d="M-180 333c-43 0 -70 24 -77 66l28 4c4 -26 22 -43 49 -43s46 17 50 43l27 -4c-7 -42 -34 -66 -77 -66z" />
    <glyph glyph-name="uni030A" unicode="&#x30a;" horiz-adv-x="0" 
d="M-180 333c-31 0 -55 24 -55 54c0 31 24 55 55 55s55 -24 55 -55c0 -30 -24 -54 -55 -54zM-180 357c17 0 30 13 30 30s-13 30 -30 30s-30 -13 -30 -30s13 -30 30 -30z" />
    <glyph glyph-name="tildecomb" unicode="&#x303;" horiz-adv-x="0" 
d="M-99 388c-12 -27 -28 -40 -49 -40c-26 0 -43 25 -62 25c-10 0 -19 -8 -28 -27l-21 11c12 27 28 40 49 40c26 0 43 -25 62 -25c10 0 19 8 28 27z" />
    <glyph glyph-name="uni0304" unicode="&#x304;" horiz-adv-x="0" 
d="M-256 360v25h152v-25h-152z" />
    <glyph glyph-name="uni0312" unicode="&#x312;" horiz-adv-x="0" 
d="M-169 397c-6 0 -10 -5 -10 -13v-10h18v-39h-38v45c0 26 12 39 33 39h5v-22h-8z" />
    <glyph glyph-name="uni0326" unicode="&#x326;" horiz-adv-x="0" 
d="M-199 -35h38v-44c0 -26 -12 -39 -33 -39h-5v22h8c6 0 10 5 10 13v10h-18v38z" />
    <glyph glyph-name="uni0327" unicode="&#x327;" horiz-adv-x="0" 
d="M-161 -25c28 0 48 -17 48 -41c0 -25 -28 -44 -65 -44c-23 0 -46 7 -62 18l16 24c17 -11 32 -16 48 -16c20 0 31 7 31 20c0 11 -10 17 -30 17c-9 0 -14 -2 -20 -5l-18 12l22 40h30l-15 -26c5 1 10 1 15 1z" />
    <glyph glyph-name="uni0328" unicode="&#x328;" horiz-adv-x="0" 
d="M-183 12l20 -12c-28 -10 -54 -29 -54 -50c0 -15 10 -23 25 -23c7 0 16 2 24 6l13 -22c-12 -7 -24 -11 -37 -11c-32 0 -53 21 -53 49s28 53 62 63z" />
    <glyph glyph-name="dieresis" unicode="&#xa8;" horiz-adv-x="160" 
d="M48 353v38h39v-38h-39zM133 353v38h39v-38h-39z" />
    <glyph glyph-name="dotaccent" unicode="&#x2d9;" horiz-adv-x="160" 
d="M91 353v38h38v-38h-38z" />
    <glyph glyph-name="grave" unicode="`" horiz-adv-x="160" 
d="M118 336h-26l-45 64h39z" />
    <glyph glyph-name="acute" unicode="&#xb4;" horiz-adv-x="160" 
d="M102 336l32 64h39l-45 -64h-26z" />
    <glyph glyph-name="hungarumlaut" unicode="&#x2dd;" horiz-adv-x="160" 
d="M56 336l33 64h39l-45 -64h-27zM136 336l33 64h38l-44 -64h-27z" />
    <glyph glyph-name="circumflex" unicode="&#x2c6;" horiz-adv-x="160" 
d="M186 336h-32l-41 43l-42 -43h-31l53 64h39z" />
    <glyph glyph-name="caron" unicode="&#x2c7;" horiz-adv-x="160" 
d="M152 400h31l-54 -64h-38l-54 64h32l41 -43z" />
    <glyph glyph-name="breve" unicode="&#x2d8;" horiz-adv-x="160" 
d="M110 333c-43 0 -70 24 -77 66l28 4c4 -26 22 -43 49 -43s46 17 50 43l27 -4c-7 -42 -34 -66 -77 -66z" />
    <glyph glyph-name="ring" unicode="&#x2da;" horiz-adv-x="160" 
d="M110 333c-31 0 -55 24 -55 54c0 31 24 55 55 55s55 -24 55 -55c0 -30 -24 -54 -55 -54zM110 357c17 0 30 13 30 30s-13 30 -30 30s-30 -13 -30 -30s13 -30 30 -30z" />
    <glyph glyph-name="tilde" unicode="&#x2dc;" horiz-adv-x="160" 
d="M191 388c-12 -27 -28 -40 -49 -40c-26 0 -43 25 -62 25c-10 0 -19 -8 -28 -27l-21 11c12 27 28 40 49 40c26 0 43 -25 62 -25c10 0 19 8 28 27z" />
    <glyph glyph-name="macron" unicode="&#xaf;" horiz-adv-x="160" 
d="M34 360v25h152v-25h-152z" />
    <glyph glyph-name="cedilla" unicode="&#xb8;" horiz-adv-x="160" 
d="M129 -25c28 0 48 -17 48 -41c0 -25 -28 -44 -65 -44c-23 0 -46 7 -62 18l16 24c17 -11 32 -16 48 -16c20 0 31 7 31 20c0 11 -10 17 -30 17c-9 0 -14 -2 -20 -5l-18 12l22 40h30l-15 -26c5 1 10 1 15 1z" />
    <glyph glyph-name="ogonek" unicode="&#x2db;" horiz-adv-x="160" 
d="M107 12l20 -12c-28 -10 -54 -29 -54 -50c0 -15 10 -23 25 -23c7 0 16 2 24 6l13 -22c-12 -7 -24 -11 -37 -11c-32 0 -53 21 -53 49s28 53 62 63z" />
    <glyph glyph-name="caron.alt" 
d="M220 327v73h33l-9 -73h-24z" />
    <glyph glyph-name="uni0308.double" horiz-adv-x="0" 
d="M-323 353v38h39v-38h-39zM-241 353v38h39v-38h-39zM-158 353v38h39v-38h-39zM-76 353v38h39v-38h-39z" />
    <glyph glyph-name="dieresistonos" unicode="&#x385;" 
d="M152 353l33 64h38l-44 -64h-27zM105 353v38h39v-38h-39zM216 353v38h39v-38h-39z" />
    <glyph glyph-name="brevecombcy" horiz-adv-x="0" 
d="M-180 333c-45 0 -75 25 -80 66l29 4c3 -28 21 -44 51 -44s48 16 51 44l29 -4c-5 -41 -35 -66 -80 -66z" />
    <glyph glyph-name="strokecomb" 
d="M100 181v28h160v-28h-160z" />
    </font>
</defs>
</svg>
